%TF.GenerationSoftware,KiCad,Pcbnew,9.0.2*%
%TF.CreationDate,2025-07-09T15:02:30-05:00*%
%TF.ProjectId,main,6d61696e-2e6b-4696-9361-645f70636258,rev?*%
%TF.SameCoordinates,Original*%
%TF.FileFunction,Legend,Bot*%
%TF.FilePolarity,Positive*%
%FSLAX46Y46*%
G04 Gerber Fmt 4.6, Leading zero omitted, Abs format (unit mm)*
G04 Created by KiCad (PCBNEW 9.0.2) date 2025-07-09 15:02:30*
%MOMM*%
%LPD*%
G01*
G04 APERTURE LIST*
G04 Aperture macros list*
%AMRoundRect*
0 Rectangle with rounded corners*
0 $1 Rounding radius*
0 $2 $3 $4 $5 $6 $7 $8 $9 X,Y pos of 4 corners*
0 Add a 4 corners polygon primitive as box body*
4,1,4,$2,$3,$4,$5,$6,$7,$8,$9,$2,$3,0*
0 Add four circle primitives for the rounded corners*
1,1,$1+$1,$2,$3*
1,1,$1+$1,$4,$5*
1,1,$1+$1,$6,$7*
1,1,$1+$1,$8,$9*
0 Add four rect primitives between the rounded corners*
20,1,$1+$1,$2,$3,$4,$5,0*
20,1,$1+$1,$4,$5,$6,$7,0*
20,1,$1+$1,$6,$7,$8,$9,0*
20,1,$1+$1,$8,$9,$2,$3,0*%
G04 Aperture macros list end*
%ADD10C,0.010000*%
%ADD11C,0.675000*%
%ADD12O,1.054000X1.654000*%
%ADD13R,1.730000X2.030000*%
%ADD14O,1.730000X2.030000*%
%ADD15C,3.250000*%
%ADD16C,1.890000*%
%ADD17R,1.900000X1.900000*%
%ADD18C,1.900000*%
%ADD19C,2.600000*%
%ADD20RoundRect,0.250000X-0.450000X0.450000X-0.450000X-0.450000X0.450000X-0.450000X0.450000X0.450000X0*%
%ADD21C,1.400000*%
G04 APERTURE END LIST*
%LPC*%
D10*
%TO.C,J4*%
X129085000Y-59403000D02*
X129108000Y-59405000D01*
X129131000Y-59408000D01*
X129153000Y-59412000D01*
X129176000Y-59417000D01*
X129198000Y-59424000D01*
X129219000Y-59432000D01*
X129240000Y-59440000D01*
X129261000Y-59450000D01*
X129281000Y-59461000D01*
X129301000Y-59473000D01*
X129320000Y-59486000D01*
X129338000Y-59500000D01*
X129355000Y-59515000D01*
X129372000Y-59531000D01*
X129388000Y-59547000D01*
X129403000Y-59565000D01*
X129416000Y-59583000D01*
X129429000Y-59602000D01*
X129441000Y-59621000D01*
X129452000Y-59641000D01*
X129462000Y-59662000D01*
X129471000Y-59683000D01*
X129479000Y-59705000D01*
X129485000Y-59727000D01*
X129490000Y-59749000D01*
X129495000Y-59772000D01*
X129498000Y-59794000D01*
X129499000Y-59817000D01*
X129500000Y-59840000D01*
X129499000Y-59863000D01*
X129498000Y-59886000D01*
X129495000Y-59908000D01*
X129490000Y-59931000D01*
X129485000Y-59953000D01*
X129479000Y-59975000D01*
X129471000Y-59997000D01*
X129462000Y-60018000D01*
X129452000Y-60039000D01*
X129441000Y-60059000D01*
X129429000Y-60078000D01*
X129416000Y-60097000D01*
X129403000Y-60115000D01*
X129388000Y-60133000D01*
X129372000Y-60149000D01*
X129355000Y-60165000D01*
X129338000Y-60180000D01*
X129320000Y-60194000D01*
X129301000Y-60207000D01*
X129281000Y-60219000D01*
X129261000Y-60230000D01*
X129240000Y-60240000D01*
X129219000Y-60248000D01*
X129198000Y-60256000D01*
X129176000Y-60263000D01*
X129153000Y-60268000D01*
X129131000Y-60272000D01*
X129108000Y-60275000D01*
X129085000Y-60277000D01*
X129062000Y-60277000D01*
X128737000Y-60277000D01*
X128715000Y-60277000D01*
X128692000Y-60275000D01*
X128669000Y-60272000D01*
X128647000Y-60268000D01*
X128624000Y-60263000D01*
X128602000Y-60256000D01*
X128581000Y-60248000D01*
X128560000Y-60240000D01*
X128539000Y-60230000D01*
X128519000Y-60219000D01*
X128499000Y-60207000D01*
X128480000Y-60194000D01*
X128462000Y-60180000D01*
X128445000Y-60165000D01*
X128428000Y-60149000D01*
X128412000Y-60133000D01*
X128397000Y-60115000D01*
X128384000Y-60097000D01*
X128371000Y-60078000D01*
X128359000Y-60059000D01*
X128348000Y-60039000D01*
X128338000Y-60018000D01*
X128329000Y-59997000D01*
X128321000Y-59975000D01*
X128315000Y-59953000D01*
X128310000Y-59931000D01*
X128305000Y-59908000D01*
X128302000Y-59886000D01*
X128301000Y-59863000D01*
X128300000Y-59840000D01*
X128301000Y-59817000D01*
X128302000Y-59794000D01*
X128305000Y-59772000D01*
X128310000Y-59749000D01*
X128315000Y-59727000D01*
X128321000Y-59705000D01*
X128329000Y-59683000D01*
X128338000Y-59662000D01*
X128348000Y-59641000D01*
X128359000Y-59621000D01*
X128371000Y-59602000D01*
X128384000Y-59583000D01*
X128397000Y-59565000D01*
X128412000Y-59547000D01*
X128428000Y-59531000D01*
X128445000Y-59515000D01*
X128462000Y-59500000D01*
X128480000Y-59486000D01*
X128499000Y-59473000D01*
X128519000Y-59461000D01*
X128539000Y-59450000D01*
X128560000Y-59440000D01*
X128581000Y-59432000D01*
X128602000Y-59424000D01*
X128624000Y-59417000D01*
X128647000Y-59412000D01*
X128669000Y-59408000D01*
X128692000Y-59405000D01*
X128715000Y-59403000D01*
X128737500Y-59402500D01*
X128737000Y-59402000D01*
X129062000Y-59402000D01*
X129085000Y-59403000D01*
G36*
X129085000Y-59403000D02*
G01*
X129108000Y-59405000D01*
X129131000Y-59408000D01*
X129153000Y-59412000D01*
X129176000Y-59417000D01*
X129198000Y-59424000D01*
X129219000Y-59432000D01*
X129240000Y-59440000D01*
X129261000Y-59450000D01*
X129281000Y-59461000D01*
X129301000Y-59473000D01*
X129320000Y-59486000D01*
X129338000Y-59500000D01*
X129355000Y-59515000D01*
X129372000Y-59531000D01*
X129388000Y-59547000D01*
X129403000Y-59565000D01*
X129416000Y-59583000D01*
X129429000Y-59602000D01*
X129441000Y-59621000D01*
X129452000Y-59641000D01*
X129462000Y-59662000D01*
X129471000Y-59683000D01*
X129479000Y-59705000D01*
X129485000Y-59727000D01*
X129490000Y-59749000D01*
X129495000Y-59772000D01*
X129498000Y-59794000D01*
X129499000Y-59817000D01*
X129500000Y-59840000D01*
X129499000Y-59863000D01*
X129498000Y-59886000D01*
X129495000Y-59908000D01*
X129490000Y-59931000D01*
X129485000Y-59953000D01*
X129479000Y-59975000D01*
X129471000Y-59997000D01*
X129462000Y-60018000D01*
X129452000Y-60039000D01*
X129441000Y-60059000D01*
X129429000Y-60078000D01*
X129416000Y-60097000D01*
X129403000Y-60115000D01*
X129388000Y-60133000D01*
X129372000Y-60149000D01*
X129355000Y-60165000D01*
X129338000Y-60180000D01*
X129320000Y-60194000D01*
X129301000Y-60207000D01*
X129281000Y-60219000D01*
X129261000Y-60230000D01*
X129240000Y-60240000D01*
X129219000Y-60248000D01*
X129198000Y-60256000D01*
X129176000Y-60263000D01*
X129153000Y-60268000D01*
X129131000Y-60272000D01*
X129108000Y-60275000D01*
X129085000Y-60277000D01*
X129062000Y-60277000D01*
X128737000Y-60277000D01*
X128715000Y-60277000D01*
X128692000Y-60275000D01*
X128669000Y-60272000D01*
X128647000Y-60268000D01*
X128624000Y-60263000D01*
X128602000Y-60256000D01*
X128581000Y-60248000D01*
X128560000Y-60240000D01*
X128539000Y-60230000D01*
X128519000Y-60219000D01*
X128499000Y-60207000D01*
X128480000Y-60194000D01*
X128462000Y-60180000D01*
X128445000Y-60165000D01*
X128428000Y-60149000D01*
X128412000Y-60133000D01*
X128397000Y-60115000D01*
X128384000Y-60097000D01*
X128371000Y-60078000D01*
X128359000Y-60059000D01*
X128348000Y-60039000D01*
X128338000Y-60018000D01*
X128329000Y-59997000D01*
X128321000Y-59975000D01*
X128315000Y-59953000D01*
X128310000Y-59931000D01*
X128305000Y-59908000D01*
X128302000Y-59886000D01*
X128301000Y-59863000D01*
X128300000Y-59840000D01*
X128301000Y-59817000D01*
X128302000Y-59794000D01*
X128305000Y-59772000D01*
X128310000Y-59749000D01*
X128315000Y-59727000D01*
X128321000Y-59705000D01*
X128329000Y-59683000D01*
X128338000Y-59662000D01*
X128348000Y-59641000D01*
X128359000Y-59621000D01*
X128371000Y-59602000D01*
X128384000Y-59583000D01*
X128397000Y-59565000D01*
X128412000Y-59547000D01*
X128428000Y-59531000D01*
X128445000Y-59515000D01*
X128462000Y-59500000D01*
X128480000Y-59486000D01*
X128499000Y-59473000D01*
X128519000Y-59461000D01*
X128539000Y-59450000D01*
X128560000Y-59440000D01*
X128581000Y-59432000D01*
X128602000Y-59424000D01*
X128624000Y-59417000D01*
X128647000Y-59412000D01*
X128669000Y-59408000D01*
X128692000Y-59405000D01*
X128715000Y-59403000D01*
X128737500Y-59402500D01*
X128737000Y-59402000D01*
X129062000Y-59402000D01*
X129085000Y-59403000D01*
G37*
%TO.C,J1*%
X151585000Y-59403000D02*
X151608000Y-59405000D01*
X151631000Y-59408000D01*
X151653000Y-59412000D01*
X151676000Y-59417000D01*
X151698000Y-59424000D01*
X151719000Y-59432000D01*
X151740000Y-59440000D01*
X151761000Y-59450000D01*
X151781000Y-59461000D01*
X151801000Y-59473000D01*
X151820000Y-59486000D01*
X151838000Y-59500000D01*
X151855000Y-59515000D01*
X151872000Y-59531000D01*
X151888000Y-59547000D01*
X151903000Y-59565000D01*
X151916000Y-59583000D01*
X151929000Y-59602000D01*
X151941000Y-59621000D01*
X151952000Y-59641000D01*
X151962000Y-59662000D01*
X151971000Y-59683000D01*
X151979000Y-59705000D01*
X151985000Y-59727000D01*
X151990000Y-59749000D01*
X151995000Y-59772000D01*
X151998000Y-59794000D01*
X151999000Y-59817000D01*
X152000000Y-59840000D01*
X151999000Y-59863000D01*
X151998000Y-59886000D01*
X151995000Y-59908000D01*
X151990000Y-59931000D01*
X151985000Y-59953000D01*
X151979000Y-59975000D01*
X151971000Y-59997000D01*
X151962000Y-60018000D01*
X151952000Y-60039000D01*
X151941000Y-60059000D01*
X151929000Y-60078000D01*
X151916000Y-60097000D01*
X151903000Y-60115000D01*
X151888000Y-60133000D01*
X151872000Y-60149000D01*
X151855000Y-60165000D01*
X151838000Y-60180000D01*
X151820000Y-60194000D01*
X151801000Y-60207000D01*
X151781000Y-60219000D01*
X151761000Y-60230000D01*
X151740000Y-60240000D01*
X151719000Y-60248000D01*
X151698000Y-60256000D01*
X151676000Y-60263000D01*
X151653000Y-60268000D01*
X151631000Y-60272000D01*
X151608000Y-60275000D01*
X151585000Y-60277000D01*
X151562000Y-60277000D01*
X151237000Y-60277000D01*
X151215000Y-60277000D01*
X151192000Y-60275000D01*
X151169000Y-60272000D01*
X151147000Y-60268000D01*
X151124000Y-60263000D01*
X151102000Y-60256000D01*
X151081000Y-60248000D01*
X151060000Y-60240000D01*
X151039000Y-60230000D01*
X151019000Y-60219000D01*
X150999000Y-60207000D01*
X150980000Y-60194000D01*
X150962000Y-60180000D01*
X150945000Y-60165000D01*
X150928000Y-60149000D01*
X150912000Y-60133000D01*
X150897000Y-60115000D01*
X150884000Y-60097000D01*
X150871000Y-60078000D01*
X150859000Y-60059000D01*
X150848000Y-60039000D01*
X150838000Y-60018000D01*
X150829000Y-59997000D01*
X150821000Y-59975000D01*
X150815000Y-59953000D01*
X150810000Y-59931000D01*
X150805000Y-59908000D01*
X150802000Y-59886000D01*
X150801000Y-59863000D01*
X150800000Y-59840000D01*
X150801000Y-59817000D01*
X150802000Y-59794000D01*
X150805000Y-59772000D01*
X150810000Y-59749000D01*
X150815000Y-59727000D01*
X150821000Y-59705000D01*
X150829000Y-59683000D01*
X150838000Y-59662000D01*
X150848000Y-59641000D01*
X150859000Y-59621000D01*
X150871000Y-59602000D01*
X150884000Y-59583000D01*
X150897000Y-59565000D01*
X150912000Y-59547000D01*
X150928000Y-59531000D01*
X150945000Y-59515000D01*
X150962000Y-59500000D01*
X150980000Y-59486000D01*
X150999000Y-59473000D01*
X151019000Y-59461000D01*
X151039000Y-59450000D01*
X151060000Y-59440000D01*
X151081000Y-59432000D01*
X151102000Y-59424000D01*
X151124000Y-59417000D01*
X151147000Y-59412000D01*
X151169000Y-59408000D01*
X151192000Y-59405000D01*
X151215000Y-59403000D01*
X151237500Y-59402500D01*
X151237000Y-59402000D01*
X151562000Y-59402000D01*
X151585000Y-59403000D01*
G36*
X151585000Y-59403000D02*
G01*
X151608000Y-59405000D01*
X151631000Y-59408000D01*
X151653000Y-59412000D01*
X151676000Y-59417000D01*
X151698000Y-59424000D01*
X151719000Y-59432000D01*
X151740000Y-59440000D01*
X151761000Y-59450000D01*
X151781000Y-59461000D01*
X151801000Y-59473000D01*
X151820000Y-59486000D01*
X151838000Y-59500000D01*
X151855000Y-59515000D01*
X151872000Y-59531000D01*
X151888000Y-59547000D01*
X151903000Y-59565000D01*
X151916000Y-59583000D01*
X151929000Y-59602000D01*
X151941000Y-59621000D01*
X151952000Y-59641000D01*
X151962000Y-59662000D01*
X151971000Y-59683000D01*
X151979000Y-59705000D01*
X151985000Y-59727000D01*
X151990000Y-59749000D01*
X151995000Y-59772000D01*
X151998000Y-59794000D01*
X151999000Y-59817000D01*
X152000000Y-59840000D01*
X151999000Y-59863000D01*
X151998000Y-59886000D01*
X151995000Y-59908000D01*
X151990000Y-59931000D01*
X151985000Y-59953000D01*
X151979000Y-59975000D01*
X151971000Y-59997000D01*
X151962000Y-60018000D01*
X151952000Y-60039000D01*
X151941000Y-60059000D01*
X151929000Y-60078000D01*
X151916000Y-60097000D01*
X151903000Y-60115000D01*
X151888000Y-60133000D01*
X151872000Y-60149000D01*
X151855000Y-60165000D01*
X151838000Y-60180000D01*
X151820000Y-60194000D01*
X151801000Y-60207000D01*
X151781000Y-60219000D01*
X151761000Y-60230000D01*
X151740000Y-60240000D01*
X151719000Y-60248000D01*
X151698000Y-60256000D01*
X151676000Y-60263000D01*
X151653000Y-60268000D01*
X151631000Y-60272000D01*
X151608000Y-60275000D01*
X151585000Y-60277000D01*
X151562000Y-60277000D01*
X151237000Y-60277000D01*
X151215000Y-60277000D01*
X151192000Y-60275000D01*
X151169000Y-60272000D01*
X151147000Y-60268000D01*
X151124000Y-60263000D01*
X151102000Y-60256000D01*
X151081000Y-60248000D01*
X151060000Y-60240000D01*
X151039000Y-60230000D01*
X151019000Y-60219000D01*
X150999000Y-60207000D01*
X150980000Y-60194000D01*
X150962000Y-60180000D01*
X150945000Y-60165000D01*
X150928000Y-60149000D01*
X150912000Y-60133000D01*
X150897000Y-60115000D01*
X150884000Y-60097000D01*
X150871000Y-60078000D01*
X150859000Y-60059000D01*
X150848000Y-60039000D01*
X150838000Y-60018000D01*
X150829000Y-59997000D01*
X150821000Y-59975000D01*
X150815000Y-59953000D01*
X150810000Y-59931000D01*
X150805000Y-59908000D01*
X150802000Y-59886000D01*
X150801000Y-59863000D01*
X150800000Y-59840000D01*
X150801000Y-59817000D01*
X150802000Y-59794000D01*
X150805000Y-59772000D01*
X150810000Y-59749000D01*
X150815000Y-59727000D01*
X150821000Y-59705000D01*
X150829000Y-59683000D01*
X150838000Y-59662000D01*
X150848000Y-59641000D01*
X150859000Y-59621000D01*
X150871000Y-59602000D01*
X150884000Y-59583000D01*
X150897000Y-59565000D01*
X150912000Y-59547000D01*
X150928000Y-59531000D01*
X150945000Y-59515000D01*
X150962000Y-59500000D01*
X150980000Y-59486000D01*
X150999000Y-59473000D01*
X151019000Y-59461000D01*
X151039000Y-59450000D01*
X151060000Y-59440000D01*
X151081000Y-59432000D01*
X151102000Y-59424000D01*
X151124000Y-59417000D01*
X151147000Y-59412000D01*
X151169000Y-59408000D01*
X151192000Y-59405000D01*
X151215000Y-59403000D01*
X151237500Y-59402500D01*
X151237000Y-59402000D01*
X151562000Y-59402000D01*
X151585000Y-59403000D01*
G37*
%TO.C,J2*%
X140335000Y-59403000D02*
X140358000Y-59405000D01*
X140381000Y-59408000D01*
X140403000Y-59412000D01*
X140426000Y-59417000D01*
X140448000Y-59424000D01*
X140469000Y-59432000D01*
X140490000Y-59440000D01*
X140511000Y-59450000D01*
X140531000Y-59461000D01*
X140551000Y-59473000D01*
X140570000Y-59486000D01*
X140588000Y-59500000D01*
X140605000Y-59515000D01*
X140622000Y-59531000D01*
X140638000Y-59547000D01*
X140653000Y-59565000D01*
X140666000Y-59583000D01*
X140679000Y-59602000D01*
X140691000Y-59621000D01*
X140702000Y-59641000D01*
X140712000Y-59662000D01*
X140721000Y-59683000D01*
X140729000Y-59705000D01*
X140735000Y-59727000D01*
X140740000Y-59749000D01*
X140745000Y-59772000D01*
X140748000Y-59794000D01*
X140749000Y-59817000D01*
X140750000Y-59840000D01*
X140749000Y-59863000D01*
X140748000Y-59886000D01*
X140745000Y-59908000D01*
X140740000Y-59931000D01*
X140735000Y-59953000D01*
X140729000Y-59975000D01*
X140721000Y-59997000D01*
X140712000Y-60018000D01*
X140702000Y-60039000D01*
X140691000Y-60059000D01*
X140679000Y-60078000D01*
X140666000Y-60097000D01*
X140653000Y-60115000D01*
X140638000Y-60133000D01*
X140622000Y-60149000D01*
X140605000Y-60165000D01*
X140588000Y-60180000D01*
X140570000Y-60194000D01*
X140551000Y-60207000D01*
X140531000Y-60219000D01*
X140511000Y-60230000D01*
X140490000Y-60240000D01*
X140469000Y-60248000D01*
X140448000Y-60256000D01*
X140426000Y-60263000D01*
X140403000Y-60268000D01*
X140381000Y-60272000D01*
X140358000Y-60275000D01*
X140335000Y-60277000D01*
X140312000Y-60277000D01*
X139987000Y-60277000D01*
X139965000Y-60277000D01*
X139942000Y-60275000D01*
X139919000Y-60272000D01*
X139897000Y-60268000D01*
X139874000Y-60263000D01*
X139852000Y-60256000D01*
X139831000Y-60248000D01*
X139810000Y-60240000D01*
X139789000Y-60230000D01*
X139769000Y-60219000D01*
X139749000Y-60207000D01*
X139730000Y-60194000D01*
X139712000Y-60180000D01*
X139695000Y-60165000D01*
X139678000Y-60149000D01*
X139662000Y-60133000D01*
X139647000Y-60115000D01*
X139634000Y-60097000D01*
X139621000Y-60078000D01*
X139609000Y-60059000D01*
X139598000Y-60039000D01*
X139588000Y-60018000D01*
X139579000Y-59997000D01*
X139571000Y-59975000D01*
X139565000Y-59953000D01*
X139560000Y-59931000D01*
X139555000Y-59908000D01*
X139552000Y-59886000D01*
X139551000Y-59863000D01*
X139550000Y-59840000D01*
X139551000Y-59817000D01*
X139552000Y-59794000D01*
X139555000Y-59772000D01*
X139560000Y-59749000D01*
X139565000Y-59727000D01*
X139571000Y-59705000D01*
X139579000Y-59683000D01*
X139588000Y-59662000D01*
X139598000Y-59641000D01*
X139609000Y-59621000D01*
X139621000Y-59602000D01*
X139634000Y-59583000D01*
X139647000Y-59565000D01*
X139662000Y-59547000D01*
X139678000Y-59531000D01*
X139695000Y-59515000D01*
X139712000Y-59500000D01*
X139730000Y-59486000D01*
X139749000Y-59473000D01*
X139769000Y-59461000D01*
X139789000Y-59450000D01*
X139810000Y-59440000D01*
X139831000Y-59432000D01*
X139852000Y-59424000D01*
X139874000Y-59417000D01*
X139897000Y-59412000D01*
X139919000Y-59408000D01*
X139942000Y-59405000D01*
X139965000Y-59403000D01*
X139987500Y-59402500D01*
X139987000Y-59402000D01*
X140312000Y-59402000D01*
X140335000Y-59403000D01*
G36*
X140335000Y-59403000D02*
G01*
X140358000Y-59405000D01*
X140381000Y-59408000D01*
X140403000Y-59412000D01*
X140426000Y-59417000D01*
X140448000Y-59424000D01*
X140469000Y-59432000D01*
X140490000Y-59440000D01*
X140511000Y-59450000D01*
X140531000Y-59461000D01*
X140551000Y-59473000D01*
X140570000Y-59486000D01*
X140588000Y-59500000D01*
X140605000Y-59515000D01*
X140622000Y-59531000D01*
X140638000Y-59547000D01*
X140653000Y-59565000D01*
X140666000Y-59583000D01*
X140679000Y-59602000D01*
X140691000Y-59621000D01*
X140702000Y-59641000D01*
X140712000Y-59662000D01*
X140721000Y-59683000D01*
X140729000Y-59705000D01*
X140735000Y-59727000D01*
X140740000Y-59749000D01*
X140745000Y-59772000D01*
X140748000Y-59794000D01*
X140749000Y-59817000D01*
X140750000Y-59840000D01*
X140749000Y-59863000D01*
X140748000Y-59886000D01*
X140745000Y-59908000D01*
X140740000Y-59931000D01*
X140735000Y-59953000D01*
X140729000Y-59975000D01*
X140721000Y-59997000D01*
X140712000Y-60018000D01*
X140702000Y-60039000D01*
X140691000Y-60059000D01*
X140679000Y-60078000D01*
X140666000Y-60097000D01*
X140653000Y-60115000D01*
X140638000Y-60133000D01*
X140622000Y-60149000D01*
X140605000Y-60165000D01*
X140588000Y-60180000D01*
X140570000Y-60194000D01*
X140551000Y-60207000D01*
X140531000Y-60219000D01*
X140511000Y-60230000D01*
X140490000Y-60240000D01*
X140469000Y-60248000D01*
X140448000Y-60256000D01*
X140426000Y-60263000D01*
X140403000Y-60268000D01*
X140381000Y-60272000D01*
X140358000Y-60275000D01*
X140335000Y-60277000D01*
X140312000Y-60277000D01*
X139987000Y-60277000D01*
X139965000Y-60277000D01*
X139942000Y-60275000D01*
X139919000Y-60272000D01*
X139897000Y-60268000D01*
X139874000Y-60263000D01*
X139852000Y-60256000D01*
X139831000Y-60248000D01*
X139810000Y-60240000D01*
X139789000Y-60230000D01*
X139769000Y-60219000D01*
X139749000Y-60207000D01*
X139730000Y-60194000D01*
X139712000Y-60180000D01*
X139695000Y-60165000D01*
X139678000Y-60149000D01*
X139662000Y-60133000D01*
X139647000Y-60115000D01*
X139634000Y-60097000D01*
X139621000Y-60078000D01*
X139609000Y-60059000D01*
X139598000Y-60039000D01*
X139588000Y-60018000D01*
X139579000Y-59997000D01*
X139571000Y-59975000D01*
X139565000Y-59953000D01*
X139560000Y-59931000D01*
X139555000Y-59908000D01*
X139552000Y-59886000D01*
X139551000Y-59863000D01*
X139550000Y-59840000D01*
X139551000Y-59817000D01*
X139552000Y-59794000D01*
X139555000Y-59772000D01*
X139560000Y-59749000D01*
X139565000Y-59727000D01*
X139571000Y-59705000D01*
X139579000Y-59683000D01*
X139588000Y-59662000D01*
X139598000Y-59641000D01*
X139609000Y-59621000D01*
X139621000Y-59602000D01*
X139634000Y-59583000D01*
X139647000Y-59565000D01*
X139662000Y-59547000D01*
X139678000Y-59531000D01*
X139695000Y-59515000D01*
X139712000Y-59500000D01*
X139730000Y-59486000D01*
X139749000Y-59473000D01*
X139769000Y-59461000D01*
X139789000Y-59450000D01*
X139810000Y-59440000D01*
X139831000Y-59432000D01*
X139852000Y-59424000D01*
X139874000Y-59417000D01*
X139897000Y-59412000D01*
X139919000Y-59408000D01*
X139942000Y-59405000D01*
X139965000Y-59403000D01*
X139987500Y-59402500D01*
X139987000Y-59402000D01*
X140312000Y-59402000D01*
X140335000Y-59403000D01*
G37*
%TD*%
D11*
%TO.C,J4*%
X136100000Y-59840000D03*
X128900000Y-59840000D03*
D12*
X136990000Y-55140000D03*
X128010000Y-55140000D03*
X136630000Y-58590000D03*
X128370000Y-58590000D03*
%TD*%
D11*
%TO.C,J1*%
X158600000Y-59840000D03*
X151400000Y-59840000D03*
D12*
X159490000Y-55140000D03*
X150510000Y-55140000D03*
X159130000Y-58590000D03*
X150870000Y-58590000D03*
%TD*%
D13*
%TO.C,M1*%
X110200000Y-85375000D03*
D14*
X112740000Y-85375000D03*
X115280000Y-85375000D03*
%TD*%
D13*
%TO.C,M2*%
X119200000Y-77875000D03*
D14*
X121740000Y-77875000D03*
X124280000Y-77875000D03*
%TD*%
D15*
%TO.C,J6*%
X178215000Y-59030000D03*
X166785000Y-59030000D03*
D16*
X166175000Y-55650000D03*
X168715000Y-54130000D03*
X176285000Y-55650000D03*
X178825000Y-54130000D03*
D17*
X176945000Y-65370000D03*
D18*
X175675000Y-67910000D03*
X174405000Y-65370000D03*
X173135000Y-67910000D03*
X171865000Y-65370000D03*
X170595000Y-67910000D03*
X169325000Y-65370000D03*
X168055000Y-67910000D03*
D19*
X180275000Y-62080000D03*
X164725000Y-62080000D03*
%TD*%
D11*
%TO.C,J2*%
X147350000Y-59840000D03*
X140150000Y-59840000D03*
D12*
X148240000Y-55140000D03*
X139260000Y-55140000D03*
X147880000Y-58590000D03*
X139620000Y-58590000D03*
%TD*%
D13*
%TO.C,M3*%
X119200000Y-85375000D03*
D14*
X121740000Y-85375000D03*
X124280000Y-85375000D03*
%TD*%
D13*
%TO.C,M4*%
X110200000Y-77875000D03*
D14*
X112740000Y-77875000D03*
X115280000Y-77875000D03*
%TD*%
D20*
%TO.C,SW1*%
X112642500Y-54750000D03*
D21*
X112642500Y-57250000D03*
X112642500Y-59750000D03*
X109342500Y-59750000D03*
X109342500Y-57250000D03*
X109342500Y-54750000D03*
%TD*%
%LPD*%
M02*
