%TF.GenerationSoftware,KiCad,Pcbnew,9.0.2*%
%TF.CreationDate,2025-06-12T15:42:15-05:00*%
%TF.ProjectId,main,6d61696e-2e6b-4696-9361-645f70636258,rev?*%
%TF.SameCoordinates,Original*%
%TF.FileFunction,Legend,Top*%
%TF.FilePolarity,Positive*%
%FSLAX46Y46*%
G04 Gerber Fmt 4.6, Leading zero omitted, Abs format (unit mm)*
G04 Created by KiCad (PCBNEW 9.0.2) date 2025-06-12 15:42:15*
%MOMM*%
%LPD*%
G01*
G04 APERTURE LIST*
G04 Aperture macros list*
%AMRoundRect*
0 Rectangle with rounded corners*
0 $1 Rounding radius*
0 $2 $3 $4 $5 $6 $7 $8 $9 X,Y pos of 4 corners*
0 Add a 4 corners polygon primitive as box body*
4,1,4,$2,$3,$4,$5,$6,$7,$8,$9,$2,$3,0*
0 Add four circle primitives for the rounded corners*
1,1,$1+$1,$2,$3*
1,1,$1+$1,$4,$5*
1,1,$1+$1,$6,$7*
1,1,$1+$1,$8,$9*
0 Add four rect primitives between the rounded corners*
20,1,$1+$1,$2,$3,$4,$5,0*
20,1,$1+$1,$4,$5,$6,$7,0*
20,1,$1+$1,$6,$7,$8,$9,0*
20,1,$1+$1,$8,$9,$2,$3,0*%
G04 Aperture macros list end*
%ADD10C,0.150000*%
%ADD11C,0.120000*%
%ADD12C,0.650000*%
%ADD13C,0.950000*%
%ADD14R,0.300000X0.700000*%
%ADD15C,1.400000*%
%ADD16RoundRect,0.250000X-0.262500X-1.775000X0.262500X-1.775000X0.262500X1.775000X-0.262500X1.775000X0*%
%ADD17R,1.730000X2.030000*%
%ADD18O,1.730000X2.030000*%
%ADD19C,3.200000*%
%ADD20R,1.500000X1.500000*%
%ADD21C,1.500000*%
%ADD22RoundRect,0.062500X0.062500X-0.375000X0.062500X0.375000X-0.062500X0.375000X-0.062500X-0.375000X0*%
%ADD23RoundRect,0.062500X0.375000X-0.062500X0.375000X0.062500X-0.375000X0.062500X-0.375000X-0.062500X0*%
%ADD24R,7.300000X7.300000*%
%ADD25RoundRect,0.250000X-0.450000X-0.450000X0.450000X-0.450000X0.450000X0.450000X-0.450000X0.450000X0*%
G04 APERTURE END LIST*
D10*
X125166666Y-52594819D02*
X125166666Y-53309104D01*
X125166666Y-53309104D02*
X125119047Y-53451961D01*
X125119047Y-53451961D02*
X125023809Y-53547200D01*
X125023809Y-53547200D02*
X124880952Y-53594819D01*
X124880952Y-53594819D02*
X124785714Y-53594819D01*
X126166666Y-53594819D02*
X125595238Y-53594819D01*
X125880952Y-53594819D02*
X125880952Y-52594819D01*
X125880952Y-52594819D02*
X125785714Y-52737676D01*
X125785714Y-52737676D02*
X125690476Y-52832914D01*
X125690476Y-52832914D02*
X125595238Y-52880533D01*
X111833333Y-53474819D02*
X111500000Y-52998628D01*
X111261905Y-53474819D02*
X111261905Y-52474819D01*
X111261905Y-52474819D02*
X111642857Y-52474819D01*
X111642857Y-52474819D02*
X111738095Y-52522438D01*
X111738095Y-52522438D02*
X111785714Y-52570057D01*
X111785714Y-52570057D02*
X111833333Y-52665295D01*
X111833333Y-52665295D02*
X111833333Y-52808152D01*
X111833333Y-52808152D02*
X111785714Y-52903390D01*
X111785714Y-52903390D02*
X111738095Y-52951009D01*
X111738095Y-52951009D02*
X111642857Y-52998628D01*
X111642857Y-52998628D02*
X111261905Y-52998628D01*
X112214286Y-52570057D02*
X112261905Y-52522438D01*
X112261905Y-52522438D02*
X112357143Y-52474819D01*
X112357143Y-52474819D02*
X112595238Y-52474819D01*
X112595238Y-52474819D02*
X112690476Y-52522438D01*
X112690476Y-52522438D02*
X112738095Y-52570057D01*
X112738095Y-52570057D02*
X112785714Y-52665295D01*
X112785714Y-52665295D02*
X112785714Y-52760533D01*
X112785714Y-52760533D02*
X112738095Y-52903390D01*
X112738095Y-52903390D02*
X112166667Y-53474819D01*
X112166667Y-53474819D02*
X112785714Y-53474819D01*
X122610476Y-66054819D02*
X122610476Y-65054819D01*
X122610476Y-65054819D02*
X122943809Y-65769104D01*
X122943809Y-65769104D02*
X123277142Y-65054819D01*
X123277142Y-65054819D02*
X123277142Y-66054819D01*
X124181904Y-65388152D02*
X124181904Y-66054819D01*
X123943809Y-65007200D02*
X123705714Y-65721485D01*
X123705714Y-65721485D02*
X124324761Y-65721485D01*
X149610476Y-66054819D02*
X149610476Y-65054819D01*
X149610476Y-65054819D02*
X149943809Y-65769104D01*
X149943809Y-65769104D02*
X150277142Y-65054819D01*
X150277142Y-65054819D02*
X150277142Y-66054819D01*
X151277142Y-66054819D02*
X150705714Y-66054819D01*
X150991428Y-66054819D02*
X150991428Y-65054819D01*
X150991428Y-65054819D02*
X150896190Y-65197676D01*
X150896190Y-65197676D02*
X150800952Y-65292914D01*
X150800952Y-65292914D02*
X150705714Y-65340533D01*
X177333333Y-60474819D02*
X177000000Y-59998628D01*
X176761905Y-60474819D02*
X176761905Y-59474819D01*
X176761905Y-59474819D02*
X177142857Y-59474819D01*
X177142857Y-59474819D02*
X177238095Y-59522438D01*
X177238095Y-59522438D02*
X177285714Y-59570057D01*
X177285714Y-59570057D02*
X177333333Y-59665295D01*
X177333333Y-59665295D02*
X177333333Y-59808152D01*
X177333333Y-59808152D02*
X177285714Y-59903390D01*
X177285714Y-59903390D02*
X177238095Y-59951009D01*
X177238095Y-59951009D02*
X177142857Y-59998628D01*
X177142857Y-59998628D02*
X176761905Y-59998628D01*
X177666667Y-59474819D02*
X178333333Y-59474819D01*
X178333333Y-59474819D02*
X177904762Y-60474819D01*
X163004166Y-72554819D02*
X163004166Y-73269104D01*
X163004166Y-73269104D02*
X162956547Y-73411961D01*
X162956547Y-73411961D02*
X162861309Y-73507200D01*
X162861309Y-73507200D02*
X162718452Y-73554819D01*
X162718452Y-73554819D02*
X162623214Y-73554819D01*
X163432738Y-72650057D02*
X163480357Y-72602438D01*
X163480357Y-72602438D02*
X163575595Y-72554819D01*
X163575595Y-72554819D02*
X163813690Y-72554819D01*
X163813690Y-72554819D02*
X163908928Y-72602438D01*
X163908928Y-72602438D02*
X163956547Y-72650057D01*
X163956547Y-72650057D02*
X164004166Y-72745295D01*
X164004166Y-72745295D02*
X164004166Y-72840533D01*
X164004166Y-72840533D02*
X163956547Y-72983390D01*
X163956547Y-72983390D02*
X163385119Y-73554819D01*
X163385119Y-73554819D02*
X164004166Y-73554819D01*
X137124819Y-83261904D02*
X137934342Y-83261904D01*
X137934342Y-83261904D02*
X138029580Y-83214285D01*
X138029580Y-83214285D02*
X138077200Y-83166666D01*
X138077200Y-83166666D02*
X138124819Y-83071428D01*
X138124819Y-83071428D02*
X138124819Y-82880952D01*
X138124819Y-82880952D02*
X138077200Y-82785714D01*
X138077200Y-82785714D02*
X138029580Y-82738095D01*
X138029580Y-82738095D02*
X137934342Y-82690476D01*
X137934342Y-82690476D02*
X137124819Y-82690476D01*
X137220057Y-82261904D02*
X137172438Y-82214285D01*
X137172438Y-82214285D02*
X137124819Y-82119047D01*
X137124819Y-82119047D02*
X137124819Y-81880952D01*
X137124819Y-81880952D02*
X137172438Y-81785714D01*
X137172438Y-81785714D02*
X137220057Y-81738095D01*
X137220057Y-81738095D02*
X137315295Y-81690476D01*
X137315295Y-81690476D02*
X137410533Y-81690476D01*
X137410533Y-81690476D02*
X137553390Y-81738095D01*
X137553390Y-81738095D02*
X138124819Y-82309523D01*
X138124819Y-82309523D02*
X138124819Y-81690476D01*
X116833333Y-53474819D02*
X116500000Y-52998628D01*
X116261905Y-53474819D02*
X116261905Y-52474819D01*
X116261905Y-52474819D02*
X116642857Y-52474819D01*
X116642857Y-52474819D02*
X116738095Y-52522438D01*
X116738095Y-52522438D02*
X116785714Y-52570057D01*
X116785714Y-52570057D02*
X116833333Y-52665295D01*
X116833333Y-52665295D02*
X116833333Y-52808152D01*
X116833333Y-52808152D02*
X116785714Y-52903390D01*
X116785714Y-52903390D02*
X116738095Y-52951009D01*
X116738095Y-52951009D02*
X116642857Y-52998628D01*
X116642857Y-52998628D02*
X116261905Y-52998628D01*
X117690476Y-52808152D02*
X117690476Y-53474819D01*
X117452381Y-52427200D02*
X117214286Y-53141485D01*
X117214286Y-53141485D02*
X117833333Y-53141485D01*
X175416667Y-53164700D02*
X175559524Y-53212319D01*
X175559524Y-53212319D02*
X175797619Y-53212319D01*
X175797619Y-53212319D02*
X175892857Y-53164700D01*
X175892857Y-53164700D02*
X175940476Y-53117080D01*
X175940476Y-53117080D02*
X175988095Y-53021842D01*
X175988095Y-53021842D02*
X175988095Y-52926604D01*
X175988095Y-52926604D02*
X175940476Y-52831366D01*
X175940476Y-52831366D02*
X175892857Y-52783747D01*
X175892857Y-52783747D02*
X175797619Y-52736128D01*
X175797619Y-52736128D02*
X175607143Y-52688509D01*
X175607143Y-52688509D02*
X175511905Y-52640890D01*
X175511905Y-52640890D02*
X175464286Y-52593271D01*
X175464286Y-52593271D02*
X175416667Y-52498033D01*
X175416667Y-52498033D02*
X175416667Y-52402795D01*
X175416667Y-52402795D02*
X175464286Y-52307557D01*
X175464286Y-52307557D02*
X175511905Y-52259938D01*
X175511905Y-52259938D02*
X175607143Y-52212319D01*
X175607143Y-52212319D02*
X175845238Y-52212319D01*
X175845238Y-52212319D02*
X175988095Y-52259938D01*
X176321429Y-52212319D02*
X176559524Y-53212319D01*
X176559524Y-53212319D02*
X176750000Y-52498033D01*
X176750000Y-52498033D02*
X176940476Y-53212319D01*
X176940476Y-53212319D02*
X177178572Y-52212319D01*
X178083333Y-53212319D02*
X177511905Y-53212319D01*
X177797619Y-53212319D02*
X177797619Y-52212319D01*
X177797619Y-52212319D02*
X177702381Y-52355176D01*
X177702381Y-52355176D02*
X177607143Y-52450414D01*
X177607143Y-52450414D02*
X177511905Y-52498033D01*
X136666666Y-52594819D02*
X136666666Y-53309104D01*
X136666666Y-53309104D02*
X136619047Y-53451961D01*
X136619047Y-53451961D02*
X136523809Y-53547200D01*
X136523809Y-53547200D02*
X136380952Y-53594819D01*
X136380952Y-53594819D02*
X136285714Y-53594819D01*
X137047619Y-52594819D02*
X137666666Y-52594819D01*
X137666666Y-52594819D02*
X137333333Y-52975771D01*
X137333333Y-52975771D02*
X137476190Y-52975771D01*
X137476190Y-52975771D02*
X137571428Y-53023390D01*
X137571428Y-53023390D02*
X137619047Y-53071009D01*
X137619047Y-53071009D02*
X137666666Y-53166247D01*
X137666666Y-53166247D02*
X137666666Y-53404342D01*
X137666666Y-53404342D02*
X137619047Y-53499580D01*
X137619047Y-53499580D02*
X137571428Y-53547200D01*
X137571428Y-53547200D02*
X137476190Y-53594819D01*
X137476190Y-53594819D02*
X137190476Y-53594819D01*
X137190476Y-53594819D02*
X137095238Y-53547200D01*
X137095238Y-53547200D02*
X137047619Y-53499580D01*
X111833333Y-58474819D02*
X111500000Y-57998628D01*
X111261905Y-58474819D02*
X111261905Y-57474819D01*
X111261905Y-57474819D02*
X111642857Y-57474819D01*
X111642857Y-57474819D02*
X111738095Y-57522438D01*
X111738095Y-57522438D02*
X111785714Y-57570057D01*
X111785714Y-57570057D02*
X111833333Y-57665295D01*
X111833333Y-57665295D02*
X111833333Y-57808152D01*
X111833333Y-57808152D02*
X111785714Y-57903390D01*
X111785714Y-57903390D02*
X111738095Y-57951009D01*
X111738095Y-57951009D02*
X111642857Y-57998628D01*
X111642857Y-57998628D02*
X111261905Y-57998628D01*
X112785714Y-58474819D02*
X112214286Y-58474819D01*
X112500000Y-58474819D02*
X112500000Y-57474819D01*
X112500000Y-57474819D02*
X112404762Y-57617676D01*
X112404762Y-57617676D02*
X112309524Y-57712914D01*
X112309524Y-57712914D02*
X112214286Y-57760533D01*
X148266666Y-52604819D02*
X148266666Y-53319104D01*
X148266666Y-53319104D02*
X148219047Y-53461961D01*
X148219047Y-53461961D02*
X148123809Y-53557200D01*
X148123809Y-53557200D02*
X147980952Y-53604819D01*
X147980952Y-53604819D02*
X147885714Y-53604819D01*
X149171428Y-52938152D02*
X149171428Y-53604819D01*
X148933333Y-52557200D02*
X148695238Y-53271485D01*
X148695238Y-53271485D02*
X149314285Y-53271485D01*
X173333333Y-60474819D02*
X173000000Y-59998628D01*
X172761905Y-60474819D02*
X172761905Y-59474819D01*
X172761905Y-59474819D02*
X173142857Y-59474819D01*
X173142857Y-59474819D02*
X173238095Y-59522438D01*
X173238095Y-59522438D02*
X173285714Y-59570057D01*
X173285714Y-59570057D02*
X173333333Y-59665295D01*
X173333333Y-59665295D02*
X173333333Y-59808152D01*
X173333333Y-59808152D02*
X173285714Y-59903390D01*
X173285714Y-59903390D02*
X173238095Y-59951009D01*
X173238095Y-59951009D02*
X173142857Y-59998628D01*
X173142857Y-59998628D02*
X172761905Y-59998628D01*
X174238095Y-59474819D02*
X173761905Y-59474819D01*
X173761905Y-59474819D02*
X173714286Y-59951009D01*
X173714286Y-59951009D02*
X173761905Y-59903390D01*
X173761905Y-59903390D02*
X173857143Y-59855771D01*
X173857143Y-59855771D02*
X174095238Y-59855771D01*
X174095238Y-59855771D02*
X174190476Y-59903390D01*
X174190476Y-59903390D02*
X174238095Y-59951009D01*
X174238095Y-59951009D02*
X174285714Y-60046247D01*
X174285714Y-60046247D02*
X174285714Y-60284342D01*
X174285714Y-60284342D02*
X174238095Y-60379580D01*
X174238095Y-60379580D02*
X174190476Y-60427200D01*
X174190476Y-60427200D02*
X174095238Y-60474819D01*
X174095238Y-60474819D02*
X173857143Y-60474819D01*
X173857143Y-60474819D02*
X173761905Y-60427200D01*
X173761905Y-60427200D02*
X173714286Y-60379580D01*
X140610476Y-66054819D02*
X140610476Y-65054819D01*
X140610476Y-65054819D02*
X140943809Y-65769104D01*
X140943809Y-65769104D02*
X141277142Y-65054819D01*
X141277142Y-65054819D02*
X141277142Y-66054819D01*
X141705714Y-65150057D02*
X141753333Y-65102438D01*
X141753333Y-65102438D02*
X141848571Y-65054819D01*
X141848571Y-65054819D02*
X142086666Y-65054819D01*
X142086666Y-65054819D02*
X142181904Y-65102438D01*
X142181904Y-65102438D02*
X142229523Y-65150057D01*
X142229523Y-65150057D02*
X142277142Y-65245295D01*
X142277142Y-65245295D02*
X142277142Y-65340533D01*
X142277142Y-65340533D02*
X142229523Y-65483390D01*
X142229523Y-65483390D02*
X141658095Y-66054819D01*
X141658095Y-66054819D02*
X142277142Y-66054819D01*
X116833333Y-58474819D02*
X116500000Y-57998628D01*
X116261905Y-58474819D02*
X116261905Y-57474819D01*
X116261905Y-57474819D02*
X116642857Y-57474819D01*
X116642857Y-57474819D02*
X116738095Y-57522438D01*
X116738095Y-57522438D02*
X116785714Y-57570057D01*
X116785714Y-57570057D02*
X116833333Y-57665295D01*
X116833333Y-57665295D02*
X116833333Y-57808152D01*
X116833333Y-57808152D02*
X116785714Y-57903390D01*
X116785714Y-57903390D02*
X116738095Y-57951009D01*
X116738095Y-57951009D02*
X116642857Y-57998628D01*
X116642857Y-57998628D02*
X116261905Y-57998628D01*
X117166667Y-57474819D02*
X117785714Y-57474819D01*
X117785714Y-57474819D02*
X117452381Y-57855771D01*
X117452381Y-57855771D02*
X117595238Y-57855771D01*
X117595238Y-57855771D02*
X117690476Y-57903390D01*
X117690476Y-57903390D02*
X117738095Y-57951009D01*
X117738095Y-57951009D02*
X117785714Y-58046247D01*
X117785714Y-58046247D02*
X117785714Y-58284342D01*
X117785714Y-58284342D02*
X117738095Y-58379580D01*
X117738095Y-58379580D02*
X117690476Y-58427200D01*
X117690476Y-58427200D02*
X117595238Y-58474819D01*
X117595238Y-58474819D02*
X117309524Y-58474819D01*
X117309524Y-58474819D02*
X117214286Y-58427200D01*
X117214286Y-58427200D02*
X117166667Y-58379580D01*
X131610476Y-66054819D02*
X131610476Y-65054819D01*
X131610476Y-65054819D02*
X131943809Y-65769104D01*
X131943809Y-65769104D02*
X132277142Y-65054819D01*
X132277142Y-65054819D02*
X132277142Y-66054819D01*
X132658095Y-65054819D02*
X133277142Y-65054819D01*
X133277142Y-65054819D02*
X132943809Y-65435771D01*
X132943809Y-65435771D02*
X133086666Y-65435771D01*
X133086666Y-65435771D02*
X133181904Y-65483390D01*
X133181904Y-65483390D02*
X133229523Y-65531009D01*
X133229523Y-65531009D02*
X133277142Y-65626247D01*
X133277142Y-65626247D02*
X133277142Y-65864342D01*
X133277142Y-65864342D02*
X133229523Y-65959580D01*
X133229523Y-65959580D02*
X133181904Y-66007200D01*
X133181904Y-66007200D02*
X133086666Y-66054819D01*
X133086666Y-66054819D02*
X132800952Y-66054819D01*
X132800952Y-66054819D02*
X132705714Y-66007200D01*
X132705714Y-66007200D02*
X132658095Y-65959580D01*
D11*
%TO.C,J1*%
X120750000Y-54130000D02*
X120750000Y-55650000D01*
X120750000Y-54130000D02*
X122250000Y-54130000D01*
X120750000Y-57150000D02*
X120750000Y-61390000D01*
X128750000Y-54130000D02*
X130250000Y-54130000D01*
X130250000Y-54130000D02*
X130250000Y-55650000D01*
X130250000Y-57150000D02*
X130250000Y-61390000D01*
%TO.C,R2*%
X111789758Y-54015000D02*
X112210242Y-54015000D01*
X111789758Y-57985000D02*
X112210242Y-57985000D01*
%TO.C,M4*%
X119570000Y-66350000D02*
X127370000Y-66350000D01*
X119570000Y-72400000D02*
X119570000Y-66350000D01*
X120920000Y-71290000D02*
X126000000Y-71290000D01*
X120920000Y-72300000D02*
X120920000Y-71290000D01*
X126000000Y-71290000D02*
X126000000Y-72300000D01*
X127370000Y-66350000D02*
X127370000Y-72400000D01*
X127370000Y-72400000D02*
X119570000Y-72400000D01*
%TO.C,M1*%
X146570000Y-66350000D02*
X154370000Y-66350000D01*
X146570000Y-72400000D02*
X146570000Y-66350000D01*
X147920000Y-71290000D02*
X153000000Y-71290000D01*
X147920000Y-72300000D02*
X147920000Y-71290000D01*
X153000000Y-71290000D02*
X153000000Y-72300000D01*
X154370000Y-66350000D02*
X154370000Y-72400000D01*
X154370000Y-72400000D02*
X146570000Y-72400000D01*
%TO.C,R7*%
X177289758Y-61015000D02*
X177710242Y-61015000D01*
X177289758Y-64985000D02*
X177710242Y-64985000D01*
%TO.C,J2*%
X155577500Y-71980000D02*
X155577500Y-54020000D01*
X155577500Y-71980000D02*
X171097500Y-71980000D01*
X171097500Y-54020000D02*
X155577500Y-54020000D01*
X171097500Y-71980000D02*
X171097500Y-54020000D01*
X171282500Y-68100000D02*
X171782500Y-68600000D01*
X171782500Y-67600000D02*
X171282500Y-68100000D01*
X171782500Y-68600000D02*
X171782500Y-67600000D01*
%TO.C,U2*%
X138890000Y-77890000D02*
X139365000Y-77890000D01*
X138890000Y-78365000D02*
X138890000Y-77890000D01*
X138890000Y-86635000D02*
X138890000Y-86810000D01*
X139365000Y-87110000D02*
X139130000Y-87110000D01*
X148110000Y-77890000D02*
X147635000Y-77890000D01*
X148110000Y-78365000D02*
X148110000Y-77890000D01*
X148110000Y-86635000D02*
X148110000Y-87110000D01*
X148110000Y-87110000D02*
X147635000Y-87110000D01*
X138890000Y-87110000D02*
X138560000Y-87350000D01*
X138560000Y-86870000D01*
X138890000Y-87110000D01*
G36*
X138890000Y-87110000D02*
G01*
X138560000Y-87350000D01*
X138560000Y-86870000D01*
X138890000Y-87110000D01*
G37*
%TO.C,R4*%
X116789758Y-54015000D02*
X117210242Y-54015000D01*
X116789758Y-57985000D02*
X117210242Y-57985000D01*
%TO.C,SW1*%
X171900000Y-53907500D02*
X171900000Y-58107500D01*
X171900000Y-58107500D02*
X173100000Y-58107500D01*
X172250000Y-53907500D02*
X171900000Y-53907500D01*
X179900000Y-53907500D02*
X181100000Y-53907500D01*
X181100000Y-53907500D02*
X181100000Y-58107500D01*
X181100000Y-58107500D02*
X179900000Y-58107500D01*
X173000000Y-53907500D02*
X172520000Y-53907500D01*
X173000000Y-53427500D01*
X173000000Y-53907500D01*
G36*
X173000000Y-53907500D02*
G01*
X172520000Y-53907500D01*
X173000000Y-53427500D01*
X173000000Y-53907500D01*
G37*
%TO.C,J3*%
X132250000Y-54130000D02*
X132250000Y-55650000D01*
X132250000Y-54130000D02*
X133750000Y-54130000D01*
X132250000Y-57150000D02*
X132250000Y-61390000D01*
X140250000Y-54130000D02*
X141750000Y-54130000D01*
X141750000Y-54130000D02*
X141750000Y-55650000D01*
X141750000Y-57150000D02*
X141750000Y-61390000D01*
%TO.C,R1*%
X111789758Y-59015000D02*
X112210242Y-59015000D01*
X111789758Y-62985000D02*
X112210242Y-62985000D01*
%TO.C,J4*%
X143850000Y-54140000D02*
X143850000Y-55660000D01*
X143850000Y-54140000D02*
X145350000Y-54140000D01*
X143850000Y-57160000D02*
X143850000Y-61400000D01*
X151850000Y-54140000D02*
X153350000Y-54140000D01*
X153350000Y-54140000D02*
X153350000Y-55660000D01*
X153350000Y-57160000D02*
X153350000Y-61400000D01*
%TO.C,R5*%
X173289758Y-61015000D02*
X173710242Y-61015000D01*
X173289758Y-64985000D02*
X173710242Y-64985000D01*
%TO.C,M2*%
X137570000Y-66350000D02*
X145370000Y-66350000D01*
X137570000Y-72400000D02*
X137570000Y-66350000D01*
X138920000Y-71290000D02*
X144000000Y-71290000D01*
X138920000Y-72300000D02*
X138920000Y-71290000D01*
X144000000Y-71290000D02*
X144000000Y-72300000D01*
X145370000Y-66350000D02*
X145370000Y-72400000D01*
X145370000Y-72400000D02*
X137570000Y-72400000D01*
%TO.C,R3*%
X116789758Y-59015000D02*
X117210242Y-59015000D01*
X116789758Y-62985000D02*
X117210242Y-62985000D01*
%TO.C,M3*%
X128570000Y-66350000D02*
X136370000Y-66350000D01*
X128570000Y-72400000D02*
X128570000Y-66350000D01*
X129920000Y-71290000D02*
X135000000Y-71290000D01*
X129920000Y-72300000D02*
X129920000Y-71290000D01*
X135000000Y-71290000D02*
X135000000Y-72300000D01*
X136370000Y-66350000D02*
X136370000Y-72400000D01*
X136370000Y-72400000D02*
X128570000Y-72400000D01*
%TD*%
%LPC*%
D12*
%TO.C,J1*%
X121900000Y-55140000D03*
D13*
X129100000Y-55140000D03*
D14*
X122750000Y-54480000D03*
X123250000Y-54480000D03*
X123750000Y-54480000D03*
X124250000Y-54480000D03*
X124750000Y-54480000D03*
X125250000Y-54480000D03*
X125750000Y-54480000D03*
X126250000Y-54480000D03*
X126750000Y-54480000D03*
X127250000Y-54480000D03*
X127750000Y-54480000D03*
X128250000Y-54480000D03*
D12*
X128300000Y-55790000D03*
X127900000Y-56490000D03*
X127100000Y-56490000D03*
X126700000Y-55790000D03*
X126300000Y-56490000D03*
X125900000Y-55790000D03*
X125100000Y-55790000D03*
X124700000Y-56490000D03*
X124300000Y-55790000D03*
X123900000Y-56490000D03*
X123100000Y-56490000D03*
X122700000Y-55790000D03*
D15*
X121010000Y-62340000D03*
X121370000Y-56390000D03*
X129630000Y-56390000D03*
X129990000Y-62340000D03*
%TD*%
D16*
%TO.C,R2*%
X111062500Y-56000000D03*
X112937500Y-56000000D03*
%TD*%
D17*
%TO.C,M4*%
X120920000Y-69000000D03*
D18*
X123460000Y-69000000D03*
X126000000Y-69000000D03*
%TD*%
D17*
%TO.C,M1*%
X147920000Y-69000000D03*
D18*
X150460000Y-69000000D03*
X153000000Y-69000000D03*
%TD*%
D16*
%TO.C,R7*%
X176562500Y-63000000D03*
X178437500Y-63000000D03*
%TD*%
D19*
%TO.C,J2*%
X169052500Y-61750000D03*
X157622500Y-61750000D03*
D20*
X167782500Y-68100000D03*
D21*
X166512500Y-70640000D03*
X165242500Y-68100000D03*
X163972500Y-70640000D03*
X162702500Y-68100000D03*
X161432500Y-70640000D03*
X160162500Y-68100000D03*
X158892500Y-70640000D03*
%TD*%
D22*
%TO.C,U2*%
X139750000Y-86937500D03*
X140250000Y-86937500D03*
X140750000Y-86937500D03*
X141250000Y-86937500D03*
X141750000Y-86937500D03*
X142250000Y-86937500D03*
X142750000Y-86937500D03*
X143250000Y-86937500D03*
X143750000Y-86937500D03*
X144250000Y-86937500D03*
X144750000Y-86937500D03*
X145250000Y-86937500D03*
X145750000Y-86937500D03*
X146250000Y-86937500D03*
X146750000Y-86937500D03*
X147250000Y-86937500D03*
D23*
X147937500Y-86250000D03*
X147937500Y-85750000D03*
X147937500Y-85250000D03*
X147937500Y-84750000D03*
X147937500Y-84250000D03*
X147937500Y-83750000D03*
X147937500Y-83250000D03*
X147937500Y-82750000D03*
X147937500Y-82250000D03*
X147937500Y-81750000D03*
X147937500Y-81250000D03*
X147937500Y-80750000D03*
X147937500Y-80250000D03*
X147937500Y-79750000D03*
X147937500Y-79250000D03*
X147937500Y-78750000D03*
D22*
X147250000Y-78062500D03*
X146750000Y-78062500D03*
X146250000Y-78062500D03*
X145750000Y-78062500D03*
X145250000Y-78062500D03*
X144750000Y-78062500D03*
X144250000Y-78062500D03*
X143750000Y-78062500D03*
X143250000Y-78062500D03*
X142750000Y-78062500D03*
X142250000Y-78062500D03*
X141750000Y-78062500D03*
X141250000Y-78062500D03*
X140750000Y-78062500D03*
X140250000Y-78062500D03*
X139750000Y-78062500D03*
D23*
X139062500Y-78750000D03*
X139062500Y-79250000D03*
X139062500Y-79750000D03*
X139062500Y-80250000D03*
X139062500Y-80750000D03*
X139062500Y-81250000D03*
X139062500Y-81750000D03*
X139062500Y-82250000D03*
X139062500Y-82750000D03*
X139062500Y-83250000D03*
X139062500Y-83750000D03*
X139062500Y-84250000D03*
X139062500Y-84750000D03*
X139062500Y-85250000D03*
X139062500Y-85750000D03*
X139062500Y-86250000D03*
D24*
X143500000Y-82500000D03*
%TD*%
D16*
%TO.C,R4*%
X116062500Y-56000000D03*
X117937500Y-56000000D03*
%TD*%
D25*
%TO.C,SW1*%
X174000000Y-54357500D03*
D15*
X176500000Y-54357500D03*
X179000000Y-54357500D03*
X179000000Y-57657500D03*
X176500000Y-57657500D03*
X174000000Y-57657500D03*
%TD*%
D12*
%TO.C,J3*%
X133400000Y-55140000D03*
D13*
X140600000Y-55140000D03*
D14*
X134250000Y-54480000D03*
X134750000Y-54480000D03*
X135250000Y-54480000D03*
X135750000Y-54480000D03*
X136250000Y-54480000D03*
X136750000Y-54480000D03*
X137250000Y-54480000D03*
X137750000Y-54480000D03*
X138250000Y-54480000D03*
X138750000Y-54480000D03*
X139250000Y-54480000D03*
X139750000Y-54480000D03*
D12*
X139800000Y-55790000D03*
X139400000Y-56490000D03*
X138600000Y-56490000D03*
X138200000Y-55790000D03*
X137800000Y-56490000D03*
X137400000Y-55790000D03*
X136600000Y-55790000D03*
X136200000Y-56490000D03*
X135800000Y-55790000D03*
X135400000Y-56490000D03*
X134600000Y-56490000D03*
X134200000Y-55790000D03*
D15*
X132510000Y-62340000D03*
X132870000Y-56390000D03*
X141130000Y-56390000D03*
X141490000Y-62340000D03*
%TD*%
D16*
%TO.C,R1*%
X111062500Y-61000000D03*
X112937500Y-61000000D03*
%TD*%
D12*
%TO.C,J4*%
X145000000Y-55150000D03*
D13*
X152200000Y-55150000D03*
D14*
X145850000Y-54490000D03*
X146350000Y-54490000D03*
X146850000Y-54490000D03*
X147350000Y-54490000D03*
X147850000Y-54490000D03*
X148350000Y-54490000D03*
X148850000Y-54490000D03*
X149350000Y-54490000D03*
X149850000Y-54490000D03*
X150350000Y-54490000D03*
X150850000Y-54490000D03*
X151350000Y-54490000D03*
D12*
X151400000Y-55800000D03*
X151000000Y-56500000D03*
X150200000Y-56500000D03*
X149800000Y-55800000D03*
X149400000Y-56500000D03*
X149000000Y-55800000D03*
X148200000Y-55800000D03*
X147800000Y-56500000D03*
X147400000Y-55800000D03*
X147000000Y-56500000D03*
X146200000Y-56500000D03*
X145800000Y-55800000D03*
D15*
X144110000Y-62350000D03*
X144470000Y-56400000D03*
X152730000Y-56400000D03*
X153090000Y-62350000D03*
%TD*%
D16*
%TO.C,R5*%
X172562500Y-63000000D03*
X174437500Y-63000000D03*
%TD*%
D17*
%TO.C,M2*%
X138920000Y-69000000D03*
D18*
X141460000Y-69000000D03*
X144000000Y-69000000D03*
%TD*%
D16*
%TO.C,R3*%
X116062500Y-61000000D03*
X117937500Y-61000000D03*
%TD*%
D17*
%TO.C,M3*%
X129920000Y-69000000D03*
D18*
X132460000Y-69000000D03*
X135000000Y-69000000D03*
%TD*%
%LPD*%
M02*
