%TF.GenerationSoftware,KiCad,Pcbnew,9.0.2*%
%TF.CreationDate,2025-07-09T15:02:30-05:00*%
%TF.ProjectId,main,6d61696e-2e6b-4696-9361-645f70636258,rev?*%
%TF.SameCoordinates,Original*%
%TF.FileFunction,Copper,L1,Top*%
%TF.FilePolarity,Positive*%
%FSLAX46Y46*%
G04 Gerber Fmt 4.6, Leading zero omitted, Abs format (unit mm)*
G04 Created by KiCad (PCBNEW 9.0.2) date 2025-07-09 15:02:30*
%MOMM*%
%LPD*%
G01*
G04 APERTURE LIST*
G04 Aperture macros list*
%AMRoundRect*
0 Rectangle with rounded corners*
0 $1 Rounding radius*
0 $2 $3 $4 $5 $6 $7 $8 $9 X,Y pos of 4 corners*
0 Add a 4 corners polygon primitive as box body*
4,1,4,$2,$3,$4,$5,$6,$7,$8,$9,$2,$3,0*
0 Add four circle primitives for the rounded corners*
1,1,$1+$1,$2,$3*
1,1,$1+$1,$4,$5*
1,1,$1+$1,$6,$7*
1,1,$1+$1,$8,$9*
0 Add four rect primitives between the rounded corners*
20,1,$1+$1,$2,$3,$4,$5,0*
20,1,$1+$1,$4,$5,$6,$7,0*
20,1,$1+$1,$6,$7,$8,$9,0*
20,1,$1+$1,$8,$9,$2,$3,0*%
G04 Aperture macros list end*
%TA.AperFunction,SMDPad,CuDef*%
%ADD10R,3.000000X1.400000*%
%TD*%
%TA.AperFunction,SMDPad,CuDef*%
%ADD11RoundRect,0.100000X-0.130000X-0.100000X0.130000X-0.100000X0.130000X0.100000X-0.130000X0.100000X0*%
%TD*%
%TA.AperFunction,SMDPad,CuDef*%
%ADD12RoundRect,0.100000X0.130000X0.100000X-0.130000X0.100000X-0.130000X-0.100000X0.130000X-0.100000X0*%
%TD*%
%TA.AperFunction,SMDPad,CuDef*%
%ADD13RoundRect,0.100000X-0.100000X0.130000X-0.100000X-0.130000X0.100000X-0.130000X0.100000X0.130000X0*%
%TD*%
%TA.AperFunction,SMDPad,CuDef*%
%ADD14R,0.300000X0.700000*%
%TD*%
%TA.AperFunction,ComponentPad*%
%ADD15O,0.850000X1.450000*%
%TD*%
%TA.AperFunction,ComponentPad*%
%ADD16R,1.730000X2.030000*%
%TD*%
%TA.AperFunction,ComponentPad*%
%ADD17O,1.730000X2.030000*%
%TD*%
%TA.AperFunction,SMDPad,CuDef*%
%ADD18RoundRect,0.100000X0.100000X-0.130000X0.100000X0.130000X-0.100000X0.130000X-0.100000X-0.130000X0*%
%TD*%
%TA.AperFunction,ComponentPad*%
%ADD19C,1.890000*%
%TD*%
%TA.AperFunction,ComponentPad*%
%ADD20R,1.900000X1.900000*%
%TD*%
%TA.AperFunction,ComponentPad*%
%ADD21C,1.900000*%
%TD*%
%TA.AperFunction,ComponentPad*%
%ADD22C,2.600000*%
%TD*%
%TA.AperFunction,SMDPad,CuDef*%
%ADD23R,1.050000X0.950000*%
%TD*%
%TA.AperFunction,SMDPad,CuDef*%
%ADD24RoundRect,0.062500X-0.375000X-0.062500X0.375000X-0.062500X0.375000X0.062500X-0.375000X0.062500X0*%
%TD*%
%TA.AperFunction,SMDPad,CuDef*%
%ADD25RoundRect,0.062500X-0.062500X-0.375000X0.062500X-0.375000X0.062500X0.375000X-0.062500X0.375000X0*%
%TD*%
%TA.AperFunction,HeatsinkPad*%
%ADD26R,7.300000X7.300000*%
%TD*%
%TA.AperFunction,ComponentPad*%
%ADD27RoundRect,0.250000X-0.450000X0.450000X-0.450000X-0.450000X0.450000X-0.450000X0.450000X0.450000X0*%
%TD*%
%TA.AperFunction,ComponentPad*%
%ADD28C,1.400000*%
%TD*%
%TA.AperFunction,ViaPad*%
%ADD29C,0.600000*%
%TD*%
%TA.AperFunction,Conductor*%
%ADD30C,0.200000*%
%TD*%
G04 APERTURE END LIST*
D10*
%TO.P,FB1,1*%
%TO.N,Net-(U2A-VDD18ETHPLL)*%
X158750000Y-68350000D03*
%TO.P,FB1,2*%
%TO.N,Net-(U2A-VDD18USBPLL)*%
X158750000Y-66150000D03*
%TD*%
D11*
%TO.P,C10,1*%
%TO.N,gnd*%
X138500000Y-79750000D03*
%TO.P,C10,2*%
%TO.N,Net-(C10-Pad2)*%
X139140000Y-79750000D03*
%TD*%
%TO.P,R6,1*%
%TO.N,gnd*%
X152680000Y-63000000D03*
%TO.P,R6,2*%
%TO.N,Net-(J1-CC2)*%
X153320000Y-63000000D03*
%TD*%
D12*
%TO.P,R12,1*%
%TO.N,Net-(J6-TD-)*%
X153890000Y-69000000D03*
%TO.P,R12,2*%
%TO.N,VDD33A*%
X153250000Y-69000000D03*
%TD*%
D13*
%TO.P,R15,1*%
%TO.N,Net-(C5-Pad2)*%
X125500000Y-56000000D03*
%TO.P,R15,2*%
%TO.N,gnd*%
X125500000Y-56640000D03*
%TD*%
D12*
%TO.P,R11,1*%
%TO.N,Net-(J6-RD+)*%
X166000000Y-72000000D03*
%TO.P,R11,2*%
%TO.N,VDD33A*%
X165360000Y-72000000D03*
%TD*%
D11*
%TO.P,C3,1*%
%TO.N,gnd*%
X152680000Y-75250000D03*
%TO.P,C3,2*%
%TO.N,Net-(J6-RCT)*%
X153320000Y-75250000D03*
%TD*%
D12*
%TO.P,R13,1*%
%TO.N,Net-(J6-TD+)*%
X176390000Y-71500000D03*
%TO.P,R13,2*%
%TO.N,VDD33A*%
X175750000Y-71500000D03*
%TD*%
%TO.P,R17,1*%
%TO.N,VBUSUP*%
X147000000Y-84500000D03*
%TO.P,R17,2*%
%TO.N,Net-(U2B-VBUS_DET)*%
X146360000Y-84500000D03*
%TD*%
D11*
%TO.P,R2,1*%
%TO.N,gnd*%
X127180000Y-64500000D03*
%TO.P,R2,2*%
%TO.N,Net-(J4-CC2)*%
X127820000Y-64500000D03*
%TD*%
D14*
%TO.P,J4,A1,GND*%
%TO.N,gnd*%
X135250000Y-60500000D03*
%TO.P,J4,A2,TX1+*%
%TO.N,unconnected-(J4-TX1+-PadA2)*%
X134750000Y-60500000D03*
%TO.P,J4,A3,TX1-*%
%TO.N,unconnected-(J4-TX1--PadA3)*%
X134250000Y-60500000D03*
%TO.P,J4,A4,VBUS*%
%TO.N,Net-(U2B-PRTCTL3)*%
X133750000Y-60500000D03*
%TO.P,J4,A5,CC1*%
%TO.N,Net-(J4-CC1)*%
X133250000Y-60500000D03*
%TO.P,J4,A6,D+*%
%TO.N,D+DOWN1*%
X132750000Y-60500000D03*
%TO.P,J4,A7,D-*%
%TO.N,D-DOWN1*%
X132250000Y-60500000D03*
%TO.P,J4,A8,SBU1*%
%TO.N,unconnected-(J4-SBU1-PadA8)*%
X131750000Y-60500000D03*
%TO.P,J4,A9,VBUS*%
%TO.N,Net-(U2B-PRTCTL3)*%
X131250000Y-60500000D03*
%TO.P,J4,A10,RX2-*%
%TO.N,unconnected-(J4-RX2--PadA10)*%
X130750000Y-60500000D03*
%TO.P,J4,A11,RX2+*%
%TO.N,unconnected-(J4-RX2+-PadA11)*%
X130250000Y-60500000D03*
%TO.P,J4,A12,GND*%
%TO.N,gnd*%
X129750000Y-60500000D03*
%TO.P,J4,B1,GND*%
X130000000Y-58800000D03*
%TO.P,J4,B2,TX2+*%
%TO.N,unconnected-(J4-TX2+-PadB2)*%
X130500000Y-58800000D03*
%TO.P,J4,B3,TX2-*%
%TO.N,unconnected-(J4-TX2--PadB3)*%
X131000000Y-58800000D03*
%TO.P,J4,B4,VBUS*%
%TO.N,Net-(U2B-PRTCTL3)*%
X131500000Y-58800000D03*
%TO.P,J4,B5,CC2*%
%TO.N,Net-(J4-CC2)*%
X132000000Y-58800000D03*
%TO.P,J4,B6,D+*%
%TO.N,D+DOWN1*%
X132500000Y-58800000D03*
%TO.P,J4,B7,D-*%
%TO.N,D-DOWN1*%
X133000000Y-58800000D03*
%TO.P,J4,B8,SBU2*%
%TO.N,unconnected-(J4-SBU2-PadB8)*%
X133500000Y-58800000D03*
%TO.P,J4,B9,VBUS*%
%TO.N,Net-(U2B-PRTCTL3)*%
X134000000Y-58800000D03*
%TO.P,J4,B10,RX1-*%
%TO.N,unconnected-(J4-RX1--PadB10)*%
X134500000Y-58800000D03*
%TO.P,J4,B11,RX1+*%
%TO.N,unconnected-(J4-RX1+-PadB11)*%
X135000000Y-58800000D03*
%TO.P,J4,B12,GND*%
%TO.N,gnd*%
X135500000Y-58800000D03*
D15*
%TO.P,J4,SH1,SHIELD*%
%TO.N,Net-(C5-Pad2)*%
X136990000Y-55140000D03*
%TO.P,J4,SH2,SHIELD*%
X128010000Y-55140000D03*
%TO.P,J4,SH3,SHIELD*%
X136630000Y-58590000D03*
%TO.P,J4,SH4,SHIELD*%
X128370000Y-58590000D03*
%TD*%
D11*
%TO.P,R8,1*%
%TO.N,gnd*%
X142860000Y-71500000D03*
%TO.P,R8,2*%
%TO.N,Net-(U2A-XI)*%
X143500000Y-71500000D03*
%TD*%
D14*
%TO.P,J1,A1,GND*%
%TO.N,gnd*%
X157750000Y-60500000D03*
%TO.P,J1,A2,TX1+*%
%TO.N,unconnected-(J1-TX1+-PadA2)*%
X157250000Y-60500000D03*
%TO.P,J1,A3,TX1-*%
%TO.N,unconnected-(J1-TX1--PadA3)*%
X156750000Y-60500000D03*
%TO.P,J1,A4,VBUS*%
%TO.N,VBUSUP*%
X156250000Y-60500000D03*
%TO.P,J1,A5,CC1*%
%TO.N,Net-(J1-CC1)*%
X155750000Y-60500000D03*
%TO.P,J1,A6,D+*%
%TO.N,D+UP*%
X155250000Y-60500000D03*
%TO.P,J1,A7,D-*%
%TO.N,D-UP*%
X154750000Y-60500000D03*
%TO.P,J1,A8,SBU1*%
%TO.N,unconnected-(J1-SBU1-PadA8)*%
X154250000Y-60500000D03*
%TO.P,J1,A9,VBUS*%
%TO.N,VBUSUP*%
X153750000Y-60500000D03*
%TO.P,J1,A10,RX2-*%
%TO.N,unconnected-(J1-RX2--PadA10)*%
X153250000Y-60500000D03*
%TO.P,J1,A11,RX2+*%
%TO.N,unconnected-(J1-RX2+-PadA11)*%
X152750000Y-60500000D03*
%TO.P,J1,A12,GND*%
%TO.N,gnd*%
X152250000Y-60500000D03*
%TO.P,J1,B1,GND*%
X152500000Y-58800000D03*
%TO.P,J1,B2,TX2+*%
%TO.N,unconnected-(J1-TX2+-PadB2)*%
X153000000Y-58800000D03*
%TO.P,J1,B3,TX2-*%
%TO.N,unconnected-(J1-TX2--PadB3)*%
X153500000Y-58800000D03*
%TO.P,J1,B4,VBUS*%
%TO.N,VBUSUP*%
X154000000Y-58800000D03*
%TO.P,J1,B5,CC2*%
%TO.N,Net-(J1-CC2)*%
X154500000Y-58800000D03*
%TO.P,J1,B6,D+*%
%TO.N,D+UP*%
X155000000Y-58800000D03*
%TO.P,J1,B7,D-*%
%TO.N,D-UP*%
X155500000Y-58800000D03*
%TO.P,J1,B8,SBU2*%
%TO.N,unconnected-(J1-SBU2-PadB8)*%
X156000000Y-58800000D03*
%TO.P,J1,B9,VBUS*%
%TO.N,VBUSUP*%
X156500000Y-58800000D03*
%TO.P,J1,B10,RX1-*%
%TO.N,unconnected-(J1-RX1--PadB10)*%
X157000000Y-58800000D03*
%TO.P,J1,B11,RX1+*%
%TO.N,unconnected-(J1-RX1+-PadB11)*%
X157500000Y-58800000D03*
%TO.P,J1,B12,GND*%
%TO.N,gnd*%
X158000000Y-58800000D03*
D15*
%TO.P,J1,SH1,SHIELD*%
%TO.N,Net-(C7-Pad2)*%
X159490000Y-55140000D03*
%TO.P,J1,SH2,SHIELD*%
X150510000Y-55140000D03*
%TO.P,J1,SH3,SHIELD*%
X159130000Y-58590000D03*
%TO.P,J1,SH4,SHIELD*%
X150870000Y-58590000D03*
%TD*%
D16*
%TO.P,M1,1,-*%
%TO.N,gnd*%
X110200000Y-85375000D03*
D17*
%TO.P,M1,2,+*%
%TO.N,Net-(M1-+)*%
X112740000Y-85375000D03*
%TO.P,M1,3,Tacho*%
%TO.N,unconnected-(M1-Tacho-Pad3)*%
X115280000Y-85375000D03*
%TD*%
D18*
%TO.P,R9,1*%
%TO.N,gnd*%
X149250000Y-71500000D03*
%TO.P,R9,2*%
%TO.N,Net-(U2B-EXRES)*%
X149250000Y-70860000D03*
%TD*%
%TO.P,C9,1*%
%TO.N,gnd*%
X154250000Y-81070000D03*
%TO.P,C9,2*%
%TO.N,Net-(C10-Pad2)*%
X154250000Y-80430000D03*
%TD*%
D16*
%TO.P,M2,1,-*%
%TO.N,gnd*%
X119200000Y-77875000D03*
D17*
%TO.P,M2,2,+*%
%TO.N,Net-(M1-+)*%
X121740000Y-77875000D03*
%TO.P,M2,3,Tacho*%
%TO.N,unconnected-(M2-Tacho-Pad3)*%
X124280000Y-77875000D03*
%TD*%
D12*
%TO.P,R3,1*%
%TO.N,gnd*%
X134570000Y-64000000D03*
%TO.P,R3,2*%
%TO.N,Net-(J4-CC1)*%
X133930000Y-64000000D03*
%TD*%
D19*
%TO.P,J6,L1*%
%TO.N,unconnected-(J6-PadL1)*%
X166175000Y-55650000D03*
%TO.P,J6,L2*%
%TO.N,unconnected-(J6-PadL2)*%
X168715000Y-54130000D03*
%TO.P,J6,L3*%
%TO.N,unconnected-(J6-PadL3)*%
X176285000Y-55650000D03*
%TO.P,J6,L4*%
%TO.N,unconnected-(J6-PadL4)*%
X178825000Y-54130000D03*
D20*
%TO.P,J6,R1,TD+*%
%TO.N,Net-(J6-TD+)*%
X176945000Y-65370000D03*
D21*
%TO.P,J6,R2,TD-*%
%TO.N,Net-(J6-TD-)*%
X175675000Y-67910000D03*
%TO.P,J6,R3,RD+*%
%TO.N,Net-(J6-RD+)*%
X174405000Y-65370000D03*
%TO.P,J6,R4,TCT*%
%TO.N,Net-(J6-RCT)*%
X173135000Y-67910000D03*
%TO.P,J6,R5,RCT*%
X171865000Y-65370000D03*
%TO.P,J6,R6,RD-*%
%TO.N,Net-(J6-RD-)*%
X170595000Y-67910000D03*
%TO.P,J6,R7,NC*%
%TO.N,unconnected-(J6-NC-PadR7)*%
X169325000Y-65370000D03*
%TO.P,J6,R8*%
%TO.N,gnd*%
X168055000Y-67910000D03*
D22*
%TO.P,J6,SH*%
X180275000Y-62080000D03*
X164725000Y-62080000D03*
%TD*%
D12*
%TO.P,C1,1*%
%TO.N,Net-(Y2-VCC)*%
X138570000Y-69250000D03*
%TO.P,C1,2*%
%TO.N,VBUSUP*%
X137930000Y-69250000D03*
%TD*%
%TO.P,R16,1*%
%TO.N,Net-(C6-Pad2)*%
X148070000Y-62750000D03*
%TO.P,R16,2*%
%TO.N,gnd*%
X147430000Y-62750000D03*
%TD*%
D11*
%TO.P,R5,1*%
%TO.N,gnd*%
X141180000Y-72250000D03*
%TO.P,R5,2*%
%TO.N,Net-(U2B-USBRBIAS)*%
X141820000Y-72250000D03*
%TD*%
D12*
%TO.P,R7,1*%
%TO.N,gnd*%
X157070000Y-62750000D03*
%TO.P,R7,2*%
%TO.N,Net-(J1-CC1)*%
X156430000Y-62750000D03*
%TD*%
D11*
%TO.P,R19,1*%
%TO.N,Net-(C7-Pad2)*%
X151335000Y-84500000D03*
%TO.P,R19,2*%
%TO.N,gnd*%
X151975000Y-84500000D03*
%TD*%
D13*
%TO.P,C4,1*%
%TO.N,Net-(U2A-VDD18ETHPLL)*%
X154750000Y-76750000D03*
%TO.P,C4,2*%
%TO.N,gnd*%
X154750000Y-77390000D03*
%TD*%
D14*
%TO.P,J2,A1,GND*%
%TO.N,gnd*%
X146500000Y-60500000D03*
%TO.P,J2,A2,TX1+*%
%TO.N,unconnected-(J2-TX1+-PadA2)*%
X146000000Y-60500000D03*
%TO.P,J2,A3,TX1-*%
%TO.N,unconnected-(J2-TX1--PadA3)*%
X145500000Y-60500000D03*
%TO.P,J2,A4,VBUS*%
%TO.N,Net-(U2B-PRTCTL2)*%
X145000000Y-60500000D03*
%TO.P,J2,A5,CC1*%
%TO.N,Net-(J2-CC1)*%
X144500000Y-60500000D03*
%TO.P,J2,A6,D+*%
%TO.N,D+DOWN2*%
X144000000Y-60500000D03*
%TO.P,J2,A7,D-*%
%TO.N,D-DOWN2*%
X143500000Y-60500000D03*
%TO.P,J2,A8,SBU1*%
%TO.N,unconnected-(J2-SBU1-PadA8)*%
X143000000Y-60500000D03*
%TO.P,J2,A9,VBUS*%
%TO.N,Net-(U2B-PRTCTL2)*%
X142500000Y-60500000D03*
%TO.P,J2,A10,RX2-*%
%TO.N,unconnected-(J2-RX2--PadA10)*%
X142000000Y-60500000D03*
%TO.P,J2,A11,RX2+*%
%TO.N,unconnected-(J2-RX2+-PadA11)*%
X141500000Y-60500000D03*
%TO.P,J2,A12,GND*%
%TO.N,gnd*%
X141000000Y-60500000D03*
%TO.P,J2,B1,GND*%
X141250000Y-58800000D03*
%TO.P,J2,B2,TX2+*%
%TO.N,unconnected-(J2-TX2+-PadB2)*%
X141750000Y-58800000D03*
%TO.P,J2,B3,TX2-*%
%TO.N,unconnected-(J2-TX2--PadB3)*%
X142250000Y-58800000D03*
%TO.P,J2,B4,VBUS*%
%TO.N,Net-(U2B-PRTCTL2)*%
X142750000Y-58800000D03*
%TO.P,J2,B5,CC2*%
%TO.N,Net-(J2-CC2)*%
X143250000Y-58800000D03*
%TO.P,J2,B6,D+*%
%TO.N,D+DOWN2*%
X143750000Y-58800000D03*
%TO.P,J2,B7,D-*%
%TO.N,D-DOWN2*%
X144250000Y-58800000D03*
%TO.P,J2,B8,SBU2*%
%TO.N,unconnected-(J2-SBU2-PadB8)*%
X144750000Y-58800000D03*
%TO.P,J2,B9,VBUS*%
%TO.N,Net-(U2B-PRTCTL2)*%
X145250000Y-58800000D03*
%TO.P,J2,B10,RX1-*%
%TO.N,unconnected-(J2-RX1--PadB10)*%
X145750000Y-58800000D03*
%TO.P,J2,B11,RX1+*%
%TO.N,unconnected-(J2-RX1+-PadB11)*%
X146250000Y-58800000D03*
%TO.P,J2,B12,GND*%
%TO.N,gnd*%
X146750000Y-58800000D03*
D15*
%TO.P,J2,SH1,SHIELD*%
%TO.N,Net-(C6-Pad2)*%
X148240000Y-55140000D03*
%TO.P,J2,SH2,SHIELD*%
X139260000Y-55140000D03*
%TO.P,J2,SH3,SHIELD*%
X147880000Y-58590000D03*
%TO.P,J2,SH4,SHIELD*%
X139620000Y-58590000D03*
%TD*%
D12*
%TO.P,R1,1*%
%TO.N,gnd*%
X143570000Y-66250000D03*
%TO.P,R1,2*%
%TO.N,Net-(J2-CC2)*%
X142930000Y-66250000D03*
%TD*%
D13*
%TO.P,R10,1*%
%TO.N,Net-(J6-RD-)*%
X168500000Y-73680000D03*
%TO.P,R10,2*%
%TO.N,VDD33A*%
X168500000Y-74320000D03*
%TD*%
D23*
%TO.P,Y2,1,INH*%
%TO.N,Net-(Y2-GND)*%
X139825000Y-70725000D03*
%TO.P,Y2,2,GND*%
X141675000Y-70725000D03*
%TO.P,Y2,3,CLK*%
%TO.N,Net-(U2A-XI)*%
X141675000Y-69275000D03*
%TO.P,Y2,4,VCC*%
%TO.N,Net-(Y2-VCC)*%
X139825000Y-69275000D03*
%TD*%
D12*
%TO.P,C5,1*%
%TO.N,gnd*%
X138500000Y-73250000D03*
%TO.P,C5,2*%
%TO.N,Net-(C5-Pad2)*%
X137860000Y-73250000D03*
%TD*%
D11*
%TO.P,C11,1*%
%TO.N,gnd*%
X153360000Y-83750000D03*
%TO.P,C11,2*%
%TO.N,Net-(C10-Pad2)*%
X154000000Y-83750000D03*
%TD*%
D16*
%TO.P,M3,1,-*%
%TO.N,gnd*%
X119200000Y-85375000D03*
D17*
%TO.P,M3,2,+*%
%TO.N,Net-(M1-+)*%
X121740000Y-85375000D03*
%TO.P,M3,3,Tacho*%
%TO.N,unconnected-(M3-Tacho-Pad3)*%
X124280000Y-85375000D03*
%TD*%
D18*
%TO.P,C8,1*%
%TO.N,Net-(U2A-VDD18USBPLL)*%
X135750000Y-74070000D03*
%TO.P,C8,2*%
%TO.N,gnd*%
X135750000Y-73430000D03*
%TD*%
%TO.P,C2,1*%
%TO.N,gnd*%
X138000000Y-71070000D03*
%TO.P,C2,2*%
%TO.N,Net-(Y2-GND)*%
X138000000Y-70430000D03*
%TD*%
D11*
%TO.P,C6,1*%
%TO.N,gnd*%
X151180000Y-73000000D03*
%TO.P,C6,2*%
%TO.N,Net-(C6-Pad2)*%
X151820000Y-73000000D03*
%TD*%
D16*
%TO.P,M4,1,-*%
%TO.N,gnd*%
X110200000Y-77875000D03*
D17*
%TO.P,M4,2,+*%
%TO.N,Net-(M1-+)*%
X112740000Y-77875000D03*
%TO.P,M4,3,Tacho*%
%TO.N,unconnected-(M4-Tacho-Pad3)*%
X115280000Y-77875000D03*
%TD*%
D24*
%TO.P,U2,1,USBDM2*%
%TO.N,D-DOWN1*%
X141312500Y-74500000D03*
%TO.P,U2,2,USBDP2*%
%TO.N,D+DOWN1*%
X141312500Y-75000000D03*
%TO.P,U2,3,USBDM3*%
%TO.N,D-DOWN2*%
X141312500Y-75500000D03*
%TO.P,U2,4,USBDP3*%
%TO.N,D+DOWN2*%
X141312500Y-76000000D03*
%TO.P,U2,5,VDD33A*%
%TO.N,VDD33A*%
X141312500Y-76500000D03*
%TO.P,U2,6,NC*%
%TO.N,unconnected-(U2B-NC-Pad6)*%
X141312500Y-77000000D03*
%TO.P,U2,7,NC*%
%TO.N,unconnected-(U2B-NC-Pad7)*%
X141312500Y-77500000D03*
%TO.P,U2,8,NC*%
%TO.N,unconnected-(U2B-NC-Pad8)*%
X141312500Y-78000000D03*
%TO.P,U2,9,NC*%
%TO.N,unconnected-(U2B-NC-Pad9)*%
X141312500Y-78500000D03*
%TO.P,U2,10,VDD33A*%
%TO.N,VDD33A*%
X141312500Y-79000000D03*
%TO.P,U2,11,VBUS_DET*%
%TO.N,Net-(U2B-VBUS_DET)*%
X141312500Y-79500000D03*
%TO.P,U2,12,~{RESET}*%
%TO.N,unconnected-(U2A-~{RESET}-Pad12)*%
X141312500Y-80000000D03*
%TO.P,U2,13,TEST1*%
%TO.N,unconnected-(U2A-TEST1-Pad13)*%
X141312500Y-80500000D03*
%TO.P,U2,14,PRTCTL2*%
%TO.N,Net-(U2B-PRTCTL2)*%
X141312500Y-81000000D03*
%TO.P,U2,15,VDD18CORE*%
%TO.N,Net-(C10-Pad2)*%
X141312500Y-81500000D03*
%TO.P,U2,16,PRTCTL3*%
%TO.N,Net-(U2B-PRTCTL3)*%
X141312500Y-82000000D03*
D25*
%TO.P,U2,17,NC*%
%TO.N,unconnected-(U2B-NC-Pad17)*%
X142000000Y-82687500D03*
%TO.P,U2,18,NC*%
%TO.N,unconnected-(U2B-NC-Pad18)*%
X142500000Y-82687500D03*
%TO.P,U2,19,VDD33IO*%
%TO.N,VBUSUP*%
X143000000Y-82687500D03*
%TO.P,U2,20,~{FDX_LED}/GPIO0*%
%TO.N,unconnected-(U2A-~{FDX_LED}{slash}GPIO0-Pad20)*%
X143500000Y-82687500D03*
%TO.P,U2,21,~{LNKA_LED}/GPIO1*%
%TO.N,unconnected-(U2A-~{LNKA_LED}{slash}GPIO1-Pad21)*%
X144000000Y-82687500D03*
%TO.P,U2,22,~{SPD_LED}/GPIO2*%
%TO.N,unconnected-(U2A-~{SPD_LED}{slash}GPIO2-Pad22)*%
X144500000Y-82687500D03*
%TO.P,U2,23,EECLK*%
%TO.N,unconnected-(U2A-EECLK-Pad23)*%
X145000000Y-82687500D03*
%TO.P,U2,24,EECS*%
%TO.N,unconnected-(U2A-EECS-Pad24)*%
X145500000Y-82687500D03*
%TO.P,U2,25,EEDO*%
%TO.N,unconnected-(U2A-EEDO-Pad25)*%
X146000000Y-82687500D03*
%TO.P,U2,26,EEDI*%
%TO.N,unconnected-(U2A-EEDI-Pad26)*%
X146500000Y-82687500D03*
%TO.P,U2,27,VDD33IO*%
%TO.N,VBUSUP*%
X147000000Y-82687500D03*
%TO.P,U2,28,~{TRST}*%
%TO.N,unconnected-(U2A-~{TRST}-Pad28)*%
X147500000Y-82687500D03*
%TO.P,U2,29,TMS*%
%TO.N,unconnected-(U2A-TMS-Pad29)*%
X148000000Y-82687500D03*
%TO.P,U2,30,TDI*%
%TO.N,unconnected-(U2A-TDI-Pad30)*%
X148500000Y-82687500D03*
%TO.P,U2,31,TDO*%
%TO.N,unconnected-(U2A-TDO-Pad31)*%
X149000000Y-82687500D03*
%TO.P,U2,32,TCK*%
%TO.N,unconnected-(U2A-TCK-Pad32)*%
X149500000Y-82687500D03*
D24*
%TO.P,U2,33,VDD33IO*%
%TO.N,VBUSUP*%
X150187500Y-82000000D03*
%TO.P,U2,34,TEST2*%
%TO.N,gnd*%
X150187500Y-81500000D03*
%TO.P,U2,35,GPIO3*%
%TO.N,unconnected-(U2A-GPIO3-Pad35)*%
X150187500Y-81000000D03*
%TO.P,U2,36,GPIO4*%
%TO.N,unconnected-(U2A-GPIO4-Pad36)*%
X150187500Y-80500000D03*
%TO.P,U2,37,GPIO5*%
%TO.N,unconnected-(U2A-GPIO5-Pad37)*%
X150187500Y-80000000D03*
%TO.P,U2,38,VDD18CORE*%
%TO.N,Net-(C10-Pad2)*%
X150187500Y-79500000D03*
%TO.P,U2,39,VDD33IO*%
%TO.N,VBUSUP*%
X150187500Y-79000000D03*
%TO.P,U2,40,TEST3*%
X150187500Y-78500000D03*
%TO.P,U2,41,AUTOMDIX_EN*%
%TO.N,unconnected-(U2B-AUTOMDIX_EN-Pad41)*%
X150187500Y-78000000D03*
%TO.P,U2,42,GPIO6*%
%TO.N,unconnected-(U2A-GPIO6-Pad42)*%
X150187500Y-77500000D03*
%TO.P,U2,43,GPIO7*%
%TO.N,unconnected-(U2A-GPIO7-Pad43)*%
X150187500Y-77000000D03*
%TO.P,U2,44,CLK24_EN*%
%TO.N,unconnected-(U2A-CLK24_EN-Pad44)*%
X150187500Y-76500000D03*
%TO.P,U2,45,CLK24_OUT*%
%TO.N,unconnected-(U2A-CLK24_OUT-Pad45)*%
X150187500Y-76000000D03*
%TO.P,U2,46,VDD33IO*%
%TO.N,VBUSUP*%
X150187500Y-75500000D03*
%TO.P,U2,47,TEST4*%
%TO.N,unconnected-(U2A-TEST4-Pad47)*%
X150187500Y-75000000D03*
%TO.P,U2,48,VDD18ETHPLL*%
%TO.N,Net-(U2A-VDD18ETHPLL)*%
X150187500Y-74500000D03*
D25*
%TO.P,U2,49,VDD33A*%
%TO.N,VDD33A*%
X149500000Y-73812500D03*
%TO.P,U2,50,EXRES*%
%TO.N,Net-(U2B-EXRES)*%
X149000000Y-73812500D03*
%TO.P,U2,51,VDD33A*%
%TO.N,VDD33A*%
X148500000Y-73812500D03*
%TO.P,U2,52,RXP*%
%TO.N,Net-(J6-RD+)*%
X148000000Y-73812500D03*
%TO.P,U2,53,RXN*%
%TO.N,Net-(J6-RD-)*%
X147500000Y-73812500D03*
%TO.P,U2,54,VDD33A*%
%TO.N,VDD33A*%
X147000000Y-73812500D03*
%TO.P,U2,55,TXP*%
%TO.N,Net-(J6-TD+)*%
X146500000Y-73812500D03*
%TO.P,U2,56,TXN*%
%TO.N,Net-(J6-TD-)*%
X146000000Y-73812500D03*
%TO.P,U2,57,VDD33A*%
%TO.N,VDD33A*%
X145500000Y-73812500D03*
%TO.P,U2,58,USBDM0*%
%TO.N,D-UP*%
X145000000Y-73812500D03*
%TO.P,U2,59,USBDP0*%
%TO.N,D+UP*%
X144500000Y-73812500D03*
%TO.P,U2,60,XO*%
%TO.N,unconnected-(U2A-XO-Pad60)*%
X144000000Y-73812500D03*
%TO.P,U2,61,XI*%
%TO.N,Net-(U2A-XI)*%
X143500000Y-73812500D03*
%TO.P,U2,62,VDD18USBPLL*%
%TO.N,Net-(U2A-VDD18USBPLL)*%
X143000000Y-73812500D03*
%TO.P,U2,63,USBRBIAS*%
%TO.N,Net-(U2B-USBRBIAS)*%
X142500000Y-73812500D03*
%TO.P,U2,64,VDD33A*%
%TO.N,VDD33A*%
X142000000Y-73812500D03*
D26*
%TO.P,U2,65,GND*%
%TO.N,gnd*%
X145750000Y-78250000D03*
%TD*%
D12*
%TO.P,R14,1*%
%TO.N,Net-(J6-RCT)*%
X169500000Y-76500000D03*
%TO.P,R14,2*%
%TO.N,VDD33A*%
X168860000Y-76500000D03*
%TD*%
%TO.P,R4,1*%
%TO.N,gnd*%
X145820000Y-66250000D03*
%TO.P,R4,2*%
%TO.N,Net-(J2-CC1)*%
X145180000Y-66250000D03*
%TD*%
D18*
%TO.P,R18,1*%
%TO.N,gnd*%
X138500000Y-83640000D03*
%TO.P,R18,2*%
%TO.N,Net-(U2B-VBUS_DET)*%
X138500000Y-83000000D03*
%TD*%
D27*
%TO.P,SW1,1,A*%
%TO.N,Net-(M1-+)*%
X112642500Y-54750000D03*
D28*
%TO.P,SW1,2,B*%
%TO.N,VBUSUP*%
X112642500Y-57250000D03*
%TO.P,SW1,3,C*%
X112642500Y-59750000D03*
%TO.P,SW1,4*%
%TO.N,N/C*%
X109342500Y-59750000D03*
%TO.P,SW1,5*%
X109342500Y-57250000D03*
%TO.P,SW1,6*%
X109342500Y-54750000D03*
%TD*%
D11*
%TO.P,C7,1*%
%TO.N,gnd*%
X151335000Y-82750000D03*
%TO.P,C7,2*%
%TO.N,Net-(C7-Pad2)*%
X151975000Y-82750000D03*
%TD*%
D29*
%TO.N,gnd*%
X134250000Y-61500000D03*
X138650000Y-71314190D03*
X140050000Y-72617463D03*
X150699000Y-72562857D03*
X138251301Y-67022339D03*
X141000000Y-62059999D03*
X142130433Y-67636779D03*
X148928407Y-72400000D03*
X151750000Y-80500000D03*
X126000000Y-59000000D03*
X131250000Y-67000000D03*
X139470920Y-83309398D03*
X145750000Y-78250000D03*
X135000000Y-69000000D03*
X129000000Y-62000000D03*
X138160385Y-79973430D03*
X120000000Y-66500000D03*
X153750000Y-76250000D03*
%TO.N,Net-(J1-CC2)*%
X150950000Y-63731786D03*
X153250000Y-63750000D03*
%TO.N,D+UP*%
X144250000Y-68500000D03*
X155441499Y-62891829D03*
X160250000Y-61000000D03*
%TO.N,D-UP*%
X147759627Y-67360849D03*
X145000000Y-71500000D03*
%TO.N,VBUSUP*%
X137324768Y-71505676D03*
X143750000Y-84000000D03*
X151165916Y-62394400D03*
X156519964Y-61920725D03*
X152500000Y-78750000D03*
X153053649Y-81474595D03*
%TO.N,Net-(J6-RCT)*%
X171100000Y-76500000D03*
X154500000Y-75000000D03*
X168000000Y-78750000D03*
%TO.N,Net-(U2A-VDD18ETHPLL)*%
X154593606Y-69328532D03*
X153750000Y-74500000D03*
%TO.N,Net-(C5-Pad2)*%
X132000000Y-75500000D03*
X137750000Y-72250000D03*
X125000000Y-66150000D03*
%TO.N,Net-(C6-Pad2)*%
X148500000Y-63250000D03*
X149000000Y-61750000D03*
X151634620Y-71465380D03*
X147339050Y-66599775D03*
%TO.N,Net-(U2A-VDD18USBPLL)*%
X153511361Y-67321359D03*
X136919925Y-74499314D03*
X142750000Y-72500000D03*
%TO.N,Net-(C10-Pad2)*%
X140325165Y-78582120D03*
X139336015Y-81301000D03*
%TO.N,Net-(U2B-PRTCTL2)*%
X142500000Y-62500000D03*
X140250000Y-81250000D03*
X134500000Y-81250000D03*
X132900000Y-81250000D03*
X145000000Y-62500000D03*
%TO.N,Net-(C7-Pad2)*%
X153000000Y-82750000D03*
%TO.N,D-DOWN2*%
X133750000Y-79750000D03*
X138250000Y-64000000D03*
X139000000Y-77000000D03*
X134500000Y-65250000D03*
%TO.N,D+DOWN2*%
X135330760Y-66999999D03*
X133630760Y-66699882D03*
X133556581Y-76120556D03*
X138308212Y-75647389D03*
%TO.N,Net-(J2-CC2)*%
X138076233Y-57224589D03*
X137750000Y-60500000D03*
%TO.N,Net-(U2B-PRTCTL3)*%
X135250000Y-82250000D03*
X133900000Y-63040689D03*
X131250000Y-63000000D03*
X140560569Y-82631279D03*
%TO.N,D-DOWN1*%
X139179109Y-74835965D03*
X132199000Y-62250000D03*
X136373707Y-75150582D03*
X133860742Y-72154332D03*
X134697041Y-62700109D03*
%TO.N,D+DOWN1*%
X133700000Y-78250000D03*
X132750000Y-64500000D03*
X138946429Y-76151687D03*
X132650000Y-73359206D03*
%TO.N,Net-(J6-RD-)*%
X170104215Y-73670000D03*
X167000000Y-71350000D03*
%TO.N,Net-(J6-TD-)*%
X153682838Y-65373755D03*
X151554007Y-67753395D03*
%TO.N,Net-(J6-TD+)*%
X179250000Y-72500000D03*
%TO.N,VDD33A*%
X152281361Y-68982317D03*
X164750000Y-72250000D03*
X145977273Y-69603487D03*
%TO.N,Net-(U2B-VBUS_DET)*%
X142260927Y-83649899D03*
X137224953Y-83644193D03*
%TD*%
D30*
%TO.N,Net-(J1-CC1)*%
X155750000Y-60500000D02*
X155750000Y-62070000D01*
X155750000Y-62070000D02*
X156430000Y-62750000D01*
%TO.N,gnd*%
X138383815Y-79750000D02*
X138160385Y-79973430D01*
X153750000Y-76589999D02*
X153750000Y-76250000D01*
X124125000Y-58875000D02*
X125875000Y-58875000D01*
X153322888Y-80824595D02*
X153568293Y-81070000D01*
X151975000Y-84500000D02*
X152610000Y-84500000D01*
X138894000Y-57989281D02*
X138894000Y-59328314D01*
X157750000Y-61277200D02*
X158146400Y-61673600D01*
X151600000Y-63462547D02*
X151600000Y-64001025D01*
X150548194Y-60798194D02*
X150144000Y-60394000D01*
X143570000Y-66250000D02*
X144071000Y-66751000D01*
X158000000Y-59466314D02*
X157750000Y-59716314D01*
X152250000Y-60500000D02*
X151951806Y-60798194D01*
X139140318Y-83640000D02*
X139470920Y-83309398D01*
X135250000Y-60500000D02*
X135250000Y-61000000D01*
X151180000Y-73000000D02*
X150742857Y-72562857D01*
X127180000Y-64699999D02*
X128480001Y-66000000D01*
X153410001Y-76250000D02*
X153750000Y-76250000D01*
X138375132Y-66898508D02*
X138251301Y-67022339D01*
X149136684Y-67929001D02*
X147987016Y-67929001D01*
X146689050Y-67276333D02*
X146689050Y-63490950D01*
X140020731Y-66898508D02*
X141392162Y-66898508D01*
X142130433Y-67149067D02*
X142130433Y-67636779D01*
X122500000Y-64500000D02*
X120500000Y-66500000D01*
X133834315Y-64850000D02*
X133919999Y-64850000D01*
X150934924Y-61815076D02*
X150550000Y-61815076D01*
X155668239Y-63501000D02*
X156518999Y-63501000D01*
X151264000Y-57564000D02*
X152500000Y-58800000D01*
X153360000Y-83309239D02*
X154250000Y-82419239D01*
X154550001Y-77390000D02*
X153750000Y-76589999D01*
X155519239Y-63650000D02*
X155668239Y-63501000D01*
X138900000Y-59334314D02*
X138900000Y-60165686D01*
X158000000Y-58800000D02*
X158000000Y-59466314D01*
X144071000Y-66751000D02*
X142528500Y-66751000D01*
X152680000Y-75250000D02*
X152680000Y-75519999D01*
X128480001Y-66000000D02*
X132184314Y-66000000D01*
X149112547Y-62992677D02*
X147799870Y-61680000D01*
X138000000Y-71070000D02*
X138405810Y-71070000D01*
X151335000Y-82750000D02*
X151335000Y-83085000D01*
X158146400Y-61673600D02*
X158423600Y-61673600D01*
X149112547Y-63556691D02*
X149112547Y-62992677D01*
X157750000Y-59716314D02*
X157750000Y-60500000D01*
X154980761Y-63650000D02*
X155519239Y-63650000D01*
X137440958Y-67859042D02*
X137941567Y-67859042D01*
X130000000Y-58800000D02*
X128764000Y-57564000D01*
X146750000Y-59466314D02*
X146750000Y-58800000D01*
X139750000Y-61750000D02*
X141000000Y-60500000D01*
X138902101Y-66898508D02*
X138375132Y-66898508D01*
X146500000Y-59716314D02*
X146750000Y-59466314D01*
X150816711Y-63081786D02*
X151219239Y-63081786D01*
X150550000Y-62815075D02*
X150816711Y-63081786D01*
X154831761Y-63501000D02*
X154980761Y-63650000D01*
X138500000Y-83640000D02*
X139140318Y-83640000D01*
X139769239Y-67150000D02*
X140020731Y-66898508D01*
X129480001Y-67000000D02*
X127180000Y-64699999D01*
X128500000Y-61750000D02*
X129125000Y-61125000D01*
X131250000Y-67000000D02*
X129480001Y-67000000D01*
X133034314Y-65150000D02*
X133534314Y-65150000D01*
X152981001Y-62499000D02*
X153618870Y-62499000D01*
X139153593Y-67150000D02*
X139769239Y-67150000D01*
X125500000Y-56640000D02*
X125500000Y-57500000D01*
X138650000Y-72220734D02*
X138650000Y-71314190D01*
X142528500Y-66751000D02*
X142130433Y-67149067D01*
X135750000Y-73430000D02*
X135750000Y-68315685D01*
X152565405Y-80824595D02*
X153322888Y-80824595D01*
X147430000Y-64622944D02*
X147300000Y-64752944D01*
X157070000Y-62750000D02*
X158146400Y-61673600D01*
X147430000Y-62750000D02*
X147430000Y-64622944D01*
X139300000Y-72617463D02*
X140050000Y-72617463D01*
X138894000Y-59328314D02*
X138900000Y-59334314D01*
X153618870Y-62499000D02*
X154620870Y-63501000D01*
X149250000Y-71500000D02*
X149250000Y-72078407D01*
X128764000Y-57564000D02*
X128069281Y-57564000D01*
X129000000Y-61250000D02*
X129125000Y-61125000D01*
X158423600Y-61673600D02*
X158830000Y-62080000D01*
X152000000Y-83750000D02*
X153360000Y-83750000D01*
X152320000Y-81070000D02*
X152565405Y-80824595D01*
X154620870Y-63501000D02*
X154831761Y-63501000D01*
X139046729Y-72617463D02*
X138650000Y-72220734D01*
X138894000Y-60171686D02*
X138894000Y-61750000D01*
X151160796Y-64440229D02*
X149996085Y-64440229D01*
X152610000Y-84500000D02*
X153360000Y-83750000D01*
X149250000Y-72078407D02*
X148928407Y-72400000D01*
X141250000Y-58800000D02*
X140014000Y-57564000D01*
X152680000Y-63000000D02*
X152680000Y-62800001D01*
X134570000Y-64199999D02*
X134570000Y-64000000D01*
X152400000Y-63280000D02*
X152400000Y-64665685D01*
X152042000Y-81348000D02*
X152320000Y-81070000D01*
X152680000Y-75519999D02*
X153410001Y-76250000D01*
X150569281Y-57564000D02*
X151264000Y-57564000D01*
X147559485Y-68146768D02*
X146689050Y-67276333D01*
X136364874Y-67700811D02*
X137282727Y-67700811D01*
X133534314Y-65150000D02*
X133834315Y-64850000D01*
X144071000Y-66751000D02*
X145518999Y-66751000D01*
X138500000Y-73250000D02*
X139417463Y-73250000D01*
X151600000Y-64001025D02*
X151160796Y-64440229D01*
X146500000Y-60750000D02*
X147430000Y-61680000D01*
X140050000Y-72617463D02*
X139046729Y-72617463D01*
X149996085Y-64440229D02*
X149112547Y-63556691D01*
X147799870Y-61680000D02*
X147430000Y-61680000D01*
X153568293Y-81070000D02*
X154250000Y-81070000D01*
X122500000Y-64500000D02*
X127180000Y-64500000D01*
X124125000Y-58875000D02*
X120500000Y-62500000D01*
X141180000Y-72250000D02*
X140750000Y-72250000D01*
X147300000Y-64770000D02*
X145820000Y-66250000D01*
X120500000Y-62500000D02*
X122500000Y-64500000D01*
X133919999Y-64850000D02*
X134570000Y-64199999D01*
X127644000Y-61750000D02*
X128500000Y-61750000D01*
X150650931Y-81500000D02*
X150802931Y-81348000D01*
X151951806Y-60798194D02*
X150548194Y-60798194D01*
X157750000Y-60500000D02*
X157750000Y-61277200D01*
X139319281Y-57564000D02*
X138894000Y-57989281D01*
X152680000Y-62800001D02*
X152981001Y-62499000D01*
X151750000Y-80500000D02*
X152320000Y-81070000D01*
X158830000Y-62080000D02*
X164725000Y-62080000D01*
X138500000Y-79750000D02*
X138383815Y-79750000D01*
X138900000Y-60165686D02*
X138894000Y-60171686D01*
X129125000Y-61125000D02*
X129750000Y-60500000D01*
X138894000Y-61750000D02*
X139750000Y-61750000D01*
X135750000Y-68315685D02*
X135684315Y-68315685D01*
X135250000Y-60500000D02*
X135250000Y-59652000D01*
X141000000Y-62059999D02*
X141000000Y-60500000D01*
X152680000Y-63000000D02*
X152400000Y-63280000D01*
X132184314Y-66000000D02*
X133034314Y-65150000D01*
X150550000Y-61815076D02*
X150550000Y-62815075D01*
X150144000Y-57989281D02*
X150569281Y-57564000D01*
X120500000Y-66500000D02*
X120000000Y-66500000D01*
X125500000Y-57500000D02*
X124125000Y-58875000D01*
X150187500Y-81500000D02*
X150650931Y-81500000D01*
X138902101Y-66898508D02*
X139153593Y-67150000D01*
X157070000Y-62949999D02*
X157070000Y-62750000D01*
X145820000Y-66449999D02*
X145820000Y-66250000D01*
X139117463Y-72434926D02*
X139300000Y-72617463D01*
X140014000Y-57564000D02*
X139319281Y-57564000D01*
X138405810Y-71070000D02*
X138650000Y-71314190D01*
X137282727Y-67700811D02*
X137440958Y-67859042D01*
X150742857Y-72562857D02*
X150699000Y-72562857D01*
X146689050Y-63490950D02*
X147430000Y-62750000D01*
X150144000Y-60394000D02*
X150144000Y-57989281D01*
X140750000Y-72250000D02*
X140000000Y-71500000D01*
X146500000Y-60500000D02*
X146500000Y-59716314D01*
X150802931Y-81348000D02*
X152042000Y-81348000D01*
X151219239Y-63081786D02*
X151600000Y-63462547D01*
X151335000Y-83085000D02*
X152000000Y-83750000D01*
X134750000Y-61500000D02*
X134250000Y-61500000D01*
X135684315Y-68315685D02*
X135000000Y-69000000D01*
X135250000Y-59652000D02*
X135500000Y-59402000D01*
X147300000Y-64752944D02*
X147300000Y-64770000D01*
X142860000Y-71500000D02*
X140000000Y-71500000D01*
X156518999Y-63501000D02*
X157070000Y-62949999D01*
X153360000Y-83750000D02*
X153360000Y-83309239D01*
X145518999Y-66751000D02*
X145820000Y-66449999D01*
X127180000Y-64699999D02*
X127180000Y-64500000D01*
X146500000Y-60500000D02*
X146500000Y-60750000D01*
X147430000Y-61680000D02*
X147430000Y-62750000D01*
X141392162Y-66898508D02*
X142130433Y-67636779D01*
X135750000Y-68315685D02*
X136364874Y-67700811D01*
X125875000Y-58875000D02*
X126000000Y-59000000D01*
X147987016Y-67929001D02*
X147769249Y-68146768D01*
X154750000Y-77390000D02*
X154550001Y-77390000D01*
X140000000Y-71500000D02*
X139117463Y-72382537D01*
X137941567Y-67859042D02*
X138902101Y-66898508D01*
X139417463Y-73250000D02*
X140050000Y-72617463D01*
X147769249Y-68146768D02*
X147559485Y-68146768D01*
X135500000Y-59402000D02*
X135500000Y-58800000D01*
X129000000Y-62000000D02*
X129000000Y-61250000D01*
X135250000Y-61000000D02*
X134750000Y-61500000D01*
X139117463Y-72382537D02*
X139117463Y-72434926D01*
X128069281Y-57564000D02*
X127644000Y-57989281D01*
X154250000Y-82419239D02*
X154250000Y-81070000D01*
X151951806Y-60798194D02*
X150934924Y-61815076D01*
X127644000Y-57989281D02*
X127644000Y-61750000D01*
X152400000Y-64665685D02*
X149136684Y-67929001D01*
%TO.N,Net-(J1-CC2)*%
X149744000Y-61574761D02*
X150150000Y-61980761D01*
X150403181Y-57163000D02*
X149744000Y-57822181D01*
X154500000Y-58800000D02*
X154500000Y-58198000D01*
X153250000Y-63070000D02*
X153320000Y-63000000D01*
X154500000Y-58198000D02*
X153465000Y-57163000D01*
X150206881Y-63731786D02*
X150950000Y-63731786D01*
X150150000Y-61980761D02*
X150150000Y-63674905D01*
X153250000Y-63750000D02*
X153250000Y-63070000D01*
X153465000Y-57163000D02*
X150403181Y-57163000D01*
X150150000Y-63674905D02*
X150206881Y-63731786D01*
X149744000Y-57822181D02*
X149744000Y-61574761D01*
%TO.N,D+UP*%
X160250000Y-58383281D02*
X159430719Y-57564000D01*
X155250000Y-60500000D02*
X155250000Y-62700330D01*
X159430719Y-57564000D02*
X155634000Y-57564000D01*
X144500000Y-73359202D02*
X144500000Y-73812500D01*
X144250000Y-68500000D02*
X144250000Y-73109202D01*
X155634000Y-57564000D02*
X155000000Y-58198000D01*
X155000000Y-58198000D02*
X155000000Y-58800000D01*
X144250000Y-73109202D02*
X144500000Y-73359202D01*
X155250000Y-62700330D02*
X155441499Y-62891829D01*
X160250000Y-61000000D02*
X160250000Y-58383281D01*
%TO.N,D-UP*%
X149303376Y-65817100D02*
X147759627Y-67360849D01*
X155197000Y-59451000D02*
X155451000Y-59451000D01*
X152000000Y-64166711D02*
X150474611Y-65692100D01*
X154750000Y-59898000D02*
X155197000Y-59451000D01*
X150474611Y-65692100D02*
X149442100Y-65692100D01*
X149317100Y-65817100D02*
X149303376Y-65817100D01*
X145000000Y-71500000D02*
X145000000Y-73812500D01*
X152781130Y-62099000D02*
X152000000Y-62880130D01*
X153901000Y-62099000D02*
X152781130Y-62099000D01*
X154750000Y-60500000D02*
X154750000Y-61250000D01*
X152000000Y-62880130D02*
X152000000Y-64166711D01*
X155451000Y-59451000D02*
X155500000Y-59402000D01*
X154750000Y-61250000D02*
X153901000Y-62099000D01*
X155500000Y-59402000D02*
X155500000Y-58800000D01*
X154750000Y-60500000D02*
X154750000Y-59898000D01*
%TO.N,VBUSUP*%
X150640798Y-75500000D02*
X150187500Y-75500000D01*
X156250000Y-60500000D02*
X156250000Y-61650761D01*
X153750000Y-60500000D02*
X153750000Y-61102000D01*
X153750000Y-61102000D02*
X153153000Y-61699000D01*
X152250000Y-78500000D02*
X150187500Y-78500000D01*
X150187500Y-82953298D02*
X150187500Y-82000000D01*
X150187500Y-78500000D02*
X150187500Y-79000000D01*
X151165916Y-62316873D02*
X151165916Y-62394400D01*
X156500000Y-58800000D02*
X156500000Y-59500000D01*
X153750000Y-60500000D02*
X153750000Y-59652000D01*
X144324000Y-83426000D02*
X144500000Y-83426000D01*
X154000000Y-59402000D02*
X154000000Y-58800000D01*
X153153000Y-61699000D02*
X151783789Y-61699000D01*
X137324768Y-69625233D02*
X137324768Y-71505676D01*
X146824000Y-83426000D02*
X147000000Y-83250000D01*
X151783789Y-61699000D02*
X151165916Y-62316873D01*
X137700001Y-69250000D02*
X137324768Y-69625233D01*
X150719444Y-82000000D02*
X150969445Y-81750000D01*
X137930000Y-69250000D02*
X137700001Y-69250000D01*
X148640798Y-84500000D02*
X150187500Y-82953298D01*
X147000000Y-84500000D02*
X148640798Y-84500000D01*
X152500000Y-78750000D02*
X152250000Y-78500000D01*
X156250000Y-61650761D02*
X156519964Y-61920725D01*
X143000000Y-83140798D02*
X143285202Y-83426000D01*
X152500000Y-77359202D02*
X150640798Y-75500000D01*
X144500000Y-83426000D02*
X146824000Y-83426000D01*
X143000000Y-82687500D02*
X143000000Y-83140798D01*
X150187500Y-82000000D02*
X150719444Y-82000000D01*
X156500000Y-59500000D02*
X156250000Y-59750000D01*
X147000000Y-83250000D02*
X147000000Y-82687500D01*
X147000000Y-82687500D02*
X147000000Y-84500000D01*
X143285202Y-83426000D02*
X144500000Y-83426000D01*
X143750000Y-84000000D02*
X144324000Y-83426000D01*
X156250000Y-59750000D02*
X156250000Y-60500000D01*
X152500000Y-78750000D02*
X152500000Y-77359202D01*
X152778244Y-81750000D02*
X153053649Y-81474595D01*
X150969445Y-81750000D02*
X152778244Y-81750000D01*
X153750000Y-59652000D02*
X154000000Y-59402000D01*
%TO.N,Net-(Y2-GND)*%
X139825000Y-70725000D02*
X139359201Y-70259201D01*
X139359201Y-70259201D02*
X138170799Y-70259201D01*
X141675000Y-70725000D02*
X139825000Y-70725000D01*
X138170799Y-70259201D02*
X138000000Y-70430000D01*
%TO.N,Net-(J6-RCT)*%
X169500000Y-77250000D02*
X169500000Y-76500000D01*
X169500000Y-76500000D02*
X171100000Y-76500000D01*
X154250000Y-75250000D02*
X154500000Y-75000000D01*
X168000000Y-78750000D02*
X169500000Y-77250000D01*
X171865000Y-65370000D02*
X173135000Y-66640000D01*
X173135000Y-66640000D02*
X173135000Y-67910000D01*
X153320000Y-75250000D02*
X154250000Y-75250000D01*
%TO.N,Net-(U2A-VDD18ETHPLL)*%
X155150000Y-74730761D02*
X154769239Y-74350000D01*
X153599000Y-74349000D02*
X150338500Y-74349000D01*
X155572138Y-68350000D02*
X154593606Y-69328532D01*
X150338500Y-74349000D02*
X150187500Y-74500000D01*
X153900000Y-74350000D02*
X153750000Y-74500000D01*
X158750000Y-68350000D02*
X155572138Y-68350000D01*
X155150000Y-76350000D02*
X155150000Y-74730761D01*
X154750000Y-76750000D02*
X155150000Y-76350000D01*
X153750000Y-74500000D02*
X153599000Y-74349000D01*
X154769239Y-74350000D02*
X153900000Y-74350000D01*
%TO.N,Net-(C5-Pad2)*%
X127150000Y-56000000D02*
X128010000Y-55140000D01*
X125500000Y-56000000D02*
X127150000Y-56000000D01*
X137860000Y-73250000D02*
X137860000Y-72360000D01*
X132000000Y-75500000D02*
X132000000Y-73000000D01*
X137860000Y-72360000D02*
X137750000Y-72250000D01*
X125150000Y-66150000D02*
X125000000Y-66150000D01*
X132000000Y-73000000D02*
X125150000Y-66150000D01*
%TO.N,Net-(C6-Pad2)*%
X148500000Y-63250000D02*
X148500000Y-63180000D01*
X149001000Y-61749000D02*
X149000000Y-61750000D01*
X149001000Y-59711000D02*
X149001000Y-61749000D01*
X151820000Y-73000000D02*
X151820000Y-71650760D01*
X148070000Y-62750000D02*
X148070000Y-65868825D01*
X148070000Y-65868825D02*
X147339050Y-66599775D01*
X147880000Y-58590000D02*
X149001000Y-59711000D01*
X151820000Y-71650760D02*
X151634620Y-71465380D01*
X148500000Y-63180000D02*
X148070000Y-62750000D01*
%TO.N,Net-(U2A-VDD18USBPLL)*%
X135750000Y-74070000D02*
X136490611Y-74070000D01*
X158750000Y-66150000D02*
X154682720Y-66150000D01*
X143000000Y-72750000D02*
X142750000Y-72500000D01*
X143000000Y-73812500D02*
X143000000Y-72750000D01*
X154682720Y-66150000D02*
X153511361Y-67321359D01*
X136490611Y-74070000D02*
X136919925Y-74499314D01*
%TO.N,Net-(C10-Pad2)*%
X140230761Y-83865076D02*
X140230761Y-83150000D01*
X140404761Y-81845239D02*
X139665380Y-82584620D01*
X154250000Y-80430000D02*
X153320000Y-79500000D01*
X154000000Y-84000000D02*
X155250000Y-85250000D01*
X139476416Y-79750000D02*
X140325165Y-78901251D01*
X140513963Y-81845239D02*
X140404761Y-81845239D01*
X155250000Y-82565076D02*
X155250000Y-80750000D01*
X155250000Y-85250000D02*
X155250000Y-83734924D01*
X139665380Y-82584620D02*
X139665380Y-81630365D01*
X155250000Y-80750000D02*
X154930000Y-80430000D01*
X154930000Y-80430000D02*
X154250000Y-80430000D01*
X155250000Y-85250000D02*
X141615685Y-85250000D01*
X140325165Y-78901251D02*
X140325165Y-78582120D01*
X154000000Y-83750000D02*
X154000000Y-84000000D01*
X139665380Y-81630365D02*
X139336015Y-81301000D01*
X153320000Y-79500000D02*
X150187500Y-79500000D01*
X140230761Y-83150000D02*
X139665380Y-82584620D01*
X141615685Y-85250000D02*
X140230761Y-83865076D01*
X140859202Y-81500000D02*
X140513963Y-81845239D01*
X154665076Y-83150000D02*
X155250000Y-82565076D01*
X139140000Y-79750000D02*
X139476416Y-79750000D01*
X141312500Y-81500000D02*
X140859202Y-81500000D01*
X155250000Y-83734924D02*
X154665076Y-83150000D01*
%TO.N,Net-(U2B-PRTCTL2)*%
X142500000Y-59898000D02*
X142750000Y-59648000D01*
X145000000Y-60500000D02*
X145000000Y-59898000D01*
X142750000Y-59648000D02*
X142750000Y-58800000D01*
X140500000Y-81000000D02*
X141312500Y-81000000D01*
X142500000Y-60500000D02*
X142500000Y-59898000D01*
X142500000Y-60500000D02*
X142500000Y-62500000D01*
X145250000Y-59648000D02*
X145250000Y-58800000D01*
X140250000Y-81250000D02*
X140500000Y-81000000D01*
X145000000Y-59898000D02*
X145250000Y-59648000D01*
X145000000Y-62500000D02*
X145000000Y-60500000D01*
X132900000Y-81250000D02*
X134500000Y-81250000D01*
%TO.N,Net-(C7-Pad2)*%
X150804000Y-82481130D02*
X150804000Y-83969000D01*
X151975000Y-82750000D02*
X151975000Y-82590130D01*
X153000000Y-82750000D02*
X151975000Y-82750000D01*
X150804000Y-83969000D02*
X151335000Y-84500000D01*
X151036130Y-82249000D02*
X150804000Y-82481130D01*
X151633870Y-82249000D02*
X151036130Y-82249000D01*
X151975000Y-82590130D02*
X151633870Y-82249000D01*
%TO.N,D-DOWN2*%
X134161403Y-65250000D02*
X134500000Y-65250000D01*
X133750000Y-79750000D02*
X123500000Y-69500000D01*
X137350000Y-56980761D02*
X137730761Y-56600000D01*
X123500000Y-69500000D02*
X123500000Y-65500000D01*
X143500000Y-62349943D02*
X143500000Y-60500000D01*
X137350000Y-57417595D02*
X137350000Y-56980761D01*
X138500000Y-63250000D02*
X142599943Y-63250000D01*
X138494000Y-58561595D02*
X137350000Y-57417595D01*
X128350000Y-67600000D02*
X131811403Y-67600000D01*
X137730761Y-56600000D02*
X142217686Y-56600000D01*
X138250000Y-64000000D02*
X138494000Y-63756000D01*
X143215000Y-57163000D02*
X144250000Y-58198000D01*
X142599943Y-63250000D02*
X143500000Y-62349943D01*
X131811403Y-67600000D02*
X134161403Y-65250000D01*
X142780686Y-57163000D02*
X143215000Y-57163000D01*
X123500000Y-65500000D02*
X126250000Y-65500000D01*
X141312500Y-75500000D02*
X140500000Y-75500000D01*
X144250000Y-58198000D02*
X144250000Y-58800000D01*
X140500000Y-75500000D02*
X139000000Y-77000000D01*
X138494000Y-63756000D02*
X138494000Y-58561595D01*
X126250000Y-65500000D02*
X128350000Y-67600000D01*
X142217686Y-56600000D02*
X142780686Y-57163000D01*
%TO.N,D+DOWN2*%
X133185742Y-75749717D02*
X133185742Y-73742703D01*
X138669239Y-64750000D02*
X138519239Y-64900000D01*
X143750000Y-59402000D02*
X143750000Y-58800000D01*
X139269239Y-77650000D02*
X138730761Y-77650000D01*
X144000000Y-64750000D02*
X138669239Y-64750000D01*
X143999000Y-62085372D02*
X143999000Y-62914629D01*
X133300000Y-73089967D02*
X133185742Y-72975709D01*
X139650000Y-77269239D02*
X139269239Y-77650000D01*
X144000000Y-60500000D02*
X144000000Y-62084372D01*
X133556581Y-76120556D02*
X133185742Y-75749717D01*
X133550000Y-66780642D02*
X133630760Y-66699882D01*
X133550000Y-68630761D02*
X133550000Y-66780642D01*
X144000000Y-59652000D02*
X143750000Y-59402000D01*
X139650000Y-77143518D02*
X139650000Y-77269239D01*
X144000000Y-62915629D02*
X144000000Y-64750000D01*
X137430759Y-64900000D02*
X135330760Y-66999999D01*
X138308212Y-77227451D02*
X138308212Y-75647389D01*
X144000000Y-60500000D02*
X144000000Y-59652000D01*
X133185742Y-72964257D02*
X132810742Y-72589257D01*
X133300000Y-73628445D02*
X133300000Y-73089967D01*
X138519239Y-64900000D02*
X137430759Y-64900000D01*
X140793518Y-76000000D02*
X139650000Y-77143518D01*
X133650000Y-70880150D02*
X133650000Y-68730761D01*
X143999000Y-62914629D02*
X144000000Y-62915629D01*
X141312500Y-76000000D02*
X140793518Y-76000000D01*
X144000000Y-62084372D02*
X143999000Y-62085372D01*
X133650000Y-68730761D02*
X133550000Y-68630761D01*
X133185742Y-73742703D02*
X133300000Y-73628445D01*
X132810742Y-71719408D02*
X133650000Y-70880150D01*
X138730761Y-77650000D02*
X138308212Y-77227451D01*
X132810742Y-72589257D02*
X132810742Y-71719408D01*
X133185742Y-72975709D02*
X133185742Y-72964257D01*
%TO.N,Net-(J2-CC1)*%
X144399000Y-62748943D02*
X144399000Y-62251057D01*
X145180000Y-66250000D02*
X145180000Y-63529943D01*
X144500000Y-62150057D02*
X144500000Y-60500000D01*
X145180000Y-63529943D02*
X144399000Y-62748943D01*
X144399000Y-62251057D02*
X144500000Y-62150057D01*
%TO.N,Net-(J2-CC2)*%
X142215000Y-57163000D02*
X138137822Y-57163000D01*
X139750000Y-65850000D02*
X140150000Y-66250000D01*
X143250000Y-58800000D02*
X143250000Y-58198000D01*
X137750000Y-60500000D02*
X137750000Y-63661520D01*
X137400000Y-65850000D02*
X139750000Y-65850000D01*
X134680760Y-67269238D02*
X135250000Y-67838478D01*
X143250000Y-58198000D02*
X142215000Y-57163000D01*
X138137822Y-57163000D02*
X138076233Y-57224589D01*
X135250000Y-67838478D02*
X135411522Y-67838478D01*
X140150000Y-66250000D02*
X142930000Y-66250000D01*
X137750000Y-63661520D02*
X134680760Y-66730760D01*
X135411522Y-67838478D02*
X137400000Y-65850000D01*
X134680760Y-66730760D02*
X134680760Y-67269238D01*
%TO.N,Net-(U2B-PRTCTL3)*%
X135250000Y-65419239D02*
X135250000Y-63880130D01*
X133750000Y-59652000D02*
X134000000Y-59402000D01*
X133700000Y-73385556D02*
X133700000Y-72924281D01*
X140560569Y-82631279D02*
X140681221Y-82631279D01*
X134350000Y-69269239D02*
X134350000Y-68480761D01*
X135250000Y-63880130D02*
X134719979Y-63350109D01*
X134414507Y-68416254D02*
X134414507Y-67568671D01*
X133585742Y-72798571D02*
X133210742Y-72423571D01*
X131250000Y-59652000D02*
X131500000Y-59402000D01*
X134280760Y-67434923D02*
X134280760Y-66388479D01*
X131500000Y-59402000D02*
X131500000Y-58800000D01*
X133750000Y-60500000D02*
X133750000Y-61080761D01*
X134719979Y-63350109D02*
X134209420Y-63350109D01*
X140681221Y-82631279D02*
X141312500Y-82000000D01*
X134350000Y-68480761D02*
X134414507Y-68416254D01*
X133750000Y-62890689D02*
X133900000Y-63040689D01*
X133750000Y-61080761D02*
X133600000Y-61230761D01*
X133210742Y-71885093D02*
X134414507Y-70681328D01*
X133585742Y-72810023D02*
X133585742Y-72798571D01*
X133750000Y-60500000D02*
X133750000Y-59652000D01*
X133700000Y-72924281D02*
X133585742Y-72810023D01*
X134280760Y-66388479D02*
X135250000Y-65419239D01*
X135250000Y-74935556D02*
X133700000Y-73385556D01*
X131250000Y-60500000D02*
X131250000Y-63000000D01*
X135250000Y-82250000D02*
X135250000Y-74935556D01*
X133600000Y-61230761D02*
X133600000Y-61769239D01*
X134414507Y-69333746D02*
X134350000Y-69269239D01*
X133750000Y-61919239D02*
X133750000Y-62890689D01*
X134414507Y-67568671D02*
X134280760Y-67434923D01*
X131250000Y-60500000D02*
X131250000Y-59652000D01*
X134414507Y-70681328D02*
X134414507Y-69333746D01*
X133210742Y-72423571D02*
X133210742Y-71885093D01*
X134000000Y-59402000D02*
X134000000Y-58800000D01*
X133600000Y-61769239D02*
X133750000Y-61919239D01*
X134209420Y-63350109D02*
X133900000Y-63040689D01*
%TO.N,D-DOWN1*%
X136373707Y-75150582D02*
X136030712Y-75150582D01*
X133985742Y-72279332D02*
X133860742Y-72154332D01*
X141312500Y-74500000D02*
X140266568Y-74500000D01*
X132250000Y-62199000D02*
X132199000Y-62250000D01*
X140066568Y-74700000D02*
X139315074Y-74700000D01*
X140266568Y-74500000D02*
X140066568Y-74700000D01*
X133000000Y-58198000D02*
X133634000Y-57564000D01*
X137356000Y-59644000D02*
X134697041Y-62302959D01*
X134100000Y-72758595D02*
X133985742Y-72644338D01*
X136030712Y-75150582D02*
X134100000Y-73219870D01*
X132250000Y-60500000D02*
X132250000Y-62199000D01*
X139315074Y-74700000D02*
X139179109Y-74835965D01*
X137356000Y-57989281D02*
X137356000Y-59644000D01*
X134100000Y-73219870D02*
X134100000Y-72758595D01*
X133634000Y-57564000D02*
X136930719Y-57564000D01*
X133000000Y-58800000D02*
X133000000Y-58198000D01*
X133985742Y-72644338D02*
X133985742Y-72279332D01*
X136930719Y-57564000D02*
X137356000Y-57989281D01*
X134697041Y-62302959D02*
X134697041Y-62700109D01*
%TO.N,D+DOWN1*%
X132849000Y-62149612D02*
X132849000Y-64401000D01*
X132800002Y-62100615D02*
X132849000Y-62149612D01*
X132500000Y-59648000D02*
X132750000Y-59898000D01*
X132750000Y-59898000D02*
X132750000Y-60500000D01*
X140434314Y-75000000D02*
X139282627Y-76151687D01*
X132800002Y-60550002D02*
X132800002Y-62100615D01*
X133700000Y-78250000D02*
X133200000Y-78250000D01*
X139282627Y-76151687D02*
X138946429Y-76151687D01*
X132750000Y-77800000D02*
X132750000Y-73589802D01*
X132650000Y-73489802D02*
X132650000Y-73359206D01*
X133200000Y-78250000D02*
X132750000Y-77800000D01*
X132849000Y-64401000D02*
X132750000Y-64500000D01*
X132500000Y-58800000D02*
X132500000Y-59648000D01*
X141312500Y-75000000D02*
X140434314Y-75000000D01*
X132750000Y-60500000D02*
X132800002Y-60550002D01*
X132750000Y-73589802D02*
X132650000Y-73489802D01*
%TO.N,Net-(J4-CC1)*%
X133200000Y-60550000D02*
X133200000Y-61934925D01*
X133250000Y-61984924D02*
X133250000Y-63320000D01*
X133200000Y-61934925D02*
X133250000Y-61984924D01*
X133250000Y-63320000D02*
X133930000Y-64000000D01*
X133250000Y-60500000D02*
X133200000Y-60550000D01*
%TO.N,Net-(J4-CC2)*%
X127244000Y-57823596D02*
X127244000Y-63724001D01*
X132000000Y-58198000D02*
X130966000Y-57164000D01*
X130966000Y-57164000D02*
X127903595Y-57164000D01*
X127244000Y-63724001D02*
X127820000Y-64300001D01*
X127903595Y-57164000D02*
X127244000Y-57823596D01*
X132000000Y-58800000D02*
X132000000Y-58198000D01*
X127820000Y-64300001D02*
X127820000Y-64500000D01*
%TO.N,Net-(M1-+)*%
X112740000Y-77875000D02*
X112740000Y-85375000D01*
X112740000Y-77875000D02*
X114056000Y-79191000D01*
X114056000Y-79191000D02*
X120424000Y-79191000D01*
X120424000Y-86691000D02*
X114056000Y-86691000D01*
X113750000Y-55857500D02*
X112642500Y-54750000D01*
X120424000Y-79191000D02*
X121740000Y-77875000D01*
X114056000Y-86691000D02*
X112740000Y-85375000D01*
X121740000Y-85375000D02*
X120424000Y-86691000D01*
X112740000Y-77875000D02*
X113750000Y-76865000D01*
X121740000Y-77875000D02*
X121740000Y-85375000D01*
X113750000Y-76865000D02*
X113750000Y-55857500D01*
%TO.N,Net-(U2B-USBRBIAS)*%
X141820000Y-72470000D02*
X142500000Y-73150000D01*
X142500000Y-73150000D02*
X142500000Y-73812500D01*
X141820000Y-72250000D02*
X141820000Y-72470000D01*
%TO.N,Net-(J6-RD-)*%
X147949000Y-70229760D02*
X147949000Y-70586478D01*
X151386494Y-69529001D02*
X148649758Y-69529001D01*
X147477403Y-72337453D02*
X147477403Y-72337460D01*
X147477399Y-72337464D02*
X147477403Y-72503287D01*
X147477407Y-72668829D02*
X147477407Y-72669645D01*
X151539999Y-69682506D02*
X151386494Y-69529001D01*
X168750000Y-69682506D02*
X168750000Y-69750000D01*
X147477403Y-72337460D02*
X147477399Y-72337464D01*
X147477403Y-72503287D02*
X147477403Y-72668825D01*
X147477404Y-72669648D02*
X147477407Y-73001015D01*
X147477403Y-72668825D02*
X147477407Y-72668829D01*
X147477407Y-72337449D02*
X147477403Y-72337453D01*
X154028341Y-69682506D02*
X151539999Y-69682506D01*
X170094215Y-73680000D02*
X170104215Y-73670000D01*
X147477407Y-72669645D02*
X147477404Y-72669648D01*
X157019239Y-69350000D02*
X156480761Y-69350000D01*
X168750000Y-69750000D02*
X167150000Y-71350000D01*
X156148255Y-69682506D02*
X155158871Y-69682506D01*
X154862845Y-69978532D02*
X154324367Y-69978532D01*
X168750000Y-69682506D02*
X157351745Y-69682506D01*
X168500000Y-73680000D02*
X170094215Y-73680000D01*
X148649758Y-69529001D02*
X147949000Y-70229760D01*
X154324367Y-69978532D02*
X154028341Y-69682506D01*
X147477407Y-73001015D02*
X147500000Y-73023607D01*
X147949000Y-70586478D02*
X147477407Y-71058070D01*
X155158871Y-69682506D02*
X154862845Y-69978532D01*
X147477407Y-71058070D02*
X147477407Y-72337449D01*
X168822494Y-69682506D02*
X168750000Y-69682506D01*
X147500000Y-73023607D02*
X147500000Y-73812500D01*
X156480761Y-69350000D02*
X156148255Y-69682506D01*
X170595000Y-67910000D02*
X168822494Y-69682506D01*
X157351745Y-69682506D02*
X157019239Y-69350000D01*
X167150000Y-71350000D02*
X167000000Y-71350000D01*
%TO.N,Net-(J6-RD+)*%
X147878406Y-72503541D02*
X147878404Y-72503543D01*
X169360315Y-73074000D02*
X153389686Y-73074000D01*
X147878406Y-72834909D02*
X148000000Y-72956502D01*
X152284620Y-71968934D02*
X152284620Y-71115381D01*
X174405000Y-68409182D02*
X170464182Y-72350000D01*
X151098239Y-69929000D02*
X148815444Y-69929000D01*
X148000000Y-72956502D02*
X148000000Y-73812500D01*
X170464182Y-72350000D02*
X170084315Y-72350000D01*
X148815444Y-69929000D02*
X148349000Y-70395445D01*
X147878404Y-72503543D02*
X147878406Y-72834909D01*
X169734315Y-72000000D02*
X170084315Y-72350000D01*
X152284620Y-71115381D02*
X151098239Y-69929000D01*
X148349000Y-70395445D02*
X148349000Y-70982900D01*
X166000000Y-72000000D02*
X169734315Y-72000000D01*
X153389686Y-73074000D02*
X152284620Y-71968934D01*
X148349000Y-70982900D02*
X147878407Y-71453493D01*
X170084315Y-72350000D02*
X169360315Y-73074000D01*
X174405000Y-65370000D02*
X174405000Y-68409182D01*
X147878407Y-71453493D02*
X147878406Y-72503541D01*
%TO.N,Net-(J6-TD-)*%
X153471238Y-68200000D02*
X152000612Y-68200000D01*
X177018502Y-67910000D02*
X178196000Y-66732502D01*
X153890000Y-68618762D02*
X153471238Y-68200000D01*
X177327000Y-63250000D02*
X167250000Y-63250000D01*
X178196000Y-66732502D02*
X178196000Y-64119000D01*
X146200000Y-70281703D02*
X148152702Y-68329001D01*
X158769239Y-63900000D02*
X158230761Y-63900000D01*
X155684924Y-64050000D02*
X155006593Y-64050000D01*
X175675000Y-67910000D02*
X177018502Y-67910000D01*
X146000000Y-72612157D02*
X146200000Y-72412157D01*
X178196000Y-64119000D02*
X177327000Y-63250000D01*
X152878901Y-65373755D02*
X153682838Y-65373755D01*
X157300694Y-63681000D02*
X156937690Y-64044004D01*
X158230761Y-63900000D02*
X158011761Y-63681000D01*
X152000612Y-68200000D02*
X151554007Y-67753395D01*
X158011761Y-63681000D02*
X157300694Y-63681000D01*
X167250000Y-63250000D02*
X166819000Y-63681000D01*
X150927978Y-66703395D02*
X151549261Y-66703395D01*
X166819000Y-63681000D02*
X158988239Y-63681000D01*
X155006593Y-64050000D02*
X153682838Y-65373755D01*
X146000000Y-73812500D02*
X146000000Y-72612157D01*
X148152702Y-68329001D02*
X149302371Y-68329001D01*
X155690921Y-64044004D02*
X155684924Y-64050000D01*
X156937690Y-64044004D02*
X155690921Y-64044004D01*
X151549261Y-66703395D02*
X152878901Y-65373755D01*
X153890000Y-69000000D02*
X153890000Y-68618762D01*
X149302371Y-68329001D02*
X150927978Y-66703395D01*
X158988239Y-63681000D02*
X158769239Y-63900000D01*
X146200000Y-72412157D02*
X146200000Y-70281703D01*
%TO.N,Net-(U2A-XI)*%
X141675000Y-69275000D02*
X143500000Y-71100000D01*
X143500000Y-71100000D02*
X143500000Y-71500000D01*
X143500000Y-71500000D02*
X143500000Y-73812500D01*
%TO.N,Net-(J6-TD+)*%
X157428380Y-64119000D02*
X157103375Y-64444004D01*
X158065075Y-64300000D02*
X157884076Y-64119000D01*
X179250000Y-72500000D02*
X178250000Y-71500000D01*
X148318387Y-68729001D02*
X147148000Y-69899388D01*
X157884076Y-64119000D02*
X157428380Y-64119000D01*
X176945000Y-65370000D02*
X175694000Y-64119000D01*
X155409202Y-64450000D02*
X154332838Y-65526364D01*
X154332838Y-65642994D02*
X152872437Y-67103395D01*
X175694000Y-64119000D02*
X159115925Y-64119000D01*
X159115925Y-64119000D02*
X158934924Y-64300000D01*
X146600000Y-72577843D02*
X146500000Y-72677843D01*
X155850609Y-64450000D02*
X155409202Y-64450000D01*
X157103375Y-64444004D02*
X155856607Y-64444004D01*
X152872437Y-67103395D02*
X151093663Y-67103395D01*
X146600000Y-70802692D02*
X146600000Y-72577843D01*
X158934924Y-64300000D02*
X158065075Y-64300000D01*
X178250000Y-71500000D02*
X176390000Y-71500000D01*
X147148000Y-70254692D02*
X146600000Y-70802692D01*
X151093663Y-67103395D02*
X149468056Y-68729001D01*
X147148000Y-69899388D02*
X147148000Y-70254692D01*
X149468056Y-68729001D02*
X148318387Y-68729001D01*
X146500000Y-72677843D02*
X146500000Y-73812500D01*
X155856607Y-64444004D02*
X155850609Y-64450000D01*
X154332838Y-65526364D02*
X154332838Y-65642994D01*
%TO.N,Net-(Y2-VCC)*%
X138595000Y-69275000D02*
X138570000Y-69250000D01*
X139825000Y-69275000D02*
X138595000Y-69275000D01*
%TO.N,Net-(U2B-EXRES)*%
X149000000Y-73247646D02*
X149000000Y-73812500D01*
X149751000Y-71161001D02*
X149751000Y-71798870D01*
X149751000Y-71798870D02*
X149651000Y-71898871D01*
X149651000Y-71898871D02*
X149651000Y-72596646D01*
X149651000Y-72596646D02*
X149000000Y-73247646D01*
X149250000Y-70860000D02*
X149449999Y-70860000D01*
X149449999Y-70860000D02*
X149751000Y-71161001D01*
%TO.N,VDD33A*%
X138286015Y-80813958D02*
X138848974Y-80251000D01*
X148484073Y-69129001D02*
X152134677Y-69129001D01*
X166172500Y-73812500D02*
X158750000Y-73812500D01*
X147000000Y-70969792D02*
X147549000Y-70420792D01*
X137400000Y-84738479D02*
X136574953Y-83913432D01*
X147549000Y-70064074D02*
X148484073Y-69129001D01*
X147549000Y-70420792D02*
X147549000Y-70064074D01*
X139542516Y-80251000D02*
X140793516Y-79000000D01*
X158750000Y-73812500D02*
X156400000Y-76162500D01*
X148278407Y-71620593D02*
X148749000Y-71150000D01*
X138184443Y-74300000D02*
X137982602Y-74098159D01*
X145750000Y-70000000D02*
X145650000Y-70100000D01*
X137519239Y-74981558D02*
X137450000Y-75050797D01*
X137519239Y-76400000D02*
X136865076Y-76400000D01*
X150052000Y-73260500D02*
X149500000Y-73812500D01*
X138145121Y-68259042D02*
X137275272Y-68259042D01*
X136365075Y-76900001D02*
X136365075Y-78754163D01*
X136865076Y-76400000D02*
X136365075Y-76900001D01*
X144250000Y-86150000D02*
X143850000Y-85750000D01*
X141861194Y-68286779D02*
X141725415Y-68151000D01*
X137450000Y-75589275D02*
X137519239Y-75658514D01*
X148500000Y-73812500D02*
X148500000Y-72890811D01*
X137250000Y-79961202D02*
X138506307Y-78704895D01*
X136600000Y-68230761D02*
X136600000Y-73260150D01*
X148278407Y-72669219D02*
X148278407Y-71620593D01*
X137982602Y-74098159D02*
X137519239Y-74561522D01*
X165360000Y-72000000D02*
X165000000Y-72000000D01*
X146039516Y-69710484D02*
X146039516Y-69665730D01*
X145650000Y-70100000D02*
X145650000Y-71249383D01*
X147000000Y-73812500D02*
X147000000Y-70969792D01*
X140434925Y-76924279D02*
X140859204Y-76500000D01*
X145750000Y-70000000D02*
X146039516Y-69710484D01*
X136600000Y-73260150D02*
X137569925Y-74230075D01*
X142535451Y-68151000D02*
X142399672Y-68286779D01*
X166680000Y-74320000D02*
X166555000Y-74195000D01*
X140793516Y-79000000D02*
X141312500Y-79000000D01*
X138795835Y-74300000D02*
X138184443Y-74300000D01*
X156400000Y-76162500D02*
X156400000Y-79019239D01*
X140481739Y-73687500D02*
X139983274Y-74185965D01*
X156400000Y-79019239D02*
X155750000Y-79669239D01*
X136574953Y-83284249D02*
X137250000Y-82609202D01*
X148749000Y-71150000D02*
X148749000Y-70561130D01*
X136574953Y-83913432D02*
X136574953Y-83284249D01*
X137250000Y-82609202D02*
X137250000Y-79961202D01*
X137569925Y-74230075D02*
X137569925Y-74561522D01*
X145750000Y-70000000D02*
X145750000Y-69080761D01*
X143850000Y-85750000D02*
X137250000Y-85750000D01*
X150152000Y-71964970D02*
X150052000Y-72064969D01*
X137250000Y-82609202D02*
X137250000Y-82072778D01*
X142399672Y-68286779D02*
X141861194Y-68286779D01*
X158750000Y-73812500D02*
X149500000Y-73812500D01*
X137450000Y-75050797D02*
X137450000Y-75589275D01*
X137519239Y-74561522D02*
X137519239Y-74981558D01*
X145800000Y-71399383D02*
X145800000Y-72246472D01*
X148500000Y-72890811D02*
X148278407Y-72669219D01*
X140434925Y-77196445D02*
X140434925Y-76924279D01*
X138506307Y-78704895D02*
X139302823Y-78704895D01*
X139302823Y-78704895D02*
X139717142Y-78290576D01*
X137250000Y-82072778D02*
X138286015Y-81036763D01*
X172930000Y-74320000D02*
X168500000Y-74320000D01*
X155315685Y-85750000D02*
X145169239Y-85750000D01*
X152134677Y-69129001D02*
X152281361Y-68982317D01*
X143480761Y-67850000D02*
X143179761Y-68151000D01*
X152299044Y-69000000D02*
X152281361Y-68982317D01*
X150152000Y-70962130D02*
X150152000Y-71964970D01*
X145500000Y-72546472D02*
X145500000Y-73812500D01*
X175750000Y-71500000D02*
X172930000Y-74320000D01*
X144769239Y-86150000D02*
X144250000Y-86150000D01*
X168860000Y-76500000D02*
X166555000Y-74195000D01*
X155750000Y-79669239D02*
X155750000Y-85315685D01*
X140859204Y-76500000D02*
X141312500Y-76500000D01*
X138253164Y-68151000D02*
X138145121Y-68259042D01*
X145169239Y-85750000D02*
X144769239Y-86150000D01*
X165000000Y-72000000D02*
X164750000Y-72250000D01*
X148749000Y-70561130D02*
X148981130Y-70329000D01*
X136365075Y-78754163D02*
X137250000Y-79639088D01*
X139983274Y-74185965D02*
X138909870Y-74185965D01*
X137400000Y-85019239D02*
X137400000Y-84738479D01*
X153250000Y-69000000D02*
X152299044Y-69000000D01*
X138848974Y-80251000D02*
X139542516Y-80251000D01*
X137246991Y-68230761D02*
X136600000Y-68230761D01*
X143179761Y-68151000D02*
X142535451Y-68151000D01*
X141725415Y-68151000D02*
X138253164Y-68151000D01*
X168500000Y-74320000D02*
X166680000Y-74320000D01*
X137250000Y-79639088D02*
X137250000Y-79961202D01*
X138286015Y-81036763D02*
X138286015Y-80813958D01*
X150052000Y-72064969D02*
X150052000Y-73260500D01*
X137275272Y-68259042D02*
X137246991Y-68230761D01*
X149518870Y-70329000D02*
X150152000Y-70962130D01*
X155750000Y-85315685D02*
X155315685Y-85750000D01*
X144519239Y-67850000D02*
X143480761Y-67850000D01*
X142000000Y-73812500D02*
X141875000Y-73687500D01*
X148981130Y-70329000D02*
X149518870Y-70329000D01*
X139717142Y-78290576D02*
X139717142Y-77914228D01*
X137250000Y-85169239D02*
X137400000Y-85019239D01*
X145650000Y-71249383D02*
X145800000Y-71399383D01*
X145800000Y-72246472D02*
X145500000Y-72546472D01*
X146039516Y-69665730D02*
X145977273Y-69603487D01*
X166555000Y-74195000D02*
X166172500Y-73812500D01*
X141875000Y-73687500D02*
X140481739Y-73687500D01*
X137519239Y-75658514D02*
X137519239Y-76400000D01*
X137250000Y-85750000D02*
X137250000Y-85169239D01*
X145750000Y-69080761D02*
X144519239Y-67850000D01*
X139717142Y-77914228D02*
X140434925Y-77196445D01*
X138909870Y-74185965D02*
X138795835Y-74300000D01*
%TO.N,Net-(U2B-VBUS_DET)*%
X139014659Y-80651000D02*
X139708202Y-80651000D01*
X138686015Y-81202448D02*
X138686015Y-80979644D01*
X138686015Y-80979644D02*
X139014659Y-80651000D01*
X138500000Y-81388464D02*
X138686015Y-81202448D01*
X143261028Y-84650000D02*
X142260927Y-83649899D01*
X139708202Y-80651000D02*
X140859202Y-79500000D01*
X140859202Y-79500000D02*
X141312500Y-79500000D01*
X138500000Y-83000000D02*
X138500000Y-81388464D01*
X146360000Y-84500000D02*
X144169239Y-84500000D01*
X137869146Y-83000000D02*
X137224953Y-83644193D01*
X144169239Y-84500000D02*
X144019239Y-84650000D01*
X138500000Y-83000000D02*
X137869146Y-83000000D01*
X144019239Y-84650000D02*
X143261028Y-84650000D01*
%TD*%
M02*
