%TF.GenerationSoftware,KiCad,Pcbnew,9.0.2*%
%TF.CreationDate,2025-06-16T16:29:30-05:00*%
%TF.ProjectId,main,6d61696e-2e6b-4696-9361-645f70636258,rev?*%
%TF.SameCoordinates,Original*%
%TF.FileFunction,Soldermask,Top*%
%TF.FilePolarity,Negative*%
%FSLAX46Y46*%
G04 Gerber Fmt 4.6, Leading zero omitted, Abs format (unit mm)*
G04 Created by KiCad (PCBNEW 9.0.2) date 2025-06-16 16:29:30*
%MOMM*%
%LPD*%
G01*
G04 APERTURE LIST*
G04 Aperture macros list*
%AMRoundRect*
0 Rectangle with rounded corners*
0 $1 Rounding radius*
0 $2 $3 $4 $5 $6 $7 $8 $9 X,Y pos of 4 corners*
0 Add a 4 corners polygon primitive as box body*
4,1,4,$2,$3,$4,$5,$6,$7,$8,$9,$2,$3,0*
0 Add four circle primitives for the rounded corners*
1,1,$1+$1,$2,$3*
1,1,$1+$1,$4,$5*
1,1,$1+$1,$6,$7*
1,1,$1+$1,$8,$9*
0 Add four rect primitives between the rounded corners*
20,1,$1+$1,$2,$3,$4,$5,0*
20,1,$1+$1,$4,$5,$6,$7,0*
20,1,$1+$1,$6,$7,$8,$9,0*
20,1,$1+$1,$8,$9,$2,$3,0*%
G04 Aperture macros list end*
%ADD10RoundRect,0.250000X-0.262500X-1.775000X0.262500X-1.775000X0.262500X1.775000X-0.262500X1.775000X0*%
%ADD11R,0.300000X0.700000*%
%ADD12C,0.650000*%
%ADD13C,1.400000*%
%ADD14R,1.730000X2.030000*%
%ADD15O,1.730000X2.030000*%
%ADD16R,0.950000X1.050000*%
%ADD17R,1.500000X1.500000*%
%ADD18C,1.500000*%
%ADD19RoundRect,0.062500X0.062500X-0.375000X0.062500X0.375000X-0.062500X0.375000X-0.062500X-0.375000X0*%
%ADD20RoundRect,0.062500X0.375000X-0.062500X0.375000X0.062500X-0.375000X0.062500X-0.375000X-0.062500X0*%
%ADD21R,7.300000X7.300000*%
%ADD22RoundRect,0.250000X-0.450000X-0.450000X0.450000X-0.450000X0.450000X0.450000X-0.450000X0.450000X0*%
G04 APERTURE END LIST*
D10*
%TO.C,R6*%
X176875000Y-71750000D03*
X178750000Y-71750000D03*
%TD*%
D11*
%TO.C,J1*%
X150760000Y-61860000D03*
X150260000Y-61860000D03*
X149760000Y-61860000D03*
X149260000Y-61860000D03*
X148760000Y-61860000D03*
X148260000Y-61860000D03*
X147760000Y-61860000D03*
X147260000Y-61860000D03*
X146760000Y-61860000D03*
X146260000Y-61860000D03*
X145760000Y-61860000D03*
X145260000Y-61860000D03*
D12*
X145210000Y-60550000D03*
X145610000Y-59850000D03*
X146410000Y-59850000D03*
X146810000Y-60550000D03*
X147210000Y-59850000D03*
X147610000Y-60550000D03*
X148410000Y-60550000D03*
X148810000Y-59850000D03*
X149210000Y-60550000D03*
X149610000Y-59850000D03*
X150410000Y-59850000D03*
X150810000Y-60550000D03*
D13*
X152500000Y-54000000D03*
X152140000Y-59950000D03*
X143880000Y-59950000D03*
X143520000Y-54000000D03*
%TD*%
D10*
%TO.C,R2*%
X111062500Y-56000000D03*
X112937500Y-56000000D03*
%TD*%
D14*
%TO.C,M4*%
X120920000Y-69000000D03*
D15*
X123460000Y-69000000D03*
X126000000Y-69000000D03*
%TD*%
D14*
%TO.C,M1*%
X147920000Y-69000000D03*
D15*
X150460000Y-69000000D03*
X153000000Y-69000000D03*
%TD*%
D16*
%TO.C,Y2*%
X156300000Y-86150000D03*
X156300000Y-88000000D03*
X157750000Y-88000000D03*
X157750000Y-86150000D03*
%TD*%
D10*
%TO.C,R7*%
X176562500Y-63000000D03*
X178437500Y-63000000D03*
%TD*%
D17*
%TO.C,J2*%
X167532500Y-65350000D03*
D18*
X166262500Y-67890000D03*
X164992500Y-65350000D03*
X163722500Y-67890000D03*
X162452500Y-65350000D03*
X161182500Y-67890000D03*
X159912500Y-65350000D03*
X158642500Y-67890000D03*
%TD*%
D19*
%TO.C,U2*%
X139750000Y-86937500D03*
X140250000Y-86937500D03*
X140750000Y-86937500D03*
X141250000Y-86937500D03*
X141750000Y-86937500D03*
X142250000Y-86937500D03*
X142750000Y-86937500D03*
X143250000Y-86937500D03*
X143750000Y-86937500D03*
X144250000Y-86937500D03*
X144750000Y-86937500D03*
X145250000Y-86937500D03*
X145750000Y-86937500D03*
X146250000Y-86937500D03*
X146750000Y-86937500D03*
X147250000Y-86937500D03*
D20*
X147937500Y-86250000D03*
X147937500Y-85750000D03*
X147937500Y-85250000D03*
X147937500Y-84750000D03*
X147937500Y-84250000D03*
X147937500Y-83750000D03*
X147937500Y-83250000D03*
X147937500Y-82750000D03*
X147937500Y-82250000D03*
X147937500Y-81750000D03*
X147937500Y-81250000D03*
X147937500Y-80750000D03*
X147937500Y-80250000D03*
X147937500Y-79750000D03*
X147937500Y-79250000D03*
X147937500Y-78750000D03*
D19*
X147250000Y-78062500D03*
X146750000Y-78062500D03*
X146250000Y-78062500D03*
X145750000Y-78062500D03*
X145250000Y-78062500D03*
X144750000Y-78062500D03*
X144250000Y-78062500D03*
X143750000Y-78062500D03*
X143250000Y-78062500D03*
X142750000Y-78062500D03*
X142250000Y-78062500D03*
X141750000Y-78062500D03*
X141250000Y-78062500D03*
X140750000Y-78062500D03*
X140250000Y-78062500D03*
X139750000Y-78062500D03*
D20*
X139062500Y-78750000D03*
X139062500Y-79250000D03*
X139062500Y-79750000D03*
X139062500Y-80250000D03*
X139062500Y-80750000D03*
X139062500Y-81250000D03*
X139062500Y-81750000D03*
X139062500Y-82250000D03*
X139062500Y-82750000D03*
X139062500Y-83250000D03*
X139062500Y-83750000D03*
X139062500Y-84250000D03*
X139062500Y-84750000D03*
X139062500Y-85250000D03*
X139062500Y-85750000D03*
X139062500Y-86250000D03*
D21*
X143500000Y-82500000D03*
%TD*%
D10*
%TO.C,R4*%
X116062500Y-56000000D03*
X117937500Y-56000000D03*
%TD*%
D22*
%TO.C,SW1*%
X174000000Y-54357500D03*
D13*
X176500000Y-54357500D03*
X179000000Y-54357500D03*
X179000000Y-57657500D03*
X176500000Y-57657500D03*
X174000000Y-57657500D03*
%TD*%
D11*
%TO.C,J3*%
X127700000Y-62010000D03*
X127200000Y-62010000D03*
X126700000Y-62010000D03*
X126200000Y-62010000D03*
X125700000Y-62010000D03*
X125200000Y-62010000D03*
X124700000Y-62010000D03*
X124200000Y-62010000D03*
X123700000Y-62010000D03*
X123200000Y-62010000D03*
X122700000Y-62010000D03*
X122200000Y-62010000D03*
D12*
X122150000Y-60700000D03*
X122550000Y-60000000D03*
X123350000Y-60000000D03*
X123750000Y-60700000D03*
X124150000Y-60000000D03*
X124550000Y-60700000D03*
X125350000Y-60700000D03*
X125750000Y-60000000D03*
X126150000Y-60700000D03*
X126550000Y-60000000D03*
X127350000Y-60000000D03*
X127750000Y-60700000D03*
D13*
X129440000Y-54150000D03*
X129080000Y-60100000D03*
X120820000Y-60100000D03*
X120460000Y-54150000D03*
%TD*%
D10*
%TO.C,R1*%
X111062500Y-61000000D03*
X112937500Y-61000000D03*
%TD*%
D11*
%TO.C,J4*%
X139240000Y-62020000D03*
X138740000Y-62020000D03*
X138240000Y-62020000D03*
X137740000Y-62020000D03*
X137240000Y-62020000D03*
X136740000Y-62020000D03*
X136240000Y-62020000D03*
X135740000Y-62020000D03*
X135240000Y-62020000D03*
X134740000Y-62020000D03*
X134240000Y-62020000D03*
X133740000Y-62020000D03*
D12*
X133690000Y-60710000D03*
X134090000Y-60010000D03*
X134890000Y-60010000D03*
X135290000Y-60710000D03*
X135690000Y-60010000D03*
X136090000Y-60710000D03*
X136890000Y-60710000D03*
X137290000Y-60010000D03*
X137690000Y-60710000D03*
X138090000Y-60010000D03*
X138890000Y-60010000D03*
X139290000Y-60710000D03*
D13*
X140980000Y-54160000D03*
X140620000Y-60110000D03*
X132360000Y-60110000D03*
X132000000Y-54160000D03*
%TD*%
D10*
%TO.C,R5*%
X172562500Y-63000000D03*
X174437500Y-63000000D03*
%TD*%
D14*
%TO.C,M2*%
X138920000Y-69000000D03*
D15*
X141460000Y-69000000D03*
X144000000Y-69000000D03*
%TD*%
D10*
%TO.C,R3*%
X116062500Y-61000000D03*
X117937500Y-61000000D03*
%TD*%
D14*
%TO.C,M3*%
X129920000Y-69000000D03*
D15*
X132460000Y-69000000D03*
X135000000Y-69000000D03*
%TD*%
M02*
