%TF.GenerationSoftware,KiCad,Pcbnew,9.0.2*%
%TF.CreationDate,2025-06-30T16:35:09-05:00*%
%TF.ProjectId,main,6d61696e-2e6b-4696-9361-645f70636258,rev?*%
%TF.SameCoordinates,Original*%
%TF.FileFunction,Copper,L1,Top*%
%TF.FilePolarity,Positive*%
%FSLAX46Y46*%
G04 Gerber Fmt 4.6, Leading zero omitted, Abs format (unit mm)*
G04 Created by KiCad (PCBNEW 9.0.2) date 2025-06-30 16:35:09*
%MOMM*%
%LPD*%
G01*
G04 APERTURE LIST*
G04 Aperture macros list*
%AMRoundRect*
0 Rectangle with rounded corners*
0 $1 Rounding radius*
0 $2 $3 $4 $5 $6 $7 $8 $9 X,Y pos of 4 corners*
0 Add a 4 corners polygon primitive as box body*
4,1,4,$2,$3,$4,$5,$6,$7,$8,$9,$2,$3,0*
0 Add four circle primitives for the rounded corners*
1,1,$1+$1,$2,$3*
1,1,$1+$1,$4,$5*
1,1,$1+$1,$6,$7*
1,1,$1+$1,$8,$9*
0 Add four rect primitives between the rounded corners*
20,1,$1+$1,$2,$3,$4,$5,0*
20,1,$1+$1,$4,$5,$6,$7,0*
20,1,$1+$1,$6,$7,$8,$9,0*
20,1,$1+$1,$8,$9,$2,$3,0*%
G04 Aperture macros list end*
%TA.AperFunction,SMDPad,CuDef*%
%ADD10RoundRect,0.100000X-0.130000X-0.100000X0.130000X-0.100000X0.130000X0.100000X-0.130000X0.100000X0*%
%TD*%
%TA.AperFunction,SMDPad,CuDef*%
%ADD11R,3.000000X1.400000*%
%TD*%
%TA.AperFunction,SMDPad,CuDef*%
%ADD12RoundRect,0.100000X0.130000X0.100000X-0.130000X0.100000X-0.130000X-0.100000X0.130000X-0.100000X0*%
%TD*%
%TA.AperFunction,SMDPad,CuDef*%
%ADD13RoundRect,0.100000X-0.100000X0.130000X-0.100000X-0.130000X0.100000X-0.130000X0.100000X0.130000X0*%
%TD*%
%TA.AperFunction,ComponentPad*%
%ADD14R,1.730000X2.030000*%
%TD*%
%TA.AperFunction,ComponentPad*%
%ADD15O,1.730000X2.030000*%
%TD*%
%TA.AperFunction,SMDPad,CuDef*%
%ADD16RoundRect,0.100000X0.100000X-0.130000X0.100000X0.130000X-0.100000X0.130000X-0.100000X-0.130000X0*%
%TD*%
%TA.AperFunction,SMDPad,CuDef*%
%ADD17R,0.300000X0.700000*%
%TD*%
%TA.AperFunction,HeatsinkPad*%
%ADD18C,0.650000*%
%TD*%
%TA.AperFunction,HeatsinkPad*%
%ADD19C,1.400000*%
%TD*%
%TA.AperFunction,ComponentPad*%
%ADD20C,1.890000*%
%TD*%
%TA.AperFunction,ComponentPad*%
%ADD21R,1.900000X1.900000*%
%TD*%
%TA.AperFunction,ComponentPad*%
%ADD22C,1.900000*%
%TD*%
%TA.AperFunction,ComponentPad*%
%ADD23C,2.600000*%
%TD*%
%TA.AperFunction,SMDPad,CuDef*%
%ADD24R,1.050000X0.950000*%
%TD*%
%TA.AperFunction,SMDPad,CuDef*%
%ADD25RoundRect,0.062500X-0.375000X-0.062500X0.375000X-0.062500X0.375000X0.062500X-0.375000X0.062500X0*%
%TD*%
%TA.AperFunction,SMDPad,CuDef*%
%ADD26RoundRect,0.062500X-0.062500X-0.375000X0.062500X-0.375000X0.062500X0.375000X-0.062500X0.375000X0*%
%TD*%
%TA.AperFunction,HeatsinkPad*%
%ADD27R,7.300000X7.300000*%
%TD*%
%TA.AperFunction,ComponentPad*%
%ADD28RoundRect,0.250000X-0.450000X0.450000X-0.450000X-0.450000X0.450000X-0.450000X0.450000X0.450000X0*%
%TD*%
%TA.AperFunction,ComponentPad*%
%ADD29C,1.400000*%
%TD*%
%TA.AperFunction,ViaPad*%
%ADD30C,0.600000*%
%TD*%
%TA.AperFunction,Conductor*%
%ADD31C,0.200000*%
%TD*%
G04 APERTURE END LIST*
D10*
%TO.P,R19,1*%
%TO.N,Net-(J1-SHIELD)*%
X151335000Y-84500000D03*
%TO.P,R19,2*%
%TO.N,gnd*%
X151975000Y-84500000D03*
%TD*%
%TO.P,C7,1*%
%TO.N,gnd*%
X151335000Y-82750000D03*
%TO.P,C7,2*%
%TO.N,Net-(J1-SHIELD)*%
X151975000Y-82750000D03*
%TD*%
D11*
%TO.P,FB1,1*%
%TO.N,Net-(U2A-VDD18ETHPLL)*%
X158750000Y-68350000D03*
%TO.P,FB1,2*%
%TO.N,Net-(U2A-VDD18USBPLL)*%
X158750000Y-66150000D03*
%TD*%
D10*
%TO.P,C10,1*%
%TO.N,gnd*%
X138500000Y-79750000D03*
%TO.P,C10,2*%
%TO.N,Net-(C10-Pad2)*%
X139140000Y-79750000D03*
%TD*%
%TO.P,R6,1*%
%TO.N,gnd*%
X152680000Y-63000000D03*
%TO.P,R6,2*%
%TO.N,Net-(J1-CC2)*%
X153320000Y-63000000D03*
%TD*%
D12*
%TO.P,R12,1*%
%TO.N,Net-(J6-TD-)*%
X153890000Y-69000000D03*
%TO.P,R12,2*%
%TO.N,VDD33A*%
X153250000Y-69000000D03*
%TD*%
D13*
%TO.P,R15,1*%
%TO.N,Net-(J4-SHIELD)*%
X125500000Y-56000000D03*
%TO.P,R15,2*%
%TO.N,gnd*%
X125500000Y-56640000D03*
%TD*%
D12*
%TO.P,R11,1*%
%TO.N,Net-(J6-RD+)*%
X166000000Y-72000000D03*
%TO.P,R11,2*%
%TO.N,VDD33A*%
X165360000Y-72000000D03*
%TD*%
D10*
%TO.P,C3,1*%
%TO.N,gnd*%
X152680000Y-75250000D03*
%TO.P,C3,2*%
%TO.N,Net-(J6-RCT)*%
X153320000Y-75250000D03*
%TD*%
D12*
%TO.P,R13,1*%
%TO.N,Net-(J6-TD+)*%
X176390000Y-71500000D03*
%TO.P,R13,2*%
%TO.N,VDD33A*%
X175750000Y-71500000D03*
%TD*%
%TO.P,R17,1*%
%TO.N,VBUSUP*%
X147000000Y-84500000D03*
%TO.P,R17,2*%
%TO.N,Net-(U2B-VBUS_DET)*%
X146360000Y-84500000D03*
%TD*%
D10*
%TO.P,R2,1*%
%TO.N,gnd*%
X127180000Y-64500000D03*
%TO.P,R2,2*%
%TO.N,Net-(J4-CC2)*%
X127820000Y-64500000D03*
%TD*%
%TO.P,R8,1*%
%TO.N,gnd*%
X142860000Y-71500000D03*
%TO.P,R8,2*%
%TO.N,Net-(U2A-XI)*%
X143500000Y-71500000D03*
%TD*%
D14*
%TO.P,M1,1,-*%
%TO.N,gnd*%
X110200000Y-85375000D03*
D15*
%TO.P,M1,2,+*%
%TO.N,Net-(M1-+)*%
X112740000Y-85375000D03*
%TO.P,M1,3,Tacho*%
%TO.N,unconnected-(M1-Tacho-Pad3)*%
X115280000Y-85375000D03*
%TD*%
D16*
%TO.P,R9,1*%
%TO.N,gnd*%
X149250000Y-71500000D03*
%TO.P,R9,2*%
%TO.N,Net-(U2B-EXRES)*%
X149250000Y-70860000D03*
%TD*%
%TO.P,C9,1*%
%TO.N,gnd*%
X154250000Y-81070000D03*
%TO.P,C9,2*%
%TO.N,Net-(C10-Pad2)*%
X154250000Y-80430000D03*
%TD*%
D17*
%TO.P,J1,A1,GND*%
%TO.N,gnd*%
X158000000Y-61270000D03*
%TO.P,J1,A2,TX1+*%
%TO.N,unconnected-(J1-TX1+-PadA2)*%
X157500000Y-61270000D03*
%TO.P,J1,A3,TX1-*%
%TO.N,unconnected-(J1-TX1--PadA3)*%
X157000000Y-61270000D03*
%TO.P,J1,A4,VBUS*%
%TO.N,VBUSUP*%
X156500000Y-61270000D03*
%TO.P,J1,A5,CC1*%
%TO.N,Net-(J1-CC1)*%
X156000000Y-61270000D03*
%TO.P,J1,A6,D+*%
%TO.N,D+UP*%
X155500000Y-61270000D03*
%TO.P,J1,A7,D-*%
%TO.N,D-UP*%
X155000000Y-61270000D03*
%TO.P,J1,A8,SBU1*%
%TO.N,unconnected-(J1-SBU1-PadA8)*%
X154500000Y-61270000D03*
%TO.P,J1,A9,VBUS*%
%TO.N,VBUSUP*%
X154000000Y-61270000D03*
%TO.P,J1,A10,RX2-*%
%TO.N,unconnected-(J1-RX2--PadA10)*%
X153500000Y-61270000D03*
%TO.P,J1,A11,RX2+*%
%TO.N,unconnected-(J1-RX2+-PadA11)*%
X153000000Y-61270000D03*
%TO.P,J1,A12,GND*%
%TO.N,gnd*%
X152500000Y-61270000D03*
D18*
%TO.P,J1,B1,GND*%
X152450000Y-59960000D03*
%TO.P,J1,B2,TX2+*%
%TO.N,unconnected-(J1-TX2+-PadB2)*%
X152850000Y-59260000D03*
%TO.P,J1,B3,TX2-*%
%TO.N,unconnected-(J1-TX2--PadB3)*%
X153650000Y-59260000D03*
%TO.P,J1,B4,VBUS*%
%TO.N,VBUSUP*%
X154050000Y-59960000D03*
%TO.P,J1,B5,CC2*%
%TO.N,Net-(J1-CC2)*%
X154450000Y-59260000D03*
%TO.P,J1,B6,D+*%
%TO.N,D+UP*%
X154850000Y-59960000D03*
%TO.P,J1,B7,D-*%
%TO.N,D-UP*%
X155650000Y-59960000D03*
%TO.P,J1,B8,SBU2*%
%TO.N,unconnected-(J1-SBU2-PadB8)*%
X156050000Y-59260000D03*
%TO.P,J1,B9,VBUS*%
%TO.N,VBUSUP*%
X156450000Y-59960000D03*
%TO.P,J1,B10,RX1-*%
%TO.N,unconnected-(J1-RX1--PadB10)*%
X156850000Y-59260000D03*
%TO.P,J1,B11,RX1+*%
%TO.N,unconnected-(J1-RX1+-PadB11)*%
X157650000Y-59260000D03*
%TO.P,J1,B12,GND*%
%TO.N,gnd*%
X158050000Y-59960000D03*
D19*
%TO.P,J1,S1,SHIELD*%
%TO.N,Net-(J1-SHIELD)*%
X159740000Y-53410000D03*
X159380000Y-59360000D03*
X151120000Y-59360000D03*
X150760000Y-53410000D03*
%TD*%
D14*
%TO.P,M2,1,-*%
%TO.N,gnd*%
X119200000Y-77875000D03*
D15*
%TO.P,M2,2,+*%
%TO.N,Net-(M1-+)*%
X121740000Y-77875000D03*
%TO.P,M2,3,Tacho*%
%TO.N,unconnected-(M2-Tacho-Pad3)*%
X124280000Y-77875000D03*
%TD*%
D12*
%TO.P,R3,1*%
%TO.N,gnd*%
X134570000Y-64000000D03*
%TO.P,R3,2*%
%TO.N,Net-(J4-CC1)*%
X133930000Y-64000000D03*
%TD*%
D20*
%TO.P,J6,L1*%
%TO.N,unconnected-(J6-PadL1)*%
X166175000Y-55650000D03*
%TO.P,J6,L2*%
%TO.N,unconnected-(J6-PadL2)*%
X168715000Y-54130000D03*
%TO.P,J6,L3*%
%TO.N,unconnected-(J6-PadL3)*%
X176285000Y-55650000D03*
%TO.P,J6,L4*%
%TO.N,unconnected-(J6-PadL4)*%
X178825000Y-54130000D03*
D21*
%TO.P,J6,R1,TD+*%
%TO.N,Net-(J6-TD+)*%
X176945000Y-65370000D03*
D22*
%TO.P,J6,R2,TD-*%
%TO.N,Net-(J6-TD-)*%
X175675000Y-67910000D03*
%TO.P,J6,R3,RD+*%
%TO.N,Net-(J6-RD+)*%
X174405000Y-65370000D03*
%TO.P,J6,R4,TCT*%
%TO.N,Net-(J6-RCT)*%
X173135000Y-67910000D03*
%TO.P,J6,R5,RCT*%
X171865000Y-65370000D03*
%TO.P,J6,R6,RD-*%
%TO.N,Net-(J6-RD-)*%
X170595000Y-67910000D03*
%TO.P,J6,R7,NC*%
%TO.N,unconnected-(J6-NC-PadR7)*%
X169325000Y-65370000D03*
%TO.P,J6,R8*%
%TO.N,gnd*%
X168055000Y-67910000D03*
D23*
%TO.P,J6,SH*%
X180275000Y-62080000D03*
X164725000Y-62080000D03*
%TD*%
D12*
%TO.P,C1,1*%
%TO.N,Net-(Y2-VCC)*%
X138570000Y-69250000D03*
%TO.P,C1,2*%
%TO.N,VBUSUP*%
X137930000Y-69250000D03*
%TD*%
%TO.P,R16,1*%
%TO.N,Net-(J3-SHIELD)*%
X148070000Y-62750000D03*
%TO.P,R16,2*%
%TO.N,gnd*%
X147430000Y-62750000D03*
%TD*%
D10*
%TO.P,R5,1*%
%TO.N,gnd*%
X141180000Y-72250000D03*
%TO.P,R5,2*%
%TO.N,Net-(U2B-USBRBIAS)*%
X141820000Y-72250000D03*
%TD*%
D12*
%TO.P,R7,1*%
%TO.N,gnd*%
X157070000Y-62750000D03*
%TO.P,R7,2*%
%TO.N,Net-(J1-CC1)*%
X156430000Y-62750000D03*
%TD*%
D13*
%TO.P,C4,1*%
%TO.N,Net-(U2A-VDD18ETHPLL)*%
X154750000Y-76750000D03*
%TO.P,C4,2*%
%TO.N,gnd*%
X154750000Y-77390000D03*
%TD*%
D12*
%TO.P,R1,1*%
%TO.N,gnd*%
X143570000Y-66250000D03*
%TO.P,R1,2*%
%TO.N,Net-(J3-CC2)*%
X142930000Y-66250000D03*
%TD*%
D17*
%TO.P,J4,A1,GND*%
%TO.N,gnd*%
X135000000Y-61270000D03*
%TO.P,J4,A2,TX1+*%
%TO.N,unconnected-(J4-TX1+-PadA2)*%
X134500000Y-61270000D03*
%TO.P,J4,A3,TX1-*%
%TO.N,unconnected-(J4-TX1--PadA3)*%
X134000000Y-61270000D03*
%TO.P,J4,A4,VBUS*%
%TO.N,Net-(U2B-PRTCTL3)*%
X133500000Y-61270000D03*
%TO.P,J4,A5,CC1*%
%TO.N,Net-(J4-CC1)*%
X133000000Y-61270000D03*
%TO.P,J4,A6,D+*%
%TO.N,D+DOWN1*%
X132500000Y-61270000D03*
%TO.P,J4,A7,D-*%
%TO.N,D-DOWN1*%
X132000000Y-61270000D03*
%TO.P,J4,A8,SBU1*%
%TO.N,unconnected-(J4-SBU1-PadA8)*%
X131500000Y-61270000D03*
%TO.P,J4,A9,VBUS*%
%TO.N,Net-(U2B-PRTCTL3)*%
X131000000Y-61270000D03*
%TO.P,J4,A10,RX2-*%
%TO.N,unconnected-(J4-RX2--PadA10)*%
X130500000Y-61270000D03*
%TO.P,J4,A11,RX2+*%
%TO.N,unconnected-(J4-RX2+-PadA11)*%
X130000000Y-61270000D03*
%TO.P,J4,A12,GND*%
%TO.N,gnd*%
X129500000Y-61270000D03*
D18*
%TO.P,J4,B1,GND*%
X129450000Y-59960000D03*
%TO.P,J4,B2,TX2+*%
%TO.N,unconnected-(J4-TX2+-PadB2)*%
X129850000Y-59260000D03*
%TO.P,J4,B3,TX2-*%
%TO.N,unconnected-(J4-TX2--PadB3)*%
X130650000Y-59260000D03*
%TO.P,J4,B4,VBUS*%
%TO.N,Net-(U2B-PRTCTL3)*%
X131050000Y-59960000D03*
%TO.P,J4,B5,CC2*%
%TO.N,Net-(J4-CC2)*%
X131450000Y-59260000D03*
%TO.P,J4,B6,D+*%
%TO.N,D+DOWN1*%
X131850000Y-59960000D03*
%TO.P,J4,B7,D-*%
%TO.N,D-DOWN1*%
X132650000Y-59960000D03*
%TO.P,J4,B8,SBU2*%
%TO.N,unconnected-(J4-SBU2-PadB8)*%
X133050000Y-59260000D03*
%TO.P,J4,B9,VBUS*%
%TO.N,Net-(U2B-PRTCTL3)*%
X133450000Y-59960000D03*
%TO.P,J4,B10,RX1-*%
%TO.N,unconnected-(J4-RX1--PadB10)*%
X133850000Y-59260000D03*
%TO.P,J4,B11,RX1+*%
%TO.N,unconnected-(J4-RX1+-PadB11)*%
X134650000Y-59260000D03*
%TO.P,J4,B12,GND*%
%TO.N,gnd*%
X135050000Y-59960000D03*
D19*
%TO.P,J4,S1,SHIELD*%
%TO.N,Net-(J4-SHIELD)*%
X136740000Y-53410000D03*
X136380000Y-59360000D03*
X128120000Y-59360000D03*
X127760000Y-53410000D03*
%TD*%
D13*
%TO.P,R10,1*%
%TO.N,Net-(J6-RD-)*%
X168500000Y-73680000D03*
%TO.P,R10,2*%
%TO.N,VDD33A*%
X168500000Y-74320000D03*
%TD*%
D24*
%TO.P,Y2,1,INH*%
%TO.N,Net-(Y2-GND)*%
X139825000Y-70725000D03*
%TO.P,Y2,2,GND*%
X141675000Y-70725000D03*
%TO.P,Y2,3,CLK*%
%TO.N,Net-(U2A-XI)*%
X141675000Y-69275000D03*
%TO.P,Y2,4,VCC*%
%TO.N,Net-(Y2-VCC)*%
X139825000Y-69275000D03*
%TD*%
D12*
%TO.P,C5,1*%
%TO.N,gnd*%
X138500000Y-73250000D03*
%TO.P,C5,2*%
%TO.N,Net-(J4-SHIELD)*%
X137860000Y-73250000D03*
%TD*%
D10*
%TO.P,C11,1*%
%TO.N,gnd*%
X153360000Y-83750000D03*
%TO.P,C11,2*%
%TO.N,Net-(C10-Pad2)*%
X154000000Y-83750000D03*
%TD*%
D14*
%TO.P,M3,1,-*%
%TO.N,gnd*%
X119200000Y-85375000D03*
D15*
%TO.P,M3,2,+*%
%TO.N,Net-(M1-+)*%
X121740000Y-85375000D03*
%TO.P,M3,3,Tacho*%
%TO.N,unconnected-(M3-Tacho-Pad3)*%
X124280000Y-85375000D03*
%TD*%
D16*
%TO.P,C8,1*%
%TO.N,Net-(U2A-VDD18USBPLL)*%
X135750000Y-74070000D03*
%TO.P,C8,2*%
%TO.N,gnd*%
X135750000Y-73430000D03*
%TD*%
%TO.P,C2,1*%
%TO.N,gnd*%
X138000000Y-71070000D03*
%TO.P,C2,2*%
%TO.N,Net-(Y2-GND)*%
X138000000Y-70430000D03*
%TD*%
D10*
%TO.P,C6,1*%
%TO.N,gnd*%
X151180000Y-73000000D03*
%TO.P,C6,2*%
%TO.N,Net-(J3-SHIELD)*%
X151820000Y-73000000D03*
%TD*%
D14*
%TO.P,M4,1,-*%
%TO.N,gnd*%
X110200000Y-77875000D03*
D15*
%TO.P,M4,2,+*%
%TO.N,Net-(M1-+)*%
X112740000Y-77875000D03*
%TO.P,M4,3,Tacho*%
%TO.N,unconnected-(M4-Tacho-Pad3)*%
X115280000Y-77875000D03*
%TD*%
D25*
%TO.P,U2,1,USBDM2*%
%TO.N,D-DOWN1*%
X141312500Y-74500000D03*
%TO.P,U2,2,USBDP2*%
%TO.N,D+DOWN1*%
X141312500Y-75000000D03*
%TO.P,U2,3,USBDM3*%
%TO.N,D-DOWN2*%
X141312500Y-75500000D03*
%TO.P,U2,4,USBDP3*%
%TO.N,D+DOWN2*%
X141312500Y-76000000D03*
%TO.P,U2,5,VDD33A*%
%TO.N,VDD33A*%
X141312500Y-76500000D03*
%TO.P,U2,6,NC*%
%TO.N,unconnected-(U2B-NC-Pad6)*%
X141312500Y-77000000D03*
%TO.P,U2,7,NC*%
%TO.N,unconnected-(U2B-NC-Pad7)*%
X141312500Y-77500000D03*
%TO.P,U2,8,NC*%
%TO.N,unconnected-(U2B-NC-Pad8)*%
X141312500Y-78000000D03*
%TO.P,U2,9,NC*%
%TO.N,unconnected-(U2B-NC-Pad9)*%
X141312500Y-78500000D03*
%TO.P,U2,10,VDD33A*%
%TO.N,VDD33A*%
X141312500Y-79000000D03*
%TO.P,U2,11,VBUS_DET*%
%TO.N,Net-(U2B-VBUS_DET)*%
X141312500Y-79500000D03*
%TO.P,U2,12,~{RESET}*%
%TO.N,unconnected-(U2A-~{RESET}-Pad12)*%
X141312500Y-80000000D03*
%TO.P,U2,13,TEST1*%
%TO.N,unconnected-(U2A-TEST1-Pad13)*%
X141312500Y-80500000D03*
%TO.P,U2,14,PRTCTL2*%
%TO.N,Net-(U2B-PRTCTL2)*%
X141312500Y-81000000D03*
%TO.P,U2,15,VDD18CORE*%
%TO.N,Net-(C10-Pad2)*%
X141312500Y-81500000D03*
%TO.P,U2,16,PRTCTL3*%
%TO.N,Net-(U2B-PRTCTL3)*%
X141312500Y-82000000D03*
D26*
%TO.P,U2,17,NC*%
%TO.N,unconnected-(U2B-NC-Pad17)*%
X142000000Y-82687500D03*
%TO.P,U2,18,NC*%
%TO.N,unconnected-(U2B-NC-Pad18)*%
X142500000Y-82687500D03*
%TO.P,U2,19,VDD33IO*%
%TO.N,VBUSUP*%
X143000000Y-82687500D03*
%TO.P,U2,20,~{FDX_LED}/GPIO0*%
%TO.N,unconnected-(U2A-~{FDX_LED}{slash}GPIO0-Pad20)*%
X143500000Y-82687500D03*
%TO.P,U2,21,~{LNKA_LED}/GPIO1*%
%TO.N,unconnected-(U2A-~{LNKA_LED}{slash}GPIO1-Pad21)*%
X144000000Y-82687500D03*
%TO.P,U2,22,~{SPD_LED}/GPIO2*%
%TO.N,unconnected-(U2A-~{SPD_LED}{slash}GPIO2-Pad22)*%
X144500000Y-82687500D03*
%TO.P,U2,23,EECLK*%
%TO.N,unconnected-(U2A-EECLK-Pad23)*%
X145000000Y-82687500D03*
%TO.P,U2,24,EECS*%
%TO.N,unconnected-(U2A-EECS-Pad24)*%
X145500000Y-82687500D03*
%TO.P,U2,25,EEDO*%
%TO.N,unconnected-(U2A-EEDO-Pad25)*%
X146000000Y-82687500D03*
%TO.P,U2,26,EEDI*%
%TO.N,unconnected-(U2A-EEDI-Pad26)*%
X146500000Y-82687500D03*
%TO.P,U2,27,VDD33IO*%
%TO.N,VBUSUP*%
X147000000Y-82687500D03*
%TO.P,U2,28,~{TRST}*%
%TO.N,unconnected-(U2A-~{TRST}-Pad28)*%
X147500000Y-82687500D03*
%TO.P,U2,29,TMS*%
%TO.N,unconnected-(U2A-TMS-Pad29)*%
X148000000Y-82687500D03*
%TO.P,U2,30,TDI*%
%TO.N,unconnected-(U2A-TDI-Pad30)*%
X148500000Y-82687500D03*
%TO.P,U2,31,TDO*%
%TO.N,unconnected-(U2A-TDO-Pad31)*%
X149000000Y-82687500D03*
%TO.P,U2,32,TCK*%
%TO.N,unconnected-(U2A-TCK-Pad32)*%
X149500000Y-82687500D03*
D25*
%TO.P,U2,33,VDD33IO*%
%TO.N,VBUSUP*%
X150187500Y-82000000D03*
%TO.P,U2,34,TEST2*%
%TO.N,gnd*%
X150187500Y-81500000D03*
%TO.P,U2,35,GPIO3*%
%TO.N,unconnected-(U2A-GPIO3-Pad35)*%
X150187500Y-81000000D03*
%TO.P,U2,36,GPIO4*%
%TO.N,unconnected-(U2A-GPIO4-Pad36)*%
X150187500Y-80500000D03*
%TO.P,U2,37,GPIO5*%
%TO.N,unconnected-(U2A-GPIO5-Pad37)*%
X150187500Y-80000000D03*
%TO.P,U2,38,VDD18CORE*%
%TO.N,Net-(C10-Pad2)*%
X150187500Y-79500000D03*
%TO.P,U2,39,VDD33IO*%
%TO.N,VBUSUP*%
X150187500Y-79000000D03*
%TO.P,U2,40,TEST3*%
X150187500Y-78500000D03*
%TO.P,U2,41,AUTOMDIX_EN*%
%TO.N,unconnected-(U2B-AUTOMDIX_EN-Pad41)*%
X150187500Y-78000000D03*
%TO.P,U2,42,GPIO6*%
%TO.N,unconnected-(U2A-GPIO6-Pad42)*%
X150187500Y-77500000D03*
%TO.P,U2,43,GPIO7*%
%TO.N,unconnected-(U2A-GPIO7-Pad43)*%
X150187500Y-77000000D03*
%TO.P,U2,44,CLK24_EN*%
%TO.N,unconnected-(U2A-CLK24_EN-Pad44)*%
X150187500Y-76500000D03*
%TO.P,U2,45,CLK24_OUT*%
%TO.N,unconnected-(U2A-CLK24_OUT-Pad45)*%
X150187500Y-76000000D03*
%TO.P,U2,46,VDD33IO*%
%TO.N,VBUSUP*%
X150187500Y-75500000D03*
%TO.P,U2,47,TEST4*%
%TO.N,unconnected-(U2A-TEST4-Pad47)*%
X150187500Y-75000000D03*
%TO.P,U2,48,VDD18ETHPLL*%
%TO.N,Net-(U2A-VDD18ETHPLL)*%
X150187500Y-74500000D03*
D26*
%TO.P,U2,49,VDD33A*%
%TO.N,VDD33A*%
X149500000Y-73812500D03*
%TO.P,U2,50,EXRES*%
%TO.N,Net-(U2B-EXRES)*%
X149000000Y-73812500D03*
%TO.P,U2,51,VDD33A*%
%TO.N,VDD33A*%
X148500000Y-73812500D03*
%TO.P,U2,52,RXP*%
%TO.N,Net-(J6-RD+)*%
X148000000Y-73812500D03*
%TO.P,U2,53,RXN*%
%TO.N,Net-(J6-RD-)*%
X147500000Y-73812500D03*
%TO.P,U2,54,VDD33A*%
%TO.N,VDD33A*%
X147000000Y-73812500D03*
%TO.P,U2,55,TXP*%
%TO.N,Net-(J6-TD+)*%
X146500000Y-73812500D03*
%TO.P,U2,56,TXN*%
%TO.N,Net-(J6-TD-)*%
X146000000Y-73812500D03*
%TO.P,U2,57,VDD33A*%
%TO.N,VDD33A*%
X145500000Y-73812500D03*
%TO.P,U2,58,USBDM0*%
%TO.N,D-UP*%
X145000000Y-73812500D03*
%TO.P,U2,59,USBDP0*%
%TO.N,D+UP*%
X144500000Y-73812500D03*
%TO.P,U2,60,XO*%
%TO.N,unconnected-(U2A-XO-Pad60)*%
X144000000Y-73812500D03*
%TO.P,U2,61,XI*%
%TO.N,Net-(U2A-XI)*%
X143500000Y-73812500D03*
%TO.P,U2,62,VDD18USBPLL*%
%TO.N,Net-(U2A-VDD18USBPLL)*%
X143000000Y-73812500D03*
%TO.P,U2,63,USBRBIAS*%
%TO.N,Net-(U2B-USBRBIAS)*%
X142500000Y-73812500D03*
%TO.P,U2,64,VDD33A*%
%TO.N,VDD33A*%
X142000000Y-73812500D03*
D27*
%TO.P,U2,65,GND*%
%TO.N,gnd*%
X145750000Y-78250000D03*
%TD*%
D17*
%TO.P,J3,A1,GND*%
%TO.N,gnd*%
X146500000Y-61270000D03*
%TO.P,J3,A2,TX1+*%
%TO.N,unconnected-(J3-TX1+-PadA2)*%
X146000000Y-61270000D03*
%TO.P,J3,A3,TX1-*%
%TO.N,unconnected-(J3-TX1--PadA3)*%
X145500000Y-61270000D03*
%TO.P,J3,A4,VBUS*%
%TO.N,Net-(U2B-PRTCTL2)*%
X145000000Y-61270000D03*
%TO.P,J3,A5,CC1*%
%TO.N,Net-(J3-CC1)*%
X144500000Y-61270000D03*
%TO.P,J3,A6,D+*%
%TO.N,D+DOWN2*%
X144000000Y-61270000D03*
%TO.P,J3,A7,D-*%
%TO.N,D-DOWN2*%
X143500000Y-61270000D03*
%TO.P,J3,A8,SBU1*%
%TO.N,unconnected-(J3-SBU1-PadA8)*%
X143000000Y-61270000D03*
%TO.P,J3,A9,VBUS*%
%TO.N,Net-(U2B-PRTCTL2)*%
X142500000Y-61270000D03*
%TO.P,J3,A10,RX2-*%
%TO.N,unconnected-(J3-RX2--PadA10)*%
X142000000Y-61270000D03*
%TO.P,J3,A11,RX2+*%
%TO.N,unconnected-(J3-RX2+-PadA11)*%
X141500000Y-61270000D03*
%TO.P,J3,A12,GND*%
%TO.N,gnd*%
X141000000Y-61270000D03*
D18*
%TO.P,J3,B1,GND*%
X140950000Y-59960000D03*
%TO.P,J3,B2,TX2+*%
%TO.N,unconnected-(J3-TX2+-PadB2)*%
X141350000Y-59260000D03*
%TO.P,J3,B3,TX2-*%
%TO.N,unconnected-(J3-TX2--PadB3)*%
X142150000Y-59260000D03*
%TO.P,J3,B4,VBUS*%
%TO.N,Net-(U2B-PRTCTL2)*%
X142550000Y-59960000D03*
%TO.P,J3,B5,CC2*%
%TO.N,Net-(J3-CC2)*%
X142950000Y-59260000D03*
%TO.P,J3,B6,D+*%
%TO.N,D+DOWN2*%
X143350000Y-59960000D03*
%TO.P,J3,B7,D-*%
%TO.N,D-DOWN2*%
X144150000Y-59960000D03*
%TO.P,J3,B8,SBU2*%
%TO.N,unconnected-(J3-SBU2-PadB8)*%
X144550000Y-59260000D03*
%TO.P,J3,B9,VBUS*%
%TO.N,Net-(U2B-PRTCTL2)*%
X144950000Y-59960000D03*
%TO.P,J3,B10,RX1-*%
%TO.N,unconnected-(J3-RX1--PadB10)*%
X145350000Y-59260000D03*
%TO.P,J3,B11,RX1+*%
%TO.N,unconnected-(J3-RX1+-PadB11)*%
X146150000Y-59260000D03*
%TO.P,J3,B12,GND*%
%TO.N,gnd*%
X146550000Y-59960000D03*
D19*
%TO.P,J3,S1,SHIELD*%
%TO.N,Net-(J3-SHIELD)*%
X148240000Y-53410000D03*
X147880000Y-59360000D03*
X139620000Y-59360000D03*
X139260000Y-53410000D03*
%TD*%
D12*
%TO.P,R14,1*%
%TO.N,Net-(J6-RCT)*%
X169500000Y-76500000D03*
%TO.P,R14,2*%
%TO.N,VDD33A*%
X168860000Y-76500000D03*
%TD*%
%TO.P,R4,1*%
%TO.N,gnd*%
X145820000Y-66250000D03*
%TO.P,R4,2*%
%TO.N,Net-(J3-CC1)*%
X145180000Y-66250000D03*
%TD*%
D16*
%TO.P,R18,1*%
%TO.N,gnd*%
X138500000Y-83640000D03*
%TO.P,R18,2*%
%TO.N,Net-(U2B-VBUS_DET)*%
X138500000Y-83000000D03*
%TD*%
D28*
%TO.P,SW1,1,A*%
%TO.N,Net-(M1-+)*%
X112642500Y-54750000D03*
D29*
%TO.P,SW1,2,B*%
%TO.N,VBUSUP*%
X112642500Y-57250000D03*
%TO.P,SW1,3,C*%
X112642500Y-59750000D03*
%TO.P,SW1,4*%
%TO.N,N/C*%
X109342500Y-59750000D03*
%TO.P,SW1,5*%
X109342500Y-57250000D03*
%TO.P,SW1,6*%
X109342500Y-54750000D03*
%TD*%
D30*
%TO.N,Net-(J1-SHIELD)*%
X150000000Y-84500000D03*
%TO.N,gnd*%
X138747679Y-70909201D03*
X139000000Y-72500000D03*
X150668622Y-72290689D03*
X142781757Y-67100000D03*
X149000000Y-72250000D03*
X151750000Y-80500000D03*
X138250000Y-84750000D03*
X145750000Y-78250000D03*
X138000000Y-80750000D03*
X120000000Y-66500000D03*
X153750000Y-76250000D03*
%TO.N,Net-(J1-CC2)*%
X149750000Y-60500000D03*
X149790689Y-62668622D03*
%TO.N,D+UP*%
X143250000Y-69000000D03*
%TO.N,D-UP*%
X145694202Y-69095673D03*
X145000000Y-71000000D03*
%TO.N,VBUSUP*%
X156562415Y-62029019D03*
X154943617Y-79018794D03*
X135960453Y-68549190D03*
X129500000Y-69500000D03*
X154000000Y-62500000D03*
X153750000Y-82250000D03*
X137260453Y-68438935D03*
%TO.N,Net-(J6-RCT)*%
X171100000Y-76500000D03*
X154500000Y-75000000D03*
X168000000Y-78750000D03*
%TO.N,Net-(U2A-VDD18ETHPLL)*%
X155134620Y-68534620D03*
X153750000Y-74500000D03*
%TO.N,Net-(J4-SHIELD)*%
X138000000Y-72000000D03*
%TO.N,Net-(J3-SHIELD)*%
X151500000Y-71750000D03*
X147500000Y-65750000D03*
%TO.N,Net-(U2A-VDD18USBPLL)*%
X153511361Y-67321359D03*
X136750000Y-71850000D03*
X142750000Y-72500000D03*
%TO.N,Net-(C10-Pad2)*%
X140367142Y-77149522D03*
X139600000Y-81763059D03*
%TO.N,Net-(U2B-PRTCTL2)*%
X140250000Y-81250000D03*
X136250000Y-81750000D03*
%TO.N,Net-(J3-CC2)*%
X142667012Y-63355319D03*
X139500000Y-58000000D03*
%TO.N,D-DOWN2*%
X137532320Y-77455454D03*
X139000000Y-65750000D03*
%TO.N,D+DOWN2*%
X139033584Y-78054895D03*
X141994044Y-64899973D03*
X137679393Y-60561300D03*
%TO.N,Net-(U2B-PRTCTL3)*%
X130040380Y-80540380D03*
X136750000Y-84750000D03*
X140250000Y-83000000D03*
%TO.N,D-DOWN1*%
X131500000Y-75250000D03*
X136944423Y-78069361D03*
X133458913Y-64708913D03*
X135600000Y-75500000D03*
%TO.N,D+DOWN1*%
X131750000Y-80500000D03*
X135000000Y-76750000D03*
X132750000Y-63000000D03*
X138750000Y-75000000D03*
%TO.N,Net-(J4-CC2)*%
X131000000Y-57500000D03*
X126250000Y-58500000D03*
X123250000Y-63000000D03*
%TO.N,Net-(J6-RD-)*%
X170104215Y-73670000D03*
X167000000Y-71350000D03*
%TO.N,Net-(J6-TD-)*%
X153682838Y-65373755D03*
X151554007Y-67753395D03*
%TO.N,Net-(J6-TD+)*%
X179250000Y-72500000D03*
%TO.N,VDD33A*%
X152281361Y-68982317D03*
X164750000Y-72250000D03*
X146142160Y-69768374D03*
%TO.N,Net-(U2B-VBUS_DET)*%
X141500000Y-84250000D03*
X137762873Y-83381261D03*
%TD*%
D31*
%TO.N,Net-(J1-SHIELD)*%
X151335000Y-84500000D02*
X150000000Y-84500000D01*
X150804000Y-83969000D02*
X151335000Y-84500000D01*
X150804000Y-82481130D02*
X150804000Y-83969000D01*
X151036130Y-82249000D02*
X150804000Y-82481130D01*
X151633870Y-82249000D02*
X151036130Y-82249000D01*
X151975000Y-82590130D02*
X151633870Y-82249000D01*
X151975000Y-82750000D02*
X151975000Y-82590130D01*
%TO.N,gnd*%
X153820000Y-81500000D02*
X154250000Y-81070000D01*
X152016241Y-81500000D02*
X153820000Y-81500000D01*
X151750000Y-81233759D02*
X152016241Y-81500000D01*
X151750000Y-80500000D02*
X151750000Y-81233759D01*
X150703933Y-81446999D02*
X151750000Y-81447000D01*
X150187500Y-81500000D02*
X150650931Y-81500000D01*
%TO.N,VBUSUP*%
X151799556Y-81849000D02*
X151950556Y-82000000D01*
X151950556Y-82000000D02*
X153500000Y-82000000D01*
X150870445Y-81849000D02*
X151799556Y-81849000D01*
X153500000Y-82000000D02*
X153750000Y-82250000D01*
%TO.N,gnd*%
X150650931Y-81500000D02*
X150703933Y-81446999D01*
%TO.N,VBUSUP*%
X150187500Y-82000000D02*
X150719444Y-82000000D01*
X150719444Y-82000000D02*
X150870445Y-81849000D01*
%TO.N,gnd*%
X152000000Y-83750000D02*
X153360000Y-83750000D01*
X151335000Y-83085000D02*
X152000000Y-83750000D01*
X151335000Y-82750000D02*
X151335000Y-83085000D01*
X152610000Y-84500000D02*
X153360000Y-83750000D01*
X151975000Y-84500000D02*
X152610000Y-84500000D01*
%TO.N,Net-(J1-CC1)*%
X155926821Y-62476820D02*
X156200001Y-62750000D01*
X156200001Y-62750000D02*
X156430000Y-62750000D01*
X156000000Y-61820000D02*
X155926821Y-61893179D01*
X156000000Y-61270000D02*
X156000000Y-61820000D01*
X155926821Y-61893179D02*
X155926821Y-62476820D01*
%TO.N,gnd*%
X138500000Y-79750000D02*
X138500000Y-80250000D01*
X153750000Y-76589999D02*
X153750000Y-76250000D01*
X152450000Y-59960000D02*
X152500000Y-60010000D01*
X139000000Y-72500000D02*
X139000000Y-71161522D01*
X138586880Y-71070000D02*
X138747679Y-70909201D01*
X138338325Y-66988935D02*
X138345836Y-66996446D01*
X143570000Y-66250000D02*
X144071000Y-66751000D01*
X135000000Y-61270000D02*
X135000000Y-61470000D01*
X153410001Y-76250000D02*
X153750000Y-76250000D01*
X139547055Y-66996446D02*
X139650609Y-67100000D01*
X143031757Y-67350000D02*
X142781757Y-67100000D01*
X135000000Y-61470000D02*
X135350000Y-61820000D01*
X122500000Y-64500000D02*
X120500000Y-66500000D01*
X154550001Y-77390000D02*
X153750000Y-76589999D01*
X134570000Y-65180000D02*
X134570000Y-64000000D01*
X139000000Y-72500000D02*
X139000000Y-72750000D01*
X152680000Y-75250000D02*
X152680000Y-75519999D01*
X136659843Y-66988935D02*
X138338325Y-66988935D01*
X151180000Y-72802067D02*
X150668622Y-72290689D01*
X134570000Y-62600000D02*
X135350000Y-61820000D01*
X154750000Y-82250000D02*
X154250000Y-81750000D01*
X134570000Y-64000000D02*
X134570000Y-62600000D01*
X158050000Y-61220000D02*
X158000000Y-61270000D01*
X135050000Y-59960000D02*
X135050000Y-61220000D01*
X135750000Y-73430000D02*
X135310453Y-72990453D01*
X135310453Y-68338325D02*
X136659843Y-66988935D01*
X146500000Y-61270000D02*
X146730000Y-61500000D01*
X139000000Y-71161522D02*
X138747679Y-70909201D01*
X125500000Y-56640000D02*
X125500000Y-57500000D01*
X145820000Y-65780000D02*
X145820000Y-66250000D01*
X135050000Y-61220000D02*
X135000000Y-61270000D01*
X127180000Y-64500000D02*
X127180000Y-64659870D01*
X143472000Y-67350000D02*
X143031757Y-67350000D01*
X140950000Y-59960000D02*
X141000000Y-60010000D01*
X152500000Y-61270000D02*
X152500000Y-62820000D01*
X138500000Y-83640000D02*
X138500000Y-84500000D01*
X151180000Y-73000000D02*
X151180000Y-72802067D01*
X144071000Y-66751000D02*
X143472000Y-67350000D01*
X149250000Y-72000000D02*
X149000000Y-72250000D01*
X154750000Y-82500000D02*
X154750000Y-82250000D01*
X146500000Y-65100000D02*
X145820000Y-65780000D01*
X158050000Y-59960000D02*
X158050000Y-61220000D01*
X152680000Y-75519999D02*
X153410001Y-76250000D01*
X152500000Y-62820000D02*
X152680000Y-63000000D01*
X138000000Y-71070000D02*
X138586880Y-71070000D01*
X149250000Y-71500000D02*
X149250000Y-72000000D01*
X144071000Y-66751000D02*
X145518999Y-66751000D01*
X133750000Y-66000000D02*
X134570000Y-65180000D01*
X152270000Y-61500000D02*
X152500000Y-61270000D01*
X140000000Y-71500000D02*
X139000000Y-72500000D01*
X135350000Y-61820000D02*
X140450000Y-61820000D01*
X122500000Y-64500000D02*
X127180000Y-64500000D01*
X141180000Y-72250000D02*
X140750000Y-72250000D01*
X120500000Y-62500000D02*
X122500000Y-64500000D01*
X146500000Y-61270000D02*
X146500000Y-61820000D01*
X141000000Y-60010000D02*
X141000000Y-61270000D01*
X138345836Y-66996446D02*
X139547055Y-66996446D01*
X153360000Y-83750000D02*
X153360000Y-83550001D01*
X139650609Y-67100000D02*
X142781757Y-67100000D01*
X129450000Y-59960000D02*
X129500000Y-60010000D01*
X120500000Y-66500000D02*
X120000000Y-66500000D01*
X125500000Y-57500000D02*
X120500000Y-62500000D01*
X154410001Y-82500000D02*
X154750000Y-82500000D01*
X158000000Y-61270000D02*
X158000000Y-61820000D01*
X145820000Y-66449999D02*
X145820000Y-66250000D01*
X138500000Y-84500000D02*
X138250000Y-84750000D01*
X146500000Y-61820000D02*
X147430000Y-62750000D01*
X146500000Y-60010000D02*
X146550000Y-59960000D01*
X140750000Y-72250000D02*
X140000000Y-71500000D01*
X158000000Y-61820000D02*
X157070000Y-62750000D01*
X146730000Y-61500000D02*
X152270000Y-61500000D01*
X127180000Y-64659870D02*
X128520130Y-66000000D01*
X146500000Y-61270000D02*
X146500000Y-65100000D01*
X152500000Y-60010000D02*
X152500000Y-61270000D01*
X128520130Y-66000000D02*
X133750000Y-66000000D01*
X153360000Y-83550001D02*
X154410001Y-82500000D01*
X135310453Y-72990453D02*
X135310453Y-68338325D01*
X142860000Y-71500000D02*
X140000000Y-71500000D01*
X129500000Y-60010000D02*
X129500000Y-61270000D01*
X145518999Y-66751000D02*
X145820000Y-66449999D01*
X138500000Y-80250000D02*
X138000000Y-80750000D01*
X154250000Y-81750000D02*
X154250000Y-81070000D01*
X140450000Y-61820000D02*
X141000000Y-61270000D01*
X154750000Y-77390000D02*
X154550001Y-77390000D01*
X146500000Y-61270000D02*
X146500000Y-60010000D01*
X139000000Y-72750000D02*
X138500000Y-73250000D01*
%TO.N,Net-(J1-CC2)*%
X150705372Y-58359000D02*
X149750000Y-59314372D01*
X150622067Y-63500000D02*
X149790689Y-62668622D01*
X153320000Y-63199999D02*
X153019999Y-63500000D01*
X154450000Y-58800381D02*
X154008619Y-58359000D01*
X154008619Y-58359000D02*
X150705372Y-58359000D01*
X153320000Y-63000000D02*
X153320000Y-63199999D01*
X154450000Y-59260000D02*
X154450000Y-58800381D01*
X153019999Y-63500000D02*
X150622067Y-63500000D01*
X149750000Y-59314372D02*
X149750000Y-60500000D01*
%TO.N,D+UP*%
X154850000Y-60619000D02*
X155451000Y-60619000D01*
X155451000Y-60619000D02*
X155500000Y-60668000D01*
X144500000Y-72669239D02*
X144500000Y-73812500D01*
X144350000Y-70100000D02*
X144350000Y-72519239D01*
X155500000Y-60668000D02*
X155500000Y-61270000D01*
X154850000Y-59960000D02*
X154850000Y-60619000D01*
X143250000Y-69000000D02*
X144350000Y-70100000D01*
X144350000Y-72519239D02*
X144500000Y-72669239D01*
%TO.N,D-UP*%
X155076000Y-59171298D02*
X155888298Y-58359000D01*
X157165008Y-63251000D02*
X156916008Y-63500000D01*
X156628000Y-63500000D02*
X156379000Y-63251000D01*
X155250000Y-62122000D02*
X155000000Y-61872000D01*
X156379000Y-63251000D02*
X155251000Y-63251000D01*
X160381000Y-58945372D02*
X160381000Y-60035008D01*
X157601000Y-63018870D02*
X157368870Y-63251000D01*
X155650000Y-59745298D02*
X155076000Y-59171298D01*
X155650000Y-59960000D02*
X155650000Y-59745298D01*
X157601000Y-62815008D02*
X157601000Y-63018870D01*
X157368870Y-63251000D02*
X157165008Y-63251000D01*
X160381000Y-60035008D02*
X157601000Y-62815008D01*
X159794628Y-58359000D02*
X160381000Y-58945372D01*
X155888298Y-58359000D02*
X159794628Y-58359000D01*
X155000000Y-61872000D02*
X155000000Y-61270000D01*
X151382161Y-66303395D02*
X149611207Y-66303395D01*
X155000000Y-61270000D02*
X155000000Y-62685556D01*
X149611207Y-66303395D02*
X146818929Y-69095673D01*
X155250000Y-63250000D02*
X155250000Y-62122000D01*
X145000000Y-71000000D02*
X145000000Y-73812500D01*
X155000000Y-62685556D02*
X151382161Y-66303395D01*
X156916008Y-63500000D02*
X156628000Y-63500000D01*
X146818929Y-69095673D02*
X145694202Y-69095673D01*
X155251000Y-63251000D02*
X155250000Y-63250000D01*
%TO.N,VBUSUP*%
X137930000Y-69250000D02*
X137930000Y-69475275D01*
X146698999Y-83999000D02*
X147000000Y-84300001D01*
X154424823Y-78500000D02*
X154943617Y-79018794D01*
X154050000Y-59960000D02*
X154050000Y-61220000D01*
X137930000Y-69475275D02*
X138311926Y-69857201D01*
X139734925Y-67750000D02*
X139381370Y-67396446D01*
X150187500Y-82953298D02*
X150187500Y-82000000D01*
X111641500Y-54064840D02*
X111641500Y-58749000D01*
X150187500Y-75500000D02*
X151494444Y-75500000D01*
X112642500Y-57250000D02*
X111641500Y-58251000D01*
X151269870Y-65850000D02*
X148569239Y-65850000D01*
X135960453Y-68254010D02*
X135960453Y-68549190D01*
X154000000Y-63119870D02*
X151269870Y-65850000D01*
X137930000Y-69250000D02*
X137930000Y-69108482D01*
X156500000Y-61270000D02*
X156500000Y-61966604D01*
X137930000Y-69108482D02*
X137260453Y-68438935D01*
X136825528Y-67388935D02*
X135960453Y-68254010D01*
X138311926Y-69857201D02*
X138999000Y-69857201D01*
X154000000Y-62500000D02*
X154000000Y-63119870D01*
X119580761Y-67000000D02*
X116750000Y-67000000D01*
X150187500Y-79000000D02*
X154924823Y-79000000D01*
X111641500Y-58251000D02*
X111641500Y-58749000D01*
X137702888Y-67396446D02*
X137695377Y-67388935D01*
X156500000Y-61270000D02*
X156500000Y-60010000D01*
X129500000Y-69500000D02*
X127000000Y-67000000D01*
X150187500Y-78500000D02*
X154424823Y-78500000D01*
X139381370Y-67396446D02*
X137702888Y-67396446D01*
X151494444Y-75500000D02*
X154938061Y-78943617D01*
X120269239Y-67150000D02*
X119730761Y-67150000D01*
X148569239Y-65850000D02*
X147769239Y-66650000D01*
X143000000Y-83140798D02*
X143858202Y-83999000D01*
X154943617Y-78943617D02*
X154943617Y-79018794D01*
X147000000Y-84300001D02*
X147000000Y-84500000D01*
X146769239Y-66650000D02*
X145669239Y-67750000D01*
X127000000Y-67000000D02*
X120419239Y-67000000D01*
X154924823Y-79000000D02*
X154943617Y-79018794D01*
X137695377Y-67388935D02*
X136825528Y-67388935D01*
X156500000Y-61966604D02*
X156562415Y-62029019D01*
X147769239Y-66650000D02*
X146769239Y-66650000D01*
X143858202Y-83999000D02*
X146698999Y-83999000D01*
X114151000Y-54572340D02*
X113327660Y-53749000D01*
X111641500Y-58749000D02*
X112642500Y-59750000D01*
X148640798Y-84500000D02*
X150187500Y-82953298D01*
X147000000Y-84500000D02*
X148640798Y-84500000D01*
X154938061Y-78943617D02*
X154943617Y-78943617D01*
X156500000Y-60010000D02*
X156450000Y-59960000D01*
X143000000Y-82687500D02*
X143000000Y-83140798D01*
X114151000Y-64401000D02*
X114151000Y-54572340D01*
X119730761Y-67150000D02*
X119580761Y-67000000D01*
X147000000Y-82687500D02*
X147000000Y-84500000D01*
X154050000Y-61220000D02*
X154000000Y-61270000D01*
X145669239Y-67750000D02*
X139734925Y-67750000D01*
X113327660Y-53749000D02*
X111957340Y-53749000D01*
X120419239Y-67000000D02*
X120269239Y-67150000D01*
X154000000Y-61270000D02*
X154000000Y-62500000D01*
X111957340Y-53749000D02*
X111641500Y-54064840D01*
X116750000Y-67000000D02*
X114151000Y-64401000D01*
%TO.N,Net-(Y2-GND)*%
X139825000Y-70725000D02*
X139359201Y-70259201D01*
X139359201Y-70259201D02*
X138170799Y-70259201D01*
X141675000Y-70725000D02*
X139825000Y-70725000D01*
X138170799Y-70259201D02*
X138000000Y-70430000D01*
%TO.N,Net-(J6-RCT)*%
X169500000Y-77250000D02*
X169500000Y-76500000D01*
X169500000Y-76500000D02*
X171100000Y-76500000D01*
X154250000Y-75250000D02*
X154500000Y-75000000D01*
X168000000Y-78750000D02*
X169500000Y-77250000D01*
X171865000Y-65370000D02*
X173135000Y-66640000D01*
X173135000Y-66640000D02*
X173135000Y-67910000D01*
X153320000Y-75250000D02*
X154250000Y-75250000D01*
%TO.N,Net-(U2A-VDD18ETHPLL)*%
X155319240Y-68350000D02*
X155134620Y-68534620D01*
X155150000Y-74730761D02*
X154769239Y-74350000D01*
X153599000Y-74349000D02*
X150338500Y-74349000D01*
X150338500Y-74349000D02*
X150187500Y-74500000D01*
X153900000Y-74350000D02*
X153750000Y-74500000D01*
X158750000Y-68350000D02*
X155319240Y-68350000D01*
X155150000Y-76350000D02*
X155150000Y-74730761D01*
X154750000Y-76750000D02*
X155150000Y-76350000D01*
X153750000Y-74500000D02*
X153599000Y-74349000D01*
X154769239Y-74350000D02*
X153900000Y-74350000D01*
%TO.N,Net-(J4-SHIELD)*%
X137860000Y-72140000D02*
X138000000Y-72000000D01*
X137860000Y-73250000D02*
X137860000Y-72140000D01*
X125500000Y-55670000D02*
X126335000Y-54835000D01*
X125500000Y-55670000D02*
X127760000Y-53410000D01*
X125500000Y-56000000D02*
X125500000Y-55670000D01*
%TO.N,Net-(J3-SHIELD)*%
X151820000Y-72070000D02*
X151500000Y-71750000D01*
X148070000Y-65180000D02*
X148070000Y-62750000D01*
X147500000Y-65750000D02*
X148070000Y-65180000D01*
X151820000Y-73000000D02*
X151820000Y-72070000D01*
%TO.N,Net-(U2A-VDD18USBPLL)*%
X135750000Y-74070000D02*
X136430000Y-74070000D01*
X136750000Y-73750000D02*
X136750000Y-71850000D01*
X158750000Y-66150000D02*
X154682720Y-66150000D01*
X136430000Y-74070000D02*
X136750000Y-73750000D01*
X143000000Y-72750000D02*
X142750000Y-72500000D01*
X143000000Y-73812500D02*
X143000000Y-72750000D01*
X154682720Y-66150000D02*
X153511361Y-67321359D01*
%TO.N,Net-(C10-Pad2)*%
X154930000Y-80430000D02*
X154250000Y-80430000D01*
X155250000Y-80750000D02*
X154930000Y-80430000D01*
X139500000Y-85250000D02*
X155250000Y-85250000D01*
X154250000Y-80430000D02*
X153320000Y-79500000D01*
X154000000Y-84000000D02*
X155250000Y-85250000D01*
X139679601Y-82679601D02*
X139600000Y-82600000D01*
X140859202Y-81500000D02*
X139679601Y-82679601D01*
X139140000Y-79750000D02*
X139476416Y-79750000D01*
X155250000Y-85250000D02*
X155250000Y-80750000D01*
X139600000Y-82600000D02*
X139600000Y-81763059D01*
X154000000Y-83750000D02*
X154000000Y-84000000D01*
X139679601Y-82679601D02*
X139500000Y-82859202D01*
X153320000Y-79500000D02*
X150187500Y-79500000D01*
X140367142Y-78859274D02*
X140367142Y-77149522D01*
X141312500Y-81500000D02*
X140859202Y-81500000D01*
X139476416Y-79750000D02*
X140367142Y-78859274D01*
X139500000Y-82859202D02*
X139500000Y-85250000D01*
%TO.N,Net-(U2B-PRTCTL2)*%
X135481130Y-74601000D02*
X136351000Y-74601000D01*
X136700000Y-74950000D02*
X136700000Y-76234335D01*
X142550000Y-59960000D02*
X142550000Y-61220000D01*
X135894423Y-78504286D02*
X136250000Y-78859863D01*
X142451000Y-61921000D02*
X141763314Y-61921000D01*
X142500000Y-61270000D02*
X142500000Y-61872000D01*
X141463314Y-62221000D02*
X138779000Y-62221000D01*
X134000000Y-67000000D02*
X134000000Y-73119870D01*
X135894423Y-77039912D02*
X135894423Y-78504286D01*
X136700000Y-76234335D02*
X135894423Y-77039912D01*
X142550000Y-61220000D02*
X142500000Y-61270000D01*
X145000000Y-60010000D02*
X144950000Y-59960000D01*
X142500000Y-61872000D02*
X142451000Y-61921000D01*
X141763314Y-61921000D02*
X141463314Y-62221000D01*
X136250000Y-78859863D02*
X136250000Y-81750000D01*
X145000000Y-61270000D02*
X145000000Y-60010000D01*
X140500000Y-81000000D02*
X141312500Y-81000000D01*
X136351000Y-74601000D02*
X136700000Y-74950000D01*
X138779000Y-62221000D02*
X134000000Y-67000000D01*
X140250000Y-81250000D02*
X140500000Y-81000000D01*
X134000000Y-73119870D02*
X135481130Y-74601000D01*
%TO.N,Net-(J3-CC2)*%
X142527549Y-63355319D02*
X142667012Y-63355319D01*
X142440362Y-66250000D02*
X141269867Y-65079505D01*
X142950000Y-59174702D02*
X142950000Y-59260000D01*
X139500000Y-58000000D02*
X139723298Y-58000000D01*
X141269867Y-64613001D02*
X142527549Y-63355319D01*
X141269867Y-65079505D02*
X141269867Y-64613001D01*
X142930000Y-66250000D02*
X142440362Y-66250000D01*
X139723298Y-58000000D02*
X140357298Y-58634000D01*
X142409298Y-58634000D02*
X142950000Y-59174702D01*
X140357298Y-58634000D02*
X142409298Y-58634000D01*
%TO.N,D-DOWN2*%
X143500000Y-60668000D02*
X143500000Y-61270000D01*
X139567182Y-65750000D02*
X139000000Y-65750000D01*
X143500000Y-61820000D02*
X142614681Y-62705319D01*
X143549000Y-60619000D02*
X143500000Y-60668000D01*
X142397773Y-62705319D02*
X142017012Y-63086080D01*
X138900000Y-76584924D02*
X138900000Y-77269239D01*
X143500000Y-61270000D02*
X143500000Y-61820000D01*
X139984924Y-75500000D02*
X138900000Y-76584924D01*
X144150000Y-60419619D02*
X143950619Y-60619000D01*
X138519239Y-77650000D02*
X137726866Y-77650000D01*
X137726866Y-77650000D02*
X137532320Y-77455454D01*
X143950619Y-60619000D02*
X143549000Y-60619000D01*
X142614681Y-62705319D02*
X142397773Y-62705319D01*
X138900000Y-77269239D02*
X138519239Y-77650000D01*
X144150000Y-59960000D02*
X144150000Y-60419619D01*
X142017012Y-63086080D02*
X142017012Y-63300170D01*
X142017012Y-63300170D02*
X139567182Y-65750000D01*
X141312500Y-75500000D02*
X139984924Y-75500000D01*
%TO.N,D+DOWN2*%
X143576000Y-59000702D02*
X142809298Y-58234000D01*
X139300000Y-76750609D02*
X139300000Y-77788479D01*
X140653239Y-58234000D02*
X139769239Y-57350000D01*
X139070448Y-57350000D02*
X137929416Y-58491032D01*
X137929416Y-60311277D02*
X137679393Y-60561300D01*
X137929416Y-58491032D02*
X137929416Y-60311277D01*
X142809298Y-58234000D02*
X140653239Y-58234000D01*
X139769239Y-57350000D02*
X139070448Y-57350000D01*
X143350000Y-59960000D02*
X143350000Y-59745298D01*
X139300000Y-77788479D02*
X139033584Y-78054895D01*
X143350000Y-59745298D02*
X143576000Y-59519298D01*
X144000000Y-61270000D02*
X144000000Y-62894017D01*
X143576000Y-59519298D02*
X143576000Y-59000702D01*
X140050610Y-76000000D02*
X139300000Y-76750609D01*
X141312500Y-76000000D02*
X140050610Y-76000000D01*
X144000000Y-62894017D02*
X141994044Y-64899973D01*
%TO.N,Net-(J3-CC1)*%
X144500000Y-65570000D02*
X145180000Y-66250000D01*
X144500000Y-61270000D02*
X144500000Y-65570000D01*
%TO.N,Net-(U2B-PRTCTL3)*%
X133450000Y-61220000D02*
X133500000Y-61270000D01*
X131050000Y-59960000D02*
X131050000Y-61220000D01*
X131050000Y-61220000D02*
X131000000Y-61270000D01*
X136750000Y-84750000D02*
X134500000Y-82500000D01*
X133450000Y-59960000D02*
X133450000Y-61220000D01*
X134500000Y-82500000D02*
X132000000Y-82500000D01*
X140312500Y-83000000D02*
X141312500Y-82000000D01*
X132000000Y-82500000D02*
X130040380Y-80540380D01*
X140250000Y-83000000D02*
X140312500Y-83000000D01*
%TO.N,D-DOWN1*%
X132650000Y-59745298D02*
X132076000Y-59171298D01*
X132076000Y-59171298D02*
X132076000Y-59000702D01*
X141312500Y-74500000D02*
X141162500Y-74350000D01*
X127119000Y-60247139D02*
X130972861Y-64101000D01*
X132149000Y-64101000D02*
X132290380Y-63959620D01*
X132709620Y-63959620D02*
X133458913Y-64708913D01*
X127705372Y-58359000D02*
X127119000Y-58945372D01*
X135350000Y-75250000D02*
X135600000Y-75500000D01*
X141162500Y-74350000D02*
X138480761Y-74350000D01*
X132000000Y-64101000D02*
X132149000Y-64101000D01*
X131434298Y-58359000D02*
X127705372Y-58359000D01*
X131500000Y-75250000D02*
X135350000Y-75250000D01*
X132076000Y-59000702D02*
X131434298Y-58359000D01*
X138100000Y-74730761D02*
X138100000Y-75968535D01*
X127119000Y-58945372D02*
X127119000Y-60247139D01*
X132000000Y-64101000D02*
X132000000Y-61270000D01*
X138100000Y-75968535D02*
X136882320Y-77186215D01*
X130972861Y-64101000D02*
X132000000Y-64101000D01*
X138480761Y-74350000D02*
X138100000Y-74730761D01*
X136882320Y-77186215D02*
X136882320Y-78007258D01*
X132290380Y-63959620D02*
X132709620Y-63959620D01*
X132650000Y-59960000D02*
X132650000Y-59745298D01*
X136882320Y-78007258D02*
X136944423Y-78069361D01*
%TO.N,D+DOWN1*%
X132049381Y-60619000D02*
X132451000Y-60619000D01*
X132500000Y-60668000D02*
X132500000Y-61270000D01*
X132451000Y-60619000D02*
X132500000Y-60668000D01*
X131750000Y-80500000D02*
X131750000Y-80000000D01*
X132500000Y-61270000D02*
X132500000Y-62750000D01*
X131850000Y-59960000D02*
X131850000Y-60419619D01*
X131850000Y-60419619D02*
X132049381Y-60619000D01*
X138750000Y-75000000D02*
X141312500Y-75000000D01*
X131750000Y-80000000D02*
X135000000Y-76750000D01*
X132500000Y-62750000D02*
X132750000Y-63000000D01*
%TO.N,Net-(J4-CC1)*%
X133930000Y-64000000D02*
X133930000Y-63280000D01*
X133930000Y-63280000D02*
X133000000Y-62350000D01*
X133000000Y-62350000D02*
X133000000Y-61270000D01*
%TO.N,Net-(J4-CC2)*%
X123250000Y-63000000D02*
X124249000Y-63999000D01*
X127250000Y-57500000D02*
X126250000Y-58500000D01*
X131000000Y-57500000D02*
X127250000Y-57500000D01*
X124249000Y-63999000D02*
X127518999Y-63999000D01*
X127518999Y-63999000D02*
X127820000Y-64300001D01*
X127820000Y-64300001D02*
X127820000Y-64500000D01*
%TO.N,Net-(M1-+)*%
X112740000Y-77875000D02*
X112740000Y-85375000D01*
X112740000Y-77875000D02*
X114056000Y-79191000D01*
X114056000Y-79191000D02*
X120424000Y-79191000D01*
X120424000Y-86691000D02*
X114056000Y-86691000D01*
X113750000Y-55857500D02*
X112642500Y-54750000D01*
X120424000Y-79191000D02*
X121740000Y-77875000D01*
X114056000Y-86691000D02*
X112740000Y-85375000D01*
X121740000Y-85375000D02*
X120424000Y-86691000D01*
X112740000Y-77875000D02*
X113750000Y-76865000D01*
X121740000Y-77875000D02*
X121740000Y-85375000D01*
X113750000Y-76865000D02*
X113750000Y-55857500D01*
%TO.N,Net-(U2B-USBRBIAS)*%
X141820000Y-72470000D02*
X142500000Y-73150000D01*
X142500000Y-73150000D02*
X142500000Y-73812500D01*
X141820000Y-72250000D02*
X141820000Y-72470000D01*
%TO.N,Net-(J6-RD-)*%
X151386494Y-69529001D02*
X148649758Y-69529001D01*
X148649758Y-69529001D02*
X147949000Y-70229760D01*
X147500000Y-71035477D02*
X147500000Y-73812500D01*
X168750000Y-69682506D02*
X168750000Y-69750000D01*
X168750000Y-69682506D02*
X151539999Y-69682506D01*
X170094215Y-73680000D02*
X170104215Y-73670000D01*
X147949000Y-70229760D02*
X147949000Y-70586478D01*
X147949000Y-70586478D02*
X147500000Y-71035477D01*
X151539999Y-69682506D02*
X151386494Y-69529001D01*
X168750000Y-69750000D02*
X167150000Y-71350000D01*
X168500000Y-73680000D02*
X170094215Y-73680000D01*
X168822494Y-69682506D02*
X168750000Y-69682506D01*
X170595000Y-67910000D02*
X168822494Y-69682506D01*
X167150000Y-71350000D02*
X167000000Y-71350000D01*
%TO.N,Net-(J6-RD+)*%
X152150000Y-71834314D02*
X152150000Y-70980761D01*
X174405000Y-68409182D02*
X170464182Y-72350000D01*
X152150000Y-70980761D02*
X151098240Y-69929001D01*
X170464182Y-72350000D02*
X170084315Y-72350000D01*
X148000000Y-72736339D02*
X148000000Y-73812500D01*
X169734315Y-72000000D02*
X170084315Y-72350000D01*
X153389686Y-73074000D02*
X152150000Y-71834314D01*
X166000000Y-72000000D02*
X169734315Y-72000000D01*
X148349000Y-70753578D02*
X147948000Y-71154577D01*
X174405000Y-65370000D02*
X174405000Y-68409182D01*
X148815444Y-69929000D02*
X148349000Y-70395445D01*
X169360315Y-73074000D02*
X153389686Y-73074000D01*
X147948000Y-71154577D02*
X147948000Y-72684339D01*
X151098240Y-69929001D02*
X148815444Y-69929000D01*
X170084315Y-72350000D02*
X169360315Y-73074000D01*
X148349000Y-70395445D02*
X148349000Y-70753578D01*
X147948000Y-72684339D02*
X148000000Y-72736339D01*
%TO.N,Net-(J6-TD-)*%
X153471238Y-68200000D02*
X152000612Y-68200000D01*
X153890000Y-68618762D02*
X153471238Y-68200000D01*
X151549261Y-66703395D02*
X152878901Y-65373755D01*
X156937690Y-64044004D02*
X155012589Y-64044004D01*
X178196000Y-64119000D02*
X177327000Y-63250000D01*
X157300694Y-63681000D02*
X156937690Y-64044004D01*
X167250000Y-63250000D02*
X166819000Y-63681000D01*
X177327000Y-63250000D02*
X167250000Y-63250000D01*
X146748000Y-69733702D02*
X149778307Y-66703395D01*
X146748000Y-70089006D02*
X146748000Y-69733702D01*
X152000612Y-68200000D02*
X151554007Y-67753395D01*
X146000000Y-72734924D02*
X146050000Y-72684924D01*
X152878901Y-65373755D02*
X153682838Y-65373755D01*
X146050000Y-72684924D02*
X146050000Y-70787006D01*
X155012589Y-64044004D02*
X153682838Y-65373755D01*
X153890000Y-69000000D02*
X153890000Y-68618762D01*
X146000000Y-73812500D02*
X146000000Y-72734924D01*
X166819000Y-63681000D02*
X157300694Y-63681000D01*
X177018502Y-67910000D02*
X178196000Y-66732502D01*
X146050000Y-70787006D02*
X146748000Y-70089006D01*
X149778307Y-66703395D02*
X151549261Y-66703395D01*
X175675000Y-67910000D02*
X177018502Y-67910000D01*
X178196000Y-66732502D02*
X178196000Y-64119000D01*
%TO.N,Net-(U2A-XI)*%
X141675000Y-69275000D02*
X143500000Y-71100000D01*
X143500000Y-71100000D02*
X143500000Y-71500000D01*
X143500000Y-71500000D02*
X143500000Y-73812500D01*
%TO.N,Net-(J6-TD+)*%
X177250000Y-65675000D02*
X177250000Y-66000000D01*
X155415198Y-64444004D02*
X154332838Y-65526364D01*
X152747437Y-67228395D02*
X151948246Y-67228395D01*
X179250000Y-72500000D02*
X178250000Y-71500000D01*
X147148000Y-70254692D02*
X146500000Y-70902692D01*
X147148000Y-69899388D02*
X147148000Y-70254692D01*
X151823246Y-67103395D02*
X149943993Y-67103395D01*
X176945000Y-65370000D02*
X175694000Y-64119000D01*
X176945000Y-65370000D02*
X177250000Y-65675000D01*
X175694000Y-64119000D02*
X157428380Y-64119000D01*
X157428380Y-64119000D02*
X157103375Y-64444004D01*
X157103375Y-64444004D02*
X155415198Y-64444004D01*
X151948246Y-67228395D02*
X151823246Y-67103395D01*
X146500000Y-70902692D02*
X146500000Y-73812500D01*
X178250000Y-71500000D02*
X176390000Y-71500000D01*
X154332838Y-65642994D02*
X152747437Y-67228395D01*
X149943993Y-67103395D02*
X147148000Y-69899388D01*
X154332838Y-65526364D02*
X154332838Y-65642994D01*
%TO.N,Net-(Y2-VCC)*%
X138595000Y-69275000D02*
X138570000Y-69250000D01*
X139825000Y-69275000D02*
X138595000Y-69275000D01*
%TO.N,Net-(U2B-EXRES)*%
X149751000Y-71798870D02*
X149651000Y-71898870D01*
X149651000Y-72708202D02*
X149000000Y-73359202D01*
X149409870Y-70860000D02*
X149751000Y-71201130D01*
X149000000Y-73359202D02*
X149000000Y-73812500D01*
X149751000Y-71201130D02*
X149751000Y-71798870D01*
X149651000Y-71898870D02*
X149651000Y-72708202D01*
X149250000Y-70860000D02*
X149409870Y-70860000D01*
%TO.N,VDD33A*%
X139717142Y-76899154D02*
X140116296Y-76500000D01*
X166172500Y-73812500D02*
X158750000Y-73812500D01*
X139570239Y-68151000D02*
X139518421Y-68099182D01*
X140116296Y-76500000D02*
X141312500Y-76500000D01*
X148981130Y-70329000D02*
X149518870Y-70329000D01*
X150152000Y-71964970D02*
X150051000Y-72065970D01*
X148349000Y-71550000D02*
X148749000Y-71150000D01*
X145750000Y-70000000D02*
X145650000Y-70100000D01*
X147000000Y-70969792D02*
X147549000Y-70420792D01*
X149518870Y-70329000D02*
X150152000Y-70962130D01*
X156400000Y-76162500D02*
X156400000Y-79019239D01*
X137065380Y-83603007D02*
X137065380Y-82793822D01*
X148500000Y-72669239D02*
X148349000Y-72518239D01*
X143901000Y-68151000D02*
X139570239Y-68151000D01*
X147549000Y-70064074D02*
X148484073Y-69129001D01*
X145650000Y-70100000D02*
X145650000Y-72519239D01*
X165360000Y-72000000D02*
X165000000Y-72000000D01*
X137200000Y-76065076D02*
X137200000Y-76300021D01*
X150152000Y-70962130D02*
X150152000Y-71964970D01*
X137350000Y-69378425D02*
X137350000Y-72960130D01*
X137250000Y-82609202D02*
X139845554Y-80013648D01*
X137529692Y-67788935D02*
X136991214Y-67788935D01*
X166680000Y-74320000D02*
X166555000Y-74195000D01*
X140793516Y-79000000D02*
X141312500Y-79000000D01*
X142000000Y-73812500D02*
X138452576Y-73812500D01*
X137400000Y-84480761D02*
X137250000Y-84330761D01*
X137250000Y-82609202D02*
X137250000Y-79961202D01*
X136610453Y-68638878D02*
X137350000Y-69378425D01*
X137250000Y-79961202D02*
X138506307Y-78704895D01*
X136480320Y-77019701D02*
X136480320Y-77429601D01*
X158750000Y-73812500D02*
X149500000Y-73812500D01*
X136294423Y-78338600D02*
X137250000Y-79294177D01*
X137200000Y-76065076D02*
X137200000Y-76302849D01*
X136294423Y-77208426D02*
X136294423Y-78338600D01*
X137350000Y-75915075D02*
X137200000Y-76065076D01*
X145750000Y-70000000D02*
X143901000Y-68151000D01*
X138506307Y-78704895D02*
X139302823Y-78704895D01*
X137400000Y-85019239D02*
X137400000Y-84480761D01*
X137839939Y-68099182D02*
X137529692Y-67788935D01*
X139717142Y-78290576D02*
X139717142Y-76899154D01*
X156400000Y-79019239D02*
X155750000Y-79669239D01*
X172930000Y-74320000D02*
X168500000Y-74320000D01*
X139518421Y-68099182D02*
X137839939Y-68099182D01*
X138452576Y-73812500D02*
X137200000Y-75065076D01*
X137329000Y-72981130D02*
X137329000Y-73518870D01*
X137200000Y-75065076D02*
X137200000Y-76065076D01*
X152299044Y-69000000D02*
X152281361Y-68982317D01*
X137250000Y-84330761D02*
X137250000Y-83787627D01*
X155750000Y-79669239D02*
X155750000Y-85315685D01*
X150051000Y-73261500D02*
X149500000Y-73812500D01*
X150051000Y-72065970D02*
X150051000Y-73261500D01*
X147000000Y-73812500D02*
X147000000Y-70969792D01*
X175750000Y-71500000D02*
X172930000Y-74320000D01*
X146039516Y-69710484D02*
X146084270Y-69710484D01*
X139845554Y-80013648D02*
X139845554Y-79947962D01*
X168860000Y-76500000D02*
X166555000Y-74195000D01*
X137250000Y-85169239D02*
X137400000Y-85019239D01*
X165000000Y-72000000D02*
X164750000Y-72250000D01*
X145750000Y-70000000D02*
X146039516Y-69710484D01*
X146084270Y-69710484D02*
X146142160Y-69768374D01*
X136610453Y-68169696D02*
X136610453Y-68638878D01*
X148500000Y-73812500D02*
X148500000Y-72669239D01*
X155750000Y-85315685D02*
X155315685Y-85750000D01*
X137329000Y-73518870D02*
X137350000Y-73539870D01*
X148749000Y-71150000D02*
X148749000Y-70561130D01*
X137250000Y-79294177D02*
X137250000Y-79961202D01*
X137065380Y-82793822D02*
X137250000Y-82609202D01*
X153250000Y-69000000D02*
X152299044Y-69000000D01*
X137350000Y-72960130D02*
X137329000Y-72981130D01*
X148349000Y-72518239D02*
X148349000Y-71550000D01*
X155315685Y-85750000D02*
X137250000Y-85750000D01*
X137250000Y-85750000D02*
X137250000Y-85169239D01*
X168500000Y-74320000D02*
X166680000Y-74320000D01*
X139845554Y-79947962D02*
X140793516Y-79000000D01*
X137200000Y-76300021D02*
X136480320Y-77019701D01*
X137350000Y-73539870D02*
X137350000Y-75915075D01*
X147549000Y-70420792D02*
X147549000Y-70064074D01*
X139302823Y-78704895D02*
X139717142Y-78290576D01*
X148749000Y-70561130D02*
X148981130Y-70329000D01*
X152134677Y-69129001D02*
X152281361Y-68982317D01*
X145500000Y-72669239D02*
X145500000Y-73812500D01*
X137250000Y-83787627D02*
X137065380Y-83603007D01*
X137200000Y-76302849D02*
X136294423Y-77208426D01*
X166555000Y-74195000D02*
X166172500Y-73812500D01*
X136991214Y-67788935D02*
X136610453Y-68169696D01*
X158750000Y-73812500D02*
X156400000Y-76162500D01*
X148484073Y-69129001D02*
X152134677Y-69129001D01*
X145650000Y-72519239D02*
X145500000Y-72669239D01*
%TO.N,Net-(U2B-VBUS_DET)*%
X139467702Y-81113059D02*
X140574000Y-80006761D01*
X140574000Y-80006761D02*
X140574000Y-79785202D01*
X140859202Y-79500000D02*
X141312500Y-79500000D01*
X140574000Y-79785202D02*
X140859202Y-79500000D01*
X138500000Y-81943820D02*
X139330761Y-81113059D01*
X141750000Y-84500000D02*
X141500000Y-84250000D01*
X138500000Y-83000000D02*
X138500000Y-81943820D01*
X138500000Y-83000000D02*
X138144134Y-83000000D01*
X139330761Y-81113059D02*
X139467702Y-81113059D01*
X146360000Y-84500000D02*
X141750000Y-84500000D01*
X138144134Y-83000000D02*
X137762873Y-83381261D01*
%TD*%
M02*
