M48
; DRILL file {KiCad 9.0.2} date 2025-06-12T15:42:16-0500
; FORMAT={-:-/ absolute / inch / decimal}
; #@! TF.CreationDate,2025-06-12T15:42:16-05:00
; #@! TF.GenerationSoftware,Kicad,Pcbnew,9.0.2
; #@! TF.FileFunction,Plated,1,2,PTH
FMAT,2
INCH
; #@! TA.AperFunction,Plated,PTH,ViaDrill
T1C0.0118
; #@! TA.AperFunction,Plated,PTH,ComponentDrill
T2C0.0157
; #@! TA.AperFunction,Plated,PTH,ComponentDrill
T3C0.0299
; #@! TA.AperFunction,Plated,PTH,ComponentDrill
T4C0.0354
; #@! TA.AperFunction,Plated,PTH,ComponentDrill
T5C0.0402
; #@! TA.AperFunction,Plated,PTH,ComponentDrill
T6C0.0433
%
G90
G05
T1
X4.471Y-2.4638
X4.5177Y-2.6772
X4.6161Y-2.5295
X4.6949Y-2.0984
X4.8893Y-2.5039
X4.9311Y-2.5039
X5.1772Y-2.1654
X5.315Y-3.0217
X5.3493Y-3.0082
X5.3839Y-2.9626
X5.3937Y-3.3366
X5.4134Y-2.9429
X5.4136Y-3.411
X5.6496Y-3.248
X5.7339Y-3.0197
X5.9425Y-3.1811
X5.969Y-2.3938
X6.0433Y-3.2874
X6.063Y-3.2185
X6.0827Y-2.3425
X6.1614Y-3.0709
X6.2566Y-2.6769
X6.8768Y-2.7036
T2
X4.8307Y-2.1965
X4.8465Y-2.224
X4.878Y-2.224
X4.8937Y-2.1965
X4.9094Y-2.224
X4.9252Y-2.1965
X4.9567Y-2.1965
X4.9724Y-2.224
X4.9882Y-2.1965
X5.0039Y-2.224
X5.0354Y-2.224
X5.0512Y-2.1965
X5.2835Y-2.1965
X5.2992Y-2.224
X5.3307Y-2.224
X5.3465Y-2.1965
X5.3622Y-2.224
X5.378Y-2.1965
X5.4094Y-2.1965
X5.4252Y-2.224
X5.4409Y-2.1965
X5.4567Y-2.224
X5.4882Y-2.224
X5.5039Y-2.1965
X5.7402Y-2.1969
X5.7559Y-2.2244
X5.7874Y-2.2244
X5.8031Y-2.1969
X5.8189Y-2.2244
X5.8346Y-2.1969
X5.8661Y-2.1969
X5.8819Y-2.2244
X5.8976Y-2.1969
X5.9134Y-2.2244
X5.9449Y-2.2244
X5.9606Y-2.1969
T3
X6.2556Y-2.7811
X6.3056Y-2.6811
X6.3556Y-2.7811
X6.4056Y-2.6811
X6.4556Y-2.7811
X6.5056Y-2.6811
X6.5556Y-2.7811
X6.6056Y-2.6811
T4
X6.8504Y-2.1401
X6.8504Y-2.27
X6.9488Y-2.1401
X6.9488Y-2.27
X7.0472Y-2.1401
X7.0472Y-2.27
T5
X4.7606Y-2.7165
X4.8606Y-2.7165
X4.9606Y-2.7165
X5.115Y-2.7165
X5.215Y-2.7165
X5.315Y-2.7165
X5.4693Y-2.7165
X5.5693Y-2.7165
X5.6693Y-2.7165
X5.8236Y-2.7165
X5.9236Y-2.7165
X6.0236Y-2.7165
T6
X4.7642Y-2.4543
X4.7783Y-2.2201
X5.1035Y-2.2201
X5.1177Y-2.4543
X5.2169Y-2.4543
X5.2311Y-2.2201
X5.5563Y-2.2201
X5.5705Y-2.4543
X5.6736Y-2.4547
X5.6878Y-2.2205
X6.013Y-2.2205
X6.0272Y-2.4547
M30
