%TF.GenerationSoftware,KiCad,Pcbnew,9.0.2*%
%TF.CreationDate,2025-06-16T16:29:30-05:00*%
%TF.ProjectId,main,6d61696e-2e6b-4696-9361-645f70636258,rev?*%
%TF.SameCoordinates,Original*%
%TF.FileFunction,Copper,L2,Bot*%
%TF.FilePolarity,Positive*%
%FSLAX46Y46*%
G04 Gerber Fmt 4.6, Leading zero omitted, Abs format (unit mm)*
G04 Created by KiCad (PCBNEW 9.0.2) date 2025-06-16 16:29:30*
%MOMM*%
%LPD*%
G01*
G04 APERTURE LIST*
G04 Aperture macros list*
%AMRoundRect*
0 Rectangle with rounded corners*
0 $1 Rounding radius*
0 $2 $3 $4 $5 $6 $7 $8 $9 X,Y pos of 4 corners*
0 Add a 4 corners polygon primitive as box body*
4,1,4,$2,$3,$4,$5,$6,$7,$8,$9,$2,$3,0*
0 Add four circle primitives for the rounded corners*
1,1,$1+$1,$2,$3*
1,1,$1+$1,$4,$5*
1,1,$1+$1,$6,$7*
1,1,$1+$1,$8,$9*
0 Add four rect primitives between the rounded corners*
20,1,$1+$1,$2,$3,$4,$5,0*
20,1,$1+$1,$4,$5,$6,$7,0*
20,1,$1+$1,$6,$7,$8,$9,0*
20,1,$1+$1,$8,$9,$2,$3,0*%
G04 Aperture macros list end*
%TA.AperFunction,HeatsinkPad*%
%ADD10C,0.650000*%
%TD*%
%TA.AperFunction,HeatsinkPad*%
%ADD11C,1.400000*%
%TD*%
%TA.AperFunction,ComponentPad*%
%ADD12R,1.730000X2.030000*%
%TD*%
%TA.AperFunction,ComponentPad*%
%ADD13O,1.730000X2.030000*%
%TD*%
%TA.AperFunction,ComponentPad*%
%ADD14R,1.500000X1.500000*%
%TD*%
%TA.AperFunction,ComponentPad*%
%ADD15C,1.500000*%
%TD*%
%TA.AperFunction,ComponentPad*%
%ADD16RoundRect,0.250000X-0.450000X-0.450000X0.450000X-0.450000X0.450000X0.450000X-0.450000X0.450000X0*%
%TD*%
%TA.AperFunction,ComponentPad*%
%ADD17C,1.400000*%
%TD*%
%TA.AperFunction,ViaPad*%
%ADD18C,0.600000*%
%TD*%
%TA.AperFunction,Conductor*%
%ADD19C,0.200000*%
%TD*%
G04 APERTURE END LIST*
D10*
%TO.P,J1,B1,GND*%
%TO.N,gnd*%
X145210000Y-60550000D03*
%TO.P,J1,B2,TX2+*%
%TO.N,unconnected-(J1-TX2+-PadB2)*%
X145610000Y-59850000D03*
%TO.P,J1,B3,TX2-*%
%TO.N,unconnected-(J1-TX2--PadB3)*%
X146410000Y-59850000D03*
%TO.P,J1,B4,VBUS*%
%TO.N,VBUSUP*%
X146810000Y-60550000D03*
%TO.P,J1,B5,CC2*%
%TO.N,Net-(J1-CC2)*%
X147210000Y-59850000D03*
%TO.P,J1,B6,D+*%
%TO.N,D+UP*%
X147610000Y-60550000D03*
%TO.P,J1,B7,D-*%
%TO.N,D-UP*%
X148410000Y-60550000D03*
%TO.P,J1,B8,SBU2*%
%TO.N,unconnected-(J1-SBU2-PadB8)*%
X148810000Y-59850000D03*
%TO.P,J1,B9,VBUS*%
%TO.N,VBUSUP*%
X149210000Y-60550000D03*
%TO.P,J1,B10,RX1-*%
%TO.N,unconnected-(J1-RX1--PadB10)*%
X149610000Y-59850000D03*
%TO.P,J1,B11,RX1+*%
%TO.N,unconnected-(J1-RX1+-PadB11)*%
X150410000Y-59850000D03*
%TO.P,J1,B12,GND*%
%TO.N,gnd*%
X150810000Y-60550000D03*
D11*
%TO.P,J1,S1,SHIELD*%
X152500000Y-54000000D03*
X152140000Y-59950000D03*
X143880000Y-59950000D03*
X143520000Y-54000000D03*
%TD*%
D12*
%TO.P,M4,1,-*%
%TO.N,gnd*%
X120920000Y-69000000D03*
D13*
%TO.P,M4,2,+*%
%TO.N,Net-(M1-+)*%
X123460000Y-69000000D03*
%TO.P,M4,3,Tacho*%
%TO.N,unconnected-(M4-Tacho-Pad3)*%
X126000000Y-69000000D03*
%TD*%
D12*
%TO.P,M1,1,-*%
%TO.N,gnd*%
X147920000Y-69000000D03*
D13*
%TO.P,M1,2,+*%
%TO.N,Net-(M1-+)*%
X150460000Y-69000000D03*
%TO.P,M1,3,Tacho*%
%TO.N,unconnected-(M1-Tacho-Pad3)*%
X153000000Y-69000000D03*
%TD*%
D14*
%TO.P,J2,1*%
%TO.N,Net-(U2B-TXP)*%
X167532500Y-65350000D03*
D15*
%TO.P,J2,2*%
%TO.N,Net-(U2B-TXN)*%
X166262500Y-67890000D03*
%TO.P,J2,3*%
%TO.N,Net-(U2B-RXP)*%
X164992500Y-65350000D03*
%TO.P,J2,4*%
%TO.N,unconnected-(J2-Pad4)*%
X163722500Y-67890000D03*
%TO.P,J2,5*%
%TO.N,unconnected-(J2-Pad5)*%
X162452500Y-65350000D03*
%TO.P,J2,6*%
%TO.N,Net-(U2B-RXN)*%
X161182500Y-67890000D03*
%TO.P,J2,7*%
%TO.N,unconnected-(J2-Pad7)*%
X159912500Y-65350000D03*
%TO.P,J2,8*%
%TO.N,unconnected-(J2-Pad8)*%
X158642500Y-67890000D03*
%TD*%
D16*
%TO.P,SW1,1,A*%
%TO.N,Net-(M1-+)*%
X174000000Y-54357500D03*
D17*
%TO.P,SW1,2,B*%
%TO.N,VBUSUP*%
X176500000Y-54357500D03*
%TO.P,SW1,3,C*%
X179000000Y-54357500D03*
%TO.P,SW1,4*%
%TO.N,N/C*%
X179000000Y-57657500D03*
%TO.P,SW1,5*%
X176500000Y-57657500D03*
%TO.P,SW1,6*%
X174000000Y-57657500D03*
%TD*%
D10*
%TO.P,J3,B1,GND*%
%TO.N,gnd*%
X122150000Y-60700000D03*
%TO.P,J3,B2,TX2+*%
%TO.N,unconnected-(J3-TX2+-PadB2)*%
X122550000Y-60000000D03*
%TO.P,J3,B3,TX2-*%
%TO.N,unconnected-(J3-TX2--PadB3)*%
X123350000Y-60000000D03*
%TO.P,J3,B4,VBUS*%
%TO.N,Net-(U2B-PRTCTL2)*%
X123750000Y-60700000D03*
%TO.P,J3,B5,CC2*%
%TO.N,Net-(J3-CC2)*%
X124150000Y-60000000D03*
%TO.P,J3,B6,D+*%
%TO.N,D+DOWN2*%
X124550000Y-60700000D03*
%TO.P,J3,B7,D-*%
%TO.N,D-DOWN2*%
X125350000Y-60700000D03*
%TO.P,J3,B8,SBU2*%
%TO.N,unconnected-(J3-SBU2-PadB8)*%
X125750000Y-60000000D03*
%TO.P,J3,B9,VBUS*%
%TO.N,Net-(U2B-PRTCTL2)*%
X126150000Y-60700000D03*
%TO.P,J3,B10,RX1-*%
%TO.N,unconnected-(J3-RX1--PadB10)*%
X126550000Y-60000000D03*
%TO.P,J3,B11,RX1+*%
%TO.N,unconnected-(J3-RX1+-PadB11)*%
X127350000Y-60000000D03*
%TO.P,J3,B12,GND*%
%TO.N,gnd*%
X127750000Y-60700000D03*
D11*
%TO.P,J3,S1,SHIELD*%
X129440000Y-54150000D03*
X129080000Y-60100000D03*
X120820000Y-60100000D03*
X120460000Y-54150000D03*
%TD*%
D10*
%TO.P,J4,B1,GND*%
%TO.N,gnd*%
X133690000Y-60710000D03*
%TO.P,J4,B2,TX2+*%
%TO.N,unconnected-(J4-TX2+-PadB2)*%
X134090000Y-60010000D03*
%TO.P,J4,B3,TX2-*%
%TO.N,unconnected-(J4-TX2--PadB3)*%
X134890000Y-60010000D03*
%TO.P,J4,B4,VBUS*%
%TO.N,Net-(U2B-PRTCTL3)*%
X135290000Y-60710000D03*
%TO.P,J4,B5,CC2*%
%TO.N,Net-(J4-CC2)*%
X135690000Y-60010000D03*
%TO.P,J4,B6,D+*%
%TO.N,D+DOWN1*%
X136090000Y-60710000D03*
%TO.P,J4,B7,D-*%
%TO.N,D-DOWN1*%
X136890000Y-60710000D03*
%TO.P,J4,B8,SBU2*%
%TO.N,unconnected-(J4-SBU2-PadB8)*%
X137290000Y-60010000D03*
%TO.P,J4,B9,VBUS*%
%TO.N,Net-(U2B-PRTCTL3)*%
X137690000Y-60710000D03*
%TO.P,J4,B10,RX1-*%
%TO.N,unconnected-(J4-RX1--PadB10)*%
X138090000Y-60010000D03*
%TO.P,J4,B11,RX1+*%
%TO.N,unconnected-(J4-RX1+-PadB11)*%
X138890000Y-60010000D03*
%TO.P,J4,B12,GND*%
%TO.N,gnd*%
X139290000Y-60710000D03*
D11*
%TO.P,J4,S1,SHIELD*%
X140980000Y-54160000D03*
X140620000Y-60110000D03*
X132360000Y-60110000D03*
X132000000Y-54160000D03*
%TD*%
D12*
%TO.P,M2,1,-*%
%TO.N,gnd*%
X138920000Y-69000000D03*
D13*
%TO.P,M2,2,+*%
%TO.N,Net-(M1-+)*%
X141460000Y-69000000D03*
%TO.P,M2,3,Tacho*%
%TO.N,unconnected-(M2-Tacho-Pad3)*%
X144000000Y-69000000D03*
%TD*%
D12*
%TO.P,M3,1,-*%
%TO.N,gnd*%
X129920000Y-69000000D03*
D13*
%TO.P,M3,2,+*%
%TO.N,Net-(M1-+)*%
X132460000Y-69000000D03*
%TO.P,M3,3,Tacho*%
%TO.N,unconnected-(M3-Tacho-Pad3)*%
X135000000Y-69000000D03*
%TD*%
D18*
%TO.N,VBUSUP*%
X160000000Y-87750000D03*
X152500000Y-86000000D03*
%TO.N,Net-(U2A-XI)*%
X134750000Y-81000000D03*
X133750000Y-88500000D03*
%TO.N,Net-(J1-CC1)*%
X156000000Y-64250000D03*
X151000000Y-63750000D03*
%TO.N,gnd*%
X136750000Y-56000000D03*
X121899736Y-55549654D03*
X153500000Y-56500000D03*
X154000000Y-81750000D03*
X143500000Y-82500000D03*
X169659800Y-62159800D03*
%TO.N,D+UP*%
X134000000Y-75000000D03*
%TO.N,D-UP*%
X135500000Y-74500000D03*
%TO.N,VBUSUP*%
X145750000Y-70500000D03*
X143500000Y-88250000D03*
X146082171Y-89200000D03*
X154250000Y-57500000D03*
%TO.N,Net-(U2B-TXP)*%
X138395966Y-75684794D03*
%TO.N,Net-(U2B-RXN)*%
X138000000Y-80750000D03*
%TO.N,Net-(U2B-RXP)*%
X138146091Y-77186664D03*
%TO.N,Net-(U2B-TXN)*%
X140696038Y-76769501D03*
%TO.N,Net-(J3-CC2)*%
X120588028Y-64046971D03*
%TO.N,Net-(J3-CC1)*%
X119838105Y-63646821D03*
X125750000Y-64500000D03*
%TO.N,Net-(U2B-PRTCTL3)*%
X147750000Y-77150000D03*
X151750000Y-83500000D03*
X136750000Y-67000000D03*
%TO.N,Net-(J4-CC1)*%
X125500000Y-57250000D03*
X141750000Y-56750000D03*
%TO.N,Net-(J4-CC2)*%
X133500000Y-58500000D03*
X114250000Y-56750000D03*
%TO.N,Net-(U2B-USBRBIAS)*%
X137721833Y-84891073D03*
X174670960Y-68670960D03*
%TO.N,Net-(U2A-VDD18CORE-Pad15)*%
X150939625Y-80798698D03*
X145838418Y-77116859D03*
%TD*%
D19*
%TO.N,VBUSUP*%
X160000000Y-85250000D02*
X160000000Y-87750000D01*
X159250000Y-86000000D02*
X160000000Y-85250000D01*
X152500000Y-86000000D02*
X159250000Y-86000000D01*
%TO.N,Net-(U2B-USBRBIAS)*%
X137862906Y-84750000D02*
X137721833Y-84891073D01*
X153580761Y-84750000D02*
X137862906Y-84750000D01*
X153730761Y-84900000D02*
X153580761Y-84750000D01*
X155669239Y-84750000D02*
X155519239Y-84900000D01*
X158750000Y-84750000D02*
X155669239Y-84750000D01*
X174670960Y-68829040D02*
X158750000Y-84750000D01*
X174670960Y-68670960D02*
X174670960Y-68829040D01*
X155519239Y-84900000D02*
X153730761Y-84900000D01*
%TO.N,Net-(U2A-XI)*%
X134750000Y-87500000D02*
X134750000Y-81000000D01*
X133750000Y-88500000D02*
X134750000Y-87500000D01*
%TO.N,VBUSUP*%
X144450000Y-89200000D02*
X146082171Y-89200000D01*
X143500000Y-88250000D02*
X144450000Y-89200000D01*
%TO.N,Net-(J1-CC1)*%
X156000000Y-64250000D02*
X151500000Y-64250000D01*
X151500000Y-64250000D02*
X151000000Y-63750000D01*
%TO.N,gnd*%
X151036000Y-60324000D02*
X151036000Y-59590702D01*
X158101000Y-65251057D02*
X153141000Y-60291057D01*
X131752372Y-62186000D02*
X133232140Y-62186000D01*
X143880000Y-59950000D02*
X138920000Y-64910000D01*
X153500000Y-56500000D02*
X152500000Y-55500000D01*
X145350702Y-59224000D02*
X144910000Y-59664702D01*
X158101000Y-65251057D02*
X160852057Y-62500000D01*
X129920000Y-69000000D02*
X129920000Y-68850000D01*
X150810000Y-60550000D02*
X151036000Y-60324000D01*
X122236000Y-67684000D02*
X128604000Y-67684000D01*
X120460000Y-54150000D02*
X121859654Y-55549654D01*
X120820000Y-60100000D02*
X120120000Y-60800000D01*
X144294628Y-58949000D02*
X140365372Y-58949000D01*
X134015000Y-61035000D02*
X133690000Y-60710000D01*
X131170000Y-67600000D02*
X136180761Y-67600000D01*
X128079000Y-59685372D02*
X128665372Y-59099000D01*
X138920000Y-64910000D02*
X138920000Y-69000000D01*
X120424415Y-62423000D02*
X129328414Y-62423000D01*
X139619000Y-60381000D02*
X139290000Y-60710000D01*
X150819000Y-66101000D02*
X157748943Y-66101000D01*
X169319600Y-62500000D02*
X169659800Y-62159800D01*
X144881000Y-59535372D02*
X144294628Y-58949000D01*
X158101000Y-65748943D02*
X158101000Y-65251057D01*
X154000000Y-81750000D02*
X144250000Y-81750000D01*
X139516000Y-59750702D02*
X139149298Y-59384000D01*
X144881000Y-60221000D02*
X144881000Y-59535372D01*
X157748943Y-66101000D02*
X158101000Y-65748943D01*
X133464000Y-59750702D02*
X133464000Y-60484000D01*
X121859654Y-55549654D02*
X121899736Y-55549654D01*
X130081000Y-59685372D02*
X130081000Y-60514628D01*
X133464000Y-60484000D02*
X133690000Y-60710000D01*
X144910000Y-59664702D02*
X144910000Y-60250000D01*
X129500000Y-62251414D02*
X129500000Y-60520000D01*
X136750000Y-56000000D02*
X133840000Y-56000000D01*
X129500000Y-60520000D02*
X129080000Y-60100000D01*
X137580761Y-69000000D02*
X138920000Y-69000000D01*
X133840000Y-56000000D02*
X132000000Y-54160000D01*
X129328414Y-62423000D02*
X129500000Y-62251414D01*
X139290000Y-60710000D02*
X139516000Y-60484000D01*
X134015000Y-61403140D02*
X134015000Y-61035000D01*
X152500000Y-55500000D02*
X152500000Y-54000000D01*
X151036000Y-59590702D02*
X150669298Y-59224000D01*
X133232140Y-62186000D02*
X134015000Y-61403140D01*
X145210000Y-60550000D02*
X144881000Y-60221000D01*
X139619000Y-59695372D02*
X139619000Y-60381000D01*
X147920000Y-69000000D02*
X150819000Y-66101000D01*
X150669298Y-59224000D02*
X145350702Y-59224000D01*
X130081000Y-60514628D02*
X131752372Y-62186000D01*
X152481057Y-60291057D02*
X153141000Y-60291057D01*
X129920000Y-68850000D02*
X131170000Y-67600000D01*
X120920000Y-69000000D02*
X122236000Y-67684000D01*
X129494628Y-59099000D02*
X130081000Y-59685372D01*
X128604000Y-67684000D02*
X129920000Y-69000000D01*
X152554628Y-58949000D02*
X151677702Y-58949000D01*
X144250000Y-81750000D02*
X143500000Y-82500000D01*
X153141000Y-59535372D02*
X152554628Y-58949000D01*
X160852057Y-62500000D02*
X169319600Y-62500000D01*
X128665372Y-59099000D02*
X129494628Y-59099000D01*
X120120000Y-62118585D02*
X120424415Y-62423000D01*
X133830702Y-59384000D02*
X133464000Y-59750702D01*
X127750000Y-60700000D02*
X128079000Y-60371000D01*
X122150000Y-60700000D02*
X122776000Y-61326000D01*
X139149298Y-59384000D02*
X133830702Y-59384000D01*
X128079000Y-60371000D02*
X128079000Y-59685372D01*
X136180761Y-67600000D02*
X137580761Y-69000000D01*
X120120000Y-60800000D02*
X120120000Y-62118585D01*
X140365372Y-58949000D02*
X139619000Y-59695372D01*
X144910000Y-60250000D02*
X145210000Y-60550000D01*
X153141000Y-60291057D02*
X153141000Y-59535372D01*
X139516000Y-60484000D02*
X139516000Y-59750702D01*
X127124000Y-61326000D02*
X127750000Y-60700000D01*
X152140000Y-59950000D02*
X152481057Y-60291057D01*
X122776000Y-61326000D02*
X127124000Y-61326000D01*
X151677702Y-58949000D02*
X151036000Y-59590702D01*
%TO.N,D+UP*%
X140294000Y-69632973D02*
X140294000Y-67951298D01*
X147610000Y-60635298D02*
X147610000Y-60550000D01*
X140977027Y-70316000D02*
X140294000Y-69632973D01*
X134000000Y-75000000D02*
X138684000Y-70316000D01*
X138684000Y-70316000D02*
X140977027Y-70316000D01*
X140294000Y-67951298D02*
X147610000Y-60635298D01*
%TO.N,D-UP*%
X142750000Y-69508973D02*
X142750000Y-66295298D01*
X142750000Y-66295298D02*
X148410000Y-60635298D01*
X148410000Y-60635298D02*
X148410000Y-60550000D01*
X139283000Y-70717000D02*
X141541973Y-70717000D01*
X141541973Y-70717000D02*
X142750000Y-69508973D01*
X135500000Y-74500000D02*
X139283000Y-70717000D01*
%TO.N,VBUSUP*%
X145750000Y-70500000D02*
X145750000Y-67750000D01*
X173192872Y-57049000D02*
X154701000Y-57049000D01*
X149210000Y-64290000D02*
X149210000Y-60550000D01*
X145750000Y-67750000D02*
X149210000Y-64290000D01*
X175884372Y-54357500D02*
X173192872Y-57049000D01*
X154701000Y-57049000D02*
X154250000Y-57500000D01*
X176500000Y-54357500D02*
X175884372Y-54357500D01*
%TO.N,Net-(U2B-TXP)*%
X137712492Y-78019239D02*
X136887007Y-77193753D01*
X140313479Y-78400000D02*
X140240472Y-78400000D01*
X145487038Y-76549000D02*
X142164479Y-76549000D01*
X136887007Y-77193753D02*
X138395966Y-75684794D01*
X145569179Y-76466859D02*
X145487038Y-76549000D01*
X159089839Y-76549000D02*
X146189798Y-76549000D01*
X167532500Y-68106339D02*
X159089839Y-76549000D01*
X167532500Y-65350000D02*
X167532500Y-68106339D01*
X142164479Y-76549000D02*
X140313479Y-78400000D01*
X140240472Y-78400000D02*
X139859711Y-78019239D01*
X139859711Y-78019239D02*
X137712492Y-78019239D01*
X146107657Y-76466859D02*
X145569179Y-76466859D01*
X146189798Y-76549000D02*
X146107657Y-76466859D01*
%TO.N,Net-(U2B-RXN)*%
X157377398Y-71695102D02*
X141535715Y-71695102D01*
X136449000Y-76781817D02*
X136449000Y-79199000D01*
X141535715Y-71695102D02*
X136449000Y-76781817D01*
X161182500Y-67890000D02*
X157377398Y-71695102D01*
X136449000Y-79199000D02*
X138000000Y-80750000D01*
%TO.N,Net-(U2B-RXP)*%
X138313336Y-77186664D02*
X138146091Y-77186664D01*
X162250000Y-68308839D02*
X156720289Y-73838550D01*
X141661450Y-73838550D02*
X138313336Y-77186664D01*
X162250000Y-67876161D02*
X162250000Y-68308839D01*
X164776161Y-65350000D02*
X162250000Y-67876161D01*
X156720289Y-73838550D02*
X141661450Y-73838550D01*
X164992500Y-65350000D02*
X164776161Y-65350000D01*
%TO.N,Net-(U2B-TXN)*%
X158085641Y-76066859D02*
X145403493Y-76066859D01*
X145385733Y-76084620D02*
X141709620Y-76084620D01*
X141709620Y-76084620D02*
X141024739Y-76769501D01*
X166262500Y-67890000D02*
X158085641Y-76066859D01*
X145403493Y-76066859D02*
X145385733Y-76084620D01*
X141024739Y-76769501D02*
X140696038Y-76769501D01*
%TO.N,Net-(J3-CC2)*%
X117350000Y-61834315D02*
X118338685Y-62823000D01*
X124150000Y-60000000D02*
X124150000Y-58084315D01*
X124150000Y-58084315D02*
X121100000Y-58084315D01*
X120588028Y-62823000D02*
X120588028Y-64046971D01*
X121100000Y-58084315D02*
X117350000Y-61834315D01*
X118338685Y-62823000D02*
X120588028Y-62823000D01*
%TO.N,Net-(J3-CC1)*%
X125750000Y-64500000D02*
X125500000Y-64750000D01*
X119830761Y-64750000D02*
X119588105Y-64507344D01*
X125500000Y-64750000D02*
X119830761Y-64750000D01*
X119588105Y-63896821D02*
X119838105Y-63646821D01*
X119588105Y-64507344D02*
X119588105Y-63896821D01*
%TO.N,Net-(U2B-PRTCTL3)*%
X156250000Y-83500000D02*
X157500000Y-82250000D01*
X152400000Y-77150000D02*
X147750000Y-77150000D01*
X157500000Y-82250000D02*
X152400000Y-77150000D01*
X137690000Y-66060000D02*
X137690000Y-60710000D01*
X136750000Y-67000000D02*
X137690000Y-66060000D01*
X151750000Y-83500000D02*
X156250000Y-83500000D01*
%TO.N,Net-(J4-CC1)*%
X141250000Y-57250000D02*
X141750000Y-56750000D01*
X125500000Y-57250000D02*
X141250000Y-57250000D01*
%TO.N,Net-(J4-CC2)*%
X133500000Y-58500000D02*
X125131370Y-58500000D01*
X123800000Y-57168630D02*
X123800000Y-56168629D01*
X122200000Y-56168630D02*
X122200000Y-56418629D01*
X122200000Y-56418629D02*
X120118629Y-58500000D01*
X123800000Y-56168629D02*
X123331370Y-55700000D01*
X120118629Y-58500000D02*
X116000000Y-58500000D01*
X116000000Y-58500000D02*
X114250000Y-56750000D01*
X125131370Y-58500000D02*
X123800000Y-57168630D01*
X123331370Y-55700000D02*
X122668629Y-55700000D01*
X122668629Y-55700000D02*
X122200000Y-56168630D01*
%TO.N,Net-(M1-+)*%
X131144000Y-70316000D02*
X132460000Y-69000000D01*
X123460000Y-69000000D02*
X124776000Y-70316000D01*
X124776000Y-70316000D02*
X131144000Y-70316000D01*
%TO.N,Net-(U2A-VDD18CORE-Pad15)*%
X150939625Y-80798698D02*
X149738900Y-80798698D01*
X149738900Y-80798698D02*
X146057061Y-77116859D01*
X146057061Y-77116859D02*
X145838418Y-77116859D01*
%TD*%
M02*
