%TF.GenerationSoftware,KiCad,Pcbnew,9.0.2*%
%TF.CreationDate,2025-06-16T16:29:30-05:00*%
%TF.ProjectId,main,6d61696e-2e6b-4696-9361-645f70636258,rev?*%
%TF.SameCoordinates,Original*%
%TF.FileFunction,Soldermask,Bot*%
%TF.FilePolarity,Negative*%
%FSLAX46Y46*%
G04 Gerber Fmt 4.6, Leading zero omitted, Abs format (unit mm)*
G04 Created by KiCad (PCBNEW 9.0.2) date 2025-06-16 16:29:30*
%MOMM*%
%LPD*%
G01*
G04 APERTURE LIST*
G04 Aperture macros list*
%AMRoundRect*
0 Rectangle with rounded corners*
0 $1 Rounding radius*
0 $2 $3 $4 $5 $6 $7 $8 $9 X,Y pos of 4 corners*
0 Add a 4 corners polygon primitive as box body*
4,1,4,$2,$3,$4,$5,$6,$7,$8,$9,$2,$3,0*
0 Add four circle primitives for the rounded corners*
1,1,$1+$1,$2,$3*
1,1,$1+$1,$4,$5*
1,1,$1+$1,$6,$7*
1,1,$1+$1,$8,$9*
0 Add four rect primitives between the rounded corners*
20,1,$1+$1,$2,$3,$4,$5,0*
20,1,$1+$1,$4,$5,$6,$7,0*
20,1,$1+$1,$6,$7,$8,$9,0*
20,1,$1+$1,$8,$9,$2,$3,0*%
G04 Aperture macros list end*
%ADD10C,0.650000*%
%ADD11C,0.950000*%
%ADD12C,1.400000*%
%ADD13R,1.730000X2.030000*%
%ADD14O,1.730000X2.030000*%
%ADD15C,3.200000*%
%ADD16R,1.500000X1.500000*%
%ADD17C,1.500000*%
%ADD18RoundRect,0.250000X-0.450000X-0.450000X0.450000X-0.450000X0.450000X0.450000X-0.450000X0.450000X0*%
G04 APERTURE END LIST*
D10*
%TO.C,J1*%
X151610000Y-61200000D03*
D11*
X144410000Y-61200000D03*
D10*
X145210000Y-60550000D03*
X145610000Y-59850000D03*
X146410000Y-59850000D03*
X146810000Y-60550000D03*
X147210000Y-59850000D03*
X147610000Y-60550000D03*
X148410000Y-60550000D03*
X148810000Y-59850000D03*
X149210000Y-60550000D03*
X149610000Y-59850000D03*
X150410000Y-59850000D03*
X150810000Y-60550000D03*
D12*
X152500000Y-54000000D03*
X152140000Y-59950000D03*
X143880000Y-59950000D03*
X143520000Y-54000000D03*
%TD*%
D13*
%TO.C,M4*%
X120920000Y-69000000D03*
D14*
X123460000Y-69000000D03*
X126000000Y-69000000D03*
%TD*%
D13*
%TO.C,M1*%
X147920000Y-69000000D03*
D14*
X150460000Y-69000000D03*
X153000000Y-69000000D03*
%TD*%
D15*
%TO.C,J2*%
X168802500Y-59000000D03*
X157372500Y-59000000D03*
D16*
X167532500Y-65350000D03*
D17*
X166262500Y-67890000D03*
X164992500Y-65350000D03*
X163722500Y-67890000D03*
X162452500Y-65350000D03*
X161182500Y-67890000D03*
X159912500Y-65350000D03*
X158642500Y-67890000D03*
%TD*%
D18*
%TO.C,SW1*%
X174000000Y-54357500D03*
D12*
X176500000Y-54357500D03*
X179000000Y-54357500D03*
X179000000Y-57657500D03*
X176500000Y-57657500D03*
X174000000Y-57657500D03*
%TD*%
D10*
%TO.C,J3*%
X128550000Y-61350000D03*
D11*
X121350000Y-61350000D03*
D10*
X122150000Y-60700000D03*
X122550000Y-60000000D03*
X123350000Y-60000000D03*
X123750000Y-60700000D03*
X124150000Y-60000000D03*
X124550000Y-60700000D03*
X125350000Y-60700000D03*
X125750000Y-60000000D03*
X126150000Y-60700000D03*
X126550000Y-60000000D03*
X127350000Y-60000000D03*
X127750000Y-60700000D03*
D12*
X129440000Y-54150000D03*
X129080000Y-60100000D03*
X120820000Y-60100000D03*
X120460000Y-54150000D03*
%TD*%
D10*
%TO.C,J4*%
X140090000Y-61360000D03*
D11*
X132890000Y-61360000D03*
D10*
X133690000Y-60710000D03*
X134090000Y-60010000D03*
X134890000Y-60010000D03*
X135290000Y-60710000D03*
X135690000Y-60010000D03*
X136090000Y-60710000D03*
X136890000Y-60710000D03*
X137290000Y-60010000D03*
X137690000Y-60710000D03*
X138090000Y-60010000D03*
X138890000Y-60010000D03*
X139290000Y-60710000D03*
D12*
X140980000Y-54160000D03*
X140620000Y-60110000D03*
X132360000Y-60110000D03*
X132000000Y-54160000D03*
%TD*%
D13*
%TO.C,M2*%
X138920000Y-69000000D03*
D14*
X141460000Y-69000000D03*
X144000000Y-69000000D03*
%TD*%
D13*
%TO.C,M3*%
X129920000Y-69000000D03*
D14*
X132460000Y-69000000D03*
X135000000Y-69000000D03*
%TD*%
M02*
