M48
; DRILL file {KiCad 9.0.2} date 2025-06-16T16:29:30-0500
; FORMAT={-:-/ absolute / inch / decimal}
; #@! TF.CreationDate,2025-06-16T16:29:30-05:00
; #@! TF.GenerationSoftware,Kicad,Pcbnew,9.0.2
; #@! TF.FileFunction,Plated,1,2,PTH
FMAT,2
INCH
; #@! TA.AperFunction,Plated,PTH,ViaDrill
T1C0.0118
; #@! TA.AperFunction,Plated,PTH,ComponentDrill
T2C0.0157
; #@! TA.AperFunction,Plated,PTH,ComponentDrill
T3C0.0299
; #@! TA.AperFunction,Plated,PTH,ComponentDrill
T4C0.0354
; #@! TA.AperFunction,Plated,PTH,ComponentDrill
T5C0.0402
; #@! TA.AperFunction,Plated,PTH,ComponentDrill
T6C0.0433
%
G90
G05
T1
X4.498Y-2.2343
X4.718Y-2.5058
X4.7476Y-2.5215
X4.7992Y-2.187
X4.9409Y-2.2539
X4.9508Y-2.5394
X5.2559Y-2.3031
X5.2657Y-3.4843
X5.2756Y-2.9528
X5.3051Y-3.189
X5.3346Y-2.9331
X5.3839Y-2.2047
X5.3839Y-2.6378
X5.4221Y-3.3422
X5.4331Y-3.1791
X5.4388Y-3.0388
X5.4487Y-2.9797
X5.5392Y-3.0224
X5.5807Y-2.2343
X5.6496Y-3.248
X5.6496Y-3.4744
X5.7382Y-2.7756
X5.7417Y-3.0361
X5.7513Y-3.5118
X5.8169Y-3.0374
X5.9425Y-3.1811
X5.9449Y-2.5098
X5.9744Y-3.2874
X6.0039Y-3.3858
X6.0433Y-2.2244
X6.063Y-3.2185
X6.0728Y-2.2638
X6.1417Y-2.5295
X6.2992Y-3.4547
X6.6795Y-2.4472
X6.8768Y-2.7036
T2
X4.8091Y-2.3898
X4.8248Y-2.3622
X4.8563Y-2.3622
X4.872Y-2.3898
X4.8878Y-2.3622
X4.9035Y-2.3898
X4.935Y-2.3898
X4.9508Y-2.3622
X4.9665Y-2.3898
X4.9823Y-2.3622
X5.0138Y-2.3622
X5.0295Y-2.3898
X5.2634Y-2.3902
X5.2791Y-2.3626
X5.3106Y-2.3626
X5.3264Y-2.3902
X5.3421Y-2.3626
X5.3579Y-2.3902
X5.3894Y-2.3902
X5.4051Y-2.3626
X5.4209Y-2.3902
X5.4366Y-2.3626
X5.4681Y-2.3626
X5.4839Y-2.3902
X5.7169Y-2.3839
X5.7327Y-2.3563
X5.7642Y-2.3563
X5.7799Y-2.3839
X5.7957Y-2.3563
X5.8114Y-2.3839
X5.8429Y-2.3839
X5.8587Y-2.3563
X5.8744Y-2.3839
X5.8902Y-2.3563
X5.9217Y-2.3563
X5.9374Y-2.3839
T3
X6.2458Y-2.6728
X6.2958Y-2.5728
X6.3458Y-2.6728
X6.3958Y-2.5728
X6.4458Y-2.6728
X6.4958Y-2.5728
X6.5458Y-2.6728
X6.5958Y-2.5728
T4
X6.8504Y-2.1401
X6.8504Y-2.27
X6.9488Y-2.1401
X6.9488Y-2.27
X7.0472Y-2.1401
X7.0472Y-2.27
T5
X4.7606Y-2.7165
X4.8606Y-2.7165
X4.9606Y-2.7165
X5.115Y-2.7165
X5.215Y-2.7165
X5.315Y-2.7165
X5.4693Y-2.7165
X5.5693Y-2.7165
X5.6693Y-2.7165
X5.8236Y-2.7165
X5.9236Y-2.7165
X6.0236Y-2.7165
T6
X4.7425Y-2.1319
X4.7567Y-2.3661
X5.0819Y-2.3661
X5.0961Y-2.1319
X5.1969Y-2.1323
X5.211Y-2.3665
X5.5362Y-2.3665
X5.5504Y-2.1323
X5.6504Y-2.126
X5.6646Y-2.3602
X5.9898Y-2.3602
X6.0039Y-2.126
M30
