%TF.GenerationSoftware,KiCad,Pcbnew,9.0.2*%
%TF.CreationDate,2025-07-05T10:38:59-05:00*%
%TF.ProjectId,main,6d61696e-2e6b-4696-9361-645f70636258,rev?*%
%TF.SameCoordinates,Original*%
%TF.FileFunction,Soldermask,Top*%
%TF.FilePolarity,Negative*%
%FSLAX46Y46*%
G04 Gerber Fmt 4.6, Leading zero omitted, Abs format (unit mm)*
G04 Created by KiCad (PCBNEW 9.0.2) date 2025-07-05 10:38:59*
%MOMM*%
%LPD*%
G01*
G04 APERTURE LIST*
G04 Aperture macros list*
%AMRoundRect*
0 Rectangle with rounded corners*
0 $1 Rounding radius*
0 $2 $3 $4 $5 $6 $7 $8 $9 X,Y pos of 4 corners*
0 Add a 4 corners polygon primitive as box body*
4,1,4,$2,$3,$4,$5,$6,$7,$8,$9,$2,$3,0*
0 Add four circle primitives for the rounded corners*
1,1,$1+$1,$2,$3*
1,1,$1+$1,$4,$5*
1,1,$1+$1,$6,$7*
1,1,$1+$1,$8,$9*
0 Add four rect primitives between the rounded corners*
20,1,$1+$1,$2,$3,$4,$5,0*
20,1,$1+$1,$4,$5,$6,$7,0*
20,1,$1+$1,$6,$7,$8,$9,0*
20,1,$1+$1,$8,$9,$2,$3,0*%
G04 Aperture macros list end*
%ADD10R,0.304800X0.711200*%
%ADD11O,0.812800X1.397000*%
%ADD12RoundRect,0.100000X0.130000X0.100000X-0.130000X0.100000X-0.130000X-0.100000X0.130000X-0.100000X0*%
%ADD13RoundRect,0.100000X0.100000X-0.130000X0.100000X0.130000X-0.100000X0.130000X-0.100000X-0.130000X0*%
%ADD14RoundRect,0.100000X-0.130000X-0.100000X0.130000X-0.100000X0.130000X0.100000X-0.130000X0.100000X0*%
%ADD15RoundRect,0.100000X-0.100000X0.130000X-0.100000X-0.130000X0.100000X-0.130000X0.100000X0.130000X0*%
%ADD16C,2.600000*%
%ADD17C,1.900000*%
%ADD18R,1.900000X1.900000*%
%ADD19C,1.890000*%
%ADD20C,1.400000*%
%ADD21RoundRect,0.250000X-0.450000X0.450000X-0.450000X-0.450000X0.450000X-0.450000X0.450000X0.450000X0*%
%ADD22R,7.300000X7.300000*%
%ADD23RoundRect,0.062500X-0.062500X-0.375000X0.062500X-0.375000X0.062500X0.375000X-0.062500X0.375000X0*%
%ADD24RoundRect,0.062500X-0.375000X-0.062500X0.375000X-0.062500X0.375000X0.062500X-0.375000X0.062500X0*%
%ADD25R,3.000000X1.400000*%
%ADD26R,1.730000X2.030000*%
%ADD27O,1.730000X2.030000*%
%ADD28R,1.050000X0.950000*%
G04 APERTURE END LIST*
D10*
%TO.C,J4*%
X135240000Y-59109999D03*
X134740001Y-59109999D03*
X134239999Y-59109999D03*
X133740000Y-59109999D03*
X133239998Y-59109999D03*
X132740000Y-59109999D03*
X132240000Y-59109999D03*
X131739999Y-59109999D03*
X131240000Y-59109999D03*
X130739998Y-59109999D03*
X130239999Y-59109999D03*
X129740000Y-59109999D03*
X129990000Y-57409998D03*
X130489999Y-57409998D03*
X130990000Y-57409998D03*
X131489999Y-57409998D03*
X131990001Y-57409998D03*
X132490000Y-57409998D03*
X132989999Y-57409998D03*
X133490001Y-57409998D03*
X133990000Y-57409998D03*
X134490001Y-57409998D03*
X134990000Y-57409998D03*
X135489999Y-57409998D03*
D11*
X128360001Y-57199999D03*
X128000000Y-53750000D03*
X136980000Y-53750000D03*
X136619999Y-57199999D03*
%TD*%
D10*
%TO.C,J2*%
X146693200Y-59109999D03*
X146193201Y-59109999D03*
X145693199Y-59109999D03*
X145193200Y-59109999D03*
X144693198Y-59109999D03*
X144193200Y-59109999D03*
X143693200Y-59109999D03*
X143193199Y-59109999D03*
X142693200Y-59109999D03*
X142193198Y-59109999D03*
X141693199Y-59109999D03*
X141193200Y-59109999D03*
X141443200Y-57409998D03*
X141943199Y-57409998D03*
X142443200Y-57409998D03*
X142943199Y-57409998D03*
X143443201Y-57409998D03*
X143943200Y-57409998D03*
X144443199Y-57409998D03*
X144943201Y-57409998D03*
X145443200Y-57409998D03*
X145943201Y-57409998D03*
X146443200Y-57409998D03*
X146943199Y-57409998D03*
D11*
X139813201Y-57199999D03*
X139453200Y-53750000D03*
X148433200Y-53750000D03*
X148073199Y-57199999D03*
%TD*%
D10*
%TO.C,J1*%
X158146400Y-59109999D03*
X157646401Y-59109999D03*
X157146399Y-59109999D03*
X156646400Y-59109999D03*
X156146398Y-59109999D03*
X155646400Y-59109999D03*
X155146400Y-59109999D03*
X154646399Y-59109999D03*
X154146400Y-59109999D03*
X153646398Y-59109999D03*
X153146399Y-59109999D03*
X152646400Y-59109999D03*
X152896400Y-57409998D03*
X153396399Y-57409998D03*
X153896400Y-57409998D03*
X154396399Y-57409998D03*
X154896401Y-57409998D03*
X155396400Y-57409998D03*
X155896399Y-57409998D03*
X156396401Y-57409998D03*
X156896400Y-57409998D03*
X157396401Y-57409998D03*
X157896400Y-57409998D03*
X158396399Y-57409998D03*
D11*
X151266401Y-57199999D03*
X150906400Y-53750000D03*
X159886400Y-53750000D03*
X159526399Y-57199999D03*
%TD*%
D12*
%TO.C,C1*%
X137930000Y-69250000D03*
X138570000Y-69250000D03*
%TD*%
D13*
%TO.C,C2*%
X138000000Y-70430000D03*
X138000000Y-71070000D03*
%TD*%
D14*
%TO.C,C3*%
X153320000Y-75250000D03*
X152680000Y-75250000D03*
%TD*%
D15*
%TO.C,C4*%
X154750000Y-77390000D03*
X154750000Y-76750000D03*
%TD*%
D12*
%TO.C,C5*%
X137860000Y-73250000D03*
X138500000Y-73250000D03*
%TD*%
D14*
%TO.C,C6*%
X151820000Y-73000000D03*
X151180000Y-73000000D03*
%TD*%
%TO.C,C7*%
X151975000Y-82750000D03*
X151335000Y-82750000D03*
%TD*%
D13*
%TO.C,C8*%
X135750000Y-73430000D03*
X135750000Y-74070000D03*
%TD*%
%TO.C,C9*%
X154250000Y-80430000D03*
X154250000Y-81070000D03*
%TD*%
D14*
%TO.C,C10*%
X139140000Y-79750000D03*
X138500000Y-79750000D03*
%TD*%
%TO.C,C11*%
X154000000Y-83750000D03*
X153360000Y-83750000D03*
%TD*%
D16*
%TO.C,J6*%
X164725000Y-62080000D03*
X180275000Y-62080000D03*
D17*
X168055000Y-67910000D03*
X169325000Y-65370000D03*
X170595000Y-67910000D03*
X171865000Y-65370000D03*
X173135000Y-67910000D03*
X174405000Y-65370000D03*
X175675000Y-67910000D03*
D18*
X176945000Y-65370000D03*
D19*
X178825000Y-54130000D03*
X176285000Y-55650000D03*
X168715000Y-54130000D03*
X166175000Y-55650000D03*
%TD*%
D12*
%TO.C,R1*%
X142930000Y-66250000D03*
X143570000Y-66250000D03*
%TD*%
D14*
%TO.C,R2*%
X127820000Y-64500000D03*
X127180000Y-64500000D03*
%TD*%
D12*
%TO.C,R3*%
X133930000Y-64000000D03*
X134570000Y-64000000D03*
%TD*%
%TO.C,R4*%
X145180000Y-66250000D03*
X145820000Y-66250000D03*
%TD*%
D14*
%TO.C,R5*%
X141820000Y-72250000D03*
X141180000Y-72250000D03*
%TD*%
%TO.C,R6*%
X153320000Y-63000000D03*
X152680000Y-63000000D03*
%TD*%
D12*
%TO.C,R7*%
X156430000Y-62750000D03*
X157070000Y-62750000D03*
%TD*%
D14*
%TO.C,R8*%
X143500000Y-71500000D03*
X142860000Y-71500000D03*
%TD*%
D13*
%TO.C,R9*%
X149250000Y-70860000D03*
X149250000Y-71500000D03*
%TD*%
D15*
%TO.C,R10*%
X168500000Y-74320000D03*
X168500000Y-73680000D03*
%TD*%
D12*
%TO.C,R11*%
X165360000Y-72000000D03*
X166000000Y-72000000D03*
%TD*%
%TO.C,R12*%
X153250000Y-69000000D03*
X153890000Y-69000000D03*
%TD*%
%TO.C,R13*%
X175750000Y-71500000D03*
X176390000Y-71500000D03*
%TD*%
%TO.C,R14*%
X168860000Y-76500000D03*
X169500000Y-76500000D03*
%TD*%
D15*
%TO.C,R15*%
X125500000Y-56640000D03*
X125500000Y-56000000D03*
%TD*%
D12*
%TO.C,R16*%
X147430000Y-62750000D03*
X148070000Y-62750000D03*
%TD*%
%TO.C,R17*%
X146360000Y-84500000D03*
X147000000Y-84500000D03*
%TD*%
D13*
%TO.C,R18*%
X138500000Y-83000000D03*
X138500000Y-83640000D03*
%TD*%
D14*
%TO.C,R19*%
X151975000Y-84500000D03*
X151335000Y-84500000D03*
%TD*%
D20*
%TO.C,SW1*%
X109342500Y-54750000D03*
X109342500Y-57250000D03*
X109342500Y-59750000D03*
X112642500Y-59750000D03*
X112642500Y-57250000D03*
D21*
X112642500Y-54750000D03*
%TD*%
D22*
%TO.C,U2*%
X145750000Y-78250000D03*
D23*
X142000000Y-73812500D03*
X142500000Y-73812500D03*
X143000000Y-73812500D03*
X143500000Y-73812500D03*
X144000000Y-73812500D03*
X144500000Y-73812500D03*
X145000000Y-73812500D03*
X145500000Y-73812500D03*
X146000000Y-73812500D03*
X146500000Y-73812500D03*
X147000000Y-73812500D03*
X147500000Y-73812500D03*
X148000000Y-73812500D03*
X148500000Y-73812500D03*
X149000000Y-73812500D03*
X149500000Y-73812500D03*
D24*
X150187500Y-74500000D03*
X150187500Y-75000000D03*
X150187500Y-75500000D03*
X150187500Y-76000000D03*
X150187500Y-76500000D03*
X150187500Y-77000000D03*
X150187500Y-77500000D03*
X150187500Y-78000000D03*
X150187500Y-78500000D03*
X150187500Y-79000000D03*
X150187500Y-79500000D03*
X150187500Y-80000000D03*
X150187500Y-80500000D03*
X150187500Y-81000000D03*
X150187500Y-81500000D03*
X150187500Y-82000000D03*
D23*
X149500000Y-82687500D03*
X149000000Y-82687500D03*
X148500000Y-82687500D03*
X148000000Y-82687500D03*
X147500000Y-82687500D03*
X147000000Y-82687500D03*
X146500000Y-82687500D03*
X146000000Y-82687500D03*
X145500000Y-82687500D03*
X145000000Y-82687500D03*
X144500000Y-82687500D03*
X144000000Y-82687500D03*
X143500000Y-82687500D03*
X143000000Y-82687500D03*
X142500000Y-82687500D03*
X142000000Y-82687500D03*
D24*
X141312500Y-82000000D03*
X141312500Y-81500000D03*
X141312500Y-81000000D03*
X141312500Y-80500000D03*
X141312500Y-80000000D03*
X141312500Y-79500000D03*
X141312500Y-79000000D03*
X141312500Y-78500000D03*
X141312500Y-78000000D03*
X141312500Y-77500000D03*
X141312500Y-77000000D03*
X141312500Y-76500000D03*
X141312500Y-76000000D03*
X141312500Y-75500000D03*
X141312500Y-75000000D03*
X141312500Y-74500000D03*
%TD*%
D25*
%TO.C,FB1*%
X158750000Y-68350000D03*
X158750000Y-66150000D03*
%TD*%
D26*
%TO.C,M1*%
X110200000Y-85375000D03*
D27*
X112740000Y-85375000D03*
X115280000Y-85375000D03*
%TD*%
D26*
%TO.C,M2*%
X119200000Y-77875000D03*
D27*
X121740000Y-77875000D03*
X124280000Y-77875000D03*
%TD*%
D28*
%TO.C,Y2*%
X139825000Y-70725000D03*
X141675000Y-70725000D03*
X141675000Y-69275000D03*
X139825000Y-69275000D03*
%TD*%
D26*
%TO.C,M3*%
X119200000Y-85375000D03*
D27*
X121740000Y-85375000D03*
X124280000Y-85375000D03*
%TD*%
D26*
%TO.C,M4*%
X110200000Y-77875000D03*
D27*
X112740000Y-77875000D03*
X115280000Y-77875000D03*
%TD*%
M02*
