%TF.GenerationSoftware,KiCad,Pcbnew,9.0.2*%
%TF.CreationDate,2025-07-09T15:02:30-05:00*%
%TF.ProjectId,main,6d61696e-2e6b-4696-9361-645f70636258,rev?*%
%TF.SameCoordinates,Original*%
%TF.FileFunction,Profile,NP*%
%FSLAX46Y46*%
G04 Gerber Fmt 4.6, Leading zero omitted, Abs format (unit mm)*
G04 Created by KiCad (PCBNEW 9.0.2) date 2025-07-09 15:02:30*
%MOMM*%
%LPD*%
G01*
G04 APERTURE LIST*
%TA.AperFunction,Profile*%
%ADD10C,0.050000*%
%TD*%
%TA.AperFunction,Profile*%
%ADD11C,0.010000*%
%TD*%
G04 APERTURE END LIST*
D10*
X108000000Y-52500000D02*
X184500000Y-52500000D01*
X184500000Y-90000000D01*
X108000000Y-90000000D01*
X108000000Y-52500000D01*
D11*
%TO.C,J4*%
X128737500Y-59502500D02*
X129062500Y-59502500D01*
X129062500Y-60177500D02*
X128737500Y-60177500D01*
X128400000Y-59840000D02*
G75*
G02*
X128737500Y-59502500I337500J0D01*
G01*
X128737500Y-60177500D02*
G75*
G02*
X128400000Y-59840000I0J337500D01*
G01*
X129062500Y-59502500D02*
G75*
G02*
X129400000Y-59840000I0J-337500D01*
G01*
X129400000Y-59840000D02*
G75*
G02*
X129062500Y-60177500I-337500J0D01*
G01*
%TO.C,J1*%
X151237500Y-59502500D02*
X151562500Y-59502500D01*
X151562500Y-60177500D02*
X151237500Y-60177500D01*
X150900000Y-59840000D02*
G75*
G02*
X151237500Y-59502500I337500J0D01*
G01*
X151237500Y-60177500D02*
G75*
G02*
X150900000Y-59840000I0J337500D01*
G01*
X151562500Y-59502500D02*
G75*
G02*
X151900000Y-59840000I0J-337500D01*
G01*
X151900000Y-59840000D02*
G75*
G02*
X151562500Y-60177500I-337500J0D01*
G01*
%TO.C,J2*%
X139987500Y-59502500D02*
X140312500Y-59502500D01*
X140312500Y-60177500D02*
X139987500Y-60177500D01*
X139650000Y-59840000D02*
G75*
G02*
X139987500Y-59502500I337500J0D01*
G01*
X139987500Y-60177500D02*
G75*
G02*
X139650000Y-59840000I0J337500D01*
G01*
X140312500Y-59502500D02*
G75*
G02*
X140650000Y-59840000I0J-337500D01*
G01*
X140650000Y-59840000D02*
G75*
G02*
X140312500Y-60177500I-337500J0D01*
G01*
%TD*%
M02*
