%TF.GenerationSoftware,KiCad,Pcbnew,9.0.2*%
%TF.CreationDate,2025-06-30T16:35:09-05:00*%
%TF.ProjectId,main,6d61696e-2e6b-4696-9361-645f70636258,rev?*%
%TF.SameCoordinates,Original*%
%TF.FileFunction,Legend,Top*%
%TF.FilePolarity,Positive*%
%FSLAX46Y46*%
G04 Gerber Fmt 4.6, Leading zero omitted, Abs format (unit mm)*
G04 Created by KiCad (PCBNEW 9.0.2) date 2025-06-30 16:35:09*
%MOMM*%
%LPD*%
G01*
G04 APERTURE LIST*
G04 Aperture macros list*
%AMRoundRect*
0 Rectangle with rounded corners*
0 $1 Rounding radius*
0 $2 $3 $4 $5 $6 $7 $8 $9 X,Y pos of 4 corners*
0 Add a 4 corners polygon primitive as box body*
4,1,4,$2,$3,$4,$5,$6,$7,$8,$9,$2,$3,0*
0 Add four circle primitives for the rounded corners*
1,1,$1+$1,$2,$3*
1,1,$1+$1,$4,$5*
1,1,$1+$1,$6,$7*
1,1,$1+$1,$8,$9*
0 Add four rect primitives between the rounded corners*
20,1,$1+$1,$2,$3,$4,$5,0*
20,1,$1+$1,$4,$5,$6,$7,0*
20,1,$1+$1,$6,$7,$8,$9,0*
20,1,$1+$1,$8,$9,$2,$3,0*%
G04 Aperture macros list end*
%ADD10C,0.150000*%
%ADD11C,0.120000*%
%ADD12RoundRect,0.100000X-0.130000X-0.100000X0.130000X-0.100000X0.130000X0.100000X-0.130000X0.100000X0*%
%ADD13R,3.000000X1.400000*%
%ADD14RoundRect,0.100000X0.130000X0.100000X-0.130000X0.100000X-0.130000X-0.100000X0.130000X-0.100000X0*%
%ADD15RoundRect,0.100000X-0.100000X0.130000X-0.100000X-0.130000X0.100000X-0.130000X0.100000X0.130000X0*%
%ADD16R,1.730000X2.030000*%
%ADD17O,1.730000X2.030000*%
%ADD18RoundRect,0.100000X0.100000X-0.130000X0.100000X0.130000X-0.100000X0.130000X-0.100000X-0.130000X0*%
%ADD19C,0.650000*%
%ADD20C,0.950000*%
%ADD21R,0.300000X0.700000*%
%ADD22C,1.400000*%
%ADD23C,3.250000*%
%ADD24C,1.890000*%
%ADD25R,1.900000X1.900000*%
%ADD26C,1.900000*%
%ADD27C,2.600000*%
%ADD28R,1.050000X0.950000*%
%ADD29RoundRect,0.062500X-0.375000X-0.062500X0.375000X-0.062500X0.375000X0.062500X-0.375000X0.062500X0*%
%ADD30RoundRect,0.062500X-0.062500X-0.375000X0.062500X-0.375000X0.062500X0.375000X-0.062500X0.375000X0*%
%ADD31R,7.300000X7.300000*%
%ADD32RoundRect,0.250000X-0.450000X0.450000X-0.450000X-0.450000X0.450000X-0.450000X0.450000X0.450000X0*%
G04 APERTURE END LIST*
D10*
X151012142Y-83904819D02*
X150678809Y-83428628D01*
X150440714Y-83904819D02*
X150440714Y-82904819D01*
X150440714Y-82904819D02*
X150821666Y-82904819D01*
X150821666Y-82904819D02*
X150916904Y-82952438D01*
X150916904Y-82952438D02*
X150964523Y-83000057D01*
X150964523Y-83000057D02*
X151012142Y-83095295D01*
X151012142Y-83095295D02*
X151012142Y-83238152D01*
X151012142Y-83238152D02*
X150964523Y-83333390D01*
X150964523Y-83333390D02*
X150916904Y-83381009D01*
X150916904Y-83381009D02*
X150821666Y-83428628D01*
X150821666Y-83428628D02*
X150440714Y-83428628D01*
X151964523Y-83904819D02*
X151393095Y-83904819D01*
X151678809Y-83904819D02*
X151678809Y-82904819D01*
X151678809Y-82904819D02*
X151583571Y-83047676D01*
X151583571Y-83047676D02*
X151488333Y-83142914D01*
X151488333Y-83142914D02*
X151393095Y-83190533D01*
X152440714Y-83904819D02*
X152631190Y-83904819D01*
X152631190Y-83904819D02*
X152726428Y-83857200D01*
X152726428Y-83857200D02*
X152774047Y-83809580D01*
X152774047Y-83809580D02*
X152869285Y-83666723D01*
X152869285Y-83666723D02*
X152916904Y-83476247D01*
X152916904Y-83476247D02*
X152916904Y-83095295D01*
X152916904Y-83095295D02*
X152869285Y-83000057D01*
X152869285Y-83000057D02*
X152821666Y-82952438D01*
X152821666Y-82952438D02*
X152726428Y-82904819D01*
X152726428Y-82904819D02*
X152535952Y-82904819D01*
X152535952Y-82904819D02*
X152440714Y-82952438D01*
X152440714Y-82952438D02*
X152393095Y-83000057D01*
X152393095Y-83000057D02*
X152345476Y-83095295D01*
X152345476Y-83095295D02*
X152345476Y-83333390D01*
X152345476Y-83333390D02*
X152393095Y-83428628D01*
X152393095Y-83428628D02*
X152440714Y-83476247D01*
X152440714Y-83476247D02*
X152535952Y-83523866D01*
X152535952Y-83523866D02*
X152726428Y-83523866D01*
X152726428Y-83523866D02*
X152821666Y-83476247D01*
X152821666Y-83476247D02*
X152869285Y-83428628D01*
X152869285Y-83428628D02*
X152916904Y-83333390D01*
X151488333Y-82059580D02*
X151440714Y-82107200D01*
X151440714Y-82107200D02*
X151297857Y-82154819D01*
X151297857Y-82154819D02*
X151202619Y-82154819D01*
X151202619Y-82154819D02*
X151059762Y-82107200D01*
X151059762Y-82107200D02*
X150964524Y-82011961D01*
X150964524Y-82011961D02*
X150916905Y-81916723D01*
X150916905Y-81916723D02*
X150869286Y-81726247D01*
X150869286Y-81726247D02*
X150869286Y-81583390D01*
X150869286Y-81583390D02*
X150916905Y-81392914D01*
X150916905Y-81392914D02*
X150964524Y-81297676D01*
X150964524Y-81297676D02*
X151059762Y-81202438D01*
X151059762Y-81202438D02*
X151202619Y-81154819D01*
X151202619Y-81154819D02*
X151297857Y-81154819D01*
X151297857Y-81154819D02*
X151440714Y-81202438D01*
X151440714Y-81202438D02*
X151488333Y-81250057D01*
X151821667Y-81154819D02*
X152488333Y-81154819D01*
X152488333Y-81154819D02*
X152059762Y-82154819D01*
X156231009Y-68083333D02*
X156231009Y-68416666D01*
X156754819Y-68416666D02*
X155754819Y-68416666D01*
X155754819Y-68416666D02*
X155754819Y-67940476D01*
X156231009Y-67226190D02*
X156278628Y-67083333D01*
X156278628Y-67083333D02*
X156326247Y-67035714D01*
X156326247Y-67035714D02*
X156421485Y-66988095D01*
X156421485Y-66988095D02*
X156564342Y-66988095D01*
X156564342Y-66988095D02*
X156659580Y-67035714D01*
X156659580Y-67035714D02*
X156707200Y-67083333D01*
X156707200Y-67083333D02*
X156754819Y-67178571D01*
X156754819Y-67178571D02*
X156754819Y-67559523D01*
X156754819Y-67559523D02*
X155754819Y-67559523D01*
X155754819Y-67559523D02*
X155754819Y-67226190D01*
X155754819Y-67226190D02*
X155802438Y-67130952D01*
X155802438Y-67130952D02*
X155850057Y-67083333D01*
X155850057Y-67083333D02*
X155945295Y-67035714D01*
X155945295Y-67035714D02*
X156040533Y-67035714D01*
X156040533Y-67035714D02*
X156135771Y-67083333D01*
X156135771Y-67083333D02*
X156183390Y-67130952D01*
X156183390Y-67130952D02*
X156231009Y-67226190D01*
X156231009Y-67226190D02*
X156231009Y-67559523D01*
X156754819Y-66035714D02*
X156754819Y-66607142D01*
X156754819Y-66321428D02*
X155754819Y-66321428D01*
X155754819Y-66321428D02*
X155897676Y-66416666D01*
X155897676Y-66416666D02*
X155992914Y-66511904D01*
X155992914Y-66511904D02*
X156040533Y-66607142D01*
X138177142Y-79059580D02*
X138129523Y-79107200D01*
X138129523Y-79107200D02*
X137986666Y-79154819D01*
X137986666Y-79154819D02*
X137891428Y-79154819D01*
X137891428Y-79154819D02*
X137748571Y-79107200D01*
X137748571Y-79107200D02*
X137653333Y-79011961D01*
X137653333Y-79011961D02*
X137605714Y-78916723D01*
X137605714Y-78916723D02*
X137558095Y-78726247D01*
X137558095Y-78726247D02*
X137558095Y-78583390D01*
X137558095Y-78583390D02*
X137605714Y-78392914D01*
X137605714Y-78392914D02*
X137653333Y-78297676D01*
X137653333Y-78297676D02*
X137748571Y-78202438D01*
X137748571Y-78202438D02*
X137891428Y-78154819D01*
X137891428Y-78154819D02*
X137986666Y-78154819D01*
X137986666Y-78154819D02*
X138129523Y-78202438D01*
X138129523Y-78202438D02*
X138177142Y-78250057D01*
X139129523Y-79154819D02*
X138558095Y-79154819D01*
X138843809Y-79154819D02*
X138843809Y-78154819D01*
X138843809Y-78154819D02*
X138748571Y-78297676D01*
X138748571Y-78297676D02*
X138653333Y-78392914D01*
X138653333Y-78392914D02*
X138558095Y-78440533D01*
X139748571Y-78154819D02*
X139843809Y-78154819D01*
X139843809Y-78154819D02*
X139939047Y-78202438D01*
X139939047Y-78202438D02*
X139986666Y-78250057D01*
X139986666Y-78250057D02*
X140034285Y-78345295D01*
X140034285Y-78345295D02*
X140081904Y-78535771D01*
X140081904Y-78535771D02*
X140081904Y-78773866D01*
X140081904Y-78773866D02*
X140034285Y-78964342D01*
X140034285Y-78964342D02*
X139986666Y-79059580D01*
X139986666Y-79059580D02*
X139939047Y-79107200D01*
X139939047Y-79107200D02*
X139843809Y-79154819D01*
X139843809Y-79154819D02*
X139748571Y-79154819D01*
X139748571Y-79154819D02*
X139653333Y-79107200D01*
X139653333Y-79107200D02*
X139605714Y-79059580D01*
X139605714Y-79059580D02*
X139558095Y-78964342D01*
X139558095Y-78964342D02*
X139510476Y-78773866D01*
X139510476Y-78773866D02*
X139510476Y-78535771D01*
X139510476Y-78535771D02*
X139558095Y-78345295D01*
X139558095Y-78345295D02*
X139605714Y-78250057D01*
X139605714Y-78250057D02*
X139653333Y-78202438D01*
X139653333Y-78202438D02*
X139748571Y-78154819D01*
X152833333Y-62404819D02*
X152500000Y-61928628D01*
X152261905Y-62404819D02*
X152261905Y-61404819D01*
X152261905Y-61404819D02*
X152642857Y-61404819D01*
X152642857Y-61404819D02*
X152738095Y-61452438D01*
X152738095Y-61452438D02*
X152785714Y-61500057D01*
X152785714Y-61500057D02*
X152833333Y-61595295D01*
X152833333Y-61595295D02*
X152833333Y-61738152D01*
X152833333Y-61738152D02*
X152785714Y-61833390D01*
X152785714Y-61833390D02*
X152738095Y-61881009D01*
X152738095Y-61881009D02*
X152642857Y-61928628D01*
X152642857Y-61928628D02*
X152261905Y-61928628D01*
X153690476Y-61404819D02*
X153500000Y-61404819D01*
X153500000Y-61404819D02*
X153404762Y-61452438D01*
X153404762Y-61452438D02*
X153357143Y-61500057D01*
X153357143Y-61500057D02*
X153261905Y-61642914D01*
X153261905Y-61642914D02*
X153214286Y-61833390D01*
X153214286Y-61833390D02*
X153214286Y-62214342D01*
X153214286Y-62214342D02*
X153261905Y-62309580D01*
X153261905Y-62309580D02*
X153309524Y-62357200D01*
X153309524Y-62357200D02*
X153404762Y-62404819D01*
X153404762Y-62404819D02*
X153595238Y-62404819D01*
X153595238Y-62404819D02*
X153690476Y-62357200D01*
X153690476Y-62357200D02*
X153738095Y-62309580D01*
X153738095Y-62309580D02*
X153785714Y-62214342D01*
X153785714Y-62214342D02*
X153785714Y-61976247D01*
X153785714Y-61976247D02*
X153738095Y-61881009D01*
X153738095Y-61881009D02*
X153690476Y-61833390D01*
X153690476Y-61833390D02*
X153595238Y-61785771D01*
X153595238Y-61785771D02*
X153404762Y-61785771D01*
X153404762Y-61785771D02*
X153309524Y-61833390D01*
X153309524Y-61833390D02*
X153261905Y-61881009D01*
X153261905Y-61881009D02*
X153214286Y-61976247D01*
X152927142Y-70504819D02*
X152593809Y-70028628D01*
X152355714Y-70504819D02*
X152355714Y-69504819D01*
X152355714Y-69504819D02*
X152736666Y-69504819D01*
X152736666Y-69504819D02*
X152831904Y-69552438D01*
X152831904Y-69552438D02*
X152879523Y-69600057D01*
X152879523Y-69600057D02*
X152927142Y-69695295D01*
X152927142Y-69695295D02*
X152927142Y-69838152D01*
X152927142Y-69838152D02*
X152879523Y-69933390D01*
X152879523Y-69933390D02*
X152831904Y-69981009D01*
X152831904Y-69981009D02*
X152736666Y-70028628D01*
X152736666Y-70028628D02*
X152355714Y-70028628D01*
X153879523Y-70504819D02*
X153308095Y-70504819D01*
X153593809Y-70504819D02*
X153593809Y-69504819D01*
X153593809Y-69504819D02*
X153498571Y-69647676D01*
X153498571Y-69647676D02*
X153403333Y-69742914D01*
X153403333Y-69742914D02*
X153308095Y-69790533D01*
X154260476Y-69600057D02*
X154308095Y-69552438D01*
X154308095Y-69552438D02*
X154403333Y-69504819D01*
X154403333Y-69504819D02*
X154641428Y-69504819D01*
X154641428Y-69504819D02*
X154736666Y-69552438D01*
X154736666Y-69552438D02*
X154784285Y-69600057D01*
X154784285Y-69600057D02*
X154831904Y-69695295D01*
X154831904Y-69695295D02*
X154831904Y-69790533D01*
X154831904Y-69790533D02*
X154784285Y-69933390D01*
X154784285Y-69933390D02*
X154212857Y-70504819D01*
X154212857Y-70504819D02*
X154831904Y-70504819D01*
X127004819Y-56962857D02*
X126528628Y-57296190D01*
X127004819Y-57534285D02*
X126004819Y-57534285D01*
X126004819Y-57534285D02*
X126004819Y-57153333D01*
X126004819Y-57153333D02*
X126052438Y-57058095D01*
X126052438Y-57058095D02*
X126100057Y-57010476D01*
X126100057Y-57010476D02*
X126195295Y-56962857D01*
X126195295Y-56962857D02*
X126338152Y-56962857D01*
X126338152Y-56962857D02*
X126433390Y-57010476D01*
X126433390Y-57010476D02*
X126481009Y-57058095D01*
X126481009Y-57058095D02*
X126528628Y-57153333D01*
X126528628Y-57153333D02*
X126528628Y-57534285D01*
X127004819Y-56010476D02*
X127004819Y-56581904D01*
X127004819Y-56296190D02*
X126004819Y-56296190D01*
X126004819Y-56296190D02*
X126147676Y-56391428D01*
X126147676Y-56391428D02*
X126242914Y-56486666D01*
X126242914Y-56486666D02*
X126290533Y-56581904D01*
X126004819Y-55105714D02*
X126004819Y-55581904D01*
X126004819Y-55581904D02*
X126481009Y-55629523D01*
X126481009Y-55629523D02*
X126433390Y-55581904D01*
X126433390Y-55581904D02*
X126385771Y-55486666D01*
X126385771Y-55486666D02*
X126385771Y-55248571D01*
X126385771Y-55248571D02*
X126433390Y-55153333D01*
X126433390Y-55153333D02*
X126481009Y-55105714D01*
X126481009Y-55105714D02*
X126576247Y-55058095D01*
X126576247Y-55058095D02*
X126814342Y-55058095D01*
X126814342Y-55058095D02*
X126909580Y-55105714D01*
X126909580Y-55105714D02*
X126957200Y-55153333D01*
X126957200Y-55153333D02*
X127004819Y-55248571D01*
X127004819Y-55248571D02*
X127004819Y-55486666D01*
X127004819Y-55486666D02*
X126957200Y-55581904D01*
X126957200Y-55581904D02*
X126909580Y-55629523D01*
X165037142Y-73504819D02*
X164703809Y-73028628D01*
X164465714Y-73504819D02*
X164465714Y-72504819D01*
X164465714Y-72504819D02*
X164846666Y-72504819D01*
X164846666Y-72504819D02*
X164941904Y-72552438D01*
X164941904Y-72552438D02*
X164989523Y-72600057D01*
X164989523Y-72600057D02*
X165037142Y-72695295D01*
X165037142Y-72695295D02*
X165037142Y-72838152D01*
X165037142Y-72838152D02*
X164989523Y-72933390D01*
X164989523Y-72933390D02*
X164941904Y-72981009D01*
X164941904Y-72981009D02*
X164846666Y-73028628D01*
X164846666Y-73028628D02*
X164465714Y-73028628D01*
X165989523Y-73504819D02*
X165418095Y-73504819D01*
X165703809Y-73504819D02*
X165703809Y-72504819D01*
X165703809Y-72504819D02*
X165608571Y-72647676D01*
X165608571Y-72647676D02*
X165513333Y-72742914D01*
X165513333Y-72742914D02*
X165418095Y-72790533D01*
X166941904Y-73504819D02*
X166370476Y-73504819D01*
X166656190Y-73504819D02*
X166656190Y-72504819D01*
X166656190Y-72504819D02*
X166560952Y-72647676D01*
X166560952Y-72647676D02*
X166465714Y-72742914D01*
X166465714Y-72742914D02*
X166370476Y-72790533D01*
X152833333Y-74559580D02*
X152785714Y-74607200D01*
X152785714Y-74607200D02*
X152642857Y-74654819D01*
X152642857Y-74654819D02*
X152547619Y-74654819D01*
X152547619Y-74654819D02*
X152404762Y-74607200D01*
X152404762Y-74607200D02*
X152309524Y-74511961D01*
X152309524Y-74511961D02*
X152261905Y-74416723D01*
X152261905Y-74416723D02*
X152214286Y-74226247D01*
X152214286Y-74226247D02*
X152214286Y-74083390D01*
X152214286Y-74083390D02*
X152261905Y-73892914D01*
X152261905Y-73892914D02*
X152309524Y-73797676D01*
X152309524Y-73797676D02*
X152404762Y-73702438D01*
X152404762Y-73702438D02*
X152547619Y-73654819D01*
X152547619Y-73654819D02*
X152642857Y-73654819D01*
X152642857Y-73654819D02*
X152785714Y-73702438D01*
X152785714Y-73702438D02*
X152833333Y-73750057D01*
X153166667Y-73654819D02*
X153785714Y-73654819D01*
X153785714Y-73654819D02*
X153452381Y-74035771D01*
X153452381Y-74035771D02*
X153595238Y-74035771D01*
X153595238Y-74035771D02*
X153690476Y-74083390D01*
X153690476Y-74083390D02*
X153738095Y-74131009D01*
X153738095Y-74131009D02*
X153785714Y-74226247D01*
X153785714Y-74226247D02*
X153785714Y-74464342D01*
X153785714Y-74464342D02*
X153738095Y-74559580D01*
X153738095Y-74559580D02*
X153690476Y-74607200D01*
X153690476Y-74607200D02*
X153595238Y-74654819D01*
X153595238Y-74654819D02*
X153309524Y-74654819D01*
X153309524Y-74654819D02*
X153214286Y-74607200D01*
X153214286Y-74607200D02*
X153166667Y-74559580D01*
X175427142Y-73004819D02*
X175093809Y-72528628D01*
X174855714Y-73004819D02*
X174855714Y-72004819D01*
X174855714Y-72004819D02*
X175236666Y-72004819D01*
X175236666Y-72004819D02*
X175331904Y-72052438D01*
X175331904Y-72052438D02*
X175379523Y-72100057D01*
X175379523Y-72100057D02*
X175427142Y-72195295D01*
X175427142Y-72195295D02*
X175427142Y-72338152D01*
X175427142Y-72338152D02*
X175379523Y-72433390D01*
X175379523Y-72433390D02*
X175331904Y-72481009D01*
X175331904Y-72481009D02*
X175236666Y-72528628D01*
X175236666Y-72528628D02*
X174855714Y-72528628D01*
X176379523Y-73004819D02*
X175808095Y-73004819D01*
X176093809Y-73004819D02*
X176093809Y-72004819D01*
X176093809Y-72004819D02*
X175998571Y-72147676D01*
X175998571Y-72147676D02*
X175903333Y-72242914D01*
X175903333Y-72242914D02*
X175808095Y-72290533D01*
X176712857Y-72004819D02*
X177331904Y-72004819D01*
X177331904Y-72004819D02*
X176998571Y-72385771D01*
X176998571Y-72385771D02*
X177141428Y-72385771D01*
X177141428Y-72385771D02*
X177236666Y-72433390D01*
X177236666Y-72433390D02*
X177284285Y-72481009D01*
X177284285Y-72481009D02*
X177331904Y-72576247D01*
X177331904Y-72576247D02*
X177331904Y-72814342D01*
X177331904Y-72814342D02*
X177284285Y-72909580D01*
X177284285Y-72909580D02*
X177236666Y-72957200D01*
X177236666Y-72957200D02*
X177141428Y-73004819D01*
X177141428Y-73004819D02*
X176855714Y-73004819D01*
X176855714Y-73004819D02*
X176760476Y-72957200D01*
X176760476Y-72957200D02*
X176712857Y-72909580D01*
X146037142Y-86004819D02*
X145703809Y-85528628D01*
X145465714Y-86004819D02*
X145465714Y-85004819D01*
X145465714Y-85004819D02*
X145846666Y-85004819D01*
X145846666Y-85004819D02*
X145941904Y-85052438D01*
X145941904Y-85052438D02*
X145989523Y-85100057D01*
X145989523Y-85100057D02*
X146037142Y-85195295D01*
X146037142Y-85195295D02*
X146037142Y-85338152D01*
X146037142Y-85338152D02*
X145989523Y-85433390D01*
X145989523Y-85433390D02*
X145941904Y-85481009D01*
X145941904Y-85481009D02*
X145846666Y-85528628D01*
X145846666Y-85528628D02*
X145465714Y-85528628D01*
X146989523Y-86004819D02*
X146418095Y-86004819D01*
X146703809Y-86004819D02*
X146703809Y-85004819D01*
X146703809Y-85004819D02*
X146608571Y-85147676D01*
X146608571Y-85147676D02*
X146513333Y-85242914D01*
X146513333Y-85242914D02*
X146418095Y-85290533D01*
X147322857Y-85004819D02*
X147989523Y-85004819D01*
X147989523Y-85004819D02*
X147560952Y-86004819D01*
X127333333Y-63904819D02*
X127000000Y-63428628D01*
X126761905Y-63904819D02*
X126761905Y-62904819D01*
X126761905Y-62904819D02*
X127142857Y-62904819D01*
X127142857Y-62904819D02*
X127238095Y-62952438D01*
X127238095Y-62952438D02*
X127285714Y-63000057D01*
X127285714Y-63000057D02*
X127333333Y-63095295D01*
X127333333Y-63095295D02*
X127333333Y-63238152D01*
X127333333Y-63238152D02*
X127285714Y-63333390D01*
X127285714Y-63333390D02*
X127238095Y-63381009D01*
X127238095Y-63381009D02*
X127142857Y-63428628D01*
X127142857Y-63428628D02*
X126761905Y-63428628D01*
X127714286Y-63000057D02*
X127761905Y-62952438D01*
X127761905Y-62952438D02*
X127857143Y-62904819D01*
X127857143Y-62904819D02*
X128095238Y-62904819D01*
X128095238Y-62904819D02*
X128190476Y-62952438D01*
X128190476Y-62952438D02*
X128238095Y-63000057D01*
X128238095Y-63000057D02*
X128285714Y-63095295D01*
X128285714Y-63095295D02*
X128285714Y-63190533D01*
X128285714Y-63190533D02*
X128238095Y-63333390D01*
X128238095Y-63333390D02*
X127666667Y-63904819D01*
X127666667Y-63904819D02*
X128285714Y-63904819D01*
X143013333Y-70954819D02*
X142680000Y-70478628D01*
X142441905Y-70954819D02*
X142441905Y-69954819D01*
X142441905Y-69954819D02*
X142822857Y-69954819D01*
X142822857Y-69954819D02*
X142918095Y-70002438D01*
X142918095Y-70002438D02*
X142965714Y-70050057D01*
X142965714Y-70050057D02*
X143013333Y-70145295D01*
X143013333Y-70145295D02*
X143013333Y-70288152D01*
X143013333Y-70288152D02*
X142965714Y-70383390D01*
X142965714Y-70383390D02*
X142918095Y-70431009D01*
X142918095Y-70431009D02*
X142822857Y-70478628D01*
X142822857Y-70478628D02*
X142441905Y-70478628D01*
X143584762Y-70383390D02*
X143489524Y-70335771D01*
X143489524Y-70335771D02*
X143441905Y-70288152D01*
X143441905Y-70288152D02*
X143394286Y-70192914D01*
X143394286Y-70192914D02*
X143394286Y-70145295D01*
X143394286Y-70145295D02*
X143441905Y-70050057D01*
X143441905Y-70050057D02*
X143489524Y-70002438D01*
X143489524Y-70002438D02*
X143584762Y-69954819D01*
X143584762Y-69954819D02*
X143775238Y-69954819D01*
X143775238Y-69954819D02*
X143870476Y-70002438D01*
X143870476Y-70002438D02*
X143918095Y-70050057D01*
X143918095Y-70050057D02*
X143965714Y-70145295D01*
X143965714Y-70145295D02*
X143965714Y-70192914D01*
X143965714Y-70192914D02*
X143918095Y-70288152D01*
X143918095Y-70288152D02*
X143870476Y-70335771D01*
X143870476Y-70335771D02*
X143775238Y-70383390D01*
X143775238Y-70383390D02*
X143584762Y-70383390D01*
X143584762Y-70383390D02*
X143489524Y-70431009D01*
X143489524Y-70431009D02*
X143441905Y-70478628D01*
X143441905Y-70478628D02*
X143394286Y-70573866D01*
X143394286Y-70573866D02*
X143394286Y-70764342D01*
X143394286Y-70764342D02*
X143441905Y-70859580D01*
X143441905Y-70859580D02*
X143489524Y-70907200D01*
X143489524Y-70907200D02*
X143584762Y-70954819D01*
X143584762Y-70954819D02*
X143775238Y-70954819D01*
X143775238Y-70954819D02*
X143870476Y-70907200D01*
X143870476Y-70907200D02*
X143918095Y-70859580D01*
X143918095Y-70859580D02*
X143965714Y-70764342D01*
X143965714Y-70764342D02*
X143965714Y-70573866D01*
X143965714Y-70573866D02*
X143918095Y-70478628D01*
X143918095Y-70478628D02*
X143870476Y-70431009D01*
X143870476Y-70431009D02*
X143775238Y-70383390D01*
X111890476Y-82429819D02*
X111890476Y-81429819D01*
X111890476Y-81429819D02*
X112223809Y-82144104D01*
X112223809Y-82144104D02*
X112557142Y-81429819D01*
X112557142Y-81429819D02*
X112557142Y-82429819D01*
X113557142Y-82429819D02*
X112985714Y-82429819D01*
X113271428Y-82429819D02*
X113271428Y-81429819D01*
X113271428Y-81429819D02*
X113176190Y-81572676D01*
X113176190Y-81572676D02*
X113080952Y-81667914D01*
X113080952Y-81667914D02*
X112985714Y-81715533D01*
X148654819Y-71346666D02*
X148178628Y-71679999D01*
X148654819Y-71918094D02*
X147654819Y-71918094D01*
X147654819Y-71918094D02*
X147654819Y-71537142D01*
X147654819Y-71537142D02*
X147702438Y-71441904D01*
X147702438Y-71441904D02*
X147750057Y-71394285D01*
X147750057Y-71394285D02*
X147845295Y-71346666D01*
X147845295Y-71346666D02*
X147988152Y-71346666D01*
X147988152Y-71346666D02*
X148083390Y-71394285D01*
X148083390Y-71394285D02*
X148131009Y-71441904D01*
X148131009Y-71441904D02*
X148178628Y-71537142D01*
X148178628Y-71537142D02*
X148178628Y-71918094D01*
X148654819Y-70870475D02*
X148654819Y-70679999D01*
X148654819Y-70679999D02*
X148607200Y-70584761D01*
X148607200Y-70584761D02*
X148559580Y-70537142D01*
X148559580Y-70537142D02*
X148416723Y-70441904D01*
X148416723Y-70441904D02*
X148226247Y-70394285D01*
X148226247Y-70394285D02*
X147845295Y-70394285D01*
X147845295Y-70394285D02*
X147750057Y-70441904D01*
X147750057Y-70441904D02*
X147702438Y-70489523D01*
X147702438Y-70489523D02*
X147654819Y-70584761D01*
X147654819Y-70584761D02*
X147654819Y-70775237D01*
X147654819Y-70775237D02*
X147702438Y-70870475D01*
X147702438Y-70870475D02*
X147750057Y-70918094D01*
X147750057Y-70918094D02*
X147845295Y-70965713D01*
X147845295Y-70965713D02*
X148083390Y-70965713D01*
X148083390Y-70965713D02*
X148178628Y-70918094D01*
X148178628Y-70918094D02*
X148226247Y-70870475D01*
X148226247Y-70870475D02*
X148273866Y-70775237D01*
X148273866Y-70775237D02*
X148273866Y-70584761D01*
X148273866Y-70584761D02*
X148226247Y-70489523D01*
X148226247Y-70489523D02*
X148178628Y-70441904D01*
X148178628Y-70441904D02*
X148083390Y-70394285D01*
X153559580Y-80916666D02*
X153607200Y-80964285D01*
X153607200Y-80964285D02*
X153654819Y-81107142D01*
X153654819Y-81107142D02*
X153654819Y-81202380D01*
X153654819Y-81202380D02*
X153607200Y-81345237D01*
X153607200Y-81345237D02*
X153511961Y-81440475D01*
X153511961Y-81440475D02*
X153416723Y-81488094D01*
X153416723Y-81488094D02*
X153226247Y-81535713D01*
X153226247Y-81535713D02*
X153083390Y-81535713D01*
X153083390Y-81535713D02*
X152892914Y-81488094D01*
X152892914Y-81488094D02*
X152797676Y-81440475D01*
X152797676Y-81440475D02*
X152702438Y-81345237D01*
X152702438Y-81345237D02*
X152654819Y-81202380D01*
X152654819Y-81202380D02*
X152654819Y-81107142D01*
X152654819Y-81107142D02*
X152702438Y-80964285D01*
X152702438Y-80964285D02*
X152750057Y-80916666D01*
X153654819Y-80440475D02*
X153654819Y-80249999D01*
X153654819Y-80249999D02*
X153607200Y-80154761D01*
X153607200Y-80154761D02*
X153559580Y-80107142D01*
X153559580Y-80107142D02*
X153416723Y-80011904D01*
X153416723Y-80011904D02*
X153226247Y-79964285D01*
X153226247Y-79964285D02*
X152845295Y-79964285D01*
X152845295Y-79964285D02*
X152750057Y-80011904D01*
X152750057Y-80011904D02*
X152702438Y-80059523D01*
X152702438Y-80059523D02*
X152654819Y-80154761D01*
X152654819Y-80154761D02*
X152654819Y-80345237D01*
X152654819Y-80345237D02*
X152702438Y-80440475D01*
X152702438Y-80440475D02*
X152750057Y-80488094D01*
X152750057Y-80488094D02*
X152845295Y-80535713D01*
X152845295Y-80535713D02*
X153083390Y-80535713D01*
X153083390Y-80535713D02*
X153178628Y-80488094D01*
X153178628Y-80488094D02*
X153226247Y-80440475D01*
X153226247Y-80440475D02*
X153273866Y-80345237D01*
X153273866Y-80345237D02*
X153273866Y-80154761D01*
X153273866Y-80154761D02*
X153226247Y-80059523D01*
X153226247Y-80059523D02*
X153178628Y-80011904D01*
X153178628Y-80011904D02*
X153083390Y-79964285D01*
X154916666Y-62064819D02*
X154916666Y-62779104D01*
X154916666Y-62779104D02*
X154869047Y-62921961D01*
X154869047Y-62921961D02*
X154773809Y-63017200D01*
X154773809Y-63017200D02*
X154630952Y-63064819D01*
X154630952Y-63064819D02*
X154535714Y-63064819D01*
X155916666Y-63064819D02*
X155345238Y-63064819D01*
X155630952Y-63064819D02*
X155630952Y-62064819D01*
X155630952Y-62064819D02*
X155535714Y-62207676D01*
X155535714Y-62207676D02*
X155440476Y-62302914D01*
X155440476Y-62302914D02*
X155345238Y-62350533D01*
X120890476Y-74929819D02*
X120890476Y-73929819D01*
X120890476Y-73929819D02*
X121223809Y-74644104D01*
X121223809Y-74644104D02*
X121557142Y-73929819D01*
X121557142Y-73929819D02*
X121557142Y-74929819D01*
X121985714Y-74025057D02*
X122033333Y-73977438D01*
X122033333Y-73977438D02*
X122128571Y-73929819D01*
X122128571Y-73929819D02*
X122366666Y-73929819D01*
X122366666Y-73929819D02*
X122461904Y-73977438D01*
X122461904Y-73977438D02*
X122509523Y-74025057D01*
X122509523Y-74025057D02*
X122557142Y-74120295D01*
X122557142Y-74120295D02*
X122557142Y-74215533D01*
X122557142Y-74215533D02*
X122509523Y-74358390D01*
X122509523Y-74358390D02*
X121938095Y-74929819D01*
X121938095Y-74929819D02*
X122557142Y-74929819D01*
X134083333Y-65504819D02*
X133750000Y-65028628D01*
X133511905Y-65504819D02*
X133511905Y-64504819D01*
X133511905Y-64504819D02*
X133892857Y-64504819D01*
X133892857Y-64504819D02*
X133988095Y-64552438D01*
X133988095Y-64552438D02*
X134035714Y-64600057D01*
X134035714Y-64600057D02*
X134083333Y-64695295D01*
X134083333Y-64695295D02*
X134083333Y-64838152D01*
X134083333Y-64838152D02*
X134035714Y-64933390D01*
X134035714Y-64933390D02*
X133988095Y-64981009D01*
X133988095Y-64981009D02*
X133892857Y-65028628D01*
X133892857Y-65028628D02*
X133511905Y-65028628D01*
X134416667Y-64504819D02*
X135035714Y-64504819D01*
X135035714Y-64504819D02*
X134702381Y-64885771D01*
X134702381Y-64885771D02*
X134845238Y-64885771D01*
X134845238Y-64885771D02*
X134940476Y-64933390D01*
X134940476Y-64933390D02*
X134988095Y-64981009D01*
X134988095Y-64981009D02*
X135035714Y-65076247D01*
X135035714Y-65076247D02*
X135035714Y-65314342D01*
X135035714Y-65314342D02*
X134988095Y-65409580D01*
X134988095Y-65409580D02*
X134940476Y-65457200D01*
X134940476Y-65457200D02*
X134845238Y-65504819D01*
X134845238Y-65504819D02*
X134559524Y-65504819D01*
X134559524Y-65504819D02*
X134464286Y-65457200D01*
X134464286Y-65457200D02*
X134416667Y-65409580D01*
X172166666Y-70314819D02*
X172166666Y-71029104D01*
X172166666Y-71029104D02*
X172119047Y-71171961D01*
X172119047Y-71171961D02*
X172023809Y-71267200D01*
X172023809Y-71267200D02*
X171880952Y-71314819D01*
X171880952Y-71314819D02*
X171785714Y-71314819D01*
X173071428Y-70314819D02*
X172880952Y-70314819D01*
X172880952Y-70314819D02*
X172785714Y-70362438D01*
X172785714Y-70362438D02*
X172738095Y-70410057D01*
X172738095Y-70410057D02*
X172642857Y-70552914D01*
X172642857Y-70552914D02*
X172595238Y-70743390D01*
X172595238Y-70743390D02*
X172595238Y-71124342D01*
X172595238Y-71124342D02*
X172642857Y-71219580D01*
X172642857Y-71219580D02*
X172690476Y-71267200D01*
X172690476Y-71267200D02*
X172785714Y-71314819D01*
X172785714Y-71314819D02*
X172976190Y-71314819D01*
X172976190Y-71314819D02*
X173071428Y-71267200D01*
X173071428Y-71267200D02*
X173119047Y-71219580D01*
X173119047Y-71219580D02*
X173166666Y-71124342D01*
X173166666Y-71124342D02*
X173166666Y-70886247D01*
X173166666Y-70886247D02*
X173119047Y-70791009D01*
X173119047Y-70791009D02*
X173071428Y-70743390D01*
X173071428Y-70743390D02*
X172976190Y-70695771D01*
X172976190Y-70695771D02*
X172785714Y-70695771D01*
X172785714Y-70695771D02*
X172690476Y-70743390D01*
X172690476Y-70743390D02*
X172642857Y-70791009D01*
X172642857Y-70791009D02*
X172595238Y-70886247D01*
X138083333Y-70659580D02*
X138035714Y-70707200D01*
X138035714Y-70707200D02*
X137892857Y-70754819D01*
X137892857Y-70754819D02*
X137797619Y-70754819D01*
X137797619Y-70754819D02*
X137654762Y-70707200D01*
X137654762Y-70707200D02*
X137559524Y-70611961D01*
X137559524Y-70611961D02*
X137511905Y-70516723D01*
X137511905Y-70516723D02*
X137464286Y-70326247D01*
X137464286Y-70326247D02*
X137464286Y-70183390D01*
X137464286Y-70183390D02*
X137511905Y-69992914D01*
X137511905Y-69992914D02*
X137559524Y-69897676D01*
X137559524Y-69897676D02*
X137654762Y-69802438D01*
X137654762Y-69802438D02*
X137797619Y-69754819D01*
X137797619Y-69754819D02*
X137892857Y-69754819D01*
X137892857Y-69754819D02*
X138035714Y-69802438D01*
X138035714Y-69802438D02*
X138083333Y-69850057D01*
X139035714Y-70754819D02*
X138464286Y-70754819D01*
X138750000Y-70754819D02*
X138750000Y-69754819D01*
X138750000Y-69754819D02*
X138654762Y-69897676D01*
X138654762Y-69897676D02*
X138559524Y-69992914D01*
X138559524Y-69992914D02*
X138464286Y-70040533D01*
X147107142Y-66454819D02*
X146773809Y-65978628D01*
X146535714Y-66454819D02*
X146535714Y-65454819D01*
X146535714Y-65454819D02*
X146916666Y-65454819D01*
X146916666Y-65454819D02*
X147011904Y-65502438D01*
X147011904Y-65502438D02*
X147059523Y-65550057D01*
X147059523Y-65550057D02*
X147107142Y-65645295D01*
X147107142Y-65645295D02*
X147107142Y-65788152D01*
X147107142Y-65788152D02*
X147059523Y-65883390D01*
X147059523Y-65883390D02*
X147011904Y-65931009D01*
X147011904Y-65931009D02*
X146916666Y-65978628D01*
X146916666Y-65978628D02*
X146535714Y-65978628D01*
X148059523Y-66454819D02*
X147488095Y-66454819D01*
X147773809Y-66454819D02*
X147773809Y-65454819D01*
X147773809Y-65454819D02*
X147678571Y-65597676D01*
X147678571Y-65597676D02*
X147583333Y-65692914D01*
X147583333Y-65692914D02*
X147488095Y-65740533D01*
X148916666Y-65454819D02*
X148726190Y-65454819D01*
X148726190Y-65454819D02*
X148630952Y-65502438D01*
X148630952Y-65502438D02*
X148583333Y-65550057D01*
X148583333Y-65550057D02*
X148488095Y-65692914D01*
X148488095Y-65692914D02*
X148440476Y-65883390D01*
X148440476Y-65883390D02*
X148440476Y-66264342D01*
X148440476Y-66264342D02*
X148488095Y-66359580D01*
X148488095Y-66359580D02*
X148535714Y-66407200D01*
X148535714Y-66407200D02*
X148630952Y-66454819D01*
X148630952Y-66454819D02*
X148821428Y-66454819D01*
X148821428Y-66454819D02*
X148916666Y-66407200D01*
X148916666Y-66407200D02*
X148964285Y-66359580D01*
X148964285Y-66359580D02*
X149011904Y-66264342D01*
X149011904Y-66264342D02*
X149011904Y-66026247D01*
X149011904Y-66026247D02*
X148964285Y-65931009D01*
X148964285Y-65931009D02*
X148916666Y-65883390D01*
X148916666Y-65883390D02*
X148821428Y-65835771D01*
X148821428Y-65835771D02*
X148630952Y-65835771D01*
X148630952Y-65835771D02*
X148535714Y-65883390D01*
X148535714Y-65883390D02*
X148488095Y-65931009D01*
X148488095Y-65931009D02*
X148440476Y-66026247D01*
X141333333Y-71654819D02*
X141000000Y-71178628D01*
X140761905Y-71654819D02*
X140761905Y-70654819D01*
X140761905Y-70654819D02*
X141142857Y-70654819D01*
X141142857Y-70654819D02*
X141238095Y-70702438D01*
X141238095Y-70702438D02*
X141285714Y-70750057D01*
X141285714Y-70750057D02*
X141333333Y-70845295D01*
X141333333Y-70845295D02*
X141333333Y-70988152D01*
X141333333Y-70988152D02*
X141285714Y-71083390D01*
X141285714Y-71083390D02*
X141238095Y-71131009D01*
X141238095Y-71131009D02*
X141142857Y-71178628D01*
X141142857Y-71178628D02*
X140761905Y-71178628D01*
X142238095Y-70654819D02*
X141761905Y-70654819D01*
X141761905Y-70654819D02*
X141714286Y-71131009D01*
X141714286Y-71131009D02*
X141761905Y-71083390D01*
X141761905Y-71083390D02*
X141857143Y-71035771D01*
X141857143Y-71035771D02*
X142095238Y-71035771D01*
X142095238Y-71035771D02*
X142190476Y-71083390D01*
X142190476Y-71083390D02*
X142238095Y-71131009D01*
X142238095Y-71131009D02*
X142285714Y-71226247D01*
X142285714Y-71226247D02*
X142285714Y-71464342D01*
X142285714Y-71464342D02*
X142238095Y-71559580D01*
X142238095Y-71559580D02*
X142190476Y-71607200D01*
X142190476Y-71607200D02*
X142095238Y-71654819D01*
X142095238Y-71654819D02*
X141857143Y-71654819D01*
X141857143Y-71654819D02*
X141761905Y-71607200D01*
X141761905Y-71607200D02*
X141714286Y-71559580D01*
X156583333Y-64254819D02*
X156250000Y-63778628D01*
X156011905Y-64254819D02*
X156011905Y-63254819D01*
X156011905Y-63254819D02*
X156392857Y-63254819D01*
X156392857Y-63254819D02*
X156488095Y-63302438D01*
X156488095Y-63302438D02*
X156535714Y-63350057D01*
X156535714Y-63350057D02*
X156583333Y-63445295D01*
X156583333Y-63445295D02*
X156583333Y-63588152D01*
X156583333Y-63588152D02*
X156535714Y-63683390D01*
X156535714Y-63683390D02*
X156488095Y-63731009D01*
X156488095Y-63731009D02*
X156392857Y-63778628D01*
X156392857Y-63778628D02*
X156011905Y-63778628D01*
X156916667Y-63254819D02*
X157583333Y-63254819D01*
X157583333Y-63254819D02*
X157154762Y-64254819D01*
X156159580Y-77236666D02*
X156207200Y-77284285D01*
X156207200Y-77284285D02*
X156254819Y-77427142D01*
X156254819Y-77427142D02*
X156254819Y-77522380D01*
X156254819Y-77522380D02*
X156207200Y-77665237D01*
X156207200Y-77665237D02*
X156111961Y-77760475D01*
X156111961Y-77760475D02*
X156016723Y-77808094D01*
X156016723Y-77808094D02*
X155826247Y-77855713D01*
X155826247Y-77855713D02*
X155683390Y-77855713D01*
X155683390Y-77855713D02*
X155492914Y-77808094D01*
X155492914Y-77808094D02*
X155397676Y-77760475D01*
X155397676Y-77760475D02*
X155302438Y-77665237D01*
X155302438Y-77665237D02*
X155254819Y-77522380D01*
X155254819Y-77522380D02*
X155254819Y-77427142D01*
X155254819Y-77427142D02*
X155302438Y-77284285D01*
X155302438Y-77284285D02*
X155350057Y-77236666D01*
X155588152Y-76379523D02*
X156254819Y-76379523D01*
X155207200Y-76617618D02*
X155921485Y-76855713D01*
X155921485Y-76855713D02*
X155921485Y-76236666D01*
X143083333Y-67754819D02*
X142750000Y-67278628D01*
X142511905Y-67754819D02*
X142511905Y-66754819D01*
X142511905Y-66754819D02*
X142892857Y-66754819D01*
X142892857Y-66754819D02*
X142988095Y-66802438D01*
X142988095Y-66802438D02*
X143035714Y-66850057D01*
X143035714Y-66850057D02*
X143083333Y-66945295D01*
X143083333Y-66945295D02*
X143083333Y-67088152D01*
X143083333Y-67088152D02*
X143035714Y-67183390D01*
X143035714Y-67183390D02*
X142988095Y-67231009D01*
X142988095Y-67231009D02*
X142892857Y-67278628D01*
X142892857Y-67278628D02*
X142511905Y-67278628D01*
X144035714Y-67754819D02*
X143464286Y-67754819D01*
X143750000Y-67754819D02*
X143750000Y-66754819D01*
X143750000Y-66754819D02*
X143654762Y-66897676D01*
X143654762Y-66897676D02*
X143559524Y-66992914D01*
X143559524Y-66992914D02*
X143464286Y-67040533D01*
X131916666Y-62064819D02*
X131916666Y-62779104D01*
X131916666Y-62779104D02*
X131869047Y-62921961D01*
X131869047Y-62921961D02*
X131773809Y-63017200D01*
X131773809Y-63017200D02*
X131630952Y-63064819D01*
X131630952Y-63064819D02*
X131535714Y-63064819D01*
X132821428Y-62398152D02*
X132821428Y-63064819D01*
X132583333Y-62017200D02*
X132345238Y-62731485D01*
X132345238Y-62731485D02*
X132964285Y-62731485D01*
X170004819Y-74642857D02*
X169528628Y-74976190D01*
X170004819Y-75214285D02*
X169004819Y-75214285D01*
X169004819Y-75214285D02*
X169004819Y-74833333D01*
X169004819Y-74833333D02*
X169052438Y-74738095D01*
X169052438Y-74738095D02*
X169100057Y-74690476D01*
X169100057Y-74690476D02*
X169195295Y-74642857D01*
X169195295Y-74642857D02*
X169338152Y-74642857D01*
X169338152Y-74642857D02*
X169433390Y-74690476D01*
X169433390Y-74690476D02*
X169481009Y-74738095D01*
X169481009Y-74738095D02*
X169528628Y-74833333D01*
X169528628Y-74833333D02*
X169528628Y-75214285D01*
X170004819Y-73690476D02*
X170004819Y-74261904D01*
X170004819Y-73976190D02*
X169004819Y-73976190D01*
X169004819Y-73976190D02*
X169147676Y-74071428D01*
X169147676Y-74071428D02*
X169242914Y-74166666D01*
X169242914Y-74166666D02*
X169290533Y-74261904D01*
X169004819Y-73071428D02*
X169004819Y-72976190D01*
X169004819Y-72976190D02*
X169052438Y-72880952D01*
X169052438Y-72880952D02*
X169100057Y-72833333D01*
X169100057Y-72833333D02*
X169195295Y-72785714D01*
X169195295Y-72785714D02*
X169385771Y-72738095D01*
X169385771Y-72738095D02*
X169623866Y-72738095D01*
X169623866Y-72738095D02*
X169814342Y-72785714D01*
X169814342Y-72785714D02*
X169909580Y-72833333D01*
X169909580Y-72833333D02*
X169957200Y-72880952D01*
X169957200Y-72880952D02*
X170004819Y-72976190D01*
X170004819Y-72976190D02*
X170004819Y-73071428D01*
X170004819Y-73071428D02*
X169957200Y-73166666D01*
X169957200Y-73166666D02*
X169909580Y-73214285D01*
X169909580Y-73214285D02*
X169814342Y-73261904D01*
X169814342Y-73261904D02*
X169623866Y-73309523D01*
X169623866Y-73309523D02*
X169385771Y-73309523D01*
X169385771Y-73309523D02*
X169195295Y-73261904D01*
X169195295Y-73261904D02*
X169100057Y-73214285D01*
X169100057Y-73214285D02*
X169052438Y-73166666D01*
X169052438Y-73166666D02*
X169004819Y-73071428D01*
X138228628Y-70476190D02*
X138704819Y-70476190D01*
X137704819Y-70809523D02*
X138228628Y-70476190D01*
X138228628Y-70476190D02*
X137704819Y-70142857D01*
X137800057Y-69857142D02*
X137752438Y-69809523D01*
X137752438Y-69809523D02*
X137704819Y-69714285D01*
X137704819Y-69714285D02*
X137704819Y-69476190D01*
X137704819Y-69476190D02*
X137752438Y-69380952D01*
X137752438Y-69380952D02*
X137800057Y-69333333D01*
X137800057Y-69333333D02*
X137895295Y-69285714D01*
X137895295Y-69285714D02*
X137990533Y-69285714D01*
X137990533Y-69285714D02*
X138133390Y-69333333D01*
X138133390Y-69333333D02*
X138704819Y-69904761D01*
X138704819Y-69904761D02*
X138704819Y-69285714D01*
X138013333Y-74659580D02*
X137965714Y-74707200D01*
X137965714Y-74707200D02*
X137822857Y-74754819D01*
X137822857Y-74754819D02*
X137727619Y-74754819D01*
X137727619Y-74754819D02*
X137584762Y-74707200D01*
X137584762Y-74707200D02*
X137489524Y-74611961D01*
X137489524Y-74611961D02*
X137441905Y-74516723D01*
X137441905Y-74516723D02*
X137394286Y-74326247D01*
X137394286Y-74326247D02*
X137394286Y-74183390D01*
X137394286Y-74183390D02*
X137441905Y-73992914D01*
X137441905Y-73992914D02*
X137489524Y-73897676D01*
X137489524Y-73897676D02*
X137584762Y-73802438D01*
X137584762Y-73802438D02*
X137727619Y-73754819D01*
X137727619Y-73754819D02*
X137822857Y-73754819D01*
X137822857Y-73754819D02*
X137965714Y-73802438D01*
X137965714Y-73802438D02*
X138013333Y-73850057D01*
X138918095Y-73754819D02*
X138441905Y-73754819D01*
X138441905Y-73754819D02*
X138394286Y-74231009D01*
X138394286Y-74231009D02*
X138441905Y-74183390D01*
X138441905Y-74183390D02*
X138537143Y-74135771D01*
X138537143Y-74135771D02*
X138775238Y-74135771D01*
X138775238Y-74135771D02*
X138870476Y-74183390D01*
X138870476Y-74183390D02*
X138918095Y-74231009D01*
X138918095Y-74231009D02*
X138965714Y-74326247D01*
X138965714Y-74326247D02*
X138965714Y-74564342D01*
X138965714Y-74564342D02*
X138918095Y-74659580D01*
X138918095Y-74659580D02*
X138870476Y-74707200D01*
X138870476Y-74707200D02*
X138775238Y-74754819D01*
X138775238Y-74754819D02*
X138537143Y-74754819D01*
X138537143Y-74754819D02*
X138441905Y-74707200D01*
X138441905Y-74707200D02*
X138394286Y-74659580D01*
X153037142Y-83059580D02*
X152989523Y-83107200D01*
X152989523Y-83107200D02*
X152846666Y-83154819D01*
X152846666Y-83154819D02*
X152751428Y-83154819D01*
X152751428Y-83154819D02*
X152608571Y-83107200D01*
X152608571Y-83107200D02*
X152513333Y-83011961D01*
X152513333Y-83011961D02*
X152465714Y-82916723D01*
X152465714Y-82916723D02*
X152418095Y-82726247D01*
X152418095Y-82726247D02*
X152418095Y-82583390D01*
X152418095Y-82583390D02*
X152465714Y-82392914D01*
X152465714Y-82392914D02*
X152513333Y-82297676D01*
X152513333Y-82297676D02*
X152608571Y-82202438D01*
X152608571Y-82202438D02*
X152751428Y-82154819D01*
X152751428Y-82154819D02*
X152846666Y-82154819D01*
X152846666Y-82154819D02*
X152989523Y-82202438D01*
X152989523Y-82202438D02*
X153037142Y-82250057D01*
X153989523Y-83154819D02*
X153418095Y-83154819D01*
X153703809Y-83154819D02*
X153703809Y-82154819D01*
X153703809Y-82154819D02*
X153608571Y-82297676D01*
X153608571Y-82297676D02*
X153513333Y-82392914D01*
X153513333Y-82392914D02*
X153418095Y-82440533D01*
X154941904Y-83154819D02*
X154370476Y-83154819D01*
X154656190Y-83154819D02*
X154656190Y-82154819D01*
X154656190Y-82154819D02*
X154560952Y-82297676D01*
X154560952Y-82297676D02*
X154465714Y-82392914D01*
X154465714Y-82392914D02*
X154370476Y-82440533D01*
X120890476Y-82429819D02*
X120890476Y-81429819D01*
X120890476Y-81429819D02*
X121223809Y-82144104D01*
X121223809Y-82144104D02*
X121557142Y-81429819D01*
X121557142Y-81429819D02*
X121557142Y-82429819D01*
X121938095Y-81429819D02*
X122557142Y-81429819D01*
X122557142Y-81429819D02*
X122223809Y-81810771D01*
X122223809Y-81810771D02*
X122366666Y-81810771D01*
X122366666Y-81810771D02*
X122461904Y-81858390D01*
X122461904Y-81858390D02*
X122509523Y-81906009D01*
X122509523Y-81906009D02*
X122557142Y-82001247D01*
X122557142Y-82001247D02*
X122557142Y-82239342D01*
X122557142Y-82239342D02*
X122509523Y-82334580D01*
X122509523Y-82334580D02*
X122461904Y-82382200D01*
X122461904Y-82382200D02*
X122366666Y-82429819D01*
X122366666Y-82429819D02*
X122080952Y-82429819D01*
X122080952Y-82429819D02*
X121985714Y-82382200D01*
X121985714Y-82382200D02*
X121938095Y-82334580D01*
X135059580Y-73916666D02*
X135107200Y-73964285D01*
X135107200Y-73964285D02*
X135154819Y-74107142D01*
X135154819Y-74107142D02*
X135154819Y-74202380D01*
X135154819Y-74202380D02*
X135107200Y-74345237D01*
X135107200Y-74345237D02*
X135011961Y-74440475D01*
X135011961Y-74440475D02*
X134916723Y-74488094D01*
X134916723Y-74488094D02*
X134726247Y-74535713D01*
X134726247Y-74535713D02*
X134583390Y-74535713D01*
X134583390Y-74535713D02*
X134392914Y-74488094D01*
X134392914Y-74488094D02*
X134297676Y-74440475D01*
X134297676Y-74440475D02*
X134202438Y-74345237D01*
X134202438Y-74345237D02*
X134154819Y-74202380D01*
X134154819Y-74202380D02*
X134154819Y-74107142D01*
X134154819Y-74107142D02*
X134202438Y-73964285D01*
X134202438Y-73964285D02*
X134250057Y-73916666D01*
X134583390Y-73345237D02*
X134535771Y-73440475D01*
X134535771Y-73440475D02*
X134488152Y-73488094D01*
X134488152Y-73488094D02*
X134392914Y-73535713D01*
X134392914Y-73535713D02*
X134345295Y-73535713D01*
X134345295Y-73535713D02*
X134250057Y-73488094D01*
X134250057Y-73488094D02*
X134202438Y-73440475D01*
X134202438Y-73440475D02*
X134154819Y-73345237D01*
X134154819Y-73345237D02*
X134154819Y-73154761D01*
X134154819Y-73154761D02*
X134202438Y-73059523D01*
X134202438Y-73059523D02*
X134250057Y-73011904D01*
X134250057Y-73011904D02*
X134345295Y-72964285D01*
X134345295Y-72964285D02*
X134392914Y-72964285D01*
X134392914Y-72964285D02*
X134488152Y-73011904D01*
X134488152Y-73011904D02*
X134535771Y-73059523D01*
X134535771Y-73059523D02*
X134583390Y-73154761D01*
X134583390Y-73154761D02*
X134583390Y-73345237D01*
X134583390Y-73345237D02*
X134631009Y-73440475D01*
X134631009Y-73440475D02*
X134678628Y-73488094D01*
X134678628Y-73488094D02*
X134773866Y-73535713D01*
X134773866Y-73535713D02*
X134964342Y-73535713D01*
X134964342Y-73535713D02*
X135059580Y-73488094D01*
X135059580Y-73488094D02*
X135107200Y-73440475D01*
X135107200Y-73440475D02*
X135154819Y-73345237D01*
X135154819Y-73345237D02*
X135154819Y-73154761D01*
X135154819Y-73154761D02*
X135107200Y-73059523D01*
X135107200Y-73059523D02*
X135059580Y-73011904D01*
X135059580Y-73011904D02*
X134964342Y-72964285D01*
X134964342Y-72964285D02*
X134773866Y-72964285D01*
X134773866Y-72964285D02*
X134678628Y-73011904D01*
X134678628Y-73011904D02*
X134631009Y-73059523D01*
X134631009Y-73059523D02*
X134583390Y-73154761D01*
X137309580Y-70916666D02*
X137357200Y-70964285D01*
X137357200Y-70964285D02*
X137404819Y-71107142D01*
X137404819Y-71107142D02*
X137404819Y-71202380D01*
X137404819Y-71202380D02*
X137357200Y-71345237D01*
X137357200Y-71345237D02*
X137261961Y-71440475D01*
X137261961Y-71440475D02*
X137166723Y-71488094D01*
X137166723Y-71488094D02*
X136976247Y-71535713D01*
X136976247Y-71535713D02*
X136833390Y-71535713D01*
X136833390Y-71535713D02*
X136642914Y-71488094D01*
X136642914Y-71488094D02*
X136547676Y-71440475D01*
X136547676Y-71440475D02*
X136452438Y-71345237D01*
X136452438Y-71345237D02*
X136404819Y-71202380D01*
X136404819Y-71202380D02*
X136404819Y-71107142D01*
X136404819Y-71107142D02*
X136452438Y-70964285D01*
X136452438Y-70964285D02*
X136500057Y-70916666D01*
X136500057Y-70535713D02*
X136452438Y-70488094D01*
X136452438Y-70488094D02*
X136404819Y-70392856D01*
X136404819Y-70392856D02*
X136404819Y-70154761D01*
X136404819Y-70154761D02*
X136452438Y-70059523D01*
X136452438Y-70059523D02*
X136500057Y-70011904D01*
X136500057Y-70011904D02*
X136595295Y-69964285D01*
X136595295Y-69964285D02*
X136690533Y-69964285D01*
X136690533Y-69964285D02*
X136833390Y-70011904D01*
X136833390Y-70011904D02*
X137404819Y-70583332D01*
X137404819Y-70583332D02*
X137404819Y-69964285D01*
X151333333Y-72309580D02*
X151285714Y-72357200D01*
X151285714Y-72357200D02*
X151142857Y-72404819D01*
X151142857Y-72404819D02*
X151047619Y-72404819D01*
X151047619Y-72404819D02*
X150904762Y-72357200D01*
X150904762Y-72357200D02*
X150809524Y-72261961D01*
X150809524Y-72261961D02*
X150761905Y-72166723D01*
X150761905Y-72166723D02*
X150714286Y-71976247D01*
X150714286Y-71976247D02*
X150714286Y-71833390D01*
X150714286Y-71833390D02*
X150761905Y-71642914D01*
X150761905Y-71642914D02*
X150809524Y-71547676D01*
X150809524Y-71547676D02*
X150904762Y-71452438D01*
X150904762Y-71452438D02*
X151047619Y-71404819D01*
X151047619Y-71404819D02*
X151142857Y-71404819D01*
X151142857Y-71404819D02*
X151285714Y-71452438D01*
X151285714Y-71452438D02*
X151333333Y-71500057D01*
X152190476Y-71404819D02*
X152000000Y-71404819D01*
X152000000Y-71404819D02*
X151904762Y-71452438D01*
X151904762Y-71452438D02*
X151857143Y-71500057D01*
X151857143Y-71500057D02*
X151761905Y-71642914D01*
X151761905Y-71642914D02*
X151714286Y-71833390D01*
X151714286Y-71833390D02*
X151714286Y-72214342D01*
X151714286Y-72214342D02*
X151761905Y-72309580D01*
X151761905Y-72309580D02*
X151809524Y-72357200D01*
X151809524Y-72357200D02*
X151904762Y-72404819D01*
X151904762Y-72404819D02*
X152095238Y-72404819D01*
X152095238Y-72404819D02*
X152190476Y-72357200D01*
X152190476Y-72357200D02*
X152238095Y-72309580D01*
X152238095Y-72309580D02*
X152285714Y-72214342D01*
X152285714Y-72214342D02*
X152285714Y-71976247D01*
X152285714Y-71976247D02*
X152238095Y-71881009D01*
X152238095Y-71881009D02*
X152190476Y-71833390D01*
X152190476Y-71833390D02*
X152095238Y-71785771D01*
X152095238Y-71785771D02*
X151904762Y-71785771D01*
X151904762Y-71785771D02*
X151809524Y-71833390D01*
X151809524Y-71833390D02*
X151761905Y-71881009D01*
X151761905Y-71881009D02*
X151714286Y-71976247D01*
X111890476Y-74929819D02*
X111890476Y-73929819D01*
X111890476Y-73929819D02*
X112223809Y-74644104D01*
X112223809Y-74644104D02*
X112557142Y-73929819D01*
X112557142Y-73929819D02*
X112557142Y-74929819D01*
X113461904Y-74263152D02*
X113461904Y-74929819D01*
X113223809Y-73882200D02*
X112985714Y-74596485D01*
X112985714Y-74596485D02*
X113604761Y-74596485D01*
X144988095Y-71874819D02*
X144988095Y-72684342D01*
X144988095Y-72684342D02*
X145035714Y-72779580D01*
X145035714Y-72779580D02*
X145083333Y-72827200D01*
X145083333Y-72827200D02*
X145178571Y-72874819D01*
X145178571Y-72874819D02*
X145369047Y-72874819D01*
X145369047Y-72874819D02*
X145464285Y-72827200D01*
X145464285Y-72827200D02*
X145511904Y-72779580D01*
X145511904Y-72779580D02*
X145559523Y-72684342D01*
X145559523Y-72684342D02*
X145559523Y-71874819D01*
X145988095Y-71970057D02*
X146035714Y-71922438D01*
X146035714Y-71922438D02*
X146130952Y-71874819D01*
X146130952Y-71874819D02*
X146369047Y-71874819D01*
X146369047Y-71874819D02*
X146464285Y-71922438D01*
X146464285Y-71922438D02*
X146511904Y-71970057D01*
X146511904Y-71970057D02*
X146559523Y-72065295D01*
X146559523Y-72065295D02*
X146559523Y-72160533D01*
X146559523Y-72160533D02*
X146511904Y-72303390D01*
X146511904Y-72303390D02*
X145940476Y-72874819D01*
X145940476Y-72874819D02*
X146559523Y-72874819D01*
X143416666Y-62064819D02*
X143416666Y-62779104D01*
X143416666Y-62779104D02*
X143369047Y-62921961D01*
X143369047Y-62921961D02*
X143273809Y-63017200D01*
X143273809Y-63017200D02*
X143130952Y-63064819D01*
X143130952Y-63064819D02*
X143035714Y-63064819D01*
X143797619Y-62064819D02*
X144416666Y-62064819D01*
X144416666Y-62064819D02*
X144083333Y-62445771D01*
X144083333Y-62445771D02*
X144226190Y-62445771D01*
X144226190Y-62445771D02*
X144321428Y-62493390D01*
X144321428Y-62493390D02*
X144369047Y-62541009D01*
X144369047Y-62541009D02*
X144416666Y-62636247D01*
X144416666Y-62636247D02*
X144416666Y-62874342D01*
X144416666Y-62874342D02*
X144369047Y-62969580D01*
X144369047Y-62969580D02*
X144321428Y-63017200D01*
X144321428Y-63017200D02*
X144226190Y-63064819D01*
X144226190Y-63064819D02*
X143940476Y-63064819D01*
X143940476Y-63064819D02*
X143845238Y-63017200D01*
X143845238Y-63017200D02*
X143797619Y-62969580D01*
X168537142Y-78004819D02*
X168203809Y-77528628D01*
X167965714Y-78004819D02*
X167965714Y-77004819D01*
X167965714Y-77004819D02*
X168346666Y-77004819D01*
X168346666Y-77004819D02*
X168441904Y-77052438D01*
X168441904Y-77052438D02*
X168489523Y-77100057D01*
X168489523Y-77100057D02*
X168537142Y-77195295D01*
X168537142Y-77195295D02*
X168537142Y-77338152D01*
X168537142Y-77338152D02*
X168489523Y-77433390D01*
X168489523Y-77433390D02*
X168441904Y-77481009D01*
X168441904Y-77481009D02*
X168346666Y-77528628D01*
X168346666Y-77528628D02*
X167965714Y-77528628D01*
X169489523Y-78004819D02*
X168918095Y-78004819D01*
X169203809Y-78004819D02*
X169203809Y-77004819D01*
X169203809Y-77004819D02*
X169108571Y-77147676D01*
X169108571Y-77147676D02*
X169013333Y-77242914D01*
X169013333Y-77242914D02*
X168918095Y-77290533D01*
X170346666Y-77338152D02*
X170346666Y-78004819D01*
X170108571Y-76957200D02*
X169870476Y-77671485D01*
X169870476Y-77671485D02*
X170489523Y-77671485D01*
X145333333Y-67754819D02*
X145000000Y-67278628D01*
X144761905Y-67754819D02*
X144761905Y-66754819D01*
X144761905Y-66754819D02*
X145142857Y-66754819D01*
X145142857Y-66754819D02*
X145238095Y-66802438D01*
X145238095Y-66802438D02*
X145285714Y-66850057D01*
X145285714Y-66850057D02*
X145333333Y-66945295D01*
X145333333Y-66945295D02*
X145333333Y-67088152D01*
X145333333Y-67088152D02*
X145285714Y-67183390D01*
X145285714Y-67183390D02*
X145238095Y-67231009D01*
X145238095Y-67231009D02*
X145142857Y-67278628D01*
X145142857Y-67278628D02*
X144761905Y-67278628D01*
X146190476Y-67088152D02*
X146190476Y-67754819D01*
X145952381Y-66707200D02*
X145714286Y-67421485D01*
X145714286Y-67421485D02*
X146333333Y-67421485D01*
X137904819Y-83962857D02*
X137428628Y-84296190D01*
X137904819Y-84534285D02*
X136904819Y-84534285D01*
X136904819Y-84534285D02*
X136904819Y-84153333D01*
X136904819Y-84153333D02*
X136952438Y-84058095D01*
X136952438Y-84058095D02*
X137000057Y-84010476D01*
X137000057Y-84010476D02*
X137095295Y-83962857D01*
X137095295Y-83962857D02*
X137238152Y-83962857D01*
X137238152Y-83962857D02*
X137333390Y-84010476D01*
X137333390Y-84010476D02*
X137381009Y-84058095D01*
X137381009Y-84058095D02*
X137428628Y-84153333D01*
X137428628Y-84153333D02*
X137428628Y-84534285D01*
X137904819Y-83010476D02*
X137904819Y-83581904D01*
X137904819Y-83296190D02*
X136904819Y-83296190D01*
X136904819Y-83296190D02*
X137047676Y-83391428D01*
X137047676Y-83391428D02*
X137142914Y-83486666D01*
X137142914Y-83486666D02*
X137190533Y-83581904D01*
X137333390Y-82439047D02*
X137285771Y-82534285D01*
X137285771Y-82534285D02*
X137238152Y-82581904D01*
X137238152Y-82581904D02*
X137142914Y-82629523D01*
X137142914Y-82629523D02*
X137095295Y-82629523D01*
X137095295Y-82629523D02*
X137000057Y-82581904D01*
X137000057Y-82581904D02*
X136952438Y-82534285D01*
X136952438Y-82534285D02*
X136904819Y-82439047D01*
X136904819Y-82439047D02*
X136904819Y-82248571D01*
X136904819Y-82248571D02*
X136952438Y-82153333D01*
X136952438Y-82153333D02*
X137000057Y-82105714D01*
X137000057Y-82105714D02*
X137095295Y-82058095D01*
X137095295Y-82058095D02*
X137142914Y-82058095D01*
X137142914Y-82058095D02*
X137238152Y-82105714D01*
X137238152Y-82105714D02*
X137285771Y-82153333D01*
X137285771Y-82153333D02*
X137333390Y-82248571D01*
X137333390Y-82248571D02*
X137333390Y-82439047D01*
X137333390Y-82439047D02*
X137381009Y-82534285D01*
X137381009Y-82534285D02*
X137428628Y-82581904D01*
X137428628Y-82581904D02*
X137523866Y-82629523D01*
X137523866Y-82629523D02*
X137714342Y-82629523D01*
X137714342Y-82629523D02*
X137809580Y-82581904D01*
X137809580Y-82581904D02*
X137857200Y-82534285D01*
X137857200Y-82534285D02*
X137904819Y-82439047D01*
X137904819Y-82439047D02*
X137904819Y-82248571D01*
X137904819Y-82248571D02*
X137857200Y-82153333D01*
X137857200Y-82153333D02*
X137809580Y-82105714D01*
X137809580Y-82105714D02*
X137714342Y-82058095D01*
X137714342Y-82058095D02*
X137523866Y-82058095D01*
X137523866Y-82058095D02*
X137428628Y-82105714D01*
X137428628Y-82105714D02*
X137381009Y-82153333D01*
X137381009Y-82153333D02*
X137333390Y-82248571D01*
X114649700Y-58833332D02*
X114697319Y-58690475D01*
X114697319Y-58690475D02*
X114697319Y-58452380D01*
X114697319Y-58452380D02*
X114649700Y-58357142D01*
X114649700Y-58357142D02*
X114602080Y-58309523D01*
X114602080Y-58309523D02*
X114506842Y-58261904D01*
X114506842Y-58261904D02*
X114411604Y-58261904D01*
X114411604Y-58261904D02*
X114316366Y-58309523D01*
X114316366Y-58309523D02*
X114268747Y-58357142D01*
X114268747Y-58357142D02*
X114221128Y-58452380D01*
X114221128Y-58452380D02*
X114173509Y-58642856D01*
X114173509Y-58642856D02*
X114125890Y-58738094D01*
X114125890Y-58738094D02*
X114078271Y-58785713D01*
X114078271Y-58785713D02*
X113983033Y-58833332D01*
X113983033Y-58833332D02*
X113887795Y-58833332D01*
X113887795Y-58833332D02*
X113792557Y-58785713D01*
X113792557Y-58785713D02*
X113744938Y-58738094D01*
X113744938Y-58738094D02*
X113697319Y-58642856D01*
X113697319Y-58642856D02*
X113697319Y-58404761D01*
X113697319Y-58404761D02*
X113744938Y-58261904D01*
X113697319Y-57928570D02*
X114697319Y-57690475D01*
X114697319Y-57690475D02*
X113983033Y-57499999D01*
X113983033Y-57499999D02*
X114697319Y-57309523D01*
X114697319Y-57309523D02*
X113697319Y-57071428D01*
X114697319Y-56166666D02*
X114697319Y-56738094D01*
X114697319Y-56452380D02*
X113697319Y-56452380D01*
X113697319Y-56452380D02*
X113840176Y-56547618D01*
X113840176Y-56547618D02*
X113935414Y-56642856D01*
X113935414Y-56642856D02*
X113983033Y-56738094D01*
D11*
%TO.C,FB1*%
X157240000Y-67450000D02*
X157240000Y-67050000D01*
X160260000Y-67450000D02*
X160260000Y-67050000D01*
%TO.C,M1*%
X108850000Y-82725000D02*
X116650000Y-82725000D01*
X108850000Y-88775000D02*
X108850000Y-82725000D01*
X110200000Y-87665000D02*
X115280000Y-87665000D01*
X110200000Y-88675000D02*
X110200000Y-87665000D01*
X115280000Y-87665000D02*
X115280000Y-88675000D01*
X116650000Y-82725000D02*
X116650000Y-88775000D01*
X116650000Y-88775000D02*
X108850000Y-88775000D01*
%TO.C,J1*%
X150500000Y-58600000D02*
X150500000Y-54360000D01*
X150500000Y-61620000D02*
X150500000Y-60100000D01*
X152000000Y-61620000D02*
X150500000Y-61620000D01*
X160000000Y-58600000D02*
X160000000Y-54360000D01*
X160000000Y-61620000D02*
X158500000Y-61620000D01*
X160000000Y-61620000D02*
X160000000Y-60100000D01*
%TO.C,M2*%
X117850000Y-75225000D02*
X125650000Y-75225000D01*
X117850000Y-81275000D02*
X117850000Y-75225000D01*
X119200000Y-80165000D02*
X124280000Y-80165000D01*
X119200000Y-81175000D02*
X119200000Y-80165000D01*
X124280000Y-80165000D02*
X124280000Y-81175000D01*
X125650000Y-75225000D02*
X125650000Y-81275000D01*
X125650000Y-81275000D02*
X117850000Y-81275000D01*
%TO.C,J6*%
X164525000Y-48040000D02*
X180475000Y-48040000D01*
X164525000Y-60480000D02*
X164525000Y-48040000D01*
X164525000Y-69960000D02*
X164525000Y-63680000D01*
X180475000Y-48040000D02*
X180475000Y-60480000D01*
X180475000Y-63680000D02*
X180475000Y-69960000D01*
X180475000Y-69960000D02*
X164525000Y-69960000D01*
X180675000Y-66370000D02*
X180675000Y-64370000D01*
%TO.C,J4*%
X127500000Y-58600000D02*
X127500000Y-54360000D01*
X127500000Y-61620000D02*
X127500000Y-60100000D01*
X129000000Y-61620000D02*
X127500000Y-61620000D01*
X137000000Y-58600000D02*
X137000000Y-54360000D01*
X137000000Y-61620000D02*
X135500000Y-61620000D01*
X137000000Y-61620000D02*
X137000000Y-60100000D01*
%TO.C,Y2*%
X139040000Y-71460000D02*
X139040000Y-68850000D01*
X139580000Y-71460000D02*
X139040000Y-71460000D01*
X142460000Y-68860000D02*
X142460000Y-71140000D01*
%TO.C,M3*%
X117850000Y-82725000D02*
X125650000Y-82725000D01*
X117850000Y-88775000D02*
X117850000Y-82725000D01*
X119200000Y-87665000D02*
X124280000Y-87665000D01*
X119200000Y-88675000D02*
X119200000Y-87665000D01*
X124280000Y-87665000D02*
X124280000Y-88675000D01*
X125650000Y-82725000D02*
X125650000Y-88775000D01*
X125650000Y-88775000D02*
X117850000Y-88775000D01*
%TO.C,M4*%
X108850000Y-75225000D02*
X116650000Y-75225000D01*
X108850000Y-81275000D02*
X108850000Y-75225000D01*
X110200000Y-80165000D02*
X115280000Y-80165000D01*
X110200000Y-81175000D02*
X110200000Y-80165000D01*
X115280000Y-80165000D02*
X115280000Y-81175000D01*
X116650000Y-75225000D02*
X116650000Y-81275000D01*
X116650000Y-81275000D02*
X108850000Y-81275000D01*
%TO.C,U2*%
X141140000Y-74115000D02*
X141140000Y-73880000D01*
X141140000Y-82860000D02*
X141140000Y-82385000D01*
X141615000Y-73640000D02*
X141440000Y-73640000D01*
X141615000Y-82860000D02*
X141140000Y-82860000D01*
X149885000Y-73640000D02*
X150360000Y-73640000D01*
X149885000Y-82860000D02*
X150360000Y-82860000D01*
X150360000Y-73640000D02*
X150360000Y-74115000D01*
X150360000Y-82860000D02*
X150360000Y-82385000D01*
X141140000Y-73640000D02*
X140900000Y-73310000D01*
X141380000Y-73310000D01*
X141140000Y-73640000D01*
G36*
X141140000Y-73640000D02*
G01*
X140900000Y-73310000D01*
X141380000Y-73310000D01*
X141140000Y-73640000D01*
G37*
%TO.C,J3*%
X139000000Y-58600000D02*
X139000000Y-54360000D01*
X139000000Y-61620000D02*
X139000000Y-60100000D01*
X140500000Y-61620000D02*
X139000000Y-61620000D01*
X148500000Y-58600000D02*
X148500000Y-54360000D01*
X148500000Y-61620000D02*
X147000000Y-61620000D01*
X148500000Y-61620000D02*
X148500000Y-60100000D01*
%TO.C,SW1*%
X108892500Y-52650000D02*
X108892500Y-53850000D01*
X108892500Y-61850000D02*
X108892500Y-60650000D01*
X113092500Y-52650000D02*
X108892500Y-52650000D01*
X113092500Y-53000000D02*
X113092500Y-52650000D01*
X113092500Y-60650000D02*
X113092500Y-61850000D01*
X113092500Y-61850000D02*
X108892500Y-61850000D01*
X113572500Y-53750000D02*
X113092500Y-53750000D01*
X113092500Y-53270000D01*
X113572500Y-53750000D01*
G36*
X113572500Y-53750000D02*
G01*
X113092500Y-53750000D01*
X113092500Y-53270000D01*
X113572500Y-53750000D01*
G37*
%TD*%
%LPC*%
D12*
%TO.C,R19*%
X151335000Y-84500000D03*
X151975000Y-84500000D03*
%TD*%
%TO.C,C7*%
X151335000Y-82750000D03*
X151975000Y-82750000D03*
%TD*%
D13*
%TO.C,FB1*%
X158750000Y-68350000D03*
X158750000Y-66150000D03*
%TD*%
D12*
%TO.C,C10*%
X138500000Y-79750000D03*
X139140000Y-79750000D03*
%TD*%
%TO.C,R6*%
X152680000Y-63000000D03*
X153320000Y-63000000D03*
%TD*%
D14*
%TO.C,R12*%
X153890000Y-69000000D03*
X153250000Y-69000000D03*
%TD*%
D15*
%TO.C,R15*%
X125500000Y-56000000D03*
X125500000Y-56640000D03*
%TD*%
D14*
%TO.C,R11*%
X166000000Y-72000000D03*
X165360000Y-72000000D03*
%TD*%
D12*
%TO.C,C3*%
X152680000Y-75250000D03*
X153320000Y-75250000D03*
%TD*%
D14*
%TO.C,R13*%
X176390000Y-71500000D03*
X175750000Y-71500000D03*
%TD*%
%TO.C,R17*%
X147000000Y-84500000D03*
X146360000Y-84500000D03*
%TD*%
D12*
%TO.C,R2*%
X127180000Y-64500000D03*
X127820000Y-64500000D03*
%TD*%
%TO.C,R8*%
X142860000Y-71500000D03*
X143500000Y-71500000D03*
%TD*%
D16*
%TO.C,M1*%
X110200000Y-85375000D03*
D17*
X112740000Y-85375000D03*
X115280000Y-85375000D03*
%TD*%
D18*
%TO.C,R9*%
X149250000Y-71500000D03*
X149250000Y-70860000D03*
%TD*%
%TO.C,C9*%
X154250000Y-81070000D03*
X154250000Y-80430000D03*
%TD*%
D19*
%TO.C,J1*%
X158850000Y-60610000D03*
D20*
X151650000Y-60610000D03*
D21*
X158000000Y-61270000D03*
X157500000Y-61270000D03*
X157000000Y-61270000D03*
X156500000Y-61270000D03*
X156000000Y-61270000D03*
X155500000Y-61270000D03*
X155000000Y-61270000D03*
X154500000Y-61270000D03*
X154000000Y-61270000D03*
X153500000Y-61270000D03*
X153000000Y-61270000D03*
X152500000Y-61270000D03*
D19*
X152450000Y-59960000D03*
X152850000Y-59260000D03*
X153650000Y-59260000D03*
X154050000Y-59960000D03*
X154450000Y-59260000D03*
X154850000Y-59960000D03*
X155650000Y-59960000D03*
X156050000Y-59260000D03*
X156450000Y-59960000D03*
X156850000Y-59260000D03*
X157650000Y-59260000D03*
X158050000Y-59960000D03*
D22*
X159740000Y-53410000D03*
X159380000Y-59360000D03*
X151120000Y-59360000D03*
X150760000Y-53410000D03*
%TD*%
D16*
%TO.C,M2*%
X119200000Y-77875000D03*
D17*
X121740000Y-77875000D03*
X124280000Y-77875000D03*
%TD*%
D14*
%TO.C,R3*%
X134570000Y-64000000D03*
X133930000Y-64000000D03*
%TD*%
D23*
%TO.C,J6*%
X178215000Y-59030000D03*
X166785000Y-59030000D03*
D24*
X166175000Y-55650000D03*
X168715000Y-54130000D03*
X176285000Y-55650000D03*
X178825000Y-54130000D03*
D25*
X176945000Y-65370000D03*
D26*
X175675000Y-67910000D03*
X174405000Y-65370000D03*
X173135000Y-67910000D03*
X171865000Y-65370000D03*
X170595000Y-67910000D03*
X169325000Y-65370000D03*
X168055000Y-67910000D03*
D27*
X180275000Y-62080000D03*
X164725000Y-62080000D03*
%TD*%
D14*
%TO.C,C1*%
X138570000Y-69250000D03*
X137930000Y-69250000D03*
%TD*%
%TO.C,R16*%
X148070000Y-62750000D03*
X147430000Y-62750000D03*
%TD*%
D12*
%TO.C,R5*%
X141180000Y-72250000D03*
X141820000Y-72250000D03*
%TD*%
D14*
%TO.C,R7*%
X157070000Y-62750000D03*
X156430000Y-62750000D03*
%TD*%
D15*
%TO.C,C4*%
X154750000Y-76750000D03*
X154750000Y-77390000D03*
%TD*%
D14*
%TO.C,R1*%
X143570000Y-66250000D03*
X142930000Y-66250000D03*
%TD*%
D19*
%TO.C,J4*%
X135850000Y-60610000D03*
D20*
X128650000Y-60610000D03*
D21*
X135000000Y-61270000D03*
X134500000Y-61270000D03*
X134000000Y-61270000D03*
X133500000Y-61270000D03*
X133000000Y-61270000D03*
X132500000Y-61270000D03*
X132000000Y-61270000D03*
X131500000Y-61270000D03*
X131000000Y-61270000D03*
X130500000Y-61270000D03*
X130000000Y-61270000D03*
X129500000Y-61270000D03*
D19*
X129450000Y-59960000D03*
X129850000Y-59260000D03*
X130650000Y-59260000D03*
X131050000Y-59960000D03*
X131450000Y-59260000D03*
X131850000Y-59960000D03*
X132650000Y-59960000D03*
X133050000Y-59260000D03*
X133450000Y-59960000D03*
X133850000Y-59260000D03*
X134650000Y-59260000D03*
X135050000Y-59960000D03*
D22*
X136740000Y-53410000D03*
X136380000Y-59360000D03*
X128120000Y-59360000D03*
X127760000Y-53410000D03*
%TD*%
D15*
%TO.C,R10*%
X168500000Y-73680000D03*
X168500000Y-74320000D03*
%TD*%
D28*
%TO.C,Y2*%
X139825000Y-70725000D03*
X141675000Y-70725000D03*
X141675000Y-69275000D03*
X139825000Y-69275000D03*
%TD*%
D14*
%TO.C,C5*%
X138500000Y-73250000D03*
X137860000Y-73250000D03*
%TD*%
D12*
%TO.C,C11*%
X153360000Y-83750000D03*
X154000000Y-83750000D03*
%TD*%
D16*
%TO.C,M3*%
X119200000Y-85375000D03*
D17*
X121740000Y-85375000D03*
X124280000Y-85375000D03*
%TD*%
D18*
%TO.C,C8*%
X135750000Y-74070000D03*
X135750000Y-73430000D03*
%TD*%
%TO.C,C2*%
X138000000Y-71070000D03*
X138000000Y-70430000D03*
%TD*%
D12*
%TO.C,C6*%
X151180000Y-73000000D03*
X151820000Y-73000000D03*
%TD*%
D16*
%TO.C,M4*%
X110200000Y-77875000D03*
D17*
X112740000Y-77875000D03*
X115280000Y-77875000D03*
%TD*%
D29*
%TO.C,U2*%
X141312500Y-74500000D03*
X141312500Y-75000000D03*
X141312500Y-75500000D03*
X141312500Y-76000000D03*
X141312500Y-76500000D03*
X141312500Y-77000000D03*
X141312500Y-77500000D03*
X141312500Y-78000000D03*
X141312500Y-78500000D03*
X141312500Y-79000000D03*
X141312500Y-79500000D03*
X141312500Y-80000000D03*
X141312500Y-80500000D03*
X141312500Y-81000000D03*
X141312500Y-81500000D03*
X141312500Y-82000000D03*
D30*
X142000000Y-82687500D03*
X142500000Y-82687500D03*
X143000000Y-82687500D03*
X143500000Y-82687500D03*
X144000000Y-82687500D03*
X144500000Y-82687500D03*
X145000000Y-82687500D03*
X145500000Y-82687500D03*
X146000000Y-82687500D03*
X146500000Y-82687500D03*
X147000000Y-82687500D03*
X147500000Y-82687500D03*
X148000000Y-82687500D03*
X148500000Y-82687500D03*
X149000000Y-82687500D03*
X149500000Y-82687500D03*
D29*
X150187500Y-82000000D03*
X150187500Y-81500000D03*
X150187500Y-81000000D03*
X150187500Y-80500000D03*
X150187500Y-80000000D03*
X150187500Y-79500000D03*
X150187500Y-79000000D03*
X150187500Y-78500000D03*
X150187500Y-78000000D03*
X150187500Y-77500000D03*
X150187500Y-77000000D03*
X150187500Y-76500000D03*
X150187500Y-76000000D03*
X150187500Y-75500000D03*
X150187500Y-75000000D03*
X150187500Y-74500000D03*
D30*
X149500000Y-73812500D03*
X149000000Y-73812500D03*
X148500000Y-73812500D03*
X148000000Y-73812500D03*
X147500000Y-73812500D03*
X147000000Y-73812500D03*
X146500000Y-73812500D03*
X146000000Y-73812500D03*
X145500000Y-73812500D03*
X145000000Y-73812500D03*
X144500000Y-73812500D03*
X144000000Y-73812500D03*
X143500000Y-73812500D03*
X143000000Y-73812500D03*
X142500000Y-73812500D03*
X142000000Y-73812500D03*
D31*
X145750000Y-78250000D03*
%TD*%
D19*
%TO.C,J3*%
X147350000Y-60610000D03*
D20*
X140150000Y-60610000D03*
D21*
X146500000Y-61270000D03*
X146000000Y-61270000D03*
X145500000Y-61270000D03*
X145000000Y-61270000D03*
X144500000Y-61270000D03*
X144000000Y-61270000D03*
X143500000Y-61270000D03*
X143000000Y-61270000D03*
X142500000Y-61270000D03*
X142000000Y-61270000D03*
X141500000Y-61270000D03*
X141000000Y-61270000D03*
D19*
X140950000Y-59960000D03*
X141350000Y-59260000D03*
X142150000Y-59260000D03*
X142550000Y-59960000D03*
X142950000Y-59260000D03*
X143350000Y-59960000D03*
X144150000Y-59960000D03*
X144550000Y-59260000D03*
X144950000Y-59960000D03*
X145350000Y-59260000D03*
X146150000Y-59260000D03*
X146550000Y-59960000D03*
D22*
X148240000Y-53410000D03*
X147880000Y-59360000D03*
X139620000Y-59360000D03*
X139260000Y-53410000D03*
%TD*%
D14*
%TO.C,R14*%
X169500000Y-76500000D03*
X168860000Y-76500000D03*
%TD*%
%TO.C,R4*%
X145820000Y-66250000D03*
X145180000Y-66250000D03*
%TD*%
D18*
%TO.C,R18*%
X138500000Y-83640000D03*
X138500000Y-83000000D03*
%TD*%
D32*
%TO.C,SW1*%
X112642500Y-54750000D03*
D22*
X112642500Y-57250000D03*
X112642500Y-59750000D03*
X109342500Y-59750000D03*
X109342500Y-57250000D03*
X109342500Y-54750000D03*
%TD*%
%LPD*%
M02*
