%TF.GenerationSoftware,KiCad,Pcbnew,9.0.2*%
%TF.CreationDate,2025-07-05T10:38:59-05:00*%
%TF.ProjectId,main,6d61696e-2e6b-4696-9361-645f70636258,rev?*%
%TF.SameCoordinates,Original*%
%TF.FileFunction,Copper,L2,Bot*%
%TF.FilePolarity,Positive*%
%FSLAX46Y46*%
G04 Gerber Fmt 4.6, Leading zero omitted, Abs format (unit mm)*
G04 Created by KiCad (PCBNEW 9.0.2) date 2025-07-05 10:38:59*
%MOMM*%
%LPD*%
G01*
G04 APERTURE LIST*
G04 Aperture macros list*
%AMRoundRect*
0 Rectangle with rounded corners*
0 $1 Rounding radius*
0 $2 $3 $4 $5 $6 $7 $8 $9 X,Y pos of 4 corners*
0 Add a 4 corners polygon primitive as box body*
4,1,4,$2,$3,$4,$5,$6,$7,$8,$9,$2,$3,0*
0 Add four circle primitives for the rounded corners*
1,1,$1+$1,$2,$3*
1,1,$1+$1,$4,$5*
1,1,$1+$1,$6,$7*
1,1,$1+$1,$8,$9*
0 Add four rect primitives between the rounded corners*
20,1,$1+$1,$2,$3,$4,$5,0*
20,1,$1+$1,$4,$5,$6,$7,0*
20,1,$1+$1,$6,$7,$8,$9,0*
20,1,$1+$1,$8,$9,$2,$3,0*%
G04 Aperture macros list end*
%TA.AperFunction,ComponentPad*%
%ADD10C,2.600000*%
%TD*%
%TA.AperFunction,ComponentPad*%
%ADD11C,1.900000*%
%TD*%
%TA.AperFunction,ComponentPad*%
%ADD12R,1.900000X1.900000*%
%TD*%
%TA.AperFunction,ComponentPad*%
%ADD13C,1.890000*%
%TD*%
%TA.AperFunction,ComponentPad*%
%ADD14C,1.400000*%
%TD*%
%TA.AperFunction,ComponentPad*%
%ADD15RoundRect,0.250000X-0.450000X0.450000X-0.450000X-0.450000X0.450000X-0.450000X0.450000X0.450000X0*%
%TD*%
%TA.AperFunction,ComponentPad*%
%ADD16R,1.730000X2.030000*%
%TD*%
%TA.AperFunction,ComponentPad*%
%ADD17O,1.730000X2.030000*%
%TD*%
%TA.AperFunction,ViaPad*%
%ADD18C,0.600000*%
%TD*%
%TA.AperFunction,Conductor*%
%ADD19C,0.200000*%
%TD*%
G04 APERTURE END LIST*
D10*
%TO.P,J6,SH*%
%TO.N,gnd*%
X164725000Y-62080000D03*
X180275000Y-62080000D03*
D11*
%TO.P,J6,R8*%
X168055000Y-67910000D03*
%TO.P,J6,R7,NC*%
%TO.N,unconnected-(J6-NC-PadR7)*%
X169325000Y-65370000D03*
%TO.P,J6,R6,RD-*%
%TO.N,Net-(J6-RD-)*%
X170595000Y-67910000D03*
%TO.P,J6,R5,RCT*%
%TO.N,Net-(J6-RCT)*%
X171865000Y-65370000D03*
%TO.P,J6,R4,TCT*%
X173135000Y-67910000D03*
%TO.P,J6,R3,RD+*%
%TO.N,Net-(J6-RD+)*%
X174405000Y-65370000D03*
%TO.P,J6,R2,TD-*%
%TO.N,Net-(J6-TD-)*%
X175675000Y-67910000D03*
D12*
%TO.P,J6,R1,TD+*%
%TO.N,Net-(J6-TD+)*%
X176945000Y-65370000D03*
D13*
%TO.P,J6,L4*%
%TO.N,unconnected-(J6-PadL4)*%
X178825000Y-54130000D03*
%TO.P,J6,L3*%
%TO.N,unconnected-(J6-PadL3)*%
X176285000Y-55650000D03*
%TO.P,J6,L2*%
%TO.N,unconnected-(J6-PadL2)*%
X168715000Y-54130000D03*
%TO.P,J6,L1*%
%TO.N,unconnected-(J6-PadL1)*%
X166175000Y-55650000D03*
%TD*%
D14*
%TO.P,SW1,6*%
%TO.N,N/C*%
X109342500Y-54750000D03*
%TO.P,SW1,5*%
X109342500Y-57250000D03*
%TO.P,SW1,4*%
X109342500Y-59750000D03*
%TO.P,SW1,3,C*%
%TO.N,VBUSUP*%
X112642500Y-59750000D03*
%TO.P,SW1,2,B*%
X112642500Y-57250000D03*
D15*
%TO.P,SW1,1,A*%
%TO.N,Net-(M1-+)*%
X112642500Y-54750000D03*
%TD*%
D16*
%TO.P,M1,1,-*%
%TO.N,gnd*%
X110200000Y-85375000D03*
D17*
%TO.P,M1,2,+*%
%TO.N,Net-(M1-+)*%
X112740000Y-85375000D03*
%TO.P,M1,3,Tacho*%
%TO.N,unconnected-(M1-Tacho-Pad3)*%
X115280000Y-85375000D03*
%TD*%
D16*
%TO.P,M2,1,-*%
%TO.N,gnd*%
X119200000Y-77875000D03*
D17*
%TO.P,M2,2,+*%
%TO.N,Net-(M1-+)*%
X121740000Y-77875000D03*
%TO.P,M2,3,Tacho*%
%TO.N,unconnected-(M2-Tacho-Pad3)*%
X124280000Y-77875000D03*
%TD*%
D16*
%TO.P,M3,1,-*%
%TO.N,gnd*%
X119200000Y-85375000D03*
D17*
%TO.P,M3,2,+*%
%TO.N,Net-(M1-+)*%
X121740000Y-85375000D03*
%TO.P,M3,3,Tacho*%
%TO.N,unconnected-(M3-Tacho-Pad3)*%
X124280000Y-85375000D03*
%TD*%
D16*
%TO.P,M4,1,-*%
%TO.N,gnd*%
X110200000Y-77875000D03*
D17*
%TO.P,M4,2,+*%
%TO.N,Net-(M1-+)*%
X112740000Y-77875000D03*
%TO.P,M4,3,Tacho*%
%TO.N,unconnected-(M4-Tacho-Pad3)*%
X115280000Y-77875000D03*
%TD*%
D18*
%TO.N,VBUSUP*%
X153250000Y-81750000D03*
X152500000Y-78750000D03*
X145000000Y-83999000D03*
%TO.N,D+UP*%
X144500000Y-70000000D03*
X149500000Y-64500000D03*
%TO.N,D-UP*%
X145150000Y-71668622D03*
X157000000Y-71250000D03*
X153500000Y-72250000D03*
%TO.N,Net-(C7-Pad2)*%
X153178688Y-82733983D03*
X158000000Y-82750000D03*
%TO.N,Net-(J4-CC2)*%
X128000000Y-63750000D03*
X131750000Y-56250000D03*
%TO.N,Net-(C5-Pad2)*%
X138250000Y-65500000D03*
X137750000Y-72500000D03*
%TO.N,D+DOWN1*%
X135665380Y-62665380D03*
X138509586Y-74450000D03*
X134750000Y-61000000D03*
%TO.N,D-DOWN1*%
X139709311Y-74350000D03*
X136750000Y-75100000D03*
X134250000Y-75000000D03*
X133000000Y-64500000D03*
%TO.N,D+DOWN1*%
X132890000Y-60536768D03*
X132750000Y-55500000D03*
%TO.N,Net-(U2B-PRTCTL3)*%
X130750000Y-62750000D03*
X134190000Y-60400000D03*
X140942189Y-82800000D03*
%TO.N,Net-(U2B-PRTCTL2)*%
X140052068Y-81203889D03*
X127500000Y-80750000D03*
%TO.N,D-DOWN2*%
X138422378Y-75943768D03*
%TO.N,D+DOWN2*%
X139562679Y-77048547D03*
X135750000Y-76250000D03*
%TO.N,Net-(J2-CC2)*%
X142040380Y-64790380D03*
X142709311Y-55900000D03*
%TO.N,D-DOWN2*%
X143530399Y-60800361D03*
X143993227Y-56096832D03*
%TO.N,Net-(C5-Pad2)*%
X129250000Y-53300000D03*
X135750000Y-53300000D03*
%TO.N,Net-(C6-Pad2)*%
X140250000Y-53300000D03*
X147250000Y-53300000D03*
%TO.N,Net-(C7-Pad2)*%
X152000000Y-57000000D03*
X150906400Y-53750000D03*
%TO.N,VBUSUP*%
X154250000Y-60500000D03*
X154250000Y-54500000D03*
%TO.N,D-UP*%
X155591956Y-56007801D03*
X154996400Y-60988589D03*
%TO.N,Net-(C6-Pad2)*%
X151634620Y-71465380D03*
X148417295Y-67067630D03*
%TO.N,gnd*%
X138650000Y-71314190D03*
X140050000Y-72617463D03*
X150699000Y-72562857D03*
X142130433Y-67636779D03*
X148928407Y-72400000D03*
X151750000Y-80500000D03*
X139676370Y-83191444D03*
X145750000Y-78250000D03*
X138229539Y-80060299D03*
X120000000Y-66500000D03*
X153750000Y-76250000D03*
%TO.N,VBUSUP*%
X136552602Y-65984984D03*
X131084620Y-70334620D03*
X137250000Y-68500000D03*
%TO.N,Net-(J6-RCT)*%
X171100000Y-76500000D03*
X154500000Y-75000000D03*
X168000000Y-78750000D03*
%TO.N,Net-(U2A-VDD18ETHPLL)*%
X154593606Y-69328532D03*
X153750000Y-74500000D03*
%TO.N,Net-(U2A-VDD18USBPLL)*%
X153511361Y-67321359D03*
X136450000Y-72598240D03*
X142750000Y-72500000D03*
%TO.N,Net-(C10-Pad2)*%
X140325165Y-78582120D03*
X139239768Y-81454235D03*
%TO.N,Net-(J6-RD-)*%
X170104215Y-73670000D03*
X167000000Y-71350000D03*
%TO.N,Net-(J6-TD-)*%
X153682838Y-65373755D03*
X151554007Y-67753395D03*
%TO.N,Net-(J6-TD+)*%
X179250000Y-72500000D03*
%TO.N,VDD33A*%
X152281361Y-68982317D03*
X164750000Y-72250000D03*
X146142160Y-69768374D03*
%TO.N,Net-(U2B-VBUS_DET)*%
X142260927Y-83649899D03*
X137224953Y-83644193D03*
%TD*%
D19*
%TO.N,gnd*%
X164725000Y-62080000D02*
X180275000Y-62080000D01*
%TO.N,VBUSUP*%
X153250000Y-79500000D02*
X152500000Y-78750000D01*
X153250000Y-81750000D02*
X153250000Y-79500000D01*
%TO.N,Net-(C7-Pad2)*%
X153194705Y-82750000D02*
X153178688Y-82733983D01*
X158000000Y-82750000D02*
X153194705Y-82750000D01*
%TO.N,gnd*%
X139884926Y-83400000D02*
X139676370Y-83191444D01*
X141982000Y-83028927D02*
X141610927Y-83400000D01*
X142579684Y-83028927D02*
X141982000Y-83028927D01*
X144450000Y-83400000D02*
X142950757Y-83400000D01*
X145750000Y-82100000D02*
X144450000Y-83400000D01*
X145750000Y-78250000D02*
X145750000Y-82100000D01*
%TO.N,VBUSUP*%
X144749000Y-84250000D02*
X145000000Y-83999000D01*
%TO.N,Net-(U2B-VBUS_DET)*%
X142094379Y-83816447D02*
X142260927Y-83649899D01*
X137397207Y-83816447D02*
X142094379Y-83816447D01*
X137224953Y-83644193D02*
X137397207Y-83816447D01*
%TO.N,gnd*%
X142950757Y-83400000D02*
X142579684Y-83028927D01*
%TO.N,Net-(U2B-PRTCTL3)*%
X140683633Y-82541444D02*
X140942189Y-82800000D01*
X137041444Y-82541444D02*
X140683633Y-82541444D01*
X136000000Y-81500000D02*
X137041444Y-82541444D01*
X126900000Y-81500000D02*
X136000000Y-81500000D01*
X126900000Y-77850000D02*
X126900000Y-81500000D01*
X132250000Y-72500000D02*
X126900000Y-77850000D01*
X130750000Y-62750000D02*
X132250000Y-64250000D01*
%TO.N,gnd*%
X141610927Y-83400000D02*
X139884926Y-83400000D01*
%TO.N,VBUSUP*%
X126500000Y-74919240D02*
X126500000Y-84250000D01*
%TO.N,Net-(U2B-PRTCTL3)*%
X132250000Y-64250000D02*
X132250000Y-72500000D01*
%TO.N,VBUSUP*%
X131084620Y-70334620D02*
X126500000Y-74919240D01*
X126500000Y-84250000D02*
X144749000Y-84250000D01*
X138037586Y-64500000D02*
X136552602Y-65984984D01*
%TO.N,D-DOWN2*%
X136080761Y-75750000D02*
X138228610Y-75750000D01*
X135015380Y-62934619D02*
X135250000Y-63169239D01*
X135015380Y-62396141D02*
X135015380Y-62934619D01*
X136765380Y-62015380D02*
X135396141Y-62015380D01*
X137350000Y-62600000D02*
X136765380Y-62015380D01*
%TO.N,VBUSUP*%
X140750000Y-66500000D02*
X138750000Y-64500000D01*
%TO.N,D-DOWN2*%
X137519239Y-62600000D02*
X137350000Y-62600000D01*
X135396141Y-62015380D02*
X135015380Y-62396141D01*
X141650000Y-66100000D02*
X141019239Y-66100000D01*
X143530399Y-64219601D02*
X141650000Y-66100000D01*
X143530399Y-60800361D02*
X143530399Y-64219601D01*
%TO.N,Net-(C5-Pad2)*%
X137000000Y-70000000D02*
X137000000Y-71750000D01*
X138250000Y-67565685D02*
X138250000Y-68750000D01*
%TO.N,D-DOWN2*%
X135250000Y-63169239D02*
X135250000Y-75500000D01*
%TO.N,Net-(C5-Pad2)*%
X137850000Y-66584315D02*
X137850000Y-67165685D01*
%TO.N,VBUSUP*%
X142500000Y-66500000D02*
X140750000Y-66500000D01*
%TO.N,Net-(C5-Pad2)*%
X138250000Y-66184315D02*
X137850000Y-66584315D01*
%TO.N,D-DOWN2*%
X138228610Y-75750000D02*
X138422378Y-75943768D01*
%TO.N,Net-(C5-Pad2)*%
X137850000Y-67165685D02*
X138250000Y-67565685D01*
%TO.N,D-DOWN2*%
X135250000Y-75500000D02*
X135830761Y-75500000D01*
%TO.N,Net-(C5-Pad2)*%
X138250000Y-68750000D02*
X137000000Y-70000000D01*
%TO.N,gnd*%
X140693982Y-67636779D02*
X142130433Y-67636779D01*
X138400000Y-71064190D02*
X138400000Y-69930761D01*
%TO.N,Net-(C5-Pad2)*%
X137000000Y-71750000D02*
X137750000Y-72500000D01*
%TO.N,D-DOWN2*%
X135830761Y-75500000D02*
X136080761Y-75750000D01*
%TO.N,VBUSUP*%
X138750000Y-64500000D02*
X138037586Y-64500000D01*
%TO.N,gnd*%
X138400000Y-69930761D02*
X140693982Y-67636779D01*
X138650000Y-71314190D02*
X138400000Y-71064190D01*
%TO.N,D-DOWN2*%
X141019239Y-66100000D02*
X137519239Y-62600000D01*
%TO.N,Net-(C5-Pad2)*%
X138250000Y-65500000D02*
X138250000Y-66184315D01*
%TO.N,VBUSUP*%
X148500000Y-60500000D02*
X142500000Y-66500000D01*
X154250000Y-60500000D02*
X148500000Y-60500000D01*
%TO.N,D-UP*%
X155250000Y-56349757D02*
X155591956Y-56007801D01*
X155250000Y-60734989D02*
X155250000Y-56349757D01*
X154996400Y-60988589D02*
X155250000Y-60734989D01*
%TO.N,D+UP*%
X144500000Y-69250000D02*
X149250000Y-64500000D01*
X144500000Y-70000000D02*
X144500000Y-69250000D01*
%TO.N,Net-(U2A-VDD18USBPLL)*%
X152905282Y-67321359D02*
X153511361Y-67321359D01*
X151631361Y-68595280D02*
X152905282Y-67321359D01*
X151476652Y-68595280D02*
X151631361Y-68595280D01*
X150150000Y-67268628D02*
X151476652Y-68595280D01*
X149915686Y-63600000D02*
X150150000Y-63834314D01*
X149215686Y-63600000D02*
X149915686Y-63600000D01*
X143769239Y-69046447D02*
X149215686Y-63600000D01*
X143769239Y-69650000D02*
X143769239Y-69046447D01*
X143600000Y-69650000D02*
X143769239Y-69650000D01*
X142750000Y-70500000D02*
X143600000Y-69650000D01*
%TO.N,D+UP*%
X149250000Y-64500000D02*
X149500000Y-64500000D01*
%TO.N,Net-(C6-Pad2)*%
X151500000Y-69750000D02*
X148817630Y-67067630D01*
X151500000Y-71330760D02*
X151500000Y-69750000D01*
%TO.N,VDD33A*%
X146600000Y-69310534D02*
X146142160Y-69768374D01*
X146600000Y-67965686D02*
X146600000Y-69310534D01*
X148374665Y-66191021D02*
X146600000Y-67965686D01*
X148506707Y-66191021D02*
X148374665Y-66191021D01*
X151789682Y-69473996D02*
X148506707Y-66191021D01*
%TO.N,Net-(U2A-VDD18USBPLL)*%
X150150000Y-63834314D02*
X150150000Y-67268628D01*
%TO.N,VDD33A*%
X152281361Y-68982317D02*
X151789682Y-69473996D01*
%TO.N,D-UP*%
X145231378Y-71750000D02*
X145150000Y-71668622D01*
%TO.N,Net-(C6-Pad2)*%
X151634620Y-71465380D02*
X151500000Y-71330760D01*
%TO.N,D-UP*%
X151000000Y-71750000D02*
X145231378Y-71750000D01*
X153500000Y-72250000D02*
X151500000Y-72250000D01*
X151500000Y-72250000D02*
X151000000Y-71750000D01*
%TO.N,Net-(C6-Pad2)*%
X148817630Y-67067630D02*
X148417295Y-67067630D01*
%TO.N,Net-(U2A-VDD18USBPLL)*%
X142750000Y-72500000D02*
X142750000Y-70500000D01*
%TO.N,gnd*%
X149013537Y-72314870D02*
X148928407Y-72400000D01*
X150699000Y-72562857D02*
X150451013Y-72314870D01*
X145750000Y-74400000D02*
X147750000Y-72400000D01*
X145750000Y-78250000D02*
X145750000Y-74400000D01*
X150451013Y-72314870D02*
X149013537Y-72314870D01*
%TO.N,VDD33A*%
X156100000Y-69915686D02*
X154596400Y-68412085D01*
X156730761Y-71900000D02*
X156100000Y-71269239D01*
X159650000Y-71900000D02*
X156730761Y-71900000D01*
X156100000Y-71269239D02*
X156100000Y-69915686D01*
X160000000Y-72250000D02*
X159650000Y-71900000D01*
X154596400Y-68412085D02*
X154026168Y-68982317D01*
X154026168Y-68982317D02*
X152281361Y-68982317D01*
%TO.N,D-UP*%
X154996400Y-68246400D02*
X157000000Y-70250000D01*
X154996400Y-60988589D02*
X154996400Y-68246400D01*
%TO.N,VDD33A*%
X164750000Y-72250000D02*
X160000000Y-72250000D01*
%TO.N,Net-(U2A-VDD18ETHPLL)*%
X155000000Y-69734926D02*
X154593606Y-69328532D01*
X153750000Y-74500000D02*
X155000000Y-73250000D01*
%TO.N,D-UP*%
X157000000Y-70250000D02*
X157000000Y-71250000D01*
%TO.N,gnd*%
X147750000Y-72400000D02*
X148928407Y-72400000D01*
%TO.N,Net-(U2A-VDD18ETHPLL)*%
X155000000Y-73250000D02*
X155000000Y-69734926D01*
%TO.N,Net-(J4-CC2)*%
X129710900Y-56460900D02*
X129710900Y-62039100D01*
X131750000Y-56250000D02*
X129500000Y-56250000D01*
X129500000Y-56250000D02*
X129710900Y-56460900D01*
X129710900Y-62039100D02*
X128000000Y-63750000D01*
%TO.N,D+DOWN1*%
X135665380Y-66017001D02*
X135665380Y-62665380D01*
X136250000Y-66601621D02*
X135665380Y-66017001D01*
X136250000Y-71948240D02*
X136250000Y-66601621D01*
X135800000Y-72398240D02*
X136250000Y-71948240D01*
X135800000Y-72867479D02*
X135800000Y-72398240D01*
X136250000Y-73317479D02*
X135800000Y-72867479D01*
X136250000Y-74250000D02*
X136250000Y-73317479D01*
X136450000Y-74450000D02*
X136250000Y-74250000D01*
%TO.N,Net-(U2A-VDD18USBPLL)*%
X136650000Y-72798240D02*
X136450000Y-72598240D01*
X136650000Y-73804439D02*
X136650000Y-72798240D01*
X136695561Y-73850000D02*
X136650000Y-73804439D01*
X138480761Y-73850000D02*
X136695561Y-73850000D01*
X139400000Y-72930761D02*
X138480761Y-73850000D01*
X142750000Y-71118630D02*
X141831370Y-70200000D01*
X142750000Y-72500000D02*
X142750000Y-71118630D01*
%TO.N,D+DOWN1*%
X138509586Y-74450000D02*
X136450000Y-74450000D01*
%TO.N,Net-(U2A-VDD18USBPLL)*%
X140615686Y-70200000D02*
X139400000Y-71415686D01*
X139400000Y-71415686D02*
X139400000Y-72930761D01*
%TO.N,VBUSUP*%
X136693700Y-65984984D02*
X136552602Y-65984984D01*
X137250000Y-68500000D02*
X137250000Y-66541284D01*
%TO.N,Net-(U2A-VDD18USBPLL)*%
X141831370Y-70200000D02*
X140615686Y-70200000D01*
%TO.N,VBUSUP*%
X137250000Y-66541284D02*
X136693700Y-65984984D01*
%TO.N,D+DOWN1*%
X133676768Y-59750000D02*
X132890000Y-60536768D01*
X135250000Y-59750000D02*
X133676768Y-59750000D01*
%TO.N,Net-(U2B-PRTCTL3)*%
X133889998Y-60700002D02*
X134190000Y-60400000D01*
X133280000Y-62750000D02*
X133889998Y-62140002D01*
X130750000Y-62750000D02*
X133280000Y-62750000D01*
%TO.N,D+DOWN1*%
X135250000Y-60500000D02*
X135250000Y-59750000D01*
X134750000Y-61000000D02*
X135250000Y-60500000D01*
%TO.N,Net-(U2B-PRTCTL3)*%
X133889998Y-62140002D02*
X133889998Y-60700002D01*
%TO.N,D-DOWN1*%
X136800000Y-75150000D02*
X136750000Y-75100000D01*
X138909311Y-75150000D02*
X136800000Y-75150000D01*
%TO.N,D+DOWN2*%
X138607918Y-77048547D02*
X139562679Y-77048547D01*
X137849339Y-76289968D02*
X138607918Y-77048547D01*
X136870729Y-76289968D02*
X137849339Y-76289968D01*
X136830761Y-76250000D02*
X136870729Y-76289968D01*
X135750000Y-76250000D02*
X136830761Y-76250000D01*
%TO.N,D-DOWN1*%
X139709311Y-74350000D02*
X138909311Y-75150000D01*
X133000000Y-75000000D02*
X134250000Y-75000000D01*
X133000000Y-64500000D02*
X133000000Y-75000000D01*
%TO.N,D+DOWN1*%
X132750000Y-60458635D02*
X132828133Y-60536768D01*
X132750000Y-55500000D02*
X132750000Y-60458635D01*
X132828133Y-60536768D02*
X132890000Y-60536768D01*
%TO.N,Net-(U2B-PRTCTL2)*%
X140052068Y-81679307D02*
X140052068Y-81203889D01*
X138915686Y-82100000D02*
X139631375Y-82100000D01*
X138665686Y-81850000D02*
X138915686Y-82100000D01*
X127500000Y-80750000D02*
X136000000Y-80750000D01*
%TO.N,gnd*%
X139658557Y-78818711D02*
X138416969Y-80060299D01*
X141039317Y-77011292D02*
X139658557Y-78392052D01*
X141039317Y-73606780D02*
X141039317Y-77011292D01*
%TO.N,Net-(U2B-PRTCTL2)*%
X136000000Y-80750000D02*
X137100000Y-81850000D01*
X137100000Y-81850000D02*
X138665686Y-81850000D01*
X139631375Y-82100000D02*
X140052068Y-81679307D01*
%TO.N,gnd*%
X140050000Y-72617463D02*
X141039317Y-73606780D01*
%TO.N,Net-(C10-Pad2)*%
X140367142Y-79713619D02*
X139239768Y-80840993D01*
X140325165Y-78582120D02*
X140367142Y-78624097D01*
%TO.N,gnd*%
X139658557Y-78392052D02*
X139658557Y-78818711D01*
X138416969Y-80060299D02*
X138229539Y-80060299D01*
%TO.N,Net-(C10-Pad2)*%
X140367142Y-78624097D02*
X140367142Y-79713619D01*
X139239768Y-80840993D02*
X139239768Y-81454235D01*
%TO.N,Net-(J2-CC2)*%
X142750000Y-64080760D02*
X142040380Y-64790380D01*
X142750000Y-55940689D02*
X142750000Y-64080760D01*
X142709311Y-55900000D02*
X142750000Y-55940689D01*
%TO.N,VBUSUP*%
X120500000Y-59750000D02*
X131084620Y-70334620D01*
X112642500Y-59750000D02*
X120500000Y-59750000D01*
%TO.N,D-DOWN2*%
X143750000Y-56340059D02*
X143750000Y-60580760D01*
X143750000Y-60580760D02*
X143530399Y-60800361D01*
X143993227Y-56096832D02*
X143750000Y-56340059D01*
%TO.N,Net-(C5-Pad2)*%
X129300000Y-53250000D02*
X129250000Y-53300000D01*
X135700000Y-53250000D02*
X129300000Y-53250000D01*
X135750000Y-53300000D02*
X135700000Y-53250000D01*
%TO.N,Net-(C6-Pad2)*%
X147250000Y-53300000D02*
X140250000Y-53300000D01*
%TO.N,Net-(C7-Pad2)*%
X150906400Y-55906400D02*
X150906400Y-53750000D01*
X152000000Y-57000000D02*
X150906400Y-55906400D01*
%TO.N,VBUSUP*%
X154250000Y-54500000D02*
X154250000Y-60500000D01*
%TO.N,gnd*%
X119200000Y-85375000D02*
X117884000Y-84059000D01*
X168055000Y-65410000D02*
X164725000Y-62080000D01*
X145750000Y-78250000D02*
X144750000Y-78250000D01*
X144750000Y-78250000D02*
X140050000Y-73550000D01*
X120000000Y-67250000D02*
X119200000Y-68050000D01*
X151000000Y-78250000D02*
X145750000Y-78250000D01*
X119200000Y-77875000D02*
X119200000Y-85375000D01*
X111516000Y-84059000D02*
X110200000Y-85375000D01*
X168055000Y-67910000D02*
X168055000Y-65410000D01*
X151750000Y-79000000D02*
X151000000Y-78250000D01*
X153000000Y-76250000D02*
X151000000Y-78250000D01*
X153750000Y-76250000D02*
X153000000Y-76250000D01*
X117884000Y-76559000D02*
X119200000Y-77875000D01*
X110200000Y-85375000D02*
X110200000Y-77875000D01*
X117884000Y-84059000D02*
X111516000Y-84059000D01*
X111516000Y-76559000D02*
X117884000Y-76559000D01*
X119200000Y-68050000D02*
X119200000Y-77875000D01*
X120000000Y-66500000D02*
X120000000Y-67250000D01*
X110200000Y-77875000D02*
X111516000Y-76559000D01*
X140050000Y-73550000D02*
X140050000Y-72617463D01*
X151750000Y-80500000D02*
X151750000Y-79000000D01*
%TO.N,VBUSUP*%
X112642500Y-59750000D02*
X112642500Y-57250000D01*
%TO.N,Net-(J6-RCT)*%
X172019239Y-75800000D02*
X171800000Y-75800000D01*
X154500000Y-75000000D02*
X164250000Y-75000000D01*
X164250000Y-75000000D02*
X168000000Y-78750000D01*
X173135000Y-74684239D02*
X172019239Y-75800000D01*
X173135000Y-67910000D02*
X173135000Y-74684239D01*
X171800000Y-75800000D02*
X171100000Y-76500000D01*
%TO.N,Net-(J6-RD-)*%
X169000000Y-73500000D02*
X167000000Y-71500000D01*
X169934215Y-73500000D02*
X169000000Y-73500000D01*
X170104215Y-73670000D02*
X169934215Y-73500000D01*
X167000000Y-71500000D02*
X167000000Y-71350000D01*
%TO.N,Net-(J6-TD-)*%
X151429007Y-67627586D02*
X151429007Y-67628395D01*
X151429007Y-67628395D02*
X151554007Y-67753395D01*
X153682838Y-65373755D02*
X151429007Y-67627586D01*
%TO.N,Net-(J6-TD+)*%
X176945000Y-70195000D02*
X179250000Y-72500000D01*
X176945000Y-65370000D02*
X176945000Y-70195000D01*
%TD*%
M02*
