%TF.GenerationSoftware,KiCad,Pcbnew,9.0.2*%
%TF.CreationDate,2025-07-05T10:38:59-05:00*%
%TF.ProjectId,main,6d61696e-2e6b-4696-9361-645f70636258,rev?*%
%TF.SameCoordinates,Original*%
%TF.FileFunction,Soldermask,Bot*%
%TF.FilePolarity,Negative*%
%FSLAX46Y46*%
G04 Gerber Fmt 4.6, Leading zero omitted, Abs format (unit mm)*
G04 Created by KiCad (PCBNEW 9.0.2) date 2025-07-05 10:38:59*
%MOMM*%
%LPD*%
G01*
G04 APERTURE LIST*
G04 Aperture macros list*
%AMRoundRect*
0 Rectangle with rounded corners*
0 $1 Rounding radius*
0 $2 $3 $4 $5 $6 $7 $8 $9 X,Y pos of 4 corners*
0 Add a 4 corners polygon primitive as box body*
4,1,4,$2,$3,$4,$5,$6,$7,$8,$9,$2,$3,0*
0 Add four circle primitives for the rounded corners*
1,1,$1+$1,$2,$3*
1,1,$1+$1,$4,$5*
1,1,$1+$1,$6,$7*
1,1,$1+$1,$8,$9*
0 Add four rect primitives between the rounded corners*
20,1,$1+$1,$2,$3,$4,$5,0*
20,1,$1+$1,$4,$5,$6,$7,0*
20,1,$1+$1,$6,$7,$8,$9,0*
20,1,$1+$1,$8,$9,$2,$3,0*%
G04 Aperture macros list end*
%ADD10C,0.660400*%
%ADD11C,2.600000*%
%ADD12C,1.900000*%
%ADD13R,1.900000X1.900000*%
%ADD14C,1.890000*%
%ADD15C,3.250000*%
%ADD16C,1.400000*%
%ADD17RoundRect,0.250000X-0.450000X0.450000X-0.450000X-0.450000X0.450000X-0.450000X0.450000X0.450000X0*%
%ADD18R,1.730000X2.030000*%
%ADD19O,1.730000X2.030000*%
G04 APERTURE END LIST*
D10*
%TO.C,J4*%
X136090000Y-58449999D03*
X129029700Y-58449999D03*
X128750300Y-58449999D03*
%TD*%
%TO.C,J2*%
X147543200Y-58449999D03*
X140482900Y-58449999D03*
X140203500Y-58449999D03*
%TD*%
%TO.C,J1*%
X158996400Y-58449999D03*
X151936100Y-58449999D03*
X151656700Y-58449999D03*
%TD*%
D11*
%TO.C,J6*%
X164725000Y-62080000D03*
X180275000Y-62080000D03*
D12*
X168055000Y-67910000D03*
X169325000Y-65370000D03*
X170595000Y-67910000D03*
X171865000Y-65370000D03*
X173135000Y-67910000D03*
X174405000Y-65370000D03*
X175675000Y-67910000D03*
D13*
X176945000Y-65370000D03*
D14*
X178825000Y-54130000D03*
X176285000Y-55650000D03*
X168715000Y-54130000D03*
X166175000Y-55650000D03*
D15*
X166785000Y-59030000D03*
X178215000Y-59030000D03*
%TD*%
D16*
%TO.C,SW1*%
X109342500Y-54750000D03*
X109342500Y-57250000D03*
X109342500Y-59750000D03*
X112642500Y-59750000D03*
X112642500Y-57250000D03*
D17*
X112642500Y-54750000D03*
%TD*%
D18*
%TO.C,M1*%
X110200000Y-85375000D03*
D19*
X112740000Y-85375000D03*
X115280000Y-85375000D03*
%TD*%
D18*
%TO.C,M2*%
X119200000Y-77875000D03*
D19*
X121740000Y-77875000D03*
X124280000Y-77875000D03*
%TD*%
D18*
%TO.C,M3*%
X119200000Y-85375000D03*
D19*
X121740000Y-85375000D03*
X124280000Y-85375000D03*
%TD*%
D18*
%TO.C,M4*%
X110200000Y-77875000D03*
D19*
X112740000Y-77875000D03*
X115280000Y-77875000D03*
%TD*%
M02*
