%TF.GenerationSoftware,KiCad,Pcbnew,9.0.2*%
%TF.CreationDate,2025-07-05T10:38:59-05:00*%
%TF.ProjectId,main,6d61696e-2e6b-4696-9361-645f70636258,rev?*%
%TF.SameCoordinates,Original*%
%TF.FileFunction,Copper,L1,Top*%
%TF.FilePolarity,Positive*%
%FSLAX46Y46*%
G04 Gerber Fmt 4.6, Leading zero omitted, Abs format (unit mm)*
G04 Created by KiCad (PCBNEW 9.0.2) date 2025-07-05 10:38:59*
%MOMM*%
%LPD*%
G01*
G04 APERTURE LIST*
G04 Aperture macros list*
%AMRoundRect*
0 Rectangle with rounded corners*
0 $1 Rounding radius*
0 $2 $3 $4 $5 $6 $7 $8 $9 X,Y pos of 4 corners*
0 Add a 4 corners polygon primitive as box body*
4,1,4,$2,$3,$4,$5,$6,$7,$8,$9,$2,$3,0*
0 Add four circle primitives for the rounded corners*
1,1,$1+$1,$2,$3*
1,1,$1+$1,$4,$5*
1,1,$1+$1,$6,$7*
1,1,$1+$1,$8,$9*
0 Add four rect primitives between the rounded corners*
20,1,$1+$1,$2,$3,$4,$5,0*
20,1,$1+$1,$4,$5,$6,$7,0*
20,1,$1+$1,$6,$7,$8,$9,0*
20,1,$1+$1,$8,$9,$2,$3,0*%
G04 Aperture macros list end*
%TA.AperFunction,SMDPad,CuDef*%
%ADD10R,0.304800X0.711200*%
%TD*%
%TA.AperFunction,SMDPad,CuDef*%
%ADD11O,0.812800X1.397000*%
%TD*%
%TA.AperFunction,SMDPad,CuDef*%
%ADD12RoundRect,0.100000X0.130000X0.100000X-0.130000X0.100000X-0.130000X-0.100000X0.130000X-0.100000X0*%
%TD*%
%TA.AperFunction,SMDPad,CuDef*%
%ADD13RoundRect,0.100000X0.100000X-0.130000X0.100000X0.130000X-0.100000X0.130000X-0.100000X-0.130000X0*%
%TD*%
%TA.AperFunction,SMDPad,CuDef*%
%ADD14RoundRect,0.100000X-0.130000X-0.100000X0.130000X-0.100000X0.130000X0.100000X-0.130000X0.100000X0*%
%TD*%
%TA.AperFunction,SMDPad,CuDef*%
%ADD15RoundRect,0.100000X-0.100000X0.130000X-0.100000X-0.130000X0.100000X-0.130000X0.100000X0.130000X0*%
%TD*%
%TA.AperFunction,ComponentPad*%
%ADD16C,2.600000*%
%TD*%
%TA.AperFunction,ComponentPad*%
%ADD17C,1.900000*%
%TD*%
%TA.AperFunction,ComponentPad*%
%ADD18R,1.900000X1.900000*%
%TD*%
%TA.AperFunction,ComponentPad*%
%ADD19C,1.890000*%
%TD*%
%TA.AperFunction,ComponentPad*%
%ADD20C,1.400000*%
%TD*%
%TA.AperFunction,ComponentPad*%
%ADD21RoundRect,0.250000X-0.450000X0.450000X-0.450000X-0.450000X0.450000X-0.450000X0.450000X0.450000X0*%
%TD*%
%TA.AperFunction,HeatsinkPad*%
%ADD22R,7.300000X7.300000*%
%TD*%
%TA.AperFunction,SMDPad,CuDef*%
%ADD23RoundRect,0.062500X-0.062500X-0.375000X0.062500X-0.375000X0.062500X0.375000X-0.062500X0.375000X0*%
%TD*%
%TA.AperFunction,SMDPad,CuDef*%
%ADD24RoundRect,0.062500X-0.375000X-0.062500X0.375000X-0.062500X0.375000X0.062500X-0.375000X0.062500X0*%
%TD*%
%TA.AperFunction,SMDPad,CuDef*%
%ADD25R,3.000000X1.400000*%
%TD*%
%TA.AperFunction,ComponentPad*%
%ADD26R,1.730000X2.030000*%
%TD*%
%TA.AperFunction,ComponentPad*%
%ADD27O,1.730000X2.030000*%
%TD*%
%TA.AperFunction,SMDPad,CuDef*%
%ADD28R,1.050000X0.950000*%
%TD*%
%TA.AperFunction,ViaPad*%
%ADD29C,0.600000*%
%TD*%
%TA.AperFunction,Conductor*%
%ADD30C,0.200000*%
%TD*%
G04 APERTURE END LIST*
D10*
%TO.P,J4,A1,GND*%
%TO.N,gnd*%
X135240000Y-59109999D03*
%TO.P,J4,A2,TX1+*%
%TO.N,unconnected-(J4-TX1+-PadA2)*%
X134740001Y-59109999D03*
%TO.P,J4,A3,TX1-*%
%TO.N,unconnected-(J4-TX1--PadA3)*%
X134239999Y-59109999D03*
%TO.P,J4,A4,VBUS*%
%TO.N,Net-(U2B-PRTCTL3)*%
X133740000Y-59109999D03*
%TO.P,J4,A5,CC1*%
%TO.N,Net-(J4-CC1)*%
X133239998Y-59109999D03*
%TO.P,J4,A6,D+*%
%TO.N,D+DOWN1*%
X132740000Y-59109999D03*
%TO.P,J4,A7,D-*%
%TO.N,D-DOWN1*%
X132240000Y-59109999D03*
%TO.P,J4,A8,SBU1*%
%TO.N,unconnected-(J4-SBU1-PadA8)*%
X131739999Y-59109999D03*
%TO.P,J4,A9,VBUS*%
%TO.N,Net-(U2B-PRTCTL3)*%
X131240000Y-59109999D03*
%TO.P,J4,A10,RX2-*%
%TO.N,unconnected-(J4-RX2--PadA10)*%
X130739998Y-59109999D03*
%TO.P,J4,A11,RX2+*%
%TO.N,unconnected-(J4-RX2+-PadA11)*%
X130239999Y-59109999D03*
%TO.P,J4,A12,GND*%
%TO.N,gnd*%
X129740000Y-59109999D03*
%TO.P,J4,B1,GND*%
X129990000Y-57409998D03*
%TO.P,J4,B2,TX2+*%
%TO.N,unconnected-(J4-TX2+-PadB2)*%
X130489999Y-57409998D03*
%TO.P,J4,B3,TX2-*%
%TO.N,unconnected-(J4-TX2--PadB3)*%
X130990000Y-57409998D03*
%TO.P,J4,B4,VBUS*%
%TO.N,Net-(U2B-PRTCTL3)*%
X131489999Y-57409998D03*
%TO.P,J4,B5,CC2*%
%TO.N,Net-(J4-CC2)*%
X131990001Y-57409998D03*
%TO.P,J4,B6,D+*%
%TO.N,D+DOWN1*%
X132490000Y-57409998D03*
%TO.P,J4,B7,D-*%
%TO.N,D-DOWN1*%
X132989999Y-57409998D03*
%TO.P,J4,B8,SBU2*%
%TO.N,unconnected-(J4-SBU2-PadB8)*%
X133490001Y-57409998D03*
%TO.P,J4,B9,VBUS*%
%TO.N,Net-(U2B-PRTCTL3)*%
X133990000Y-57409998D03*
%TO.P,J4,B10,RX1-*%
%TO.N,unconnected-(J4-RX1--PadB10)*%
X134490001Y-57409998D03*
%TO.P,J4,B11,RX1+*%
%TO.N,unconnected-(J4-RX1+-PadB11)*%
X134990000Y-57409998D03*
%TO.P,J4,B12,GND*%
%TO.N,gnd*%
X135489999Y-57409998D03*
D11*
%TO.P,J4,S1,SHIELD*%
%TO.N,Net-(C5-Pad2)*%
X128360001Y-57199999D03*
%TO.P,J4,S2,SHIELD*%
X128000000Y-53750000D03*
%TO.P,J4,S3,SHIELD*%
X136980000Y-53750000D03*
%TO.P,J4,S4,SHIELD*%
X136619999Y-57199999D03*
%TD*%
D10*
%TO.P,J2,A1,GND*%
%TO.N,gnd*%
X146693200Y-59109999D03*
%TO.P,J2,A2,TX1+*%
%TO.N,unconnected-(J2-TX1+-PadA2)*%
X146193201Y-59109999D03*
%TO.P,J2,A3,TX1-*%
%TO.N,unconnected-(J2-TX1--PadA3)*%
X145693199Y-59109999D03*
%TO.P,J2,A4,VBUS*%
%TO.N,Net-(U2B-PRTCTL2)*%
X145193200Y-59109999D03*
%TO.P,J2,A5,CC1*%
%TO.N,Net-(J2-CC1)*%
X144693198Y-59109999D03*
%TO.P,J2,A6,D+*%
%TO.N,D+DOWN2*%
X144193200Y-59109999D03*
%TO.P,J2,A7,D-*%
%TO.N,D-DOWN2*%
X143693200Y-59109999D03*
%TO.P,J2,A8,SBU1*%
%TO.N,unconnected-(J2-SBU1-PadA8)*%
X143193199Y-59109999D03*
%TO.P,J2,A9,VBUS*%
%TO.N,Net-(U2B-PRTCTL2)*%
X142693200Y-59109999D03*
%TO.P,J2,A10,RX2-*%
%TO.N,unconnected-(J2-RX2--PadA10)*%
X142193198Y-59109999D03*
%TO.P,J2,A11,RX2+*%
%TO.N,unconnected-(J2-RX2+-PadA11)*%
X141693199Y-59109999D03*
%TO.P,J2,A12,GND*%
%TO.N,gnd*%
X141193200Y-59109999D03*
%TO.P,J2,B1,GND*%
X141443200Y-57409998D03*
%TO.P,J2,B2,TX2+*%
%TO.N,unconnected-(J2-TX2+-PadB2)*%
X141943199Y-57409998D03*
%TO.P,J2,B3,TX2-*%
%TO.N,unconnected-(J2-TX2--PadB3)*%
X142443200Y-57409998D03*
%TO.P,J2,B4,VBUS*%
%TO.N,Net-(U2B-PRTCTL2)*%
X142943199Y-57409998D03*
%TO.P,J2,B5,CC2*%
%TO.N,Net-(J2-CC2)*%
X143443201Y-57409998D03*
%TO.P,J2,B6,D+*%
%TO.N,D+DOWN2*%
X143943200Y-57409998D03*
%TO.P,J2,B7,D-*%
%TO.N,D-DOWN2*%
X144443199Y-57409998D03*
%TO.P,J2,B8,SBU2*%
%TO.N,unconnected-(J2-SBU2-PadB8)*%
X144943201Y-57409998D03*
%TO.P,J2,B9,VBUS*%
%TO.N,Net-(U2B-PRTCTL2)*%
X145443200Y-57409998D03*
%TO.P,J2,B10,RX1-*%
%TO.N,unconnected-(J2-RX1--PadB10)*%
X145943201Y-57409998D03*
%TO.P,J2,B11,RX1+*%
%TO.N,unconnected-(J2-RX1+-PadB11)*%
X146443200Y-57409998D03*
%TO.P,J2,B12,GND*%
%TO.N,gnd*%
X146943199Y-57409998D03*
D11*
%TO.P,J2,S1,SHIELD*%
%TO.N,Net-(C6-Pad2)*%
X139813201Y-57199999D03*
%TO.P,J2,S2,SHIELD*%
X139453200Y-53750000D03*
%TO.P,J2,S3,SHIELD*%
X148433200Y-53750000D03*
%TO.P,J2,S4,SHIELD*%
X148073199Y-57199999D03*
%TD*%
D10*
%TO.P,J1,A1,GND*%
%TO.N,gnd*%
X158146400Y-59109999D03*
%TO.P,J1,A2,TX1+*%
%TO.N,unconnected-(J1-TX1+-PadA2)*%
X157646401Y-59109999D03*
%TO.P,J1,A3,TX1-*%
%TO.N,unconnected-(J1-TX1--PadA3)*%
X157146399Y-59109999D03*
%TO.P,J1,A4,VBUS*%
%TO.N,VBUSUP*%
X156646400Y-59109999D03*
%TO.P,J1,A5,CC1*%
%TO.N,Net-(J1-CC1)*%
X156146398Y-59109999D03*
%TO.P,J1,A6,D+*%
%TO.N,D+UP*%
X155646400Y-59109999D03*
%TO.P,J1,A7,D-*%
%TO.N,D-UP*%
X155146400Y-59109999D03*
%TO.P,J1,A8,SBU1*%
%TO.N,unconnected-(J1-SBU1-PadA8)*%
X154646399Y-59109999D03*
%TO.P,J1,A9,VBUS*%
%TO.N,VBUSUP*%
X154146400Y-59109999D03*
%TO.P,J1,A10,RX2-*%
%TO.N,unconnected-(J1-RX2--PadA10)*%
X153646398Y-59109999D03*
%TO.P,J1,A11,RX2+*%
%TO.N,unconnected-(J1-RX2+-PadA11)*%
X153146399Y-59109999D03*
%TO.P,J1,A12,GND*%
%TO.N,gnd*%
X152646400Y-59109999D03*
%TO.P,J1,B1,GND*%
X152896400Y-57409998D03*
%TO.P,J1,B2,TX2+*%
%TO.N,unconnected-(J1-TX2+-PadB2)*%
X153396399Y-57409998D03*
%TO.P,J1,B3,TX2-*%
%TO.N,unconnected-(J1-TX2--PadB3)*%
X153896400Y-57409998D03*
%TO.P,J1,B4,VBUS*%
%TO.N,VBUSUP*%
X154396399Y-57409998D03*
%TO.P,J1,B5,CC2*%
%TO.N,Net-(J1-CC2)*%
X154896401Y-57409998D03*
%TO.P,J1,B6,D+*%
%TO.N,D+UP*%
X155396400Y-57409998D03*
%TO.P,J1,B7,D-*%
%TO.N,D-UP*%
X155896399Y-57409998D03*
%TO.P,J1,B8,SBU2*%
%TO.N,unconnected-(J1-SBU2-PadB8)*%
X156396401Y-57409998D03*
%TO.P,J1,B9,VBUS*%
%TO.N,VBUSUP*%
X156896400Y-57409998D03*
%TO.P,J1,B10,RX1-*%
%TO.N,unconnected-(J1-RX1--PadB10)*%
X157396401Y-57409998D03*
%TO.P,J1,B11,RX1+*%
%TO.N,unconnected-(J1-RX1+-PadB11)*%
X157896400Y-57409998D03*
%TO.P,J1,B12,GND*%
%TO.N,gnd*%
X158396399Y-57409998D03*
D11*
%TO.P,J1,S1,SHIELD*%
%TO.N,Net-(C7-Pad2)*%
X151266401Y-57199999D03*
%TO.P,J1,S2,SHIELD*%
X150906400Y-53750000D03*
%TO.P,J1,S3,SHIELD*%
X159886400Y-53750000D03*
%TO.P,J1,S4,SHIELD*%
X159526399Y-57199999D03*
%TD*%
D12*
%TO.P,C1,2*%
%TO.N,VBUSUP*%
X137930000Y-69250000D03*
%TO.P,C1,1*%
%TO.N,Net-(Y2-VCC)*%
X138570000Y-69250000D03*
%TD*%
D13*
%TO.P,C2,2*%
%TO.N,Net-(Y2-GND)*%
X138000000Y-70430000D03*
%TO.P,C2,1*%
%TO.N,gnd*%
X138000000Y-71070000D03*
%TD*%
D14*
%TO.P,C3,2*%
%TO.N,Net-(J6-RCT)*%
X153320000Y-75250000D03*
%TO.P,C3,1*%
%TO.N,gnd*%
X152680000Y-75250000D03*
%TD*%
D15*
%TO.P,C4,2*%
%TO.N,gnd*%
X154750000Y-77390000D03*
%TO.P,C4,1*%
%TO.N,Net-(U2A-VDD18ETHPLL)*%
X154750000Y-76750000D03*
%TD*%
D12*
%TO.P,C5,2*%
%TO.N,Net-(C5-Pad2)*%
X137860000Y-73250000D03*
%TO.P,C5,1*%
%TO.N,gnd*%
X138500000Y-73250000D03*
%TD*%
D14*
%TO.P,C6,2*%
%TO.N,Net-(C6-Pad2)*%
X151820000Y-73000000D03*
%TO.P,C6,1*%
%TO.N,gnd*%
X151180000Y-73000000D03*
%TD*%
%TO.P,C7,2*%
%TO.N,Net-(C7-Pad2)*%
X151975000Y-82750000D03*
%TO.P,C7,1*%
%TO.N,gnd*%
X151335000Y-82750000D03*
%TD*%
D13*
%TO.P,C8,2*%
%TO.N,gnd*%
X135750000Y-73430000D03*
%TO.P,C8,1*%
%TO.N,Net-(U2A-VDD18USBPLL)*%
X135750000Y-74070000D03*
%TD*%
%TO.P,C9,2*%
%TO.N,Net-(C10-Pad2)*%
X154250000Y-80430000D03*
%TO.P,C9,1*%
%TO.N,gnd*%
X154250000Y-81070000D03*
%TD*%
D14*
%TO.P,C10,2*%
%TO.N,Net-(C10-Pad2)*%
X139140000Y-79750000D03*
%TO.P,C10,1*%
%TO.N,gnd*%
X138500000Y-79750000D03*
%TD*%
%TO.P,C11,2*%
%TO.N,Net-(C10-Pad2)*%
X154000000Y-83750000D03*
%TO.P,C11,1*%
%TO.N,gnd*%
X153360000Y-83750000D03*
%TD*%
D16*
%TO.P,J6,SH*%
%TO.N,gnd*%
X164725000Y-62080000D03*
X180275000Y-62080000D03*
D17*
%TO.P,J6,R8*%
X168055000Y-67910000D03*
%TO.P,J6,R7,NC*%
%TO.N,unconnected-(J6-NC-PadR7)*%
X169325000Y-65370000D03*
%TO.P,J6,R6,RD-*%
%TO.N,Net-(J6-RD-)*%
X170595000Y-67910000D03*
%TO.P,J6,R5,RCT*%
%TO.N,Net-(J6-RCT)*%
X171865000Y-65370000D03*
%TO.P,J6,R4,TCT*%
X173135000Y-67910000D03*
%TO.P,J6,R3,RD+*%
%TO.N,Net-(J6-RD+)*%
X174405000Y-65370000D03*
%TO.P,J6,R2,TD-*%
%TO.N,Net-(J6-TD-)*%
X175675000Y-67910000D03*
D18*
%TO.P,J6,R1,TD+*%
%TO.N,Net-(J6-TD+)*%
X176945000Y-65370000D03*
D19*
%TO.P,J6,L4*%
%TO.N,unconnected-(J6-PadL4)*%
X178825000Y-54130000D03*
%TO.P,J6,L3*%
%TO.N,unconnected-(J6-PadL3)*%
X176285000Y-55650000D03*
%TO.P,J6,L2*%
%TO.N,unconnected-(J6-PadL2)*%
X168715000Y-54130000D03*
%TO.P,J6,L1*%
%TO.N,unconnected-(J6-PadL1)*%
X166175000Y-55650000D03*
%TD*%
D12*
%TO.P,R1,2*%
%TO.N,Net-(J2-CC2)*%
X142930000Y-66250000D03*
%TO.P,R1,1*%
%TO.N,gnd*%
X143570000Y-66250000D03*
%TD*%
D14*
%TO.P,R2,2*%
%TO.N,Net-(J4-CC2)*%
X127820000Y-64500000D03*
%TO.P,R2,1*%
%TO.N,gnd*%
X127180000Y-64500000D03*
%TD*%
D12*
%TO.P,R3,2*%
%TO.N,Net-(J4-CC1)*%
X133930000Y-64000000D03*
%TO.P,R3,1*%
%TO.N,gnd*%
X134570000Y-64000000D03*
%TD*%
%TO.P,R4,2*%
%TO.N,Net-(J2-CC1)*%
X145180000Y-66250000D03*
%TO.P,R4,1*%
%TO.N,gnd*%
X145820000Y-66250000D03*
%TD*%
D14*
%TO.P,R5,2*%
%TO.N,Net-(U2B-USBRBIAS)*%
X141820000Y-72250000D03*
%TO.P,R5,1*%
%TO.N,gnd*%
X141180000Y-72250000D03*
%TD*%
%TO.P,R6,2*%
%TO.N,Net-(J1-CC2)*%
X153320000Y-63000000D03*
%TO.P,R6,1*%
%TO.N,gnd*%
X152680000Y-63000000D03*
%TD*%
D12*
%TO.P,R7,2*%
%TO.N,Net-(J1-CC1)*%
X156430000Y-62750000D03*
%TO.P,R7,1*%
%TO.N,gnd*%
X157070000Y-62750000D03*
%TD*%
D14*
%TO.P,R8,2*%
%TO.N,Net-(U2A-XI)*%
X143500000Y-71500000D03*
%TO.P,R8,1*%
%TO.N,gnd*%
X142860000Y-71500000D03*
%TD*%
D13*
%TO.P,R9,2*%
%TO.N,Net-(U2B-EXRES)*%
X149250000Y-70860000D03*
%TO.P,R9,1*%
%TO.N,gnd*%
X149250000Y-71500000D03*
%TD*%
D15*
%TO.P,R10,2*%
%TO.N,VDD33A*%
X168500000Y-74320000D03*
%TO.P,R10,1*%
%TO.N,Net-(J6-RD-)*%
X168500000Y-73680000D03*
%TD*%
D12*
%TO.P,R11,2*%
%TO.N,VDD33A*%
X165360000Y-72000000D03*
%TO.P,R11,1*%
%TO.N,Net-(J6-RD+)*%
X166000000Y-72000000D03*
%TD*%
%TO.P,R12,2*%
%TO.N,VDD33A*%
X153250000Y-69000000D03*
%TO.P,R12,1*%
%TO.N,Net-(J6-TD-)*%
X153890000Y-69000000D03*
%TD*%
%TO.P,R13,2*%
%TO.N,VDD33A*%
X175750000Y-71500000D03*
%TO.P,R13,1*%
%TO.N,Net-(J6-TD+)*%
X176390000Y-71500000D03*
%TD*%
%TO.P,R14,2*%
%TO.N,VDD33A*%
X168860000Y-76500000D03*
%TO.P,R14,1*%
%TO.N,Net-(J6-RCT)*%
X169500000Y-76500000D03*
%TD*%
D15*
%TO.P,R15,2*%
%TO.N,gnd*%
X125500000Y-56640000D03*
%TO.P,R15,1*%
%TO.N,Net-(C5-Pad2)*%
X125500000Y-56000000D03*
%TD*%
D12*
%TO.P,R16,2*%
%TO.N,gnd*%
X147430000Y-62750000D03*
%TO.P,R16,1*%
%TO.N,Net-(C6-Pad2)*%
X148070000Y-62750000D03*
%TD*%
%TO.P,R17,2*%
%TO.N,Net-(U2B-VBUS_DET)*%
X146360000Y-84500000D03*
%TO.P,R17,1*%
%TO.N,VBUSUP*%
X147000000Y-84500000D03*
%TD*%
D13*
%TO.P,R18,2*%
%TO.N,Net-(U2B-VBUS_DET)*%
X138500000Y-83000000D03*
%TO.P,R18,1*%
%TO.N,gnd*%
X138500000Y-83640000D03*
%TD*%
D14*
%TO.P,R19,2*%
%TO.N,gnd*%
X151975000Y-84500000D03*
%TO.P,R19,1*%
%TO.N,Net-(C7-Pad2)*%
X151335000Y-84500000D03*
%TD*%
D20*
%TO.P,SW1,6*%
%TO.N,N/C*%
X109342500Y-54750000D03*
%TO.P,SW1,5*%
X109342500Y-57250000D03*
%TO.P,SW1,4*%
X109342500Y-59750000D03*
%TO.P,SW1,3,C*%
%TO.N,VBUSUP*%
X112642500Y-59750000D03*
%TO.P,SW1,2,B*%
X112642500Y-57250000D03*
D21*
%TO.P,SW1,1,A*%
%TO.N,Net-(M1-+)*%
X112642500Y-54750000D03*
%TD*%
D22*
%TO.P,U2,65,GND*%
%TO.N,gnd*%
X145750000Y-78250000D03*
D23*
%TO.P,U2,64,VDD33A*%
%TO.N,VDD33A*%
X142000000Y-73812500D03*
%TO.P,U2,63,USBRBIAS*%
%TO.N,Net-(U2B-USBRBIAS)*%
X142500000Y-73812500D03*
%TO.P,U2,62,VDD18USBPLL*%
%TO.N,Net-(U2A-VDD18USBPLL)*%
X143000000Y-73812500D03*
%TO.P,U2,61,XI*%
%TO.N,Net-(U2A-XI)*%
X143500000Y-73812500D03*
%TO.P,U2,60,XO*%
%TO.N,unconnected-(U2A-XO-Pad60)*%
X144000000Y-73812500D03*
%TO.P,U2,59,USBDP0*%
%TO.N,D+UP*%
X144500000Y-73812500D03*
%TO.P,U2,58,USBDM0*%
%TO.N,D-UP*%
X145000000Y-73812500D03*
%TO.P,U2,57,VDD33A*%
%TO.N,VDD33A*%
X145500000Y-73812500D03*
%TO.P,U2,56,TXN*%
%TO.N,Net-(J6-TD-)*%
X146000000Y-73812500D03*
%TO.P,U2,55,TXP*%
%TO.N,Net-(J6-TD+)*%
X146500000Y-73812500D03*
%TO.P,U2,54,VDD33A*%
%TO.N,VDD33A*%
X147000000Y-73812500D03*
%TO.P,U2,53,RXN*%
%TO.N,Net-(J6-RD-)*%
X147500000Y-73812500D03*
%TO.P,U2,52,RXP*%
%TO.N,Net-(J6-RD+)*%
X148000000Y-73812500D03*
%TO.P,U2,51,VDD33A*%
%TO.N,VDD33A*%
X148500000Y-73812500D03*
%TO.P,U2,50,EXRES*%
%TO.N,Net-(U2B-EXRES)*%
X149000000Y-73812500D03*
%TO.P,U2,49,VDD33A*%
%TO.N,VDD33A*%
X149500000Y-73812500D03*
D24*
%TO.P,U2,48,VDD18ETHPLL*%
%TO.N,Net-(U2A-VDD18ETHPLL)*%
X150187500Y-74500000D03*
%TO.P,U2,47,TEST4*%
%TO.N,unconnected-(U2A-TEST4-Pad47)*%
X150187500Y-75000000D03*
%TO.P,U2,46,VDD33IO*%
%TO.N,VBUSUP*%
X150187500Y-75500000D03*
%TO.P,U2,45,CLK24_OUT*%
%TO.N,unconnected-(U2A-CLK24_OUT-Pad45)*%
X150187500Y-76000000D03*
%TO.P,U2,44,CLK24_EN*%
%TO.N,unconnected-(U2A-CLK24_EN-Pad44)*%
X150187500Y-76500000D03*
%TO.P,U2,43,GPIO7*%
%TO.N,unconnected-(U2A-GPIO7-Pad43)*%
X150187500Y-77000000D03*
%TO.P,U2,42,GPIO6*%
%TO.N,unconnected-(U2A-GPIO6-Pad42)*%
X150187500Y-77500000D03*
%TO.P,U2,41,AUTOMDIX_EN*%
%TO.N,unconnected-(U2B-AUTOMDIX_EN-Pad41)*%
X150187500Y-78000000D03*
%TO.P,U2,40,TEST3*%
%TO.N,VBUSUP*%
X150187500Y-78500000D03*
%TO.P,U2,39,VDD33IO*%
X150187500Y-79000000D03*
%TO.P,U2,38,VDD18CORE*%
%TO.N,Net-(C10-Pad2)*%
X150187500Y-79500000D03*
%TO.P,U2,37,GPIO5*%
%TO.N,unconnected-(U2A-GPIO5-Pad37)*%
X150187500Y-80000000D03*
%TO.P,U2,36,GPIO4*%
%TO.N,unconnected-(U2A-GPIO4-Pad36)*%
X150187500Y-80500000D03*
%TO.P,U2,35,GPIO3*%
%TO.N,unconnected-(U2A-GPIO3-Pad35)*%
X150187500Y-81000000D03*
%TO.P,U2,34,TEST2*%
%TO.N,gnd*%
X150187500Y-81500000D03*
%TO.P,U2,33,VDD33IO*%
%TO.N,VBUSUP*%
X150187500Y-82000000D03*
D23*
%TO.P,U2,32,TCK*%
%TO.N,unconnected-(U2A-TCK-Pad32)*%
X149500000Y-82687500D03*
%TO.P,U2,31,TDO*%
%TO.N,unconnected-(U2A-TDO-Pad31)*%
X149000000Y-82687500D03*
%TO.P,U2,30,TDI*%
%TO.N,unconnected-(U2A-TDI-Pad30)*%
X148500000Y-82687500D03*
%TO.P,U2,29,TMS*%
%TO.N,unconnected-(U2A-TMS-Pad29)*%
X148000000Y-82687500D03*
%TO.P,U2,28,~{TRST}*%
%TO.N,unconnected-(U2A-~{TRST}-Pad28)*%
X147500000Y-82687500D03*
%TO.P,U2,27,VDD33IO*%
%TO.N,VBUSUP*%
X147000000Y-82687500D03*
%TO.P,U2,26,EEDI*%
%TO.N,unconnected-(U2A-EEDI-Pad26)*%
X146500000Y-82687500D03*
%TO.P,U2,25,EEDO*%
%TO.N,unconnected-(U2A-EEDO-Pad25)*%
X146000000Y-82687500D03*
%TO.P,U2,24,EECS*%
%TO.N,unconnected-(U2A-EECS-Pad24)*%
X145500000Y-82687500D03*
%TO.P,U2,23,EECLK*%
%TO.N,unconnected-(U2A-EECLK-Pad23)*%
X145000000Y-82687500D03*
%TO.P,U2,22,~{SPD_LED}/GPIO2*%
%TO.N,unconnected-(U2A-~{SPD_LED}{slash}GPIO2-Pad22)*%
X144500000Y-82687500D03*
%TO.P,U2,21,~{LNKA_LED}/GPIO1*%
%TO.N,unconnected-(U2A-~{LNKA_LED}{slash}GPIO1-Pad21)*%
X144000000Y-82687500D03*
%TO.P,U2,20,~{FDX_LED}/GPIO0*%
%TO.N,unconnected-(U2A-~{FDX_LED}{slash}GPIO0-Pad20)*%
X143500000Y-82687500D03*
%TO.P,U2,19,VDD33IO*%
%TO.N,VBUSUP*%
X143000000Y-82687500D03*
%TO.P,U2,18,NC*%
%TO.N,unconnected-(U2B-NC-Pad18)*%
X142500000Y-82687500D03*
%TO.P,U2,17,NC*%
%TO.N,unconnected-(U2B-NC-Pad17)*%
X142000000Y-82687500D03*
D24*
%TO.P,U2,16,PRTCTL3*%
%TO.N,Net-(U2B-PRTCTL3)*%
X141312500Y-82000000D03*
%TO.P,U2,15,VDD18CORE*%
%TO.N,Net-(C10-Pad2)*%
X141312500Y-81500000D03*
%TO.P,U2,14,PRTCTL2*%
%TO.N,Net-(U2B-PRTCTL2)*%
X141312500Y-81000000D03*
%TO.P,U2,13,TEST1*%
%TO.N,unconnected-(U2A-TEST1-Pad13)*%
X141312500Y-80500000D03*
%TO.P,U2,12,~{RESET}*%
%TO.N,unconnected-(U2A-~{RESET}-Pad12)*%
X141312500Y-80000000D03*
%TO.P,U2,11,VBUS_DET*%
%TO.N,Net-(U2B-VBUS_DET)*%
X141312500Y-79500000D03*
%TO.P,U2,10,VDD33A*%
%TO.N,VDD33A*%
X141312500Y-79000000D03*
%TO.P,U2,9,NC*%
%TO.N,unconnected-(U2B-NC-Pad9)*%
X141312500Y-78500000D03*
%TO.P,U2,8,NC*%
%TO.N,unconnected-(U2B-NC-Pad8)*%
X141312500Y-78000000D03*
%TO.P,U2,7,NC*%
%TO.N,unconnected-(U2B-NC-Pad7)*%
X141312500Y-77500000D03*
%TO.P,U2,6,NC*%
%TO.N,unconnected-(U2B-NC-Pad6)*%
X141312500Y-77000000D03*
%TO.P,U2,5,VDD33A*%
%TO.N,VDD33A*%
X141312500Y-76500000D03*
%TO.P,U2,4,USBDP3*%
%TO.N,D+DOWN2*%
X141312500Y-76000000D03*
%TO.P,U2,3,USBDM3*%
%TO.N,D-DOWN2*%
X141312500Y-75500000D03*
%TO.P,U2,2,USBDP2*%
%TO.N,D+DOWN1*%
X141312500Y-75000000D03*
%TO.P,U2,1,USBDM2*%
%TO.N,D-DOWN1*%
X141312500Y-74500000D03*
%TD*%
D25*
%TO.P,FB1,1*%
%TO.N,Net-(U2A-VDD18ETHPLL)*%
X158750000Y-68350000D03*
%TO.P,FB1,2*%
%TO.N,Net-(U2A-VDD18USBPLL)*%
X158750000Y-66150000D03*
%TD*%
D26*
%TO.P,M1,1,-*%
%TO.N,gnd*%
X110200000Y-85375000D03*
D27*
%TO.P,M1,2,+*%
%TO.N,Net-(M1-+)*%
X112740000Y-85375000D03*
%TO.P,M1,3,Tacho*%
%TO.N,unconnected-(M1-Tacho-Pad3)*%
X115280000Y-85375000D03*
%TD*%
D26*
%TO.P,M2,1,-*%
%TO.N,gnd*%
X119200000Y-77875000D03*
D27*
%TO.P,M2,2,+*%
%TO.N,Net-(M1-+)*%
X121740000Y-77875000D03*
%TO.P,M2,3,Tacho*%
%TO.N,unconnected-(M2-Tacho-Pad3)*%
X124280000Y-77875000D03*
%TD*%
D28*
%TO.P,Y2,1,INH*%
%TO.N,Net-(Y2-GND)*%
X139825000Y-70725000D03*
%TO.P,Y2,2,GND*%
X141675000Y-70725000D03*
%TO.P,Y2,3,CLK*%
%TO.N,Net-(U2A-XI)*%
X141675000Y-69275000D03*
%TO.P,Y2,4,VCC*%
%TO.N,Net-(Y2-VCC)*%
X139825000Y-69275000D03*
%TD*%
D26*
%TO.P,M3,1,-*%
%TO.N,gnd*%
X119200000Y-85375000D03*
D27*
%TO.P,M3,2,+*%
%TO.N,Net-(M1-+)*%
X121740000Y-85375000D03*
%TO.P,M3,3,Tacho*%
%TO.N,unconnected-(M3-Tacho-Pad3)*%
X124280000Y-85375000D03*
%TD*%
D26*
%TO.P,M4,1,-*%
%TO.N,gnd*%
X110200000Y-77875000D03*
D27*
%TO.P,M4,2,+*%
%TO.N,Net-(M1-+)*%
X112740000Y-77875000D03*
%TO.P,M4,3,Tacho*%
%TO.N,unconnected-(M4-Tacho-Pad3)*%
X115280000Y-77875000D03*
%TD*%
D29*
%TO.N,VBUSUP*%
X153250000Y-81750000D03*
X152500000Y-78750000D03*
X145000000Y-83999000D03*
%TO.N,D+UP*%
X144500000Y-70000000D03*
X149500000Y-64500000D03*
%TO.N,D-UP*%
X145150000Y-71668622D03*
X157000000Y-71250000D03*
X153500000Y-72250000D03*
%TO.N,Net-(C7-Pad2)*%
X153178688Y-82733983D03*
X158000000Y-82750000D03*
%TO.N,Net-(J4-CC2)*%
X128000000Y-63750000D03*
X131750000Y-56250000D03*
%TO.N,Net-(C5-Pad2)*%
X138250000Y-65500000D03*
X137750000Y-72500000D03*
%TO.N,D+DOWN1*%
X135665380Y-62665380D03*
X138509586Y-74450000D03*
X134750000Y-61000000D03*
%TO.N,D-DOWN1*%
X139709311Y-74350000D03*
X136750000Y-75100000D03*
X134250000Y-75000000D03*
X133000000Y-64500000D03*
%TO.N,D+DOWN1*%
X132890000Y-60536768D03*
X132750000Y-55500000D03*
%TO.N,Net-(U2B-PRTCTL3)*%
X130750000Y-62750000D03*
X134190000Y-60400000D03*
X140942189Y-82800000D03*
%TO.N,Net-(U2B-PRTCTL2)*%
X140052068Y-81203889D03*
X127500000Y-80750000D03*
%TO.N,D-DOWN2*%
X138422378Y-75943768D03*
%TO.N,D+DOWN2*%
X139562679Y-77048547D03*
X135750000Y-76250000D03*
%TO.N,Net-(J2-CC2)*%
X142040380Y-64790380D03*
X142709311Y-55900000D03*
%TO.N,D-DOWN2*%
X143530399Y-60800361D03*
X143993227Y-56096832D03*
%TO.N,Net-(C5-Pad2)*%
X129250000Y-53300000D03*
X135750000Y-53300000D03*
%TO.N,Net-(C6-Pad2)*%
X140250000Y-53300000D03*
X147250000Y-53300000D03*
%TO.N,Net-(C7-Pad2)*%
X152000000Y-57000000D03*
X150906400Y-53750000D03*
%TO.N,VBUSUP*%
X154250000Y-60500000D03*
X154250000Y-54500000D03*
%TO.N,D-UP*%
X155591956Y-56007801D03*
X154996400Y-60988589D03*
%TO.N,Net-(C6-Pad2)*%
X151634620Y-71465380D03*
X148417295Y-67067630D03*
%TO.N,gnd*%
X138650000Y-71314190D03*
X140050000Y-72617463D03*
X150699000Y-72562857D03*
X142130433Y-67636779D03*
X148928407Y-72400000D03*
X151750000Y-80500000D03*
X139676370Y-83191444D03*
X145750000Y-78250000D03*
X138229539Y-80060299D03*
X120000000Y-66500000D03*
X153750000Y-76250000D03*
%TO.N,VBUSUP*%
X136552602Y-65984984D03*
X131084620Y-70334620D03*
X137250000Y-68500000D03*
%TO.N,Net-(J6-RCT)*%
X171100000Y-76500000D03*
X154500000Y-75000000D03*
X168000000Y-78750000D03*
%TO.N,Net-(U2A-VDD18ETHPLL)*%
X154593606Y-69328532D03*
X153750000Y-74500000D03*
%TO.N,Net-(U2A-VDD18USBPLL)*%
X153511361Y-67321359D03*
X136450000Y-72598240D03*
X142750000Y-72500000D03*
%TO.N,Net-(C10-Pad2)*%
X140325165Y-78582120D03*
X139239768Y-81454235D03*
%TO.N,Net-(J6-RD-)*%
X170104215Y-73670000D03*
X167000000Y-71350000D03*
%TO.N,Net-(J6-TD-)*%
X153682838Y-65373755D03*
X151554007Y-67753395D03*
%TO.N,Net-(J6-TD+)*%
X179250000Y-72500000D03*
%TO.N,VDD33A*%
X152281361Y-68982317D03*
X164750000Y-72250000D03*
X146142160Y-69768374D03*
%TO.N,Net-(U2B-VBUS_DET)*%
X142260927Y-83649899D03*
X137224953Y-83644193D03*
%TD*%
D30*
%TO.N,VDD33A*%
X137019239Y-73876148D02*
X137519239Y-74376148D01*
X137519239Y-74376148D02*
X137519239Y-74561522D01*
%TO.N,gnd*%
X158830000Y-62080000D02*
X164725000Y-62080000D01*
X158423600Y-61673600D02*
X158830000Y-62080000D01*
X158146400Y-61673600D02*
X158423600Y-61673600D01*
X150802931Y-81348000D02*
X152042000Y-81348000D01*
X150650931Y-81500000D02*
X150802931Y-81348000D01*
X150187500Y-81500000D02*
X150650931Y-81500000D01*
X152042000Y-81348000D02*
X152320000Y-81070000D01*
%TO.N,VBUSUP*%
X150187500Y-78500000D02*
X150187500Y-79000000D01*
X152750000Y-81750000D02*
X153250000Y-81750000D01*
X150969445Y-81750000D02*
X152750000Y-81750000D01*
X150187500Y-82000000D02*
X150719444Y-82000000D01*
%TO.N,Net-(C7-Pad2)*%
X150804000Y-83969000D02*
X151335000Y-84500000D01*
X150804000Y-82481130D02*
X150804000Y-83969000D01*
X151036130Y-82249000D02*
X150804000Y-82481130D01*
X151633870Y-82249000D02*
X151036130Y-82249000D01*
X151975000Y-82590130D02*
X151633870Y-82249000D01*
X151975000Y-82750000D02*
X151975000Y-82590130D01*
X153162671Y-82750000D02*
X153178688Y-82733983D01*
X151975000Y-82750000D02*
X153162671Y-82750000D01*
%TO.N,VBUSUP*%
X152250000Y-78500000D02*
X150187500Y-78500000D01*
X150719444Y-82000000D02*
X150969445Y-81750000D01*
%TO.N,gnd*%
X152320000Y-81070000D02*
X154250000Y-81070000D01*
%TO.N,VBUSUP*%
X152500000Y-78750000D02*
X152250000Y-78500000D01*
%TO.N,gnd*%
X151750000Y-80500000D02*
X152320000Y-81070000D01*
%TO.N,VBUSUP*%
X143858202Y-83999000D02*
X145000000Y-83999000D01*
%TO.N,Net-(U2B-VBUS_DET)*%
X143260028Y-84649000D02*
X142260927Y-83649899D01*
X145269239Y-84649000D02*
X143260028Y-84649000D01*
X145418239Y-84500000D02*
X145269239Y-84649000D01*
%TO.N,Net-(U2B-PRTCTL3)*%
X140942189Y-82370311D02*
X140942189Y-82800000D01*
X141312500Y-82000000D02*
X140942189Y-82370311D01*
%TO.N,gnd*%
X138500000Y-83640000D02*
X139227814Y-83640000D01*
X139227814Y-83640000D02*
X139676370Y-83191444D01*
%TO.N,Net-(C10-Pad2)*%
X139500000Y-81714467D02*
X139239768Y-81454235D01*
X139500000Y-82163326D02*
X139500000Y-81714467D01*
X140318699Y-83953014D02*
X140318699Y-82982025D01*
X141615685Y-85250000D02*
X140318699Y-83953014D01*
X155250000Y-85250000D02*
X141615685Y-85250000D01*
%TO.N,Net-(U2B-VBUS_DET)*%
X146360000Y-84500000D02*
X145418239Y-84500000D01*
%TO.N,Net-(C10-Pad2)*%
X140318699Y-82982025D02*
X139500000Y-82163326D01*
%TO.N,VDD33A*%
X137230761Y-73664626D02*
X137019239Y-73876148D01*
X137230761Y-72900000D02*
X137230761Y-73664626D01*
X137100000Y-72769239D02*
X137230761Y-72900000D01*
X137100000Y-72230761D02*
X137100000Y-72769239D01*
X136600000Y-71730761D02*
X137100000Y-72230761D01*
X137519239Y-67850000D02*
X136980761Y-67850000D01*
X137820239Y-68151000D02*
X137519239Y-67850000D01*
X141725415Y-68151000D02*
X137820239Y-68151000D01*
X141861194Y-68286779D02*
X141725415Y-68151000D01*
X142399672Y-68286779D02*
X141861194Y-68286779D01*
X143179761Y-68151000D02*
X142535451Y-68151000D01*
X142535451Y-68151000D02*
X142399672Y-68286779D01*
X143230761Y-68100000D02*
X143179761Y-68151000D01*
X145750000Y-70000000D02*
X143850000Y-68100000D01*
X143850000Y-68100000D02*
X143230761Y-68100000D01*
%TO.N,gnd*%
X142130433Y-67149067D02*
X142130433Y-67636779D01*
X142528500Y-66751000D02*
X142130433Y-67149067D01*
X144071000Y-66751000D02*
X142528500Y-66751000D01*
X138850609Y-66950000D02*
X138902101Y-66898508D01*
X136698778Y-66950000D02*
X138850609Y-66950000D01*
X135750000Y-73430000D02*
X135750000Y-67898778D01*
X141392162Y-66898508D02*
X142130433Y-67636779D01*
X135750000Y-67898778D02*
X136698778Y-66950000D01*
%TO.N,VDD33A*%
X136980761Y-67850000D02*
X136600000Y-68230761D01*
%TO.N,gnd*%
X138902101Y-66898508D02*
X141392162Y-66898508D01*
%TO.N,VDD33A*%
X136600000Y-68230761D02*
X136600000Y-71730761D01*
%TO.N,D+UP*%
X155396400Y-56731485D02*
X155396400Y-57409998D01*
X153914915Y-55250000D02*
X155396400Y-56731485D01*
X150500000Y-55250000D02*
X153914915Y-55250000D01*
%TO.N,VBUSUP*%
X154500000Y-54500000D02*
X154250000Y-54500000D01*
X155357801Y-55357801D02*
X154500000Y-54500000D01*
X155861195Y-55357801D02*
X155357801Y-55357801D01*
X156896400Y-56393006D02*
X155861195Y-55357801D01*
X156896400Y-57409998D02*
X156896400Y-56393006D01*
%TO.N,D-UP*%
X155896399Y-56312244D02*
X155591956Y-56007801D01*
X155896399Y-57409998D02*
X155896399Y-56312244D01*
%TO.N,Net-(J1-CC2)*%
X154896401Y-56854398D02*
X154896401Y-57409998D01*
X154692003Y-56650000D02*
X154896401Y-56854398D01*
X154334314Y-56650000D02*
X154692003Y-56650000D01*
X153884813Y-56200499D02*
X154334314Y-56650000D01*
X150973386Y-56200499D02*
X153884813Y-56200499D01*
X150559001Y-56614884D02*
X150973386Y-56200499D01*
X150559001Y-58315662D02*
X150559001Y-56614884D01*
X153320000Y-61076661D02*
X150559001Y-58315662D01*
X153320000Y-63000000D02*
X153320000Y-61076661D01*
%TO.N,D+UP*%
X149500000Y-56250000D02*
X150500000Y-55250000D01*
X149500000Y-64500000D02*
X149500000Y-56250000D01*
%TO.N,Net-(J6-TD+)*%
X146500000Y-72677843D02*
X146500000Y-73812500D01*
X146600000Y-72577843D02*
X146500000Y-72677843D01*
X146600000Y-70802692D02*
X146600000Y-72577843D01*
X147148000Y-70254692D02*
X146600000Y-70802692D01*
X147148000Y-69899388D02*
X147148000Y-70254692D01*
X148529758Y-68517630D02*
X147148000Y-69899388D01*
X149017905Y-68517630D02*
X148529758Y-68517630D01*
X150432140Y-67103395D02*
X149017905Y-68517630D01*
X152747437Y-67228395D02*
X151948246Y-67228395D01*
X154332838Y-65526364D02*
X154332838Y-65642994D01*
X158065075Y-64300000D02*
X157884076Y-64119000D01*
X159115925Y-64119000D02*
X158934924Y-64300000D01*
X176945000Y-65370000D02*
X175694000Y-64119000D01*
X158934924Y-64300000D02*
X158065075Y-64300000D01*
%TO.N,Net-(J6-TD-)*%
X150266455Y-66703395D02*
X151549261Y-66703395D01*
%TO.N,Net-(J6-TD+)*%
X151948246Y-67228395D02*
X151823246Y-67103395D01*
%TO.N,Net-(J6-TD-)*%
X146748000Y-69733702D02*
X148364072Y-68117630D01*
%TO.N,gnd*%
X152680000Y-63000000D02*
X152680000Y-63724164D01*
%TO.N,Net-(C6-Pad2)*%
X148070000Y-62750000D02*
X148070000Y-66720335D01*
%TO.N,Net-(J6-TD+)*%
X175694000Y-64119000D02*
X159115925Y-64119000D01*
%TO.N,Net-(J6-TD-)*%
X151549261Y-66703395D02*
X152878901Y-65373755D01*
X146200000Y-72412157D02*
X146200000Y-70637006D01*
%TO.N,gnd*%
X147430000Y-67041490D02*
X147430000Y-62750000D01*
%TO.N,Net-(C6-Pad2)*%
X148070000Y-66720335D02*
X148417295Y-67067630D01*
%TO.N,Net-(J6-TD-)*%
X148852220Y-68117630D02*
X150266455Y-66703395D01*
%TO.N,Net-(J6-TD+)*%
X154332838Y-65642994D02*
X152747437Y-67228395D01*
%TO.N,Net-(J6-TD-)*%
X146200000Y-70637006D02*
X146748000Y-70089006D01*
%TO.N,gnd*%
X148106140Y-67717630D02*
X147430000Y-67041490D01*
%TO.N,Net-(J6-TD-)*%
X148364072Y-68117630D02*
X148852220Y-68117630D01*
X152878901Y-65373755D02*
X153682838Y-65373755D01*
%TO.N,Net-(J6-TD+)*%
X155415198Y-64444004D02*
X154332838Y-65526364D01*
%TO.N,D+UP*%
X144500000Y-73812500D02*
X144500000Y-70000000D01*
%TO.N,Net-(J6-TD-)*%
X146000000Y-73812500D02*
X146000000Y-72612157D01*
%TO.N,VDD33A*%
X145800000Y-71399383D02*
X145800000Y-72246472D01*
X145650000Y-71249383D02*
X145800000Y-71399383D01*
X145800000Y-72246472D02*
X145500000Y-72546472D01*
%TO.N,Net-(J6-TD-)*%
X146000000Y-72612157D02*
X146200000Y-72412157D01*
%TO.N,VDD33A*%
X145650000Y-70100000D02*
X145650000Y-71249383D01*
%TO.N,D-UP*%
X145000000Y-71818622D02*
X145150000Y-71668622D01*
%TO.N,Net-(J6-TD+)*%
X157428380Y-64119000D02*
X157103375Y-64444004D01*
%TO.N,D-UP*%
X145000000Y-73812500D02*
X145000000Y-71818622D01*
%TO.N,Net-(J6-TD-)*%
X146748000Y-70089006D02*
X146748000Y-69733702D01*
%TO.N,gnd*%
X152680000Y-63724164D02*
X148686534Y-67717630D01*
%TO.N,Net-(J6-TD+)*%
X157103375Y-64444004D02*
X155415198Y-64444004D01*
%TO.N,VDD33A*%
X145750000Y-70000000D02*
X145650000Y-70100000D01*
%TO.N,Net-(J6-TD+)*%
X151823246Y-67103395D02*
X150432140Y-67103395D01*
X157884076Y-64119000D02*
X157428380Y-64119000D01*
%TO.N,VDD33A*%
X145500000Y-72546472D02*
X145500000Y-73812500D01*
%TO.N,gnd*%
X148686534Y-67717630D02*
X148106140Y-67717630D01*
%TO.N,Net-(J6-RD-)*%
X147500000Y-73022203D02*
X147500000Y-73812500D01*
X147478407Y-73000611D02*
X147500000Y-73022203D01*
X147478407Y-71057070D02*
X147478407Y-73000611D01*
X147949000Y-70229760D02*
X147949000Y-70586478D01*
X148649758Y-69529001D02*
X147949000Y-70229760D01*
X151386494Y-69529001D02*
X148649758Y-69529001D01*
X151539999Y-69682506D02*
X151386494Y-69529001D01*
X147949000Y-70586478D02*
X147478407Y-71057070D01*
X154028341Y-69682506D02*
X151539999Y-69682506D01*
X154324367Y-69978532D02*
X154028341Y-69682506D01*
X154862845Y-69978532D02*
X154324367Y-69978532D01*
X155158871Y-69682506D02*
X154862845Y-69978532D01*
X156148255Y-69682506D02*
X155158871Y-69682506D01*
X157019239Y-69350000D02*
X156480761Y-69350000D01*
X157351745Y-69682506D02*
X157019239Y-69350000D01*
X168750000Y-69682506D02*
X157351745Y-69682506D01*
%TO.N,Net-(J6-RD+)*%
X148000000Y-72956518D02*
X148000000Y-73812500D01*
X147878407Y-71224171D02*
X147878407Y-72834925D01*
X148349000Y-70753578D02*
X147878407Y-71224171D01*
%TO.N,Net-(J6-RD-)*%
X156480761Y-69350000D02*
X156148255Y-69682506D01*
%TO.N,Net-(J6-RD+)*%
X148349000Y-70395445D02*
X148349000Y-70753578D01*
X148815444Y-69929000D02*
X148349000Y-70395445D01*
X151098240Y-69929001D02*
X148815444Y-69929000D01*
X147878407Y-72834925D02*
X148000000Y-72956518D01*
X152284620Y-71115381D02*
X151098240Y-69929001D01*
X152284620Y-71968934D02*
X152284620Y-71115381D01*
X169360315Y-73074000D02*
X153389686Y-73074000D01*
X170084315Y-72350000D02*
X169360315Y-73074000D01*
%TO.N,VDD33A*%
X150051000Y-73261500D02*
X149500000Y-73812500D01*
X150051000Y-72064556D02*
X150051000Y-73261500D01*
X150152000Y-71963556D02*
X150051000Y-72064556D01*
X150152000Y-70962130D02*
X150152000Y-71963556D01*
X148981130Y-70329000D02*
X149518870Y-70329000D01*
X148749000Y-71150000D02*
X148749000Y-70561130D01*
X148278407Y-72669239D02*
X148278407Y-71620593D01*
X148500000Y-72890832D02*
X148278407Y-72669239D01*
X148500000Y-73812500D02*
X148500000Y-72890832D01*
%TO.N,Net-(U2B-EXRES)*%
X149000000Y-73247646D02*
X149000000Y-73812500D01*
X149651000Y-72596646D02*
X149000000Y-73247646D01*
X149651000Y-71898871D02*
X149651000Y-72596646D01*
X149751000Y-71161001D02*
X149751000Y-71798870D01*
X149449999Y-70860000D02*
X149751000Y-71161001D01*
%TO.N,gnd*%
X149250000Y-72078407D02*
X148928407Y-72400000D01*
X149250000Y-71500000D02*
X149250000Y-72078407D01*
%TO.N,VDD33A*%
X148749000Y-70561130D02*
X148981130Y-70329000D01*
X148278407Y-71620593D02*
X148749000Y-71150000D01*
%TO.N,Net-(U2B-EXRES)*%
X149250000Y-70860000D02*
X149449999Y-70860000D01*
%TO.N,Net-(C6-Pad2)*%
X151820000Y-71650760D02*
X151634620Y-71465380D01*
X151820000Y-73000000D02*
X151820000Y-71650760D01*
%TO.N,gnd*%
X150742857Y-72562857D02*
X150699000Y-72562857D01*
X151180000Y-73000000D02*
X150742857Y-72562857D01*
%TO.N,D-UP*%
X154500000Y-71250000D02*
X153500000Y-72250000D01*
X157000000Y-71250000D02*
X154500000Y-71250000D01*
%TO.N,Net-(J6-TD-)*%
X158230761Y-63900000D02*
X158011761Y-63681000D01*
X158988239Y-63681000D02*
X158769239Y-63900000D01*
X178196000Y-64119000D02*
X177327000Y-63250000D01*
X166819000Y-63681000D02*
X158988239Y-63681000D01*
%TO.N,Net-(J6-RD+)*%
X153389686Y-73074000D02*
X152284620Y-71968934D01*
%TO.N,Net-(J6-TD-)*%
X178196000Y-66732502D02*
X178196000Y-64119000D01*
X175675000Y-67910000D02*
X177018502Y-67910000D01*
X156937690Y-64044004D02*
X155012589Y-64044004D01*
X177018502Y-67910000D02*
X178196000Y-66732502D01*
X157300694Y-63681000D02*
X156937690Y-64044004D01*
X158769239Y-63900000D02*
X158230761Y-63900000D01*
X158011761Y-63681000D02*
X157300694Y-63681000D01*
%TO.N,Net-(U2A-VDD18ETHPLL)*%
X155572138Y-68350000D02*
X154593606Y-69328532D01*
%TO.N,VDD33A*%
X149518870Y-70329000D02*
X150152000Y-70962130D01*
%TO.N,Net-(J6-TD-)*%
X155012589Y-64044004D02*
X153682838Y-65373755D01*
%TO.N,Net-(U2A-VDD18ETHPLL)*%
X158750000Y-68350000D02*
X155572138Y-68350000D01*
%TO.N,Net-(J6-TD-)*%
X167250000Y-63250000D02*
X166819000Y-63681000D01*
%TO.N,Net-(U2B-EXRES)*%
X149751000Y-71798870D02*
X149651000Y-71898871D01*
%TO.N,Net-(J6-TD-)*%
X177327000Y-63250000D02*
X167250000Y-63250000D01*
%TO.N,Net-(C7-Pad2)*%
X160500000Y-80250000D02*
X158000000Y-82750000D01*
X183899000Y-80250000D02*
X160500000Y-80250000D01*
X183899000Y-69256315D02*
X183899000Y-80250000D01*
X175648685Y-61006000D02*
X183899000Y-69256315D01*
X165966514Y-61006000D02*
X175648685Y-61006000D01*
X159526399Y-57199999D02*
X162160513Y-57199999D01*
X162160513Y-57199999D02*
X165966514Y-61006000D01*
%TO.N,Net-(J4-CC2)*%
X128000000Y-64320000D02*
X127820000Y-64500000D01*
X128000000Y-63750000D02*
X128000000Y-64320000D01*
X131990001Y-56490001D02*
X131750000Y-56250000D01*
X131990001Y-57409998D02*
X131990001Y-56490001D01*
%TO.N,Net-(C5-Pad2)*%
X137750000Y-73140000D02*
X137860000Y-73250000D01*
%TO.N,Net-(U2A-VDD18USBPLL)*%
X136600000Y-73665075D02*
X136600000Y-72748240D01*
X136195075Y-74070000D02*
X136600000Y-73665075D01*
X135750000Y-74070000D02*
X136195075Y-74070000D01*
%TO.N,Net-(C5-Pad2)*%
X137750000Y-72500000D02*
X137750000Y-73140000D01*
%TO.N,gnd*%
X138405810Y-71070000D02*
X138650000Y-71314190D01*
X138000000Y-71070000D02*
X138405810Y-71070000D01*
X139046729Y-72617463D02*
X138650000Y-72220734D01*
X140050000Y-72617463D02*
X139046729Y-72617463D01*
X138650000Y-72220734D02*
X138650000Y-71314190D01*
%TO.N,Net-(U2A-VDD18USBPLL)*%
X136600000Y-72748240D02*
X136450000Y-72598240D01*
%TO.N,Net-(C5-Pad2)*%
X138000000Y-65250000D02*
X138250000Y-65500000D01*
X138000000Y-62750000D02*
X138000000Y-65250000D01*
%TO.N,VBUSUP*%
X132415380Y-70334620D02*
X136552602Y-66197398D01*
%TO.N,D+DOWN2*%
X135250000Y-75750000D02*
X135750000Y-76250000D01*
X129750000Y-70750000D02*
X129750000Y-76500000D01*
X135100000Y-65400000D02*
X129750000Y-70750000D01*
X136484315Y-65184924D02*
X136269239Y-65400000D01*
X136699999Y-65184924D02*
X136484315Y-65184924D01*
X137200000Y-65684925D02*
X136699999Y-65184924D01*
%TO.N,VBUSUP*%
X131084620Y-70334620D02*
X132415380Y-70334620D01*
%TO.N,D+DOWN2*%
X138684924Y-66550000D02*
X137815075Y-66550000D01*
X144193200Y-59109999D02*
X144193200Y-61056800D01*
X130500000Y-75750000D02*
X135250000Y-75750000D01*
%TO.N,Net-(U2B-PRTCTL2)*%
X129119870Y-70250000D02*
X127500000Y-70250000D01*
X135865685Y-63950000D02*
X135415685Y-64400000D01*
%TO.N,D+DOWN2*%
X140750000Y-64500000D02*
X139984924Y-64500000D01*
%TO.N,Net-(U2B-PRTCTL2)*%
X136030761Y-63950000D02*
X135865685Y-63950000D01*
X137600000Y-65519239D02*
X136030761Y-63950000D01*
X137980761Y-66150000D02*
X137600000Y-65769239D01*
%TO.N,D+DOWN2*%
X139300000Y-65934925D02*
X138684924Y-66550000D01*
%TO.N,Net-(U2B-PRTCTL2)*%
X138900000Y-65769239D02*
X138519239Y-66150000D01*
X138519239Y-66150000D02*
X137980761Y-66150000D01*
%TO.N,D+DOWN2*%
X139300000Y-65184924D02*
X139300000Y-65934925D01*
%TO.N,Net-(U2B-PRTCTL2)*%
X138900000Y-63513197D02*
X138900000Y-65769239D01*
X142693200Y-59109999D02*
X142693200Y-59719997D01*
%TO.N,D+DOWN2*%
X137200000Y-65934924D02*
X137200000Y-65684925D01*
%TO.N,Net-(U2B-PRTCTL2)*%
X142693200Y-59719997D02*
X138900000Y-63513197D01*
%TO.N,D+DOWN2*%
X129750000Y-76500000D02*
X130500000Y-75750000D01*
X136269239Y-65400000D02*
X135100000Y-65400000D01*
%TO.N,Net-(U2B-PRTCTL2)*%
X137600000Y-65769239D02*
X137600000Y-65519239D01*
%TO.N,D+DOWN2*%
X139984924Y-64500000D02*
X139300000Y-65184924D01*
%TO.N,VBUSUP*%
X136552602Y-66197398D02*
X136552602Y-65984984D01*
%TO.N,Net-(U2B-PRTCTL2)*%
X127500000Y-70250000D02*
X127500000Y-80750000D01*
%TO.N,D+DOWN2*%
X137815075Y-66550000D02*
X137200000Y-65934924D01*
%TO.N,Net-(U2B-PRTCTL2)*%
X134969870Y-64400000D02*
X129119870Y-70250000D01*
X135415685Y-64400000D02*
X134969870Y-64400000D01*
%TO.N,Net-(C5-Pad2)*%
X138000000Y-58580000D02*
X138000000Y-62750000D01*
X136619999Y-57199999D02*
X138000000Y-58580000D01*
%TO.N,D+DOWN2*%
X144193200Y-61056800D02*
X140750000Y-64500000D01*
%TO.N,gnd*%
X137250000Y-62000000D02*
X135250000Y-64000000D01*
%TO.N,D+DOWN1*%
X134750000Y-61750000D02*
X135665380Y-62665380D01*
%TO.N,gnd*%
X135250000Y-64000000D02*
X134570000Y-64000000D01*
%TO.N,D+DOWN1*%
X134750000Y-61000000D02*
X134750000Y-61750000D01*
%TO.N,gnd*%
X135240000Y-59990000D02*
X137250000Y-62000000D01*
X135240000Y-59109999D02*
X135240000Y-59990000D01*
X135489999Y-56799997D02*
X135489999Y-57409998D01*
X133440002Y-54750000D02*
X135489999Y-56799997D01*
X132039997Y-54750000D02*
X133440002Y-54750000D01*
X129990000Y-56799997D02*
X132039997Y-54750000D01*
X129990000Y-57409998D02*
X129990000Y-56799997D01*
X129740000Y-57659998D02*
X129740000Y-59109999D01*
X129990000Y-57409998D02*
X129740000Y-57659998D01*
X135489999Y-58086638D02*
X135240000Y-58336637D01*
X135489999Y-57409998D02*
X135489999Y-58086638D01*
X135240000Y-58336637D02*
X135240000Y-59109999D01*
%TO.N,Net-(U2B-PRTCTL3)*%
X134190000Y-60313852D02*
X134190000Y-60400000D01*
X133740000Y-59863852D02*
X134190000Y-60313852D01*
X133740000Y-59109999D02*
X133740000Y-59863852D01*
%TO.N,D-DOWN1*%
X136650000Y-75000000D02*
X136750000Y-75100000D01*
%TO.N,VDD33A*%
X138230761Y-73850000D02*
X137519239Y-74561522D01*
X138834314Y-73850000D02*
X138230761Y-73850000D01*
%TO.N,D+DOWN2*%
X140611226Y-76000000D02*
X139562679Y-77048547D01*
%TO.N,VDD33A*%
X140734925Y-76500000D02*
X141312500Y-76500000D01*
X139717142Y-77813323D02*
X140434925Y-77095540D01*
X138506307Y-78704895D02*
X139302823Y-78704895D01*
%TO.N,D+DOWN1*%
X141312500Y-75000000D02*
X139059586Y-75000000D01*
%TO.N,VDD33A*%
X137519239Y-74561522D02*
X137519239Y-76400000D01*
X139302823Y-78704895D02*
X139717142Y-78290576D01*
%TO.N,D-DOWN2*%
X138878610Y-76400000D02*
X138422378Y-75943768D01*
X139519239Y-76400000D02*
X138878610Y-76400000D01*
%TO.N,D-DOWN1*%
X134250000Y-75000000D02*
X136650000Y-75000000D01*
%TO.N,VDD33A*%
X142000000Y-73812500D02*
X141875000Y-73687500D01*
%TO.N,D-DOWN2*%
X141312500Y-75500000D02*
X140419239Y-75500000D01*
%TO.N,D+DOWN1*%
X139059586Y-75000000D02*
X138509586Y-74450000D01*
%TO.N,D+DOWN2*%
X141312500Y-76000000D02*
X140611226Y-76000000D01*
%TO.N,VDD33A*%
X140434925Y-77095540D02*
X140434925Y-76800000D01*
X137519239Y-76400000D02*
X136980761Y-76400000D01*
%TO.N,D-DOWN2*%
X140419239Y-75500000D02*
X139519239Y-76400000D01*
%TO.N,VDD33A*%
X139717142Y-78290576D02*
X139717142Y-77813323D01*
X140434925Y-76800000D02*
X140734925Y-76500000D01*
X141875000Y-73687500D02*
X138996814Y-73687500D01*
X137250000Y-79961202D02*
X138506307Y-78704895D01*
%TO.N,D-DOWN1*%
X139859311Y-74500000D02*
X139709311Y-74350000D01*
%TO.N,VDD33A*%
X138996814Y-73687500D02*
X138834314Y-73850000D01*
%TO.N,D-DOWN1*%
X141312500Y-74500000D02*
X139859311Y-74500000D01*
%TO.N,VDD33A*%
X136992483Y-76507538D02*
X136480320Y-77019701D01*
%TO.N,D-DOWN1*%
X132240000Y-63740000D02*
X133000000Y-64500000D01*
%TO.N,gnd*%
X134570000Y-64199999D02*
X134570000Y-64000000D01*
X133034314Y-65150000D02*
X133619999Y-65150000D01*
X132184314Y-66000000D02*
X133034314Y-65150000D01*
X128480001Y-66000000D02*
X132184314Y-66000000D01*
X127180000Y-64699999D02*
X128480001Y-66000000D01*
X127180000Y-64500000D02*
X127180000Y-64699999D01*
%TO.N,Net-(J4-CC1)*%
X133400000Y-63699999D02*
X133700001Y-64000000D01*
X133400000Y-60946007D02*
X133400000Y-63699999D01*
X133540000Y-60806007D02*
X133400000Y-60946007D01*
X133700001Y-64000000D02*
X133930000Y-64000000D01*
X133540000Y-60267529D02*
X133540000Y-60806007D01*
X133239998Y-59967527D02*
X133540000Y-60267529D01*
X133239998Y-59109999D02*
X133239998Y-59967527D01*
%TO.N,gnd*%
X133619999Y-65150000D02*
X134570000Y-64199999D01*
%TO.N,VDD33A*%
X136757538Y-76507538D02*
X136992483Y-76507538D01*
%TO.N,D+DOWN1*%
X132740000Y-60386768D02*
X132890000Y-60536768D01*
X132740000Y-59109999D02*
X132740000Y-60386768D01*
%TO.N,D-DOWN1*%
X132240000Y-59109999D02*
X132240000Y-63740000D01*
%TO.N,D+DOWN1*%
X132490000Y-55760000D02*
X132750000Y-55500000D01*
X132490000Y-57409998D02*
X132490000Y-55760000D01*
%TO.N,D-DOWN1*%
X132989999Y-58019999D02*
X132989999Y-57409998D01*
X132943400Y-58066598D02*
X132989999Y-58019999D01*
X132240000Y-59109999D02*
X132240000Y-58066598D01*
X132240000Y-58066598D02*
X132943400Y-58066598D01*
%TO.N,Net-(U2B-PRTCTL3)*%
X131250000Y-62750000D02*
X130750000Y-62750000D01*
X131250000Y-60750000D02*
X131250000Y-62750000D01*
X131240000Y-59109999D02*
X131240000Y-60740000D01*
X131489999Y-58019999D02*
X131489999Y-57409998D01*
X131240000Y-59109999D02*
X131240000Y-58269998D01*
X131240000Y-58269998D02*
X131489999Y-58019999D01*
X133990000Y-58249998D02*
X133990000Y-57409998D01*
X133740000Y-58499998D02*
X133990000Y-58249998D01*
X133740000Y-59109999D02*
X133740000Y-58499998D01*
%TO.N,VDD33A*%
X136574953Y-83284249D02*
X137250000Y-82609202D01*
X136574953Y-83913432D02*
X136574953Y-83284249D01*
X137400000Y-84738479D02*
X136574953Y-83913432D01*
X137400000Y-85019239D02*
X137400000Y-84738479D01*
X137250000Y-85750000D02*
X137250000Y-85169239D01*
X155750000Y-85315685D02*
X155315685Y-85750000D01*
X156400000Y-79019239D02*
X155750000Y-79669239D01*
X156400000Y-76162500D02*
X156400000Y-79019239D01*
X155315685Y-85750000D02*
X137250000Y-85750000D01*
X155750000Y-79669239D02*
X155750000Y-85315685D01*
X138958078Y-80251000D02*
X139542516Y-80251000D01*
X138189768Y-81019310D02*
X138958078Y-80251000D01*
X138189768Y-81133010D02*
X138189768Y-81019310D01*
X137250000Y-82072778D02*
X138189768Y-81133010D01*
%TO.N,Net-(U2B-VBUS_DET)*%
X140859202Y-79500000D02*
X141312500Y-79500000D01*
X139531987Y-80827215D02*
X140859202Y-79500000D01*
%TO.N,gnd*%
X138229539Y-79790462D02*
X138229539Y-80060299D01*
%TO.N,Net-(U2B-VBUS_DET)*%
X138589768Y-81298696D02*
X138589768Y-81184996D01*
%TO.N,VDD33A*%
X158750000Y-73812500D02*
X156400000Y-76162500D01*
%TO.N,Net-(U2B-VBUS_DET)*%
X138500000Y-81388464D02*
X138589768Y-81298696D01*
X138500000Y-83000000D02*
X138500000Y-81388464D01*
%TO.N,gnd*%
X138270001Y-79750000D02*
X138229539Y-79790462D01*
X138500000Y-79750000D02*
X138270001Y-79750000D01*
%TO.N,VDD33A*%
X140793516Y-79000000D02*
X141312500Y-79000000D01*
%TO.N,Net-(U2B-PRTCTL2)*%
X140255957Y-81000000D02*
X140052068Y-81203889D01*
%TO.N,Net-(U2B-VBUS_DET)*%
X137869146Y-83000000D02*
X137224953Y-83644193D01*
X138500000Y-83000000D02*
X137869146Y-83000000D01*
X138947549Y-80827215D02*
X139531987Y-80827215D01*
%TO.N,VDD33A*%
X137250000Y-82609202D02*
X137250000Y-82072778D01*
%TO.N,Net-(U2B-VBUS_DET)*%
X138589768Y-81184996D02*
X138947549Y-80827215D01*
%TO.N,Net-(U2B-PRTCTL2)*%
X141312500Y-81000000D02*
X140255957Y-81000000D01*
%TO.N,VDD33A*%
X139542516Y-80251000D02*
X140793516Y-79000000D01*
X137250000Y-85169239D02*
X137400000Y-85019239D01*
%TO.N,Net-(C10-Pad2)*%
X140859202Y-81500000D02*
X139893822Y-82465380D01*
X141312500Y-81500000D02*
X140859202Y-81500000D01*
%TO.N,Net-(J2-CC2)*%
X142930000Y-65680000D02*
X142040380Y-64790380D01*
X142930000Y-66250000D02*
X142930000Y-65680000D01*
%TO.N,D-DOWN2*%
X143693200Y-59109999D02*
X143693200Y-60637560D01*
%TO.N,Net-(J2-CC1)*%
X145180000Y-60614314D02*
X145180000Y-66250000D01*
X144693198Y-60127512D02*
X145180000Y-60614314D01*
%TO.N,D-DOWN2*%
X143693200Y-60637560D02*
X143530399Y-60800361D01*
%TO.N,Net-(J2-CC1)*%
X144693198Y-59109999D02*
X144693198Y-60127512D01*
%TO.N,Net-(U2B-PRTCTL2)*%
X142893202Y-56750000D02*
X142943199Y-56799997D01*
X142000000Y-56750000D02*
X142893202Y-56750000D01*
X142000000Y-55250000D02*
X142000000Y-56750000D01*
X144750000Y-55250000D02*
X142000000Y-55250000D01*
%TO.N,Net-(J2-CC2)*%
X143443201Y-57409998D02*
X143443201Y-56633890D01*
%TO.N,Net-(U2B-PRTCTL2)*%
X145396601Y-55896601D02*
X144750000Y-55250000D01*
X142943199Y-56799997D02*
X142943199Y-57409998D01*
X145396601Y-57919997D02*
X145396601Y-55896601D01*
%TO.N,Net-(J2-CC2)*%
X143443201Y-56633890D02*
X142709311Y-55900000D01*
%TO.N,Net-(U2B-PRTCTL2)*%
X145193200Y-58123398D02*
X145396601Y-57919997D01*
%TO.N,D-DOWN2*%
X144443199Y-56546804D02*
X143993227Y-56096832D01*
X144443199Y-57409998D02*
X144443199Y-56546804D01*
%TO.N,D+DOWN2*%
X144193200Y-58499999D02*
X144193200Y-59109999D01*
X143943200Y-58249999D02*
X144193200Y-58499999D01*
X143943200Y-57409998D02*
X143943200Y-58249999D01*
%TO.N,Net-(C6-Pad2)*%
X148224400Y-62595600D02*
X148070000Y-62750000D01*
X148224400Y-57351200D02*
X148224400Y-62595600D01*
X148073199Y-57199999D02*
X148224400Y-57351200D01*
%TO.N,Net-(C5-Pad2)*%
X128450000Y-53300000D02*
X128000000Y-53750000D01*
X129250000Y-53300000D02*
X128450000Y-53300000D01*
X136200000Y-53750000D02*
X135750000Y-53300000D01*
X136980000Y-53750000D02*
X136200000Y-53750000D01*
X127750000Y-53750000D02*
X125500000Y-56000000D01*
X128000000Y-53750000D02*
X127750000Y-53750000D01*
X128360001Y-54110001D02*
X128000000Y-53750000D01*
X128360001Y-57199999D02*
X128360001Y-54110001D01*
X136619999Y-57199999D02*
X136619999Y-54110001D01*
X136619999Y-54110001D02*
X136980000Y-53750000D01*
%TO.N,Net-(C6-Pad2)*%
X139453200Y-56839998D02*
X139813201Y-57199999D01*
X139453200Y-53750000D02*
X139453200Y-56839998D01*
X139903200Y-53300000D02*
X139453200Y-53750000D01*
X140250000Y-53300000D02*
X139903200Y-53300000D01*
X147700000Y-53750000D02*
X147250000Y-53300000D01*
X148433200Y-53750000D02*
X147700000Y-53750000D01*
X148073199Y-54110001D02*
X148433200Y-53750000D01*
X148073199Y-57199999D02*
X148073199Y-54110001D01*
%TO.N,Net-(C7-Pad2)*%
X151800001Y-57199999D02*
X152000000Y-57000000D01*
X151266401Y-57199999D02*
X151800001Y-57199999D01*
X159886400Y-53750000D02*
X150906400Y-53750000D01*
X159526399Y-54110001D02*
X159886400Y-53750000D01*
X159526399Y-57199999D02*
X159526399Y-54110001D01*
%TO.N,D-UP*%
X155146400Y-60838589D02*
X154996400Y-60988589D01*
X155146400Y-59109999D02*
X155146400Y-60838589D01*
%TO.N,Net-(J1-CC1)*%
X156146398Y-60080712D02*
X156146398Y-59109999D01*
X156430000Y-60364314D02*
X156146398Y-60080712D01*
X156430000Y-62750000D02*
X156430000Y-60364314D01*
%TO.N,VBUSUP*%
X154146400Y-60396400D02*
X154146400Y-59109999D01*
X154250000Y-60500000D02*
X154146400Y-60396400D01*
X156896400Y-58249998D02*
X156646400Y-58499998D01*
X156646400Y-58499998D02*
X156646400Y-59109999D01*
X156896400Y-57409998D02*
X156896400Y-58249998D01*
X154396399Y-58019999D02*
X154396399Y-57409998D01*
X154146400Y-58269998D02*
X154396399Y-58019999D01*
X154146400Y-59109999D02*
X154146400Y-58269998D01*
%TO.N,D+UP*%
X155646400Y-58603600D02*
X155646400Y-59109999D01*
X155396400Y-58353600D02*
X155646400Y-58603600D01*
X155396400Y-57409998D02*
X155396400Y-58353600D01*
%TO.N,gnd*%
X152646400Y-57659998D02*
X152646400Y-59109999D01*
X152896400Y-57409998D02*
X152646400Y-57659998D01*
X158146400Y-58336637D02*
X158146400Y-59109999D01*
X158396399Y-58086638D02*
X158146400Y-58336637D01*
X158396399Y-57409998D02*
X158396399Y-58086638D01*
X153750000Y-63501000D02*
X153500000Y-63501000D01*
X153851000Y-61040561D02*
X153851000Y-63400000D01*
X153851000Y-63400000D02*
X153750000Y-63501000D01*
X152646400Y-59109999D02*
X152646400Y-59835961D01*
X153500000Y-63501000D02*
X152981001Y-63501000D01*
X152646400Y-59835961D02*
X153851000Y-61040561D01*
X158146400Y-61673600D02*
X158146400Y-59109999D01*
X157070000Y-62750000D02*
X158146400Y-61673600D01*
X152680000Y-63199999D02*
X152680000Y-63000000D01*
X152981001Y-63501000D02*
X152680000Y-63199999D01*
X156478870Y-63501000D02*
X153500000Y-63501000D01*
X157070000Y-62909870D02*
X156478870Y-63501000D01*
X157070000Y-62750000D02*
X157070000Y-62909870D01*
%TO.N,Net-(U2B-PRTCTL2)*%
X142693200Y-58306800D02*
X142693200Y-59109999D01*
X142943199Y-58056801D02*
X142693200Y-58306800D01*
X142943199Y-57409998D02*
X142943199Y-58056801D01*
X145443200Y-57873398D02*
X145443200Y-57409998D01*
X145193200Y-58123398D02*
X145443200Y-57873398D01*
X145193200Y-59109999D02*
X145193200Y-58123398D01*
%TO.N,gnd*%
X146943199Y-54806801D02*
X146943199Y-57409998D01*
X141500000Y-54750000D02*
X147000000Y-54750000D01*
X147000000Y-54750000D02*
X146943199Y-54806801D01*
X141443200Y-54806800D02*
X141500000Y-54750000D01*
X141443200Y-57409998D02*
X141443200Y-54806800D01*
X141193200Y-57659998D02*
X141193200Y-59109999D01*
X141443200Y-57409998D02*
X141193200Y-57659998D01*
X146693200Y-58306800D02*
X146693200Y-59109999D01*
X146943199Y-58056801D02*
X146693200Y-58306800D01*
X146943199Y-57409998D02*
X146943199Y-58056801D01*
X146750000Y-59750000D02*
X146750000Y-60253992D01*
X146693200Y-59693200D02*
X146750000Y-59750000D01*
X146693200Y-59109999D02*
X146693200Y-59693200D01*
X153750000Y-76589999D02*
X153750000Y-76250000D01*
X151975000Y-84500000D02*
X152610000Y-84500000D01*
X143570000Y-66250000D02*
X144071000Y-66751000D01*
X146500000Y-60503992D02*
X146500000Y-61820000D01*
X147430000Y-64640000D02*
X145820000Y-66250000D01*
X153410001Y-76250000D02*
X153750000Y-76250000D01*
X146750000Y-60253992D02*
X146500000Y-60503992D01*
X122500000Y-64500000D02*
X120500000Y-66500000D01*
X154550001Y-77390000D02*
X153750000Y-76589999D01*
X152680000Y-75250000D02*
X152680000Y-75519999D01*
X151335000Y-82750000D02*
X151335000Y-83085000D01*
X154750000Y-82250000D02*
X154250000Y-81750000D01*
X125500000Y-56640000D02*
X125500000Y-57500000D01*
X139300000Y-72617463D02*
X140050000Y-72617463D01*
X152000000Y-83750000D02*
X153360000Y-83750000D01*
X152610000Y-84500000D02*
X153360000Y-83750000D01*
X147430000Y-62750000D02*
X147430000Y-64640000D01*
X154750000Y-82500000D02*
X154750000Y-82250000D01*
X152680000Y-75519999D02*
X153410001Y-76250000D01*
X144071000Y-66751000D02*
X145518999Y-66751000D01*
X138500000Y-73250000D02*
X139417463Y-73250000D01*
X122500000Y-64500000D02*
X127180000Y-64500000D01*
X141180000Y-72250000D02*
X140750000Y-72250000D01*
X120500000Y-62500000D02*
X122500000Y-64500000D01*
X153360000Y-83750000D02*
X153360000Y-83550001D01*
X120500000Y-66500000D02*
X120000000Y-66500000D01*
X125500000Y-57500000D02*
X120500000Y-62500000D01*
X154410001Y-82500000D02*
X154750000Y-82500000D01*
X145820000Y-66449999D02*
X145820000Y-66250000D01*
X139117463Y-72434926D02*
X139300000Y-72617463D01*
X140750000Y-72250000D02*
X140000000Y-71500000D01*
X153360000Y-83550001D02*
X154410001Y-82500000D01*
X151335000Y-83085000D02*
X152000000Y-83750000D01*
X142860000Y-71500000D02*
X140000000Y-71500000D01*
X145518999Y-66751000D02*
X145820000Y-66449999D01*
X154250000Y-81750000D02*
X154250000Y-81070000D01*
X154750000Y-77390000D02*
X154550001Y-77390000D01*
X140000000Y-71500000D02*
X139117463Y-72382537D01*
X139417463Y-73250000D02*
X140050000Y-72617463D01*
X139117463Y-72382537D02*
X139117463Y-72434926D01*
X146500000Y-61820000D02*
X147430000Y-62750000D01*
%TO.N,VBUSUP*%
X146698999Y-83999000D02*
X147000000Y-84300001D01*
X150187500Y-82953298D02*
X150187500Y-82000000D01*
X143000000Y-83140798D02*
X143858202Y-83999000D01*
X147000000Y-84300001D02*
X147000000Y-84500000D01*
X137250000Y-68500000D02*
X137250000Y-68570000D01*
X145000000Y-83999000D02*
X146698999Y-83999000D01*
X148640798Y-84500000D02*
X150187500Y-82953298D01*
X147000000Y-84500000D02*
X148640798Y-84500000D01*
X143000000Y-82687500D02*
X143000000Y-83140798D01*
X147000000Y-82687500D02*
X147000000Y-84500000D01*
X137250000Y-68570000D02*
X137930000Y-69250000D01*
%TO.N,Net-(Y2-GND)*%
X139825000Y-70725000D02*
X139359201Y-70259201D01*
X139359201Y-70259201D02*
X138170799Y-70259201D01*
X141675000Y-70725000D02*
X139825000Y-70725000D01*
X138170799Y-70259201D02*
X138000000Y-70430000D01*
%TO.N,Net-(J6-RCT)*%
X169500000Y-77250000D02*
X169500000Y-76500000D01*
X169500000Y-76500000D02*
X171100000Y-76500000D01*
X154250000Y-75250000D02*
X154500000Y-75000000D01*
X168000000Y-78750000D02*
X169500000Y-77250000D01*
X171865000Y-65370000D02*
X173135000Y-66640000D01*
X173135000Y-66640000D02*
X173135000Y-67910000D01*
X153320000Y-75250000D02*
X154250000Y-75250000D01*
%TO.N,Net-(U2A-VDD18ETHPLL)*%
X155150000Y-74730761D02*
X154769239Y-74350000D01*
X153599000Y-74349000D02*
X150338500Y-74349000D01*
X150338500Y-74349000D02*
X150187500Y-74500000D01*
X153900000Y-74350000D02*
X153750000Y-74500000D01*
X155150000Y-76350000D02*
X155150000Y-74730761D01*
X154750000Y-76750000D02*
X155150000Y-76350000D01*
X153750000Y-74500000D02*
X153599000Y-74349000D01*
X154769239Y-74350000D02*
X153900000Y-74350000D01*
%TO.N,Net-(U2A-VDD18USBPLL)*%
X158750000Y-66150000D02*
X154682720Y-66150000D01*
X143000000Y-72750000D02*
X142750000Y-72500000D01*
X143000000Y-73812500D02*
X143000000Y-72750000D01*
X154682720Y-66150000D02*
X153511361Y-67321359D01*
%TO.N,Net-(C10-Pad2)*%
X154930000Y-80430000D02*
X154250000Y-80430000D01*
X155250000Y-80750000D02*
X154930000Y-80430000D01*
X154250000Y-80430000D02*
X153320000Y-79500000D01*
X154000000Y-84000000D02*
X155250000Y-85250000D01*
X139476416Y-79750000D02*
X140325165Y-78901251D01*
X155250000Y-85250000D02*
X155250000Y-80750000D01*
X140325165Y-78901251D02*
X140325165Y-78582120D01*
X154000000Y-83750000D02*
X154000000Y-84000000D01*
X153320000Y-79500000D02*
X150187500Y-79500000D01*
X139140000Y-79750000D02*
X139476416Y-79750000D01*
%TO.N,Net-(M1-+)*%
X112740000Y-77875000D02*
X112740000Y-85375000D01*
X112740000Y-77875000D02*
X114056000Y-79191000D01*
X114056000Y-79191000D02*
X120424000Y-79191000D01*
X120424000Y-86691000D02*
X114056000Y-86691000D01*
X113750000Y-55857500D02*
X112642500Y-54750000D01*
X120424000Y-79191000D02*
X121740000Y-77875000D01*
X114056000Y-86691000D02*
X112740000Y-85375000D01*
X121740000Y-85375000D02*
X120424000Y-86691000D01*
X112740000Y-77875000D02*
X113750000Y-76865000D01*
X121740000Y-77875000D02*
X121740000Y-85375000D01*
X113750000Y-76865000D02*
X113750000Y-55857500D01*
%TO.N,Net-(U2B-USBRBIAS)*%
X141820000Y-72470000D02*
X142500000Y-73150000D01*
X142500000Y-73150000D02*
X142500000Y-73812500D01*
X141820000Y-72250000D02*
X141820000Y-72470000D01*
%TO.N,Net-(J6-RD-)*%
X168750000Y-69682506D02*
X168750000Y-69750000D01*
X170094215Y-73680000D02*
X170104215Y-73670000D01*
X168750000Y-69750000D02*
X167150000Y-71350000D01*
X168500000Y-73680000D02*
X170094215Y-73680000D01*
X168822494Y-69682506D02*
X168750000Y-69682506D01*
X170595000Y-67910000D02*
X168822494Y-69682506D01*
X167150000Y-71350000D02*
X167000000Y-71350000D01*
%TO.N,Net-(J6-RD+)*%
X174405000Y-68409182D02*
X170464182Y-72350000D01*
X170464182Y-72350000D02*
X170084315Y-72350000D01*
X169734315Y-72000000D02*
X170084315Y-72350000D01*
X166000000Y-72000000D02*
X169734315Y-72000000D01*
X174405000Y-65370000D02*
X174405000Y-68409182D01*
%TO.N,Net-(J6-TD-)*%
X153471238Y-68200000D02*
X152000612Y-68200000D01*
X153890000Y-68618762D02*
X153471238Y-68200000D01*
X152000612Y-68200000D02*
X151554007Y-67753395D01*
X153890000Y-69000000D02*
X153890000Y-68618762D01*
%TO.N,Net-(U2A-XI)*%
X141675000Y-69275000D02*
X143500000Y-71100000D01*
X143500000Y-71100000D02*
X143500000Y-71500000D01*
X143500000Y-71500000D02*
X143500000Y-73812500D01*
%TO.N,Net-(J6-TD+)*%
X179250000Y-72500000D02*
X178250000Y-71500000D01*
X178250000Y-71500000D02*
X176390000Y-71500000D01*
%TO.N,Net-(Y2-VCC)*%
X138595000Y-69275000D02*
X138570000Y-69250000D01*
X139825000Y-69275000D02*
X138595000Y-69275000D01*
%TO.N,VDD33A*%
X166172500Y-73812500D02*
X158750000Y-73812500D01*
X137250000Y-79639088D02*
X137250000Y-79961202D01*
X147000000Y-70969792D02*
X147549000Y-70420792D01*
X147549000Y-70064074D02*
X148484073Y-69129001D01*
X136757538Y-76507538D02*
X136365075Y-76900001D01*
X165360000Y-72000000D02*
X165000000Y-72000000D01*
X166680000Y-74320000D02*
X166555000Y-74195000D01*
X136365075Y-78754163D02*
X137250000Y-79639088D01*
X137250000Y-82609202D02*
X137250000Y-79961202D01*
X158750000Y-73812500D02*
X149500000Y-73812500D01*
X172930000Y-74320000D02*
X168500000Y-74320000D01*
X152299044Y-69000000D02*
X152281361Y-68982317D01*
X136365075Y-76900001D02*
X136365075Y-78754163D01*
X147000000Y-73812500D02*
X147000000Y-70969792D01*
X175750000Y-71500000D02*
X172930000Y-74320000D01*
X146039516Y-69710484D02*
X146084270Y-69710484D01*
X168860000Y-76500000D02*
X166555000Y-74195000D01*
X165000000Y-72000000D02*
X164750000Y-72250000D01*
X145750000Y-70000000D02*
X146039516Y-69710484D01*
X146084270Y-69710484D02*
X146142160Y-69768374D01*
X153250000Y-69000000D02*
X152299044Y-69000000D01*
X168500000Y-74320000D02*
X166680000Y-74320000D01*
X147549000Y-70420792D02*
X147549000Y-70064074D01*
X152134677Y-69129001D02*
X152281361Y-68982317D01*
X166555000Y-74195000D02*
X166172500Y-73812500D01*
X148484073Y-69129001D02*
X152134677Y-69129001D01*
%TD*%
M02*
