M48
; DRILL file {KiCad 9.0.2} date 2025-06-30T16:35:09-0500
; FORMAT={-:-/ absolute / inch / decimal}
; #@! TF.CreationDate,2025-06-30T16:35:09-05:00
; #@! TF.GenerationSoftware,Kicad,Pcbnew,9.0.2
; #@! TF.FileFunction,Plated,1,2,PTH
FMAT,2
INCH
; #@! TA.AperFunction,Plated,PTH,ViaDrill
T1C0.0118
; #@! TA.AperFunction,Plated,PTH,ComponentDrill
T2C0.0157
; #@! TA.AperFunction,Plated,PTH,ComponentDrill
T3C0.0350
; #@! TA.AperFunction,Plated,PTH,ComponentDrill
T4C0.0354
; #@! TA.AperFunction,Plated,PTH,ComponentDrill
T5C0.0402
; #@! TA.AperFunction,Plated,PTH,ComponentDrill
T6C0.0433
; #@! TA.AperFunction,Plated,PTH,ComponentDrill
T7C0.0630
%
G90
G05
T1
X4.7244Y-2.6181
X4.8524Y-2.4803
X4.9705Y-2.3031
X5.0984Y-2.7362
X5.1197Y-3.1709
X5.1575Y-2.2638
X5.1772Y-2.9626
X5.187Y-3.1693
X5.2264Y-2.4803
X5.2543Y-2.5476
X5.315Y-3.0217
X5.3386Y-2.9724
X5.3528Y-2.6988
X5.3642Y-3.2185
X5.3839Y-2.8287
X5.3839Y-3.3366
X5.3915Y-3.0736
X5.404Y-2.6944
X5.4147Y-3.0494
X5.4204Y-2.3843
X5.4237Y-3.2827
X5.4331Y-2.8346
X5.4331Y-3.1791
X5.4429Y-3.3366
X5.4625Y-2.7917
X5.4626Y-2.9528
X5.4724Y-2.5886
X5.4724Y-2.8543
X5.4738Y-3.073
X5.4921Y-2.2835
X5.4961Y-3.219
X5.5217Y-3.1988
X5.5217Y-3.2677
X5.5263Y-3.0374
X5.5709Y-3.3169
X5.5903Y-2.5551
X5.6168Y-2.4943
X5.6201Y-2.8543
X5.6213Y-2.6417
X5.6398Y-2.7165
X5.7087Y-2.7953
X5.736Y-2.7203
X5.7382Y-3.0807
X5.7536Y-2.7468
X5.8071Y-2.5886
X5.8661Y-2.8445
X5.8957Y-2.3819
X5.8973Y-2.4673
X5.9055Y-3.3268
X5.9318Y-2.8461
X5.9646Y-2.8248
X5.9667Y-2.6675
X5.9744Y-3.1693
X5.9953Y-2.7158
X6.0438Y-2.6504
X6.0505Y-2.5738
X6.0531Y-2.9331
X6.0531Y-3.002
X6.0531Y-3.2382
X6.063Y-2.4606
X6.0827Y-2.9528
X6.1001Y-3.111
X6.1077Y-2.6982
X6.1639Y-2.4421
X6.4862Y-2.8445
X6.5748Y-2.8091
X6.6142Y-3.1004
X6.697Y-2.9004
X6.7362Y-3.0118
X7.0571Y-2.8543
T2
X5.0965Y-2.3606
X5.1122Y-2.3331
X5.1437Y-2.3331
X5.1594Y-2.3606
X5.1752Y-2.3331
X5.1909Y-2.3606
X5.2224Y-2.3606
X5.2382Y-2.3331
X5.2539Y-2.3606
X5.2697Y-2.3331
X5.3012Y-2.3331
X5.3169Y-2.3606
X5.5492Y-2.3606
X5.565Y-2.3331
X5.5965Y-2.3331
X5.6122Y-2.3606
X5.628Y-2.3331
X5.6437Y-2.3606
X5.6752Y-2.3606
X5.6909Y-2.3331
X5.7067Y-2.3606
X5.7224Y-2.3331
X5.7539Y-2.3331
X5.7697Y-2.3606
X6.002Y-2.3606
X6.0177Y-2.3331
X6.0492Y-2.3331
X6.065Y-2.3606
X6.0807Y-2.3331
X6.0965Y-2.3606
X6.128Y-2.3606
X6.1437Y-2.3331
X6.1594Y-2.3606
X6.1752Y-2.3331
X6.2067Y-2.3331
X6.2224Y-2.3606
T3
X6.5423Y-2.1909
X6.6423Y-2.1311
X6.9404Y-2.1909
X7.0404Y-2.1311
T4
X4.3048Y-2.1555
X4.3048Y-2.2539
X4.3048Y-2.3524
X4.4347Y-2.1555
X4.4347Y-2.2539
X4.4347Y-2.3524
X6.6163Y-2.6736
X6.6663Y-2.5736
X6.7163Y-2.6736
X6.7663Y-2.5736
X6.8163Y-2.6736
X6.8663Y-2.5736
X6.9163Y-2.6736
X6.9663Y-2.5736
T5
X4.3386Y-3.0659
X4.3386Y-3.3612
X4.4386Y-3.0659
X4.4386Y-3.3612
X4.5386Y-3.0659
X4.5386Y-3.3612
X4.6929Y-3.0659
X4.6929Y-3.3612
X4.7929Y-3.0659
X4.7929Y-3.3612
X4.8929Y-3.0659
X4.8929Y-3.3612
T6
X5.0299Y-2.1028
X5.0441Y-2.337
X5.3693Y-2.337
X5.3835Y-2.1028
X5.4827Y-2.1028
X5.4969Y-2.337
X5.822Y-2.337
X5.8362Y-2.1028
X5.9354Y-2.1028
X5.9496Y-2.337
X6.2748Y-2.337
X6.289Y-2.1028
T7
X6.4852Y-2.4441
X7.0974Y-2.4441
M30
