%TF.GenerationSoftware,KiCad,Pcbnew,9.0.2*%
%TF.CreationDate,2025-06-30T16:35:09-05:00*%
%TF.ProjectId,main,6d61696e-2e6b-4696-9361-645f70636258,rev?*%
%TF.SameCoordinates,Original*%
%TF.FileFunction,Legend,Bot*%
%TF.FilePolarity,Positive*%
%FSLAX46Y46*%
G04 Gerber Fmt 4.6, Leading zero omitted, Abs format (unit mm)*
G04 Created by KiCad (PCBNEW 9.0.2) date 2025-06-30 16:35:09*
%MOMM*%
%LPD*%
G01*
G04 APERTURE LIST*
G04 Aperture macros list*
%AMRoundRect*
0 Rectangle with rounded corners*
0 $1 Rounding radius*
0 $2 $3 $4 $5 $6 $7 $8 $9 X,Y pos of 4 corners*
0 Add a 4 corners polygon primitive as box body*
4,1,4,$2,$3,$4,$5,$6,$7,$8,$9,$2,$3,0*
0 Add four circle primitives for the rounded corners*
1,1,$1+$1,$2,$3*
1,1,$1+$1,$4,$5*
1,1,$1+$1,$6,$7*
1,1,$1+$1,$8,$9*
0 Add four rect primitives between the rounded corners*
20,1,$1+$1,$2,$3,$4,$5,0*
20,1,$1+$1,$4,$5,$6,$7,0*
20,1,$1+$1,$6,$7,$8,$9,0*
20,1,$1+$1,$8,$9,$2,$3,0*%
G04 Aperture macros list end*
%ADD10R,1.730000X2.030000*%
%ADD11O,1.730000X2.030000*%
%ADD12C,0.650000*%
%ADD13C,0.950000*%
%ADD14C,1.400000*%
%ADD15C,3.250000*%
%ADD16C,1.890000*%
%ADD17R,1.900000X1.900000*%
%ADD18C,1.900000*%
%ADD19C,2.600000*%
%ADD20RoundRect,0.250000X-0.450000X0.450000X-0.450000X-0.450000X0.450000X-0.450000X0.450000X0.450000X0*%
G04 APERTURE END LIST*
%LPC*%
D10*
%TO.C,M1*%
X110200000Y-85375000D03*
D11*
X112740000Y-85375000D03*
X115280000Y-85375000D03*
%TD*%
D12*
%TO.C,J1*%
X158850000Y-60610000D03*
D13*
X151650000Y-60610000D03*
D12*
X152450000Y-59960000D03*
X152850000Y-59260000D03*
X153650000Y-59260000D03*
X154050000Y-59960000D03*
X154450000Y-59260000D03*
X154850000Y-59960000D03*
X155650000Y-59960000D03*
X156050000Y-59260000D03*
X156450000Y-59960000D03*
X156850000Y-59260000D03*
X157650000Y-59260000D03*
X158050000Y-59960000D03*
D14*
X159740000Y-53410000D03*
X159380000Y-59360000D03*
X151120000Y-59360000D03*
X150760000Y-53410000D03*
%TD*%
D10*
%TO.C,M2*%
X119200000Y-77875000D03*
D11*
X121740000Y-77875000D03*
X124280000Y-77875000D03*
%TD*%
D15*
%TO.C,J6*%
X178215000Y-59030000D03*
X166785000Y-59030000D03*
D16*
X166175000Y-55650000D03*
X168715000Y-54130000D03*
X176285000Y-55650000D03*
X178825000Y-54130000D03*
D17*
X176945000Y-65370000D03*
D18*
X175675000Y-67910000D03*
X174405000Y-65370000D03*
X173135000Y-67910000D03*
X171865000Y-65370000D03*
X170595000Y-67910000D03*
X169325000Y-65370000D03*
X168055000Y-67910000D03*
D19*
X180275000Y-62080000D03*
X164725000Y-62080000D03*
%TD*%
D12*
%TO.C,J4*%
X135850000Y-60610000D03*
D13*
X128650000Y-60610000D03*
D12*
X129450000Y-59960000D03*
X129850000Y-59260000D03*
X130650000Y-59260000D03*
X131050000Y-59960000D03*
X131450000Y-59260000D03*
X131850000Y-59960000D03*
X132650000Y-59960000D03*
X133050000Y-59260000D03*
X133450000Y-59960000D03*
X133850000Y-59260000D03*
X134650000Y-59260000D03*
X135050000Y-59960000D03*
D14*
X136740000Y-53410000D03*
X136380000Y-59360000D03*
X128120000Y-59360000D03*
X127760000Y-53410000D03*
%TD*%
D10*
%TO.C,M3*%
X119200000Y-85375000D03*
D11*
X121740000Y-85375000D03*
X124280000Y-85375000D03*
%TD*%
D10*
%TO.C,M4*%
X110200000Y-77875000D03*
D11*
X112740000Y-77875000D03*
X115280000Y-77875000D03*
%TD*%
D12*
%TO.C,J3*%
X147350000Y-60610000D03*
D13*
X140150000Y-60610000D03*
D12*
X140950000Y-59960000D03*
X141350000Y-59260000D03*
X142150000Y-59260000D03*
X142550000Y-59960000D03*
X142950000Y-59260000D03*
X143350000Y-59960000D03*
X144150000Y-59960000D03*
X144550000Y-59260000D03*
X144950000Y-59960000D03*
X145350000Y-59260000D03*
X146150000Y-59260000D03*
X146550000Y-59960000D03*
D14*
X148240000Y-53410000D03*
X147880000Y-59360000D03*
X139620000Y-59360000D03*
X139260000Y-53410000D03*
%TD*%
D20*
%TO.C,SW1*%
X112642500Y-54750000D03*
D14*
X112642500Y-57250000D03*
X112642500Y-59750000D03*
X109342500Y-59750000D03*
X109342500Y-57250000D03*
X109342500Y-54750000D03*
%TD*%
%LPD*%
M02*
