M48
; DRILL file {KiCad 9.0.2} date 2025-07-09T15:02:30-0500
; FORMAT={-:-/ absolute / inch / decimal}
; #@! TF.CreationDate,2025-07-09T15:02:30-05:00
; #@! TF.GenerationSoftware,Kicad,Pcbnew,9.0.2
; #@! TF.FileFunction,Plated,1,2,PTH
FMAT,2
INCH
; #@! TA.AperFunction,Plated,PTH,ViaDrill
T1C0.0118
; #@! TA.AperFunction,Plated,PTH,ComponentDrill
T2C0.0217
; #@! TA.AperFunction,Plated,PTH,ComponentDrill
T3C0.0350
; #@! TA.AperFunction,Plated,PTH,ComponentDrill
T4C0.0354
; #@! TA.AperFunction,Plated,PTH,ComponentDrill
T5C0.0402
; #@! TA.AperFunction,Plated,PTH,ComponentDrill
T6C0.0630
%
G90
G05
T1
X4.7244Y-2.6181
X4.9213Y-2.6043
X4.9606Y-2.3228
X5.0787Y-2.4409
X5.1673Y-2.4803
X5.1673Y-2.6378
X5.1969Y-2.9724
X5.2047Y-2.4508
X5.2224Y-2.8882
X5.2264Y-2.5394
X5.2323Y-3.1988
X5.2581Y-2.9969
X5.2611Y-2.626
X5.2638Y-3.0807
X5.2657Y-3.1398
X5.2701Y-2.8407
X5.2717Y-2.4819
X5.2854Y-2.4213
X5.2953Y-2.5689
X5.2953Y-3.1988
X5.303Y-2.4685
X5.315Y-2.7165
X5.3248Y-3.2382
X5.328Y-2.6378
X5.369Y-2.9587
X5.3905Y-2.933
X5.4026Y-3.2931
X5.4065Y-2.8152
X5.4232Y-2.3819
X5.4232Y-2.8445
X5.4361Y-2.2529
X5.4394Y-3.1486
X5.4429Y-2.5197
X5.443Y-2.6387
X5.4452Y-2.9782
X5.4587Y-2.8076
X5.4703Y-2.9981
X5.4724Y-3.0315
X5.4795Y-2.9463
X5.4857Y-3.2008
X5.491Y-3.2799
X5.5138Y-2.859
X5.5217Y-3.1988
X5.5246Y-3.0938
X5.5339Y-3.2532
X5.5512Y-2.4433
X5.5957Y-2.6629
X5.6008Y-3.2933
X5.6102Y-2.4606
X5.6201Y-2.8543
X5.6594Y-3.3071
X5.6791Y-2.6969
X5.7087Y-2.4606
X5.7087Y-2.815
X5.7382Y-3.0807
X5.7471Y-2.7403
X5.8007Y-2.622
X5.8173Y-2.652
X5.8465Y-2.4902
X5.8633Y-2.8504
X5.8661Y-2.4311
X5.933Y-2.8568
X5.9429Y-2.5091
X5.9514Y-2.4565
X5.9667Y-2.6675
X5.9699Y-2.8136
X5.9744Y-3.1693
X5.9953Y-2.7158
X6.0039Y-3.1004
X6.0236Y-3.2579
X6.0257Y-3.2077
X6.0335Y-2.5098
X6.0438Y-2.6504
X6.0505Y-2.5738
X6.0531Y-2.9331
X6.0531Y-3.002
X6.0827Y-2.9528
X6.0864Y-2.7295
X6.1197Y-2.4761
X6.1622Y-2.4378
X6.3091Y-2.4016
X6.4862Y-2.8445
X6.5748Y-2.8091
X6.6142Y-3.1004
X6.697Y-2.9004
X6.7362Y-3.0118
X7.0571Y-2.8543
T3
X6.5423Y-2.1909
X6.6423Y-2.1311
X6.9404Y-2.1909
X7.0404Y-2.1311
T4
X4.3048Y-2.1555
X4.3048Y-2.2539
X4.3048Y-2.3524
X4.4347Y-2.1555
X4.4347Y-2.2539
X4.4347Y-2.3524
X6.6163Y-2.6736
X6.6663Y-2.5736
X6.7163Y-2.6736
X6.7663Y-2.5736
X6.8163Y-2.6736
X6.8663Y-2.5736
X6.9163Y-2.6736
X6.9663Y-2.5736
T5
X4.3386Y-3.0659
X4.3386Y-3.3612
X4.4386Y-3.0659
X4.4386Y-3.3612
X4.5386Y-3.0659
X4.5386Y-3.3612
X4.6929Y-3.0659
X4.6929Y-3.3612
X4.7929Y-3.0659
X4.7929Y-3.3612
X4.8929Y-3.0659
X4.8929Y-3.3612
T6
X6.4852Y-2.4441
X7.0974Y-2.4441
T2
G00X5.0398Y-2.1827
M15
G01X5.0398Y-2.1591
M16
G05
G00X5.0539Y-2.3185
M15
G01X5.0539Y-2.2949
M16
G05
G00X5.3791Y-2.3185
M15
G01X5.3791Y-2.2949
M16
G05
G00X5.3933Y-2.1827
M15
G01X5.3933Y-2.1591
M16
G05
G00X5.4827Y-2.1827
M15
G01X5.4827Y-2.1591
M16
G05
G00X5.4969Y-2.3185
M15
G01X5.4969Y-2.2949
M16
G05
G00X5.822Y-2.3185
M15
G01X5.822Y-2.2949
M16
G05
G00X5.8362Y-2.1827
M15
G01X5.8362Y-2.1591
M16
G05
G00X5.9256Y-2.1827
M15
G01X5.9256Y-2.1591
M16
G05
G00X5.9398Y-2.3185
M15
G01X5.9398Y-2.2949
M16
G05
G00X6.265Y-2.3185
M15
G01X6.265Y-2.2949
M16
G05
G00X6.2791Y-2.1827
M15
G01X6.2791Y-2.1591
M16
G05
M30
