%TF.GenerationSoftware,KiCad,Pcbnew,9.0.2*%
%TF.CreationDate,2025-07-09T15:02:30-05:00*%
%TF.ProjectId,main,6d61696e-2e6b-4696-9361-645f70636258,rev?*%
%TF.SameCoordinates,Original*%
%TF.FileFunction,Soldermask,Top*%
%TF.FilePolarity,Negative*%
%FSLAX46Y46*%
G04 Gerber Fmt 4.6, Leading zero omitted, Abs format (unit mm)*
G04 Created by KiCad (PCBNEW 9.0.2) date 2025-07-09 15:02:30*
%MOMM*%
%LPD*%
G01*
G04 APERTURE LIST*
G04 Aperture macros list*
%AMRoundRect*
0 Rectangle with rounded corners*
0 $1 Rounding radius*
0 $2 $3 $4 $5 $6 $7 $8 $9 X,Y pos of 4 corners*
0 Add a 4 corners polygon primitive as box body*
4,1,4,$2,$3,$4,$5,$6,$7,$8,$9,$2,$3,0*
0 Add four circle primitives for the rounded corners*
1,1,$1+$1,$2,$3*
1,1,$1+$1,$4,$5*
1,1,$1+$1,$6,$7*
1,1,$1+$1,$8,$9*
0 Add four rect primitives between the rounded corners*
20,1,$1+$1,$2,$3,$4,$5,0*
20,1,$1+$1,$4,$5,$6,$7,0*
20,1,$1+$1,$6,$7,$8,$9,0*
20,1,$1+$1,$8,$9,$2,$3,0*%
G04 Aperture macros list end*
%ADD10C,0.010000*%
%ADD11R,3.000000X1.400000*%
%ADD12RoundRect,0.100000X-0.130000X-0.100000X0.130000X-0.100000X0.130000X0.100000X-0.130000X0.100000X0*%
%ADD13RoundRect,0.100000X0.130000X0.100000X-0.130000X0.100000X-0.130000X-0.100000X0.130000X-0.100000X0*%
%ADD14RoundRect,0.100000X-0.100000X0.130000X-0.100000X-0.130000X0.100000X-0.130000X0.100000X0.130000X0*%
%ADD15O,1.054000X1.654000*%
%ADD16R,1.730000X2.030000*%
%ADD17O,1.730000X2.030000*%
%ADD18RoundRect,0.100000X0.100000X-0.130000X0.100000X0.130000X-0.100000X0.130000X-0.100000X-0.130000X0*%
%ADD19C,1.890000*%
%ADD20R,1.900000X1.900000*%
%ADD21C,1.900000*%
%ADD22C,2.600000*%
%ADD23R,1.050000X0.950000*%
%ADD24RoundRect,0.062500X-0.375000X-0.062500X0.375000X-0.062500X0.375000X0.062500X-0.375000X0.062500X0*%
%ADD25RoundRect,0.062500X-0.062500X-0.375000X0.062500X-0.375000X0.062500X0.375000X-0.062500X0.375000X0*%
%ADD26R,7.300000X7.300000*%
%ADD27RoundRect,0.250000X-0.450000X0.450000X-0.450000X-0.450000X0.450000X-0.450000X0.450000X0.450000X0*%
%ADD28C,1.400000*%
G04 APERTURE END LIST*
D10*
%TO.C,J4*%
X129950000Y-60900000D02*
X129550000Y-60900000D01*
X129550000Y-60100000D01*
X129950000Y-60100000D01*
X129950000Y-60900000D01*
G36*
X129950000Y-60900000D02*
G01*
X129550000Y-60900000D01*
X129550000Y-60100000D01*
X129950000Y-60100000D01*
X129950000Y-60900000D01*
G37*
X130200000Y-59200000D02*
X129800000Y-59200000D01*
X129800000Y-58400000D01*
X130200000Y-58400000D01*
X130200000Y-59200000D01*
G36*
X130200000Y-59200000D02*
G01*
X129800000Y-59200000D01*
X129800000Y-58400000D01*
X130200000Y-58400000D01*
X130200000Y-59200000D01*
G37*
X130450000Y-60900000D02*
X130050000Y-60900000D01*
X130050000Y-60100000D01*
X130450000Y-60100000D01*
X130450000Y-60900000D01*
G36*
X130450000Y-60900000D02*
G01*
X130050000Y-60900000D01*
X130050000Y-60100000D01*
X130450000Y-60100000D01*
X130450000Y-60900000D01*
G37*
X130700000Y-59200000D02*
X130300000Y-59200000D01*
X130300000Y-58400000D01*
X130700000Y-58400000D01*
X130700000Y-59200000D01*
G36*
X130700000Y-59200000D02*
G01*
X130300000Y-59200000D01*
X130300000Y-58400000D01*
X130700000Y-58400000D01*
X130700000Y-59200000D01*
G37*
X130950000Y-60900000D02*
X130550000Y-60900000D01*
X130550000Y-60100000D01*
X130950000Y-60100000D01*
X130950000Y-60900000D01*
G36*
X130950000Y-60900000D02*
G01*
X130550000Y-60900000D01*
X130550000Y-60100000D01*
X130950000Y-60100000D01*
X130950000Y-60900000D01*
G37*
X131200000Y-59200000D02*
X130800000Y-59200000D01*
X130800000Y-58400000D01*
X131200000Y-58400000D01*
X131200000Y-59200000D01*
G36*
X131200000Y-59200000D02*
G01*
X130800000Y-59200000D01*
X130800000Y-58400000D01*
X131200000Y-58400000D01*
X131200000Y-59200000D01*
G37*
X131450000Y-60900000D02*
X131050000Y-60900000D01*
X131050000Y-60100000D01*
X131450000Y-60100000D01*
X131450000Y-60900000D01*
G36*
X131450000Y-60900000D02*
G01*
X131050000Y-60900000D01*
X131050000Y-60100000D01*
X131450000Y-60100000D01*
X131450000Y-60900000D01*
G37*
X131700000Y-59200000D02*
X131300000Y-59200000D01*
X131300000Y-58400000D01*
X131700000Y-58400000D01*
X131700000Y-59200000D01*
G36*
X131700000Y-59200000D02*
G01*
X131300000Y-59200000D01*
X131300000Y-58400000D01*
X131700000Y-58400000D01*
X131700000Y-59200000D01*
G37*
X131950000Y-60900000D02*
X131550000Y-60900000D01*
X131550000Y-60100000D01*
X131950000Y-60100000D01*
X131950000Y-60900000D01*
G36*
X131950000Y-60900000D02*
G01*
X131550000Y-60900000D01*
X131550000Y-60100000D01*
X131950000Y-60100000D01*
X131950000Y-60900000D01*
G37*
X132200000Y-59200000D02*
X131800000Y-59200000D01*
X131800000Y-58400000D01*
X132200000Y-58400000D01*
X132200000Y-59200000D01*
G36*
X132200000Y-59200000D02*
G01*
X131800000Y-59200000D01*
X131800000Y-58400000D01*
X132200000Y-58400000D01*
X132200000Y-59200000D01*
G37*
X132450000Y-60900000D02*
X132050000Y-60900000D01*
X132050000Y-60100000D01*
X132450000Y-60100000D01*
X132450000Y-60900000D01*
G36*
X132450000Y-60900000D02*
G01*
X132050000Y-60900000D01*
X132050000Y-60100000D01*
X132450000Y-60100000D01*
X132450000Y-60900000D01*
G37*
X132700000Y-59200000D02*
X132300000Y-59200000D01*
X132300000Y-58400000D01*
X132700000Y-58400000D01*
X132700000Y-59200000D01*
G36*
X132700000Y-59200000D02*
G01*
X132300000Y-59200000D01*
X132300000Y-58400000D01*
X132700000Y-58400000D01*
X132700000Y-59200000D01*
G37*
X132950000Y-60900000D02*
X132550000Y-60900000D01*
X132550000Y-60100000D01*
X132950000Y-60100000D01*
X132950000Y-60900000D01*
G36*
X132950000Y-60900000D02*
G01*
X132550000Y-60900000D01*
X132550000Y-60100000D01*
X132950000Y-60100000D01*
X132950000Y-60900000D01*
G37*
X133200000Y-59200000D02*
X132800000Y-59200000D01*
X132800000Y-58400000D01*
X133200000Y-58400000D01*
X133200000Y-59200000D01*
G36*
X133200000Y-59200000D02*
G01*
X132800000Y-59200000D01*
X132800000Y-58400000D01*
X133200000Y-58400000D01*
X133200000Y-59200000D01*
G37*
X133450000Y-60900000D02*
X133050000Y-60900000D01*
X133050000Y-60100000D01*
X133450000Y-60100000D01*
X133450000Y-60900000D01*
G36*
X133450000Y-60900000D02*
G01*
X133050000Y-60900000D01*
X133050000Y-60100000D01*
X133450000Y-60100000D01*
X133450000Y-60900000D01*
G37*
X133700000Y-59200000D02*
X133300000Y-59200000D01*
X133300000Y-58400000D01*
X133700000Y-58400000D01*
X133700000Y-59200000D01*
G36*
X133700000Y-59200000D02*
G01*
X133300000Y-59200000D01*
X133300000Y-58400000D01*
X133700000Y-58400000D01*
X133700000Y-59200000D01*
G37*
X133950000Y-60900000D02*
X133550000Y-60900000D01*
X133550000Y-60100000D01*
X133950000Y-60100000D01*
X133950000Y-60900000D01*
G36*
X133950000Y-60900000D02*
G01*
X133550000Y-60900000D01*
X133550000Y-60100000D01*
X133950000Y-60100000D01*
X133950000Y-60900000D01*
G37*
X134200000Y-59200000D02*
X133800000Y-59200000D01*
X133800000Y-58400000D01*
X134200000Y-58400000D01*
X134200000Y-59200000D01*
G36*
X134200000Y-59200000D02*
G01*
X133800000Y-59200000D01*
X133800000Y-58400000D01*
X134200000Y-58400000D01*
X134200000Y-59200000D01*
G37*
X134450000Y-60900000D02*
X134050000Y-60900000D01*
X134050000Y-60100000D01*
X134450000Y-60100000D01*
X134450000Y-60900000D01*
G36*
X134450000Y-60900000D02*
G01*
X134050000Y-60900000D01*
X134050000Y-60100000D01*
X134450000Y-60100000D01*
X134450000Y-60900000D01*
G37*
X134700000Y-59200000D02*
X134300000Y-59200000D01*
X134300000Y-58400000D01*
X134700000Y-58400000D01*
X134700000Y-59200000D01*
G36*
X134700000Y-59200000D02*
G01*
X134300000Y-59200000D01*
X134300000Y-58400000D01*
X134700000Y-58400000D01*
X134700000Y-59200000D01*
G37*
X134950000Y-60900000D02*
X134550000Y-60900000D01*
X134550000Y-60100000D01*
X134950000Y-60100000D01*
X134950000Y-60900000D01*
G36*
X134950000Y-60900000D02*
G01*
X134550000Y-60900000D01*
X134550000Y-60100000D01*
X134950000Y-60100000D01*
X134950000Y-60900000D01*
G37*
X135200000Y-59200000D02*
X134800000Y-59200000D01*
X134800000Y-58400000D01*
X135200000Y-58400000D01*
X135200000Y-59200000D01*
G36*
X135200000Y-59200000D02*
G01*
X134800000Y-59200000D01*
X134800000Y-58400000D01*
X135200000Y-58400000D01*
X135200000Y-59200000D01*
G37*
X135450000Y-60900000D02*
X135050000Y-60900000D01*
X135050000Y-60100000D01*
X135450000Y-60100000D01*
X135450000Y-60900000D01*
G36*
X135450000Y-60900000D02*
G01*
X135050000Y-60900000D01*
X135050000Y-60100000D01*
X135450000Y-60100000D01*
X135450000Y-60900000D01*
G37*
X135700000Y-59200000D02*
X135300000Y-59200000D01*
X135300000Y-58400000D01*
X135700000Y-58400000D01*
X135700000Y-59200000D01*
G36*
X135700000Y-59200000D02*
G01*
X135300000Y-59200000D01*
X135300000Y-58400000D01*
X135700000Y-58400000D01*
X135700000Y-59200000D01*
G37*
X129062500Y-59402500D02*
X129085000Y-59403000D01*
X129108000Y-59405000D01*
X129131000Y-59408000D01*
X129153000Y-59412000D01*
X129176000Y-59417000D01*
X129198000Y-59424000D01*
X129219000Y-59432000D01*
X129240000Y-59440000D01*
X129261000Y-59450000D01*
X129281000Y-59461000D01*
X129301000Y-59473000D01*
X129320000Y-59486000D01*
X129338000Y-59500000D01*
X129355000Y-59515000D01*
X129372000Y-59531000D01*
X129388000Y-59547000D01*
X129403000Y-59565000D01*
X129416000Y-59583000D01*
X129429000Y-59602000D01*
X129441000Y-59621000D01*
X129452000Y-59641000D01*
X129462000Y-59662000D01*
X129471000Y-59683000D01*
X129479000Y-59705000D01*
X129485000Y-59727000D01*
X129490000Y-59749000D01*
X129495000Y-59772000D01*
X129498000Y-59794000D01*
X129499000Y-59817000D01*
X129500000Y-59840000D01*
X129499000Y-59863000D01*
X129498000Y-59886000D01*
X129495000Y-59908000D01*
X129490000Y-59931000D01*
X129485000Y-59953000D01*
X129479000Y-59975000D01*
X129471000Y-59997000D01*
X129462000Y-60018000D01*
X129452000Y-60039000D01*
X129441000Y-60059000D01*
X129429000Y-60078000D01*
X129416000Y-60097000D01*
X129403000Y-60115000D01*
X129388000Y-60133000D01*
X129372000Y-60149000D01*
X129355000Y-60165000D01*
X129338000Y-60180000D01*
X129320000Y-60194000D01*
X129301000Y-60207000D01*
X129281000Y-60219000D01*
X129261000Y-60230000D01*
X129240000Y-60240000D01*
X129219000Y-60248000D01*
X129198000Y-60256000D01*
X129176000Y-60263000D01*
X129153000Y-60268000D01*
X129131000Y-60272000D01*
X129108000Y-60275000D01*
X129085000Y-60277000D01*
X129062000Y-60277000D01*
X128737000Y-60277000D01*
X128715000Y-60277000D01*
X128692000Y-60275000D01*
X128669000Y-60272000D01*
X128647000Y-60268000D01*
X128624000Y-60263000D01*
X128602000Y-60256000D01*
X128581000Y-60248000D01*
X128560000Y-60240000D01*
X128539000Y-60230000D01*
X128519000Y-60219000D01*
X128499000Y-60207000D01*
X128480000Y-60194000D01*
X128462000Y-60180000D01*
X128445000Y-60165000D01*
X128428000Y-60149000D01*
X128412000Y-60133000D01*
X128397000Y-60115000D01*
X128384000Y-60097000D01*
X128371000Y-60078000D01*
X128359000Y-60059000D01*
X128348000Y-60039000D01*
X128338000Y-60018000D01*
X128329000Y-59997000D01*
X128321000Y-59975000D01*
X128315000Y-59953000D01*
X128310000Y-59931000D01*
X128305000Y-59908000D01*
X128302000Y-59886000D01*
X128301000Y-59863000D01*
X128300000Y-59840000D01*
X128301000Y-59817000D01*
X128302000Y-59794000D01*
X128305000Y-59772000D01*
X128310000Y-59749000D01*
X128315000Y-59727000D01*
X128321000Y-59705000D01*
X128329000Y-59683000D01*
X128338000Y-59662000D01*
X128348000Y-59641000D01*
X128359000Y-59621000D01*
X128371000Y-59602000D01*
X128384000Y-59583000D01*
X128397000Y-59565000D01*
X128412000Y-59547000D01*
X128428000Y-59531000D01*
X128445000Y-59515000D01*
X128462000Y-59500000D01*
X128480000Y-59486000D01*
X128499000Y-59473000D01*
X128519000Y-59461000D01*
X128539000Y-59450000D01*
X128560000Y-59440000D01*
X128581000Y-59432000D01*
X128602000Y-59424000D01*
X128624000Y-59417000D01*
X128647000Y-59412000D01*
X128669000Y-59408000D01*
X128692000Y-59405000D01*
X128715000Y-59403000D01*
X128737000Y-59402000D01*
X129062000Y-59402000D01*
X129062500Y-59402500D01*
G36*
X129062500Y-59402500D02*
G01*
X129085000Y-59403000D01*
X129108000Y-59405000D01*
X129131000Y-59408000D01*
X129153000Y-59412000D01*
X129176000Y-59417000D01*
X129198000Y-59424000D01*
X129219000Y-59432000D01*
X129240000Y-59440000D01*
X129261000Y-59450000D01*
X129281000Y-59461000D01*
X129301000Y-59473000D01*
X129320000Y-59486000D01*
X129338000Y-59500000D01*
X129355000Y-59515000D01*
X129372000Y-59531000D01*
X129388000Y-59547000D01*
X129403000Y-59565000D01*
X129416000Y-59583000D01*
X129429000Y-59602000D01*
X129441000Y-59621000D01*
X129452000Y-59641000D01*
X129462000Y-59662000D01*
X129471000Y-59683000D01*
X129479000Y-59705000D01*
X129485000Y-59727000D01*
X129490000Y-59749000D01*
X129495000Y-59772000D01*
X129498000Y-59794000D01*
X129499000Y-59817000D01*
X129500000Y-59840000D01*
X129499000Y-59863000D01*
X129498000Y-59886000D01*
X129495000Y-59908000D01*
X129490000Y-59931000D01*
X129485000Y-59953000D01*
X129479000Y-59975000D01*
X129471000Y-59997000D01*
X129462000Y-60018000D01*
X129452000Y-60039000D01*
X129441000Y-60059000D01*
X129429000Y-60078000D01*
X129416000Y-60097000D01*
X129403000Y-60115000D01*
X129388000Y-60133000D01*
X129372000Y-60149000D01*
X129355000Y-60165000D01*
X129338000Y-60180000D01*
X129320000Y-60194000D01*
X129301000Y-60207000D01*
X129281000Y-60219000D01*
X129261000Y-60230000D01*
X129240000Y-60240000D01*
X129219000Y-60248000D01*
X129198000Y-60256000D01*
X129176000Y-60263000D01*
X129153000Y-60268000D01*
X129131000Y-60272000D01*
X129108000Y-60275000D01*
X129085000Y-60277000D01*
X129062000Y-60277000D01*
X128737000Y-60277000D01*
X128715000Y-60277000D01*
X128692000Y-60275000D01*
X128669000Y-60272000D01*
X128647000Y-60268000D01*
X128624000Y-60263000D01*
X128602000Y-60256000D01*
X128581000Y-60248000D01*
X128560000Y-60240000D01*
X128539000Y-60230000D01*
X128519000Y-60219000D01*
X128499000Y-60207000D01*
X128480000Y-60194000D01*
X128462000Y-60180000D01*
X128445000Y-60165000D01*
X128428000Y-60149000D01*
X128412000Y-60133000D01*
X128397000Y-60115000D01*
X128384000Y-60097000D01*
X128371000Y-60078000D01*
X128359000Y-60059000D01*
X128348000Y-60039000D01*
X128338000Y-60018000D01*
X128329000Y-59997000D01*
X128321000Y-59975000D01*
X128315000Y-59953000D01*
X128310000Y-59931000D01*
X128305000Y-59908000D01*
X128302000Y-59886000D01*
X128301000Y-59863000D01*
X128300000Y-59840000D01*
X128301000Y-59817000D01*
X128302000Y-59794000D01*
X128305000Y-59772000D01*
X128310000Y-59749000D01*
X128315000Y-59727000D01*
X128321000Y-59705000D01*
X128329000Y-59683000D01*
X128338000Y-59662000D01*
X128348000Y-59641000D01*
X128359000Y-59621000D01*
X128371000Y-59602000D01*
X128384000Y-59583000D01*
X128397000Y-59565000D01*
X128412000Y-59547000D01*
X128428000Y-59531000D01*
X128445000Y-59515000D01*
X128462000Y-59500000D01*
X128480000Y-59486000D01*
X128499000Y-59473000D01*
X128519000Y-59461000D01*
X128539000Y-59450000D01*
X128560000Y-59440000D01*
X128581000Y-59432000D01*
X128602000Y-59424000D01*
X128624000Y-59417000D01*
X128647000Y-59412000D01*
X128669000Y-59408000D01*
X128692000Y-59405000D01*
X128715000Y-59403000D01*
X128737000Y-59402000D01*
X129062000Y-59402000D01*
X129062500Y-59402500D01*
G37*
%TO.C,J1*%
X152450000Y-60900000D02*
X152050000Y-60900000D01*
X152050000Y-60100000D01*
X152450000Y-60100000D01*
X152450000Y-60900000D01*
G36*
X152450000Y-60900000D02*
G01*
X152050000Y-60900000D01*
X152050000Y-60100000D01*
X152450000Y-60100000D01*
X152450000Y-60900000D01*
G37*
X152700000Y-59200000D02*
X152300000Y-59200000D01*
X152300000Y-58400000D01*
X152700000Y-58400000D01*
X152700000Y-59200000D01*
G36*
X152700000Y-59200000D02*
G01*
X152300000Y-59200000D01*
X152300000Y-58400000D01*
X152700000Y-58400000D01*
X152700000Y-59200000D01*
G37*
X152950000Y-60900000D02*
X152550000Y-60900000D01*
X152550000Y-60100000D01*
X152950000Y-60100000D01*
X152950000Y-60900000D01*
G36*
X152950000Y-60900000D02*
G01*
X152550000Y-60900000D01*
X152550000Y-60100000D01*
X152950000Y-60100000D01*
X152950000Y-60900000D01*
G37*
X153200000Y-59200000D02*
X152800000Y-59200000D01*
X152800000Y-58400000D01*
X153200000Y-58400000D01*
X153200000Y-59200000D01*
G36*
X153200000Y-59200000D02*
G01*
X152800000Y-59200000D01*
X152800000Y-58400000D01*
X153200000Y-58400000D01*
X153200000Y-59200000D01*
G37*
X153450000Y-60900000D02*
X153050000Y-60900000D01*
X153050000Y-60100000D01*
X153450000Y-60100000D01*
X153450000Y-60900000D01*
G36*
X153450000Y-60900000D02*
G01*
X153050000Y-60900000D01*
X153050000Y-60100000D01*
X153450000Y-60100000D01*
X153450000Y-60900000D01*
G37*
X153700000Y-59200000D02*
X153300000Y-59200000D01*
X153300000Y-58400000D01*
X153700000Y-58400000D01*
X153700000Y-59200000D01*
G36*
X153700000Y-59200000D02*
G01*
X153300000Y-59200000D01*
X153300000Y-58400000D01*
X153700000Y-58400000D01*
X153700000Y-59200000D01*
G37*
X153950000Y-60900000D02*
X153550000Y-60900000D01*
X153550000Y-60100000D01*
X153950000Y-60100000D01*
X153950000Y-60900000D01*
G36*
X153950000Y-60900000D02*
G01*
X153550000Y-60900000D01*
X153550000Y-60100000D01*
X153950000Y-60100000D01*
X153950000Y-60900000D01*
G37*
X154200000Y-59200000D02*
X153800000Y-59200000D01*
X153800000Y-58400000D01*
X154200000Y-58400000D01*
X154200000Y-59200000D01*
G36*
X154200000Y-59200000D02*
G01*
X153800000Y-59200000D01*
X153800000Y-58400000D01*
X154200000Y-58400000D01*
X154200000Y-59200000D01*
G37*
X154450000Y-60900000D02*
X154050000Y-60900000D01*
X154050000Y-60100000D01*
X154450000Y-60100000D01*
X154450000Y-60900000D01*
G36*
X154450000Y-60900000D02*
G01*
X154050000Y-60900000D01*
X154050000Y-60100000D01*
X154450000Y-60100000D01*
X154450000Y-60900000D01*
G37*
X154700000Y-59200000D02*
X154300000Y-59200000D01*
X154300000Y-58400000D01*
X154700000Y-58400000D01*
X154700000Y-59200000D01*
G36*
X154700000Y-59200000D02*
G01*
X154300000Y-59200000D01*
X154300000Y-58400000D01*
X154700000Y-58400000D01*
X154700000Y-59200000D01*
G37*
X154950000Y-60900000D02*
X154550000Y-60900000D01*
X154550000Y-60100000D01*
X154950000Y-60100000D01*
X154950000Y-60900000D01*
G36*
X154950000Y-60900000D02*
G01*
X154550000Y-60900000D01*
X154550000Y-60100000D01*
X154950000Y-60100000D01*
X154950000Y-60900000D01*
G37*
X155200000Y-59200000D02*
X154800000Y-59200000D01*
X154800000Y-58400000D01*
X155200000Y-58400000D01*
X155200000Y-59200000D01*
G36*
X155200000Y-59200000D02*
G01*
X154800000Y-59200000D01*
X154800000Y-58400000D01*
X155200000Y-58400000D01*
X155200000Y-59200000D01*
G37*
X155450000Y-60900000D02*
X155050000Y-60900000D01*
X155050000Y-60100000D01*
X155450000Y-60100000D01*
X155450000Y-60900000D01*
G36*
X155450000Y-60900000D02*
G01*
X155050000Y-60900000D01*
X155050000Y-60100000D01*
X155450000Y-60100000D01*
X155450000Y-60900000D01*
G37*
X155700000Y-59200000D02*
X155300000Y-59200000D01*
X155300000Y-58400000D01*
X155700000Y-58400000D01*
X155700000Y-59200000D01*
G36*
X155700000Y-59200000D02*
G01*
X155300000Y-59200000D01*
X155300000Y-58400000D01*
X155700000Y-58400000D01*
X155700000Y-59200000D01*
G37*
X155950000Y-60900000D02*
X155550000Y-60900000D01*
X155550000Y-60100000D01*
X155950000Y-60100000D01*
X155950000Y-60900000D01*
G36*
X155950000Y-60900000D02*
G01*
X155550000Y-60900000D01*
X155550000Y-60100000D01*
X155950000Y-60100000D01*
X155950000Y-60900000D01*
G37*
X156200000Y-59200000D02*
X155800000Y-59200000D01*
X155800000Y-58400000D01*
X156200000Y-58400000D01*
X156200000Y-59200000D01*
G36*
X156200000Y-59200000D02*
G01*
X155800000Y-59200000D01*
X155800000Y-58400000D01*
X156200000Y-58400000D01*
X156200000Y-59200000D01*
G37*
X156450000Y-60900000D02*
X156050000Y-60900000D01*
X156050000Y-60100000D01*
X156450000Y-60100000D01*
X156450000Y-60900000D01*
G36*
X156450000Y-60900000D02*
G01*
X156050000Y-60900000D01*
X156050000Y-60100000D01*
X156450000Y-60100000D01*
X156450000Y-60900000D01*
G37*
X156700000Y-59200000D02*
X156300000Y-59200000D01*
X156300000Y-58400000D01*
X156700000Y-58400000D01*
X156700000Y-59200000D01*
G36*
X156700000Y-59200000D02*
G01*
X156300000Y-59200000D01*
X156300000Y-58400000D01*
X156700000Y-58400000D01*
X156700000Y-59200000D01*
G37*
X156950000Y-60900000D02*
X156550000Y-60900000D01*
X156550000Y-60100000D01*
X156950000Y-60100000D01*
X156950000Y-60900000D01*
G36*
X156950000Y-60900000D02*
G01*
X156550000Y-60900000D01*
X156550000Y-60100000D01*
X156950000Y-60100000D01*
X156950000Y-60900000D01*
G37*
X157200000Y-59200000D02*
X156800000Y-59200000D01*
X156800000Y-58400000D01*
X157200000Y-58400000D01*
X157200000Y-59200000D01*
G36*
X157200000Y-59200000D02*
G01*
X156800000Y-59200000D01*
X156800000Y-58400000D01*
X157200000Y-58400000D01*
X157200000Y-59200000D01*
G37*
X157450000Y-60900000D02*
X157050000Y-60900000D01*
X157050000Y-60100000D01*
X157450000Y-60100000D01*
X157450000Y-60900000D01*
G36*
X157450000Y-60900000D02*
G01*
X157050000Y-60900000D01*
X157050000Y-60100000D01*
X157450000Y-60100000D01*
X157450000Y-60900000D01*
G37*
X157700000Y-59200000D02*
X157300000Y-59200000D01*
X157300000Y-58400000D01*
X157700000Y-58400000D01*
X157700000Y-59200000D01*
G36*
X157700000Y-59200000D02*
G01*
X157300000Y-59200000D01*
X157300000Y-58400000D01*
X157700000Y-58400000D01*
X157700000Y-59200000D01*
G37*
X157950000Y-60900000D02*
X157550000Y-60900000D01*
X157550000Y-60100000D01*
X157950000Y-60100000D01*
X157950000Y-60900000D01*
G36*
X157950000Y-60900000D02*
G01*
X157550000Y-60900000D01*
X157550000Y-60100000D01*
X157950000Y-60100000D01*
X157950000Y-60900000D01*
G37*
X158200000Y-59200000D02*
X157800000Y-59200000D01*
X157800000Y-58400000D01*
X158200000Y-58400000D01*
X158200000Y-59200000D01*
G36*
X158200000Y-59200000D02*
G01*
X157800000Y-59200000D01*
X157800000Y-58400000D01*
X158200000Y-58400000D01*
X158200000Y-59200000D01*
G37*
X151562500Y-59402500D02*
X151585000Y-59403000D01*
X151608000Y-59405000D01*
X151631000Y-59408000D01*
X151653000Y-59412000D01*
X151676000Y-59417000D01*
X151698000Y-59424000D01*
X151719000Y-59432000D01*
X151740000Y-59440000D01*
X151761000Y-59450000D01*
X151781000Y-59461000D01*
X151801000Y-59473000D01*
X151820000Y-59486000D01*
X151838000Y-59500000D01*
X151855000Y-59515000D01*
X151872000Y-59531000D01*
X151888000Y-59547000D01*
X151903000Y-59565000D01*
X151916000Y-59583000D01*
X151929000Y-59602000D01*
X151941000Y-59621000D01*
X151952000Y-59641000D01*
X151962000Y-59662000D01*
X151971000Y-59683000D01*
X151979000Y-59705000D01*
X151985000Y-59727000D01*
X151990000Y-59749000D01*
X151995000Y-59772000D01*
X151998000Y-59794000D01*
X151999000Y-59817000D01*
X152000000Y-59840000D01*
X151999000Y-59863000D01*
X151998000Y-59886000D01*
X151995000Y-59908000D01*
X151990000Y-59931000D01*
X151985000Y-59953000D01*
X151979000Y-59975000D01*
X151971000Y-59997000D01*
X151962000Y-60018000D01*
X151952000Y-60039000D01*
X151941000Y-60059000D01*
X151929000Y-60078000D01*
X151916000Y-60097000D01*
X151903000Y-60115000D01*
X151888000Y-60133000D01*
X151872000Y-60149000D01*
X151855000Y-60165000D01*
X151838000Y-60180000D01*
X151820000Y-60194000D01*
X151801000Y-60207000D01*
X151781000Y-60219000D01*
X151761000Y-60230000D01*
X151740000Y-60240000D01*
X151719000Y-60248000D01*
X151698000Y-60256000D01*
X151676000Y-60263000D01*
X151653000Y-60268000D01*
X151631000Y-60272000D01*
X151608000Y-60275000D01*
X151585000Y-60277000D01*
X151562000Y-60277000D01*
X151237000Y-60277000D01*
X151215000Y-60277000D01*
X151192000Y-60275000D01*
X151169000Y-60272000D01*
X151147000Y-60268000D01*
X151124000Y-60263000D01*
X151102000Y-60256000D01*
X151081000Y-60248000D01*
X151060000Y-60240000D01*
X151039000Y-60230000D01*
X151019000Y-60219000D01*
X150999000Y-60207000D01*
X150980000Y-60194000D01*
X150962000Y-60180000D01*
X150945000Y-60165000D01*
X150928000Y-60149000D01*
X150912000Y-60133000D01*
X150897000Y-60115000D01*
X150884000Y-60097000D01*
X150871000Y-60078000D01*
X150859000Y-60059000D01*
X150848000Y-60039000D01*
X150838000Y-60018000D01*
X150829000Y-59997000D01*
X150821000Y-59975000D01*
X150815000Y-59953000D01*
X150810000Y-59931000D01*
X150805000Y-59908000D01*
X150802000Y-59886000D01*
X150801000Y-59863000D01*
X150800000Y-59840000D01*
X150801000Y-59817000D01*
X150802000Y-59794000D01*
X150805000Y-59772000D01*
X150810000Y-59749000D01*
X150815000Y-59727000D01*
X150821000Y-59705000D01*
X150829000Y-59683000D01*
X150838000Y-59662000D01*
X150848000Y-59641000D01*
X150859000Y-59621000D01*
X150871000Y-59602000D01*
X150884000Y-59583000D01*
X150897000Y-59565000D01*
X150912000Y-59547000D01*
X150928000Y-59531000D01*
X150945000Y-59515000D01*
X150962000Y-59500000D01*
X150980000Y-59486000D01*
X150999000Y-59473000D01*
X151019000Y-59461000D01*
X151039000Y-59450000D01*
X151060000Y-59440000D01*
X151081000Y-59432000D01*
X151102000Y-59424000D01*
X151124000Y-59417000D01*
X151147000Y-59412000D01*
X151169000Y-59408000D01*
X151192000Y-59405000D01*
X151215000Y-59403000D01*
X151237000Y-59402000D01*
X151562000Y-59402000D01*
X151562500Y-59402500D01*
G36*
X151562500Y-59402500D02*
G01*
X151585000Y-59403000D01*
X151608000Y-59405000D01*
X151631000Y-59408000D01*
X151653000Y-59412000D01*
X151676000Y-59417000D01*
X151698000Y-59424000D01*
X151719000Y-59432000D01*
X151740000Y-59440000D01*
X151761000Y-59450000D01*
X151781000Y-59461000D01*
X151801000Y-59473000D01*
X151820000Y-59486000D01*
X151838000Y-59500000D01*
X151855000Y-59515000D01*
X151872000Y-59531000D01*
X151888000Y-59547000D01*
X151903000Y-59565000D01*
X151916000Y-59583000D01*
X151929000Y-59602000D01*
X151941000Y-59621000D01*
X151952000Y-59641000D01*
X151962000Y-59662000D01*
X151971000Y-59683000D01*
X151979000Y-59705000D01*
X151985000Y-59727000D01*
X151990000Y-59749000D01*
X151995000Y-59772000D01*
X151998000Y-59794000D01*
X151999000Y-59817000D01*
X152000000Y-59840000D01*
X151999000Y-59863000D01*
X151998000Y-59886000D01*
X151995000Y-59908000D01*
X151990000Y-59931000D01*
X151985000Y-59953000D01*
X151979000Y-59975000D01*
X151971000Y-59997000D01*
X151962000Y-60018000D01*
X151952000Y-60039000D01*
X151941000Y-60059000D01*
X151929000Y-60078000D01*
X151916000Y-60097000D01*
X151903000Y-60115000D01*
X151888000Y-60133000D01*
X151872000Y-60149000D01*
X151855000Y-60165000D01*
X151838000Y-60180000D01*
X151820000Y-60194000D01*
X151801000Y-60207000D01*
X151781000Y-60219000D01*
X151761000Y-60230000D01*
X151740000Y-60240000D01*
X151719000Y-60248000D01*
X151698000Y-60256000D01*
X151676000Y-60263000D01*
X151653000Y-60268000D01*
X151631000Y-60272000D01*
X151608000Y-60275000D01*
X151585000Y-60277000D01*
X151562000Y-60277000D01*
X151237000Y-60277000D01*
X151215000Y-60277000D01*
X151192000Y-60275000D01*
X151169000Y-60272000D01*
X151147000Y-60268000D01*
X151124000Y-60263000D01*
X151102000Y-60256000D01*
X151081000Y-60248000D01*
X151060000Y-60240000D01*
X151039000Y-60230000D01*
X151019000Y-60219000D01*
X150999000Y-60207000D01*
X150980000Y-60194000D01*
X150962000Y-60180000D01*
X150945000Y-60165000D01*
X150928000Y-60149000D01*
X150912000Y-60133000D01*
X150897000Y-60115000D01*
X150884000Y-60097000D01*
X150871000Y-60078000D01*
X150859000Y-60059000D01*
X150848000Y-60039000D01*
X150838000Y-60018000D01*
X150829000Y-59997000D01*
X150821000Y-59975000D01*
X150815000Y-59953000D01*
X150810000Y-59931000D01*
X150805000Y-59908000D01*
X150802000Y-59886000D01*
X150801000Y-59863000D01*
X150800000Y-59840000D01*
X150801000Y-59817000D01*
X150802000Y-59794000D01*
X150805000Y-59772000D01*
X150810000Y-59749000D01*
X150815000Y-59727000D01*
X150821000Y-59705000D01*
X150829000Y-59683000D01*
X150838000Y-59662000D01*
X150848000Y-59641000D01*
X150859000Y-59621000D01*
X150871000Y-59602000D01*
X150884000Y-59583000D01*
X150897000Y-59565000D01*
X150912000Y-59547000D01*
X150928000Y-59531000D01*
X150945000Y-59515000D01*
X150962000Y-59500000D01*
X150980000Y-59486000D01*
X150999000Y-59473000D01*
X151019000Y-59461000D01*
X151039000Y-59450000D01*
X151060000Y-59440000D01*
X151081000Y-59432000D01*
X151102000Y-59424000D01*
X151124000Y-59417000D01*
X151147000Y-59412000D01*
X151169000Y-59408000D01*
X151192000Y-59405000D01*
X151215000Y-59403000D01*
X151237000Y-59402000D01*
X151562000Y-59402000D01*
X151562500Y-59402500D01*
G37*
%TO.C,J2*%
X141200000Y-60900000D02*
X140800000Y-60900000D01*
X140800000Y-60100000D01*
X141200000Y-60100000D01*
X141200000Y-60900000D01*
G36*
X141200000Y-60900000D02*
G01*
X140800000Y-60900000D01*
X140800000Y-60100000D01*
X141200000Y-60100000D01*
X141200000Y-60900000D01*
G37*
X141450000Y-59200000D02*
X141050000Y-59200000D01*
X141050000Y-58400000D01*
X141450000Y-58400000D01*
X141450000Y-59200000D01*
G36*
X141450000Y-59200000D02*
G01*
X141050000Y-59200000D01*
X141050000Y-58400000D01*
X141450000Y-58400000D01*
X141450000Y-59200000D01*
G37*
X141700000Y-60900000D02*
X141300000Y-60900000D01*
X141300000Y-60100000D01*
X141700000Y-60100000D01*
X141700000Y-60900000D01*
G36*
X141700000Y-60900000D02*
G01*
X141300000Y-60900000D01*
X141300000Y-60100000D01*
X141700000Y-60100000D01*
X141700000Y-60900000D01*
G37*
X141950000Y-59200000D02*
X141550000Y-59200000D01*
X141550000Y-58400000D01*
X141950000Y-58400000D01*
X141950000Y-59200000D01*
G36*
X141950000Y-59200000D02*
G01*
X141550000Y-59200000D01*
X141550000Y-58400000D01*
X141950000Y-58400000D01*
X141950000Y-59200000D01*
G37*
X142200000Y-60900000D02*
X141800000Y-60900000D01*
X141800000Y-60100000D01*
X142200000Y-60100000D01*
X142200000Y-60900000D01*
G36*
X142200000Y-60900000D02*
G01*
X141800000Y-60900000D01*
X141800000Y-60100000D01*
X142200000Y-60100000D01*
X142200000Y-60900000D01*
G37*
X142450000Y-59200000D02*
X142050000Y-59200000D01*
X142050000Y-58400000D01*
X142450000Y-58400000D01*
X142450000Y-59200000D01*
G36*
X142450000Y-59200000D02*
G01*
X142050000Y-59200000D01*
X142050000Y-58400000D01*
X142450000Y-58400000D01*
X142450000Y-59200000D01*
G37*
X142700000Y-60900000D02*
X142300000Y-60900000D01*
X142300000Y-60100000D01*
X142700000Y-60100000D01*
X142700000Y-60900000D01*
G36*
X142700000Y-60900000D02*
G01*
X142300000Y-60900000D01*
X142300000Y-60100000D01*
X142700000Y-60100000D01*
X142700000Y-60900000D01*
G37*
X142950000Y-59200000D02*
X142550000Y-59200000D01*
X142550000Y-58400000D01*
X142950000Y-58400000D01*
X142950000Y-59200000D01*
G36*
X142950000Y-59200000D02*
G01*
X142550000Y-59200000D01*
X142550000Y-58400000D01*
X142950000Y-58400000D01*
X142950000Y-59200000D01*
G37*
X143200000Y-60900000D02*
X142800000Y-60900000D01*
X142800000Y-60100000D01*
X143200000Y-60100000D01*
X143200000Y-60900000D01*
G36*
X143200000Y-60900000D02*
G01*
X142800000Y-60900000D01*
X142800000Y-60100000D01*
X143200000Y-60100000D01*
X143200000Y-60900000D01*
G37*
X143450000Y-59200000D02*
X143050000Y-59200000D01*
X143050000Y-58400000D01*
X143450000Y-58400000D01*
X143450000Y-59200000D01*
G36*
X143450000Y-59200000D02*
G01*
X143050000Y-59200000D01*
X143050000Y-58400000D01*
X143450000Y-58400000D01*
X143450000Y-59200000D01*
G37*
X143700000Y-60900000D02*
X143300000Y-60900000D01*
X143300000Y-60100000D01*
X143700000Y-60100000D01*
X143700000Y-60900000D01*
G36*
X143700000Y-60900000D02*
G01*
X143300000Y-60900000D01*
X143300000Y-60100000D01*
X143700000Y-60100000D01*
X143700000Y-60900000D01*
G37*
X143950000Y-59200000D02*
X143550000Y-59200000D01*
X143550000Y-58400000D01*
X143950000Y-58400000D01*
X143950000Y-59200000D01*
G36*
X143950000Y-59200000D02*
G01*
X143550000Y-59200000D01*
X143550000Y-58400000D01*
X143950000Y-58400000D01*
X143950000Y-59200000D01*
G37*
X144200000Y-60900000D02*
X143800000Y-60900000D01*
X143800000Y-60100000D01*
X144200000Y-60100000D01*
X144200000Y-60900000D01*
G36*
X144200000Y-60900000D02*
G01*
X143800000Y-60900000D01*
X143800000Y-60100000D01*
X144200000Y-60100000D01*
X144200000Y-60900000D01*
G37*
X144450000Y-59200000D02*
X144050000Y-59200000D01*
X144050000Y-58400000D01*
X144450000Y-58400000D01*
X144450000Y-59200000D01*
G36*
X144450000Y-59200000D02*
G01*
X144050000Y-59200000D01*
X144050000Y-58400000D01*
X144450000Y-58400000D01*
X144450000Y-59200000D01*
G37*
X144700000Y-60900000D02*
X144300000Y-60900000D01*
X144300000Y-60100000D01*
X144700000Y-60100000D01*
X144700000Y-60900000D01*
G36*
X144700000Y-60900000D02*
G01*
X144300000Y-60900000D01*
X144300000Y-60100000D01*
X144700000Y-60100000D01*
X144700000Y-60900000D01*
G37*
X144950000Y-59200000D02*
X144550000Y-59200000D01*
X144550000Y-58400000D01*
X144950000Y-58400000D01*
X144950000Y-59200000D01*
G36*
X144950000Y-59200000D02*
G01*
X144550000Y-59200000D01*
X144550000Y-58400000D01*
X144950000Y-58400000D01*
X144950000Y-59200000D01*
G37*
X145200000Y-60900000D02*
X144800000Y-60900000D01*
X144800000Y-60100000D01*
X145200000Y-60100000D01*
X145200000Y-60900000D01*
G36*
X145200000Y-60900000D02*
G01*
X144800000Y-60900000D01*
X144800000Y-60100000D01*
X145200000Y-60100000D01*
X145200000Y-60900000D01*
G37*
X145450000Y-59200000D02*
X145050000Y-59200000D01*
X145050000Y-58400000D01*
X145450000Y-58400000D01*
X145450000Y-59200000D01*
G36*
X145450000Y-59200000D02*
G01*
X145050000Y-59200000D01*
X145050000Y-58400000D01*
X145450000Y-58400000D01*
X145450000Y-59200000D01*
G37*
X145700000Y-60900000D02*
X145300000Y-60900000D01*
X145300000Y-60100000D01*
X145700000Y-60100000D01*
X145700000Y-60900000D01*
G36*
X145700000Y-60900000D02*
G01*
X145300000Y-60900000D01*
X145300000Y-60100000D01*
X145700000Y-60100000D01*
X145700000Y-60900000D01*
G37*
X145950000Y-59200000D02*
X145550000Y-59200000D01*
X145550000Y-58400000D01*
X145950000Y-58400000D01*
X145950000Y-59200000D01*
G36*
X145950000Y-59200000D02*
G01*
X145550000Y-59200000D01*
X145550000Y-58400000D01*
X145950000Y-58400000D01*
X145950000Y-59200000D01*
G37*
X146200000Y-60900000D02*
X145800000Y-60900000D01*
X145800000Y-60100000D01*
X146200000Y-60100000D01*
X146200000Y-60900000D01*
G36*
X146200000Y-60900000D02*
G01*
X145800000Y-60900000D01*
X145800000Y-60100000D01*
X146200000Y-60100000D01*
X146200000Y-60900000D01*
G37*
X146450000Y-59200000D02*
X146050000Y-59200000D01*
X146050000Y-58400000D01*
X146450000Y-58400000D01*
X146450000Y-59200000D01*
G36*
X146450000Y-59200000D02*
G01*
X146050000Y-59200000D01*
X146050000Y-58400000D01*
X146450000Y-58400000D01*
X146450000Y-59200000D01*
G37*
X146700000Y-60900000D02*
X146300000Y-60900000D01*
X146300000Y-60100000D01*
X146700000Y-60100000D01*
X146700000Y-60900000D01*
G36*
X146700000Y-60900000D02*
G01*
X146300000Y-60900000D01*
X146300000Y-60100000D01*
X146700000Y-60100000D01*
X146700000Y-60900000D01*
G37*
X146950000Y-59200000D02*
X146550000Y-59200000D01*
X146550000Y-58400000D01*
X146950000Y-58400000D01*
X146950000Y-59200000D01*
G36*
X146950000Y-59200000D02*
G01*
X146550000Y-59200000D01*
X146550000Y-58400000D01*
X146950000Y-58400000D01*
X146950000Y-59200000D01*
G37*
X140312500Y-59402500D02*
X140335000Y-59403000D01*
X140358000Y-59405000D01*
X140381000Y-59408000D01*
X140403000Y-59412000D01*
X140426000Y-59417000D01*
X140448000Y-59424000D01*
X140469000Y-59432000D01*
X140490000Y-59440000D01*
X140511000Y-59450000D01*
X140531000Y-59461000D01*
X140551000Y-59473000D01*
X140570000Y-59486000D01*
X140588000Y-59500000D01*
X140605000Y-59515000D01*
X140622000Y-59531000D01*
X140638000Y-59547000D01*
X140653000Y-59565000D01*
X140666000Y-59583000D01*
X140679000Y-59602000D01*
X140691000Y-59621000D01*
X140702000Y-59641000D01*
X140712000Y-59662000D01*
X140721000Y-59683000D01*
X140729000Y-59705000D01*
X140735000Y-59727000D01*
X140740000Y-59749000D01*
X140745000Y-59772000D01*
X140748000Y-59794000D01*
X140749000Y-59817000D01*
X140750000Y-59840000D01*
X140749000Y-59863000D01*
X140748000Y-59886000D01*
X140745000Y-59908000D01*
X140740000Y-59931000D01*
X140735000Y-59953000D01*
X140729000Y-59975000D01*
X140721000Y-59997000D01*
X140712000Y-60018000D01*
X140702000Y-60039000D01*
X140691000Y-60059000D01*
X140679000Y-60078000D01*
X140666000Y-60097000D01*
X140653000Y-60115000D01*
X140638000Y-60133000D01*
X140622000Y-60149000D01*
X140605000Y-60165000D01*
X140588000Y-60180000D01*
X140570000Y-60194000D01*
X140551000Y-60207000D01*
X140531000Y-60219000D01*
X140511000Y-60230000D01*
X140490000Y-60240000D01*
X140469000Y-60248000D01*
X140448000Y-60256000D01*
X140426000Y-60263000D01*
X140403000Y-60268000D01*
X140381000Y-60272000D01*
X140358000Y-60275000D01*
X140335000Y-60277000D01*
X140312000Y-60277000D01*
X139987000Y-60277000D01*
X139965000Y-60277000D01*
X139942000Y-60275000D01*
X139919000Y-60272000D01*
X139897000Y-60268000D01*
X139874000Y-60263000D01*
X139852000Y-60256000D01*
X139831000Y-60248000D01*
X139810000Y-60240000D01*
X139789000Y-60230000D01*
X139769000Y-60219000D01*
X139749000Y-60207000D01*
X139730000Y-60194000D01*
X139712000Y-60180000D01*
X139695000Y-60165000D01*
X139678000Y-60149000D01*
X139662000Y-60133000D01*
X139647000Y-60115000D01*
X139634000Y-60097000D01*
X139621000Y-60078000D01*
X139609000Y-60059000D01*
X139598000Y-60039000D01*
X139588000Y-60018000D01*
X139579000Y-59997000D01*
X139571000Y-59975000D01*
X139565000Y-59953000D01*
X139560000Y-59931000D01*
X139555000Y-59908000D01*
X139552000Y-59886000D01*
X139551000Y-59863000D01*
X139550000Y-59840000D01*
X139551000Y-59817000D01*
X139552000Y-59794000D01*
X139555000Y-59772000D01*
X139560000Y-59749000D01*
X139565000Y-59727000D01*
X139571000Y-59705000D01*
X139579000Y-59683000D01*
X139588000Y-59662000D01*
X139598000Y-59641000D01*
X139609000Y-59621000D01*
X139621000Y-59602000D01*
X139634000Y-59583000D01*
X139647000Y-59565000D01*
X139662000Y-59547000D01*
X139678000Y-59531000D01*
X139695000Y-59515000D01*
X139712000Y-59500000D01*
X139730000Y-59486000D01*
X139749000Y-59473000D01*
X139769000Y-59461000D01*
X139789000Y-59450000D01*
X139810000Y-59440000D01*
X139831000Y-59432000D01*
X139852000Y-59424000D01*
X139874000Y-59417000D01*
X139897000Y-59412000D01*
X139919000Y-59408000D01*
X139942000Y-59405000D01*
X139965000Y-59403000D01*
X139987000Y-59402000D01*
X140312000Y-59402000D01*
X140312500Y-59402500D01*
G36*
X140312500Y-59402500D02*
G01*
X140335000Y-59403000D01*
X140358000Y-59405000D01*
X140381000Y-59408000D01*
X140403000Y-59412000D01*
X140426000Y-59417000D01*
X140448000Y-59424000D01*
X140469000Y-59432000D01*
X140490000Y-59440000D01*
X140511000Y-59450000D01*
X140531000Y-59461000D01*
X140551000Y-59473000D01*
X140570000Y-59486000D01*
X140588000Y-59500000D01*
X140605000Y-59515000D01*
X140622000Y-59531000D01*
X140638000Y-59547000D01*
X140653000Y-59565000D01*
X140666000Y-59583000D01*
X140679000Y-59602000D01*
X140691000Y-59621000D01*
X140702000Y-59641000D01*
X140712000Y-59662000D01*
X140721000Y-59683000D01*
X140729000Y-59705000D01*
X140735000Y-59727000D01*
X140740000Y-59749000D01*
X140745000Y-59772000D01*
X140748000Y-59794000D01*
X140749000Y-59817000D01*
X140750000Y-59840000D01*
X140749000Y-59863000D01*
X140748000Y-59886000D01*
X140745000Y-59908000D01*
X140740000Y-59931000D01*
X140735000Y-59953000D01*
X140729000Y-59975000D01*
X140721000Y-59997000D01*
X140712000Y-60018000D01*
X140702000Y-60039000D01*
X140691000Y-60059000D01*
X140679000Y-60078000D01*
X140666000Y-60097000D01*
X140653000Y-60115000D01*
X140638000Y-60133000D01*
X140622000Y-60149000D01*
X140605000Y-60165000D01*
X140588000Y-60180000D01*
X140570000Y-60194000D01*
X140551000Y-60207000D01*
X140531000Y-60219000D01*
X140511000Y-60230000D01*
X140490000Y-60240000D01*
X140469000Y-60248000D01*
X140448000Y-60256000D01*
X140426000Y-60263000D01*
X140403000Y-60268000D01*
X140381000Y-60272000D01*
X140358000Y-60275000D01*
X140335000Y-60277000D01*
X140312000Y-60277000D01*
X139987000Y-60277000D01*
X139965000Y-60277000D01*
X139942000Y-60275000D01*
X139919000Y-60272000D01*
X139897000Y-60268000D01*
X139874000Y-60263000D01*
X139852000Y-60256000D01*
X139831000Y-60248000D01*
X139810000Y-60240000D01*
X139789000Y-60230000D01*
X139769000Y-60219000D01*
X139749000Y-60207000D01*
X139730000Y-60194000D01*
X139712000Y-60180000D01*
X139695000Y-60165000D01*
X139678000Y-60149000D01*
X139662000Y-60133000D01*
X139647000Y-60115000D01*
X139634000Y-60097000D01*
X139621000Y-60078000D01*
X139609000Y-60059000D01*
X139598000Y-60039000D01*
X139588000Y-60018000D01*
X139579000Y-59997000D01*
X139571000Y-59975000D01*
X139565000Y-59953000D01*
X139560000Y-59931000D01*
X139555000Y-59908000D01*
X139552000Y-59886000D01*
X139551000Y-59863000D01*
X139550000Y-59840000D01*
X139551000Y-59817000D01*
X139552000Y-59794000D01*
X139555000Y-59772000D01*
X139560000Y-59749000D01*
X139565000Y-59727000D01*
X139571000Y-59705000D01*
X139579000Y-59683000D01*
X139588000Y-59662000D01*
X139598000Y-59641000D01*
X139609000Y-59621000D01*
X139621000Y-59602000D01*
X139634000Y-59583000D01*
X139647000Y-59565000D01*
X139662000Y-59547000D01*
X139678000Y-59531000D01*
X139695000Y-59515000D01*
X139712000Y-59500000D01*
X139730000Y-59486000D01*
X139749000Y-59473000D01*
X139769000Y-59461000D01*
X139789000Y-59450000D01*
X139810000Y-59440000D01*
X139831000Y-59432000D01*
X139852000Y-59424000D01*
X139874000Y-59417000D01*
X139897000Y-59412000D01*
X139919000Y-59408000D01*
X139942000Y-59405000D01*
X139965000Y-59403000D01*
X139987000Y-59402000D01*
X140312000Y-59402000D01*
X140312500Y-59402500D01*
G37*
%TD*%
D11*
%TO.C,FB1*%
X158750000Y-68350000D03*
X158750000Y-66150000D03*
%TD*%
D12*
%TO.C,C10*%
X138500000Y-79750000D03*
X139140000Y-79750000D03*
%TD*%
%TO.C,R6*%
X152680000Y-63000000D03*
X153320000Y-63000000D03*
%TD*%
D13*
%TO.C,R12*%
X153890000Y-69000000D03*
X153250000Y-69000000D03*
%TD*%
D14*
%TO.C,R15*%
X125500000Y-56000000D03*
X125500000Y-56640000D03*
%TD*%
D13*
%TO.C,R11*%
X166000000Y-72000000D03*
X165360000Y-72000000D03*
%TD*%
D12*
%TO.C,C3*%
X152680000Y-75250000D03*
X153320000Y-75250000D03*
%TD*%
D13*
%TO.C,R13*%
X176390000Y-71500000D03*
X175750000Y-71500000D03*
%TD*%
%TO.C,R17*%
X147000000Y-84500000D03*
X146360000Y-84500000D03*
%TD*%
D12*
%TO.C,R2*%
X127180000Y-64500000D03*
X127820000Y-64500000D03*
%TD*%
D15*
%TO.C,J4*%
X136990000Y-55140000D03*
X128010000Y-55140000D03*
X136630000Y-58590000D03*
X128370000Y-58590000D03*
%TD*%
D12*
%TO.C,R8*%
X142860000Y-71500000D03*
X143500000Y-71500000D03*
%TD*%
D15*
%TO.C,J1*%
X159490000Y-55140000D03*
X150510000Y-55140000D03*
X159130000Y-58590000D03*
X150870000Y-58590000D03*
%TD*%
D16*
%TO.C,M1*%
X110200000Y-85375000D03*
D17*
X112740000Y-85375000D03*
X115280000Y-85375000D03*
%TD*%
D18*
%TO.C,R9*%
X149250000Y-71500000D03*
X149250000Y-70860000D03*
%TD*%
%TO.C,C9*%
X154250000Y-81070000D03*
X154250000Y-80430000D03*
%TD*%
D16*
%TO.C,M2*%
X119200000Y-77875000D03*
D17*
X121740000Y-77875000D03*
X124280000Y-77875000D03*
%TD*%
D13*
%TO.C,R3*%
X134570000Y-64000000D03*
X133930000Y-64000000D03*
%TD*%
D19*
%TO.C,J6*%
X166175000Y-55650000D03*
X168715000Y-54130000D03*
X176285000Y-55650000D03*
X178825000Y-54130000D03*
D20*
X176945000Y-65370000D03*
D21*
X175675000Y-67910000D03*
X174405000Y-65370000D03*
X173135000Y-67910000D03*
X171865000Y-65370000D03*
X170595000Y-67910000D03*
X169325000Y-65370000D03*
X168055000Y-67910000D03*
D22*
X180275000Y-62080000D03*
X164725000Y-62080000D03*
%TD*%
D13*
%TO.C,C1*%
X138570000Y-69250000D03*
X137930000Y-69250000D03*
%TD*%
%TO.C,R16*%
X148070000Y-62750000D03*
X147430000Y-62750000D03*
%TD*%
D12*
%TO.C,R5*%
X141180000Y-72250000D03*
X141820000Y-72250000D03*
%TD*%
D13*
%TO.C,R7*%
X157070000Y-62750000D03*
X156430000Y-62750000D03*
%TD*%
D12*
%TO.C,R19*%
X151335000Y-84500000D03*
X151975000Y-84500000D03*
%TD*%
D14*
%TO.C,C4*%
X154750000Y-76750000D03*
X154750000Y-77390000D03*
%TD*%
D15*
%TO.C,J2*%
X148240000Y-55140000D03*
X139260000Y-55140000D03*
X147880000Y-58590000D03*
X139620000Y-58590000D03*
%TD*%
D13*
%TO.C,R1*%
X143570000Y-66250000D03*
X142930000Y-66250000D03*
%TD*%
D14*
%TO.C,R10*%
X168500000Y-73680000D03*
X168500000Y-74320000D03*
%TD*%
D23*
%TO.C,Y2*%
X139825000Y-70725000D03*
X141675000Y-70725000D03*
X141675000Y-69275000D03*
X139825000Y-69275000D03*
%TD*%
D13*
%TO.C,C5*%
X138500000Y-73250000D03*
X137860000Y-73250000D03*
%TD*%
D12*
%TO.C,C11*%
X153360000Y-83750000D03*
X154000000Y-83750000D03*
%TD*%
D16*
%TO.C,M3*%
X119200000Y-85375000D03*
D17*
X121740000Y-85375000D03*
X124280000Y-85375000D03*
%TD*%
D18*
%TO.C,C8*%
X135750000Y-74070000D03*
X135750000Y-73430000D03*
%TD*%
%TO.C,C2*%
X138000000Y-71070000D03*
X138000000Y-70430000D03*
%TD*%
D12*
%TO.C,C6*%
X151180000Y-73000000D03*
X151820000Y-73000000D03*
%TD*%
D16*
%TO.C,M4*%
X110200000Y-77875000D03*
D17*
X112740000Y-77875000D03*
X115280000Y-77875000D03*
%TD*%
D24*
%TO.C,U2*%
X141312500Y-74500000D03*
X141312500Y-75000000D03*
X141312500Y-75500000D03*
X141312500Y-76000000D03*
X141312500Y-76500000D03*
X141312500Y-77000000D03*
X141312500Y-77500000D03*
X141312500Y-78000000D03*
X141312500Y-78500000D03*
X141312500Y-79000000D03*
X141312500Y-79500000D03*
X141312500Y-80000000D03*
X141312500Y-80500000D03*
X141312500Y-81000000D03*
X141312500Y-81500000D03*
X141312500Y-82000000D03*
D25*
X142000000Y-82687500D03*
X142500000Y-82687500D03*
X143000000Y-82687500D03*
X143500000Y-82687500D03*
X144000000Y-82687500D03*
X144500000Y-82687500D03*
X145000000Y-82687500D03*
X145500000Y-82687500D03*
X146000000Y-82687500D03*
X146500000Y-82687500D03*
X147000000Y-82687500D03*
X147500000Y-82687500D03*
X148000000Y-82687500D03*
X148500000Y-82687500D03*
X149000000Y-82687500D03*
X149500000Y-82687500D03*
D24*
X150187500Y-82000000D03*
X150187500Y-81500000D03*
X150187500Y-81000000D03*
X150187500Y-80500000D03*
X150187500Y-80000000D03*
X150187500Y-79500000D03*
X150187500Y-79000000D03*
X150187500Y-78500000D03*
X150187500Y-78000000D03*
X150187500Y-77500000D03*
X150187500Y-77000000D03*
X150187500Y-76500000D03*
X150187500Y-76000000D03*
X150187500Y-75500000D03*
X150187500Y-75000000D03*
X150187500Y-74500000D03*
D25*
X149500000Y-73812500D03*
X149000000Y-73812500D03*
X148500000Y-73812500D03*
X148000000Y-73812500D03*
X147500000Y-73812500D03*
X147000000Y-73812500D03*
X146500000Y-73812500D03*
X146000000Y-73812500D03*
X145500000Y-73812500D03*
X145000000Y-73812500D03*
X144500000Y-73812500D03*
X144000000Y-73812500D03*
X143500000Y-73812500D03*
X143000000Y-73812500D03*
X142500000Y-73812500D03*
X142000000Y-73812500D03*
D26*
X145750000Y-78250000D03*
%TD*%
D13*
%TO.C,R14*%
X169500000Y-76500000D03*
X168860000Y-76500000D03*
%TD*%
%TO.C,R4*%
X145820000Y-66250000D03*
X145180000Y-66250000D03*
%TD*%
D18*
%TO.C,R18*%
X138500000Y-83640000D03*
X138500000Y-83000000D03*
%TD*%
D27*
%TO.C,SW1*%
X112642500Y-54750000D03*
D28*
X112642500Y-57250000D03*
X112642500Y-59750000D03*
X109342500Y-59750000D03*
X109342500Y-57250000D03*
X109342500Y-54750000D03*
%TD*%
D12*
%TO.C,C7*%
X151335000Y-82750000D03*
X151975000Y-82750000D03*
%TD*%
M02*
