M48
; DRILL file {KiCad 9.0.2} date 2025-07-05T10:38:59-0500
; FORMAT={-:-/ absolute / inch / decimal}
; #@! TF.CreationDate,2025-07-05T10:38:59-05:00
; #@! TF.GenerationSoftware,Kicad,Pcbnew,9.0.2
; #@! TF.FileFunction,Plated,1,2,PTH
FMAT,2
INCH
; #@! TA.AperFunction,Plated,PTH,ViaDrill
T1C0.0118
; #@! TA.AperFunction,Plated,PTH,ComponentDrill
T2C0.0350
; #@! TA.AperFunction,Plated,PTH,ComponentDrill
T3C0.0354
; #@! TA.AperFunction,Plated,PTH,ComponentDrill
T4C0.0402
; #@! TA.AperFunction,Plated,PTH,ComponentDrill
T5C0.0630
%
G90
G05
T1
X4.7244Y-2.6181
X5.0197Y-3.1791
X5.0394Y-2.5098
X5.0886Y-2.0984
X5.1476Y-2.4705
X5.1608Y-2.7691
X5.187Y-2.2146
X5.2264Y-2.185
X5.2319Y-2.3833
X5.2362Y-2.5394
X5.2831Y-2.378
X5.2854Y-2.9528
X5.3051Y-2.4016
X5.3412Y-2.4671
X5.3445Y-2.0984
X5.3445Y-3.002
X5.372Y-2.8582
X5.3761Y-2.5978
X5.3839Y-2.9567
X5.4026Y-3.2931
X5.4035Y-2.6969
X5.4232Y-2.8543
X5.4421Y-3.152
X5.4429Y-2.5787
X5.4497Y-2.9899
X5.4531Y-2.9311
X5.4587Y-2.8076
X5.4819Y-3.2069
X5.4946Y-3.0334
X5.4991Y-3.2753
X5.5004Y-2.9272
X5.5138Y-2.859
X5.5139Y-3.197
X5.5217Y-2.0984
X5.5246Y-3.0938
X5.5489Y-3.2598
X5.5921Y-2.5508
X5.5957Y-2.6629
X5.6008Y-3.2933
X5.6185Y-2.2008
X5.6201Y-2.8543
X5.6508Y-2.3937
X5.669Y-2.2085
X5.689Y-2.7559
X5.7087Y-3.307
X5.7146Y-2.8216
X5.7382Y-3.0807
X5.7536Y-2.7468
X5.7972Y-2.0984
X5.8432Y-2.6405
X5.8633Y-2.8504
X5.8858Y-2.5394
X5.933Y-2.8568
X5.9412Y-2.1161
X5.9667Y-2.6675
X5.9699Y-2.8136
X5.9744Y-3.1693
X5.9843Y-2.2441
X5.9953Y-2.7158
X6.0039Y-3.1004
X6.0307Y-3.2572
X6.0335Y-3.2185
X6.0433Y-2.8445
X6.0438Y-2.6504
X6.0505Y-2.5738
X6.0531Y-2.9331
X6.0531Y-3.002
X6.0728Y-2.1457
X6.0728Y-2.3819
X6.0827Y-2.9528
X6.0864Y-2.7295
X6.1022Y-2.4011
X6.1257Y-2.205
X6.1811Y-2.8051
X6.2205Y-3.2579
X6.4862Y-2.8445
X6.5748Y-2.8091
X6.6142Y-3.1004
X6.697Y-2.9004
X6.7362Y-3.0118
X7.0571Y-2.8543
T2
X6.5423Y-2.1909
X6.6423Y-2.1311
X6.9404Y-2.1909
X7.0404Y-2.1311
T3
X4.3048Y-2.1555
X4.3048Y-2.2539
X4.3048Y-2.3524
X4.4347Y-2.1555
X4.4347Y-2.2539
X4.4347Y-2.3524
X6.6163Y-2.6736
X6.6663Y-2.5736
X6.7163Y-2.6736
X6.7663Y-2.5736
X6.8163Y-2.6736
X6.8663Y-2.5736
X6.9163Y-2.6736
X6.9663Y-2.5736
T4
X4.3386Y-3.0659
X4.3386Y-3.3612
X4.4386Y-3.0659
X4.4386Y-3.3612
X4.5386Y-3.0659
X4.5386Y-3.3612
X4.6929Y-3.0659
X4.6929Y-3.3612
X4.7929Y-3.0659
X4.7929Y-3.3612
X4.8929Y-3.0659
X4.8929Y-3.3612
T5
X6.4852Y-2.4441
X7.0974Y-2.4441
M30
