%TF.GenerationSoftware,KiCad,Pcbnew,9.0.2*%
%TF.CreationDate,2025-06-21T08:17:34-05:00*%
%TF.ProjectId,main,6d61696e-2e6b-4696-9361-645f70636258,rev?*%
%TF.SameCoordinates,Original*%
%TF.FileFunction,Soldermask,Top*%
%TF.FilePolarity,Negative*%
%FSLAX46Y46*%
G04 Gerber Fmt 4.6, Leading zero omitted, Abs format (unit mm)*
G04 Created by KiCad (PCBNEW 9.0.2) date 2025-06-21 08:17:34*
%MOMM*%
%LPD*%
G01*
G04 APERTURE LIST*
G04 Aperture macros list*
%AMRoundRect*
0 Rectangle with rounded corners*
0 $1 Rounding radius*
0 $2 $3 $4 $5 $6 $7 $8 $9 X,Y pos of 4 corners*
0 Add a 4 corners polygon primitive as box body*
4,1,4,$2,$3,$4,$5,$6,$7,$8,$9,$2,$3,0*
0 Add four circle primitives for the rounded corners*
1,1,$1+$1,$2,$3*
1,1,$1+$1,$4,$5*
1,1,$1+$1,$6,$7*
1,1,$1+$1,$8,$9*
0 Add four rect primitives between the rounded corners*
20,1,$1+$1,$2,$3,$4,$5,0*
20,1,$1+$1,$4,$5,$6,$7,0*
20,1,$1+$1,$6,$7,$8,$9,0*
20,1,$1+$1,$8,$9,$2,$3,0*%
G04 Aperture macros list end*
%ADD10RoundRect,0.100000X0.100000X-0.130000X0.100000X0.130000X-0.100000X0.130000X-0.100000X-0.130000X0*%
%ADD11RoundRect,0.100000X0.130000X0.100000X-0.130000X0.100000X-0.130000X-0.100000X0.130000X-0.100000X0*%
%ADD12RoundRect,0.100000X-0.130000X-0.100000X0.130000X-0.100000X0.130000X0.100000X-0.130000X0.100000X0*%
%ADD13C,1.890000*%
%ADD14R,1.900000X1.900000*%
%ADD15C,1.900000*%
%ADD16C,2.600000*%
%ADD17R,1.050000X0.950000*%
%ADD18RoundRect,0.062500X-0.375000X-0.062500X0.375000X-0.062500X0.375000X0.062500X-0.375000X0.062500X0*%
%ADD19RoundRect,0.062500X-0.062500X-0.375000X0.062500X-0.375000X0.062500X0.375000X-0.062500X0.375000X0*%
%ADD20R,7.300000X7.300000*%
%ADD21RoundRect,0.250000X-0.450000X0.450000X-0.450000X-0.450000X0.450000X-0.450000X0.450000X0.450000X0*%
%ADD22C,1.400000*%
%ADD23RoundRect,0.100000X-0.100000X0.130000X-0.100000X-0.130000X0.100000X-0.130000X0.100000X0.130000X0*%
%ADD24R,1.730000X2.030000*%
%ADD25O,1.730000X2.030000*%
%ADD26R,0.300000X0.700000*%
%ADD27C,0.650000*%
%ADD28R,3.000000X1.400000*%
G04 APERTURE END LIST*
D10*
%TO.C,R9*%
X149250000Y-70860000D03*
X149250000Y-71500000D03*
%TD*%
D11*
%TO.C,R16*%
X148070000Y-62750000D03*
X147430000Y-62750000D03*
%TD*%
%TO.C,R7*%
X157070000Y-62750000D03*
X156430000Y-62750000D03*
%TD*%
D12*
%TO.C,R6*%
X152680000Y-63000000D03*
X153320000Y-63000000D03*
%TD*%
%TO.C,R5*%
X141180000Y-72250000D03*
X141820000Y-72250000D03*
%TD*%
D11*
%TO.C,R4*%
X145820000Y-66250000D03*
X145180000Y-66250000D03*
%TD*%
%TO.C,R3*%
X134570000Y-64000000D03*
X133930000Y-64000000D03*
%TD*%
D12*
%TO.C,R2*%
X127180000Y-64500000D03*
X127820000Y-64500000D03*
%TD*%
D11*
%TO.C,R1*%
X143570000Y-66250000D03*
X142930000Y-66250000D03*
%TD*%
D13*
%TO.C,J6*%
X166175000Y-55650000D03*
X168715000Y-54130000D03*
X176285000Y-55650000D03*
X178825000Y-54130000D03*
D14*
X176945000Y-65370000D03*
D15*
X175675000Y-67910000D03*
X174405000Y-65370000D03*
X173135000Y-67910000D03*
X171865000Y-65370000D03*
X170595000Y-67910000D03*
X169325000Y-65370000D03*
X168055000Y-67910000D03*
D16*
X180275000Y-62080000D03*
X164725000Y-62080000D03*
%TD*%
D17*
%TO.C,Y2*%
X139825000Y-70725000D03*
X141675000Y-70725000D03*
X141675000Y-69275000D03*
X139825000Y-69275000D03*
%TD*%
D18*
%TO.C,U2*%
X141312500Y-74500000D03*
X141312500Y-75000000D03*
X141312500Y-75500000D03*
X141312500Y-76000000D03*
X141312500Y-76500000D03*
X141312500Y-77000000D03*
X141312500Y-77500000D03*
X141312500Y-78000000D03*
X141312500Y-78500000D03*
X141312500Y-79000000D03*
X141312500Y-79500000D03*
X141312500Y-80000000D03*
X141312500Y-80500000D03*
X141312500Y-81000000D03*
X141312500Y-81500000D03*
X141312500Y-82000000D03*
D19*
X142000000Y-82687500D03*
X142500000Y-82687500D03*
X143000000Y-82687500D03*
X143500000Y-82687500D03*
X144000000Y-82687500D03*
X144500000Y-82687500D03*
X145000000Y-82687500D03*
X145500000Y-82687500D03*
X146000000Y-82687500D03*
X146500000Y-82687500D03*
X147000000Y-82687500D03*
X147500000Y-82687500D03*
X148000000Y-82687500D03*
X148500000Y-82687500D03*
X149000000Y-82687500D03*
X149500000Y-82687500D03*
D18*
X150187500Y-82000000D03*
X150187500Y-81500000D03*
X150187500Y-81000000D03*
X150187500Y-80500000D03*
X150187500Y-80000000D03*
X150187500Y-79500000D03*
X150187500Y-79000000D03*
X150187500Y-78500000D03*
X150187500Y-78000000D03*
X150187500Y-77500000D03*
X150187500Y-77000000D03*
X150187500Y-76500000D03*
X150187500Y-76000000D03*
X150187500Y-75500000D03*
X150187500Y-75000000D03*
X150187500Y-74500000D03*
D19*
X149500000Y-73812500D03*
X149000000Y-73812500D03*
X148500000Y-73812500D03*
X148000000Y-73812500D03*
X147500000Y-73812500D03*
X147000000Y-73812500D03*
X146500000Y-73812500D03*
X146000000Y-73812500D03*
X145500000Y-73812500D03*
X145000000Y-73812500D03*
X144500000Y-73812500D03*
X144000000Y-73812500D03*
X143500000Y-73812500D03*
X143000000Y-73812500D03*
X142500000Y-73812500D03*
X142000000Y-73812500D03*
D20*
X145750000Y-78250000D03*
%TD*%
D21*
%TO.C,SW1*%
X112642500Y-54750000D03*
D22*
X112642500Y-57250000D03*
X112642500Y-59750000D03*
X109342500Y-59750000D03*
X109342500Y-57250000D03*
X109342500Y-54750000D03*
%TD*%
D10*
%TO.C,R18*%
X138500000Y-83640000D03*
X138500000Y-83000000D03*
%TD*%
D11*
%TO.C,R17*%
X147000000Y-84500000D03*
X146360000Y-84500000D03*
%TD*%
D23*
%TO.C,R15*%
X125500000Y-56000000D03*
X125500000Y-56640000D03*
%TD*%
D11*
%TO.C,R14*%
X169500000Y-76500000D03*
X168860000Y-76500000D03*
%TD*%
%TO.C,R13*%
X176390000Y-71500000D03*
X175750000Y-71500000D03*
%TD*%
%TO.C,R12*%
X153890000Y-69000000D03*
X153250000Y-69000000D03*
%TD*%
%TO.C,R11*%
X166000000Y-72000000D03*
X165360000Y-72000000D03*
%TD*%
D23*
%TO.C,R10*%
X168500000Y-73680000D03*
X168500000Y-74320000D03*
%TD*%
D12*
%TO.C,R8*%
X142860000Y-71500000D03*
X143500000Y-71500000D03*
%TD*%
D24*
%TO.C,M4*%
X110200000Y-77875000D03*
D25*
X112740000Y-77875000D03*
X115280000Y-77875000D03*
%TD*%
D24*
%TO.C,M3*%
X119200000Y-85375000D03*
D25*
X121740000Y-85375000D03*
X124280000Y-85375000D03*
%TD*%
D24*
%TO.C,M2*%
X119200000Y-77875000D03*
D25*
X121740000Y-77875000D03*
X124280000Y-77875000D03*
%TD*%
D24*
%TO.C,M1*%
X110200000Y-85375000D03*
D25*
X112740000Y-85375000D03*
X115280000Y-85375000D03*
%TD*%
D26*
%TO.C,J4*%
X135000000Y-61270000D03*
X134500000Y-61270000D03*
X134000000Y-61270000D03*
X133500000Y-61270000D03*
X133000000Y-61270000D03*
X132500000Y-61270000D03*
X132000000Y-61270000D03*
X131500000Y-61270000D03*
X131000000Y-61270000D03*
X130500000Y-61270000D03*
X130000000Y-61270000D03*
X129500000Y-61270000D03*
D27*
X129450000Y-59960000D03*
X129850000Y-59260000D03*
X130650000Y-59260000D03*
X131050000Y-59960000D03*
X131450000Y-59260000D03*
X131850000Y-59960000D03*
X132650000Y-59960000D03*
X133050000Y-59260000D03*
X133450000Y-59960000D03*
X133850000Y-59260000D03*
X134650000Y-59260000D03*
X135050000Y-59960000D03*
D22*
X136740000Y-53410000D03*
X136380000Y-59360000D03*
X128120000Y-59360000D03*
X127760000Y-53410000D03*
%TD*%
D26*
%TO.C,J3*%
X146500000Y-61270000D03*
X146000000Y-61270000D03*
X145500000Y-61270000D03*
X145000000Y-61270000D03*
X144500000Y-61270000D03*
X144000000Y-61270000D03*
X143500000Y-61270000D03*
X143000000Y-61270000D03*
X142500000Y-61270000D03*
X142000000Y-61270000D03*
X141500000Y-61270000D03*
X141000000Y-61270000D03*
D27*
X140950000Y-59960000D03*
X141350000Y-59260000D03*
X142150000Y-59260000D03*
X142550000Y-59960000D03*
X142950000Y-59260000D03*
X143350000Y-59960000D03*
X144150000Y-59960000D03*
X144550000Y-59260000D03*
X144950000Y-59960000D03*
X145350000Y-59260000D03*
X146150000Y-59260000D03*
X146550000Y-59960000D03*
D22*
X148240000Y-53410000D03*
X147880000Y-59360000D03*
X139620000Y-59360000D03*
X139260000Y-53410000D03*
%TD*%
D26*
%TO.C,J1*%
X158000000Y-61270000D03*
X157500000Y-61270000D03*
X157000000Y-61270000D03*
X156500000Y-61270000D03*
X156000000Y-61270000D03*
X155500000Y-61270000D03*
X155000000Y-61270000D03*
X154500000Y-61270000D03*
X154000000Y-61270000D03*
X153500000Y-61270000D03*
X153000000Y-61270000D03*
X152500000Y-61270000D03*
D27*
X152450000Y-59960000D03*
X152850000Y-59260000D03*
X153650000Y-59260000D03*
X154050000Y-59960000D03*
X154450000Y-59260000D03*
X154850000Y-59960000D03*
X155650000Y-59960000D03*
X156050000Y-59260000D03*
X156450000Y-59960000D03*
X156850000Y-59260000D03*
X157650000Y-59260000D03*
X158050000Y-59960000D03*
D22*
X159740000Y-53410000D03*
X159380000Y-59360000D03*
X151120000Y-59360000D03*
X150760000Y-53410000D03*
%TD*%
D28*
%TO.C,FB1*%
X158750000Y-68350000D03*
X158750000Y-66150000D03*
%TD*%
D12*
%TO.C,C11*%
X153360000Y-83750000D03*
X154000000Y-83750000D03*
%TD*%
%TO.C,C10*%
X138500000Y-79750000D03*
X139140000Y-79750000D03*
%TD*%
D10*
%TO.C,C9*%
X154250000Y-81070000D03*
X154250000Y-80430000D03*
%TD*%
%TO.C,C8*%
X135750000Y-74070000D03*
X135750000Y-73430000D03*
%TD*%
D12*
%TO.C,C6*%
X147430000Y-63750000D03*
X148070000Y-63750000D03*
%TD*%
%TO.C,C5*%
X125360000Y-62500000D03*
X126000000Y-62500000D03*
%TD*%
D23*
%TO.C,C4*%
X154750000Y-76750000D03*
X154750000Y-77390000D03*
%TD*%
D12*
%TO.C,C3*%
X168930000Y-81000000D03*
X169570000Y-81000000D03*
%TD*%
D10*
%TO.C,C2*%
X138000000Y-71070000D03*
X138000000Y-70430000D03*
%TD*%
D11*
%TO.C,C1*%
X138570000Y-69250000D03*
X137930000Y-69250000D03*
%TD*%
M02*
